<svg width="48" height="48" viewBox="0 0 48 48" fill="none" xmlns="http://www.w3.org/2000/svg">
<g clip-path="url(#clip0_4941_50952)">
<path d="M23.9994 -0.000564575C12.2329 -0.000564575 2.66563 9.56672 2.66563 21.3332C2.66563 25.3688 3.79032 29.149 5.74382 32.3699L0.389538 37.7242C0.218992 37.895 0.0979783 38.1088 0.0393969 38.3429C-0.0191845 38.577 -0.0131373 38.8226 0.056894 39.0536C0.126925 39.2845 0.258315 39.4921 0.437057 39.6543C0.615798 39.8164 0.835191 39.927 1.07184 39.9743L6.86364 41.1358L8.02512 46.9276C8.07239 47.1642 8.18299 47.3836 8.34513 47.5623C8.50727 47.7411 8.71488 47.8725 8.94582 47.9425C9.17677 48.0125 9.42239 48.0186 9.6565 47.96C9.8906 47.9014 10.1044 47.7804 10.2752 47.6099L16.5566 41.3285C18.8749 42.1939 21.3824 42.667 23.9994 42.667C26.6164 42.667 29.124 42.1939 31.4423 41.3285L37.7237 47.6099C37.8944 47.7804 38.1083 47.9014 38.3424 47.96C38.5765 48.0186 38.8221 48.0125 39.053 47.9425C39.284 47.8725 39.4916 47.7411 39.6537 47.5623C39.8159 47.3836 39.9265 47.1642 39.9737 46.9276L41.1352 41.1358L46.927 39.9743C47.1637 39.927 47.3831 39.8164 47.5618 39.6543C47.7406 39.4921 47.8719 39.2845 47.942 39.0536C48.012 38.8226 48.0181 38.577 47.9595 38.3429C47.9009 38.1088 47.7799 37.895 47.6093 37.7242L42.255 32.3699C44.2085 29.149 45.3332 25.3688 45.3332 21.3332C45.3332 9.56672 35.7659 -0.000564575 23.9994 -0.000564575ZM23.9994 2.66616C34.3247 2.66616 42.6665 11.0079 42.6665 21.3332C42.6665 31.6586 34.3247 40.0003 23.9994 40.0003C13.6741 40.0003 5.33236 31.6586 5.33236 21.3332C5.33236 11.0079 13.6741 2.66616 23.9994 2.66616ZM7.30115 34.5835C9.11351 36.8627 11.3776 38.7673 13.9628 40.1514L10.1502 43.9639L9.3064 39.7399C9.25486 39.4815 9.12791 39.2441 8.94159 39.0578C8.75526 38.8715 8.51791 38.7445 8.2595 38.693L4.03545 37.8492L7.30115 34.5835ZM40.6977 34.5835L43.9634 37.8492L39.7394 38.693C39.4809 38.7445 39.2436 38.8715 39.0573 39.0578C38.871 39.2441 38.744 39.4815 38.6925 39.7399L37.8487 43.9639L34.0361 40.1514C36.6213 38.7673 38.8854 36.8627 40.6977 34.5835Z" fill="url(#paint0_linear_4941_50952)"/>
<path d="M24 7.99973C23.4846 7.99973 23.1761 8.22115 22.9843 8.37994C22.7926 8.53873 22.6804 8.68639 22.5729 8.83308C22.3578 9.12646 22.1869 9.43424 22.0104 9.78622C21.6573 10.4902 21.2969 11.3562 20.9426 12.229C20.5883 13.1017 20.2426 13.9764 19.9582 14.6353C19.8322 14.9272 19.7282 15.1556 19.6405 15.328C19.4492 15.3584 19.2001 15.3918 18.8801 15.4218C18.1656 15.4886 17.2258 15.5472 16.2863 15.6145C15.3468 15.6817 14.4086 15.7567 13.63 15.8749C13.2407 15.934 12.8973 15.9954 12.5518 16.1093C12.3791 16.1662 12.2048 16.2312 11.9945 16.3645C11.7842 16.4978 11.4767 16.7233 11.3174 17.2135C11.1582 17.7036 11.2777 18.0654 11.3695 18.2968C11.4612 18.5283 11.5653 18.6805 11.6716 18.8281C11.8841 19.1233 12.1258 19.3796 12.406 19.6562C12.9664 20.2095 13.6751 20.8205 14.3956 21.4271C15.1161 22.0338 15.8412 22.6302 16.38 23.1042C16.6206 23.3159 16.8056 23.4934 16.9425 23.6303C16.9121 23.8214 16.8666 24.0639 16.7967 24.3751C16.6395 25.0753 16.4032 25.9869 16.1769 26.9012C15.9505 27.8155 15.7321 28.7284 15.604 29.5054C15.5399 29.8939 15.493 30.2406 15.4946 30.6044C15.4954 30.7863 15.5057 30.9726 15.5675 31.2138C15.6293 31.455 15.7443 31.8171 16.1613 32.1201C16.5782 32.423 16.9597 32.4223 17.2082 32.4065C17.4566 32.3908 17.6339 32.3422 17.8071 32.2867C18.1536 32.1758 18.4731 32.025 18.8228 31.844C19.5222 31.482 20.3201 30.9928 21.1197 30.495C21.9193 29.9972 22.716 29.4911 23.3333 29.1252C23.6076 28.9626 23.8276 28.8434 24 28.7554C24.1724 28.8434 24.3924 28.9626 24.6667 29.1252C25.284 29.4911 26.0806 29.9972 26.8802 30.495C27.6799 30.9928 28.4778 31.482 29.1772 31.844C29.5269 32.025 29.8464 32.1758 30.1928 32.2867C30.3661 32.3422 30.5433 32.3908 30.7918 32.4065C31.0403 32.4222 31.4218 32.423 31.8387 32.1201C32.2556 31.8171 32.3706 31.455 32.4325 31.2138C32.4943 30.9726 32.5046 30.7863 32.5054 30.6044C32.5069 30.2406 32.4601 29.8939 32.396 29.5054C32.2678 28.7284 32.0494 27.8155 31.8231 26.9012C31.5967 25.9869 31.3605 25.0753 31.2033 24.3751C31.1334 24.0639 31.0878 23.8214 31.0574 23.6303C31.1944 23.4933 31.3793 23.3159 31.6199 23.1042C32.1587 22.6302 32.8838 22.0338 33.6044 21.4271C34.3249 20.8205 35.0336 20.2095 35.594 19.6562C35.8742 19.3796 36.1158 19.1233 36.3284 18.8281C36.4346 18.6805 36.5387 18.5283 36.6305 18.2968C36.7222 18.0654 36.8418 17.7036 36.6825 17.2135C36.5233 16.7233 36.2157 16.4978 36.0055 16.3645C35.7952 16.2312 35.6209 16.1662 35.4481 16.1093C35.1027 15.9954 34.7593 15.934 34.37 15.8749C33.5914 15.7567 32.6532 15.6817 31.7137 15.6145C30.7742 15.5472 29.8344 15.4886 29.1199 15.4218C28.7999 15.3918 28.5508 15.3584 28.3594 15.328C28.2718 15.1556 28.1677 14.9272 28.0417 14.6353C27.7574 13.9764 27.4116 13.1017 27.0573 12.229C26.703 11.3562 26.3426 10.4902 25.9896 9.78622C25.8131 9.43424 25.6422 9.12646 25.4271 8.83308C25.3195 8.68639 25.2074 8.53873 25.0156 8.37994C24.8239 8.22115 24.5153 7.99973 24 7.99973ZM24 11.8904C24.1942 12.3316 24.3765 12.7246 24.5833 13.2342C24.9305 14.0894 25.2809 14.9677 25.5938 15.6926C25.7502 16.0551 25.8917 16.3777 26.0417 16.6614C26.1917 16.945 26.1931 17.1564 26.7448 17.5572C27.2966 17.9581 27.4965 17.8928 27.8126 17.9479C28.1287 18.0029 28.4768 18.0413 28.8699 18.0781C29.656 18.1516 30.6055 18.2101 31.5262 18.276C32.0759 18.3154 32.5042 18.3682 32.9846 18.4166C32.6245 18.7382 32.3071 19.0305 31.8856 19.3854C31.1795 19.9799 30.447 20.5826 29.8543 21.1042C29.5579 21.365 29.2964 21.6031 29.073 21.8334C28.8496 22.0637 28.6483 22.1275 28.4376 22.7761C28.2268 23.4247 28.3558 23.5939 28.4011 23.9115C28.4465 24.2292 28.5178 24.5733 28.6042 24.9584C28.7772 25.7288 29.0127 26.6459 29.2345 27.5418C29.3668 28.0764 29.4499 28.5026 29.5522 28.9741C29.1349 28.7309 28.7546 28.5207 28.2865 28.2293C27.503 27.7415 26.7052 27.236 26.0261 26.8335C25.6865 26.6322 25.3818 26.4539 25.0938 26.3126C24.8057 26.1713 24.682 26.0001 24 26.0001C23.318 26.0001 23.1943 26.1713 22.9062 26.3126C22.6181 26.4539 22.3135 26.6322 21.9739 26.8335C21.2947 27.236 20.497 27.7415 19.7134 28.2293C19.2453 28.5208 18.865 28.7309 18.4478 28.9741C18.5501 28.5026 18.6332 28.0764 18.7655 27.5418C18.9873 26.6459 19.2227 25.7288 19.3957 24.9584C19.4822 24.5733 19.5535 24.2292 19.5988 23.9115C19.6442 23.5939 19.7731 23.4247 19.5624 22.7761C19.3516 22.1275 19.1503 22.0637 18.9269 21.8334C18.7035 21.6031 18.4421 21.365 18.1457 21.1042C17.5529 20.5826 16.8205 19.9799 16.1144 19.3854C15.6928 19.0305 15.3755 18.7382 15.0154 18.4166C15.4957 18.3681 15.9241 18.3154 16.4738 18.276C17.3944 18.2101 18.344 18.1516 19.1301 18.0781C19.5231 18.0413 19.8713 18.0029 20.1874 17.9479C20.5035 17.8928 20.7034 17.9581 21.2551 17.5572C21.8069 17.1564 21.8083 16.945 21.9583 16.6614C22.1083 16.3777 22.2498 16.0551 22.4062 15.6926C22.719 14.9677 23.0694 14.0894 23.4166 13.2342C23.6235 12.7246 23.8058 12.3316 24 11.8904Z" fill="url(#paint1_linear_4941_50952)"/>
</g>
<defs>
<linearGradient id="paint0_linear_4941_50952" x1="-0.00109594" y1="24" x2="48" y2="24" gradientUnits="userSpaceOnUse">
<stop stop-color="#FE7465"/>
<stop offset="1" stop-color="#7234F7"/>
</linearGradient>
<linearGradient id="paint1_linear_4941_50952" x1="-0.000553295" y1="24.0001" x2="48.0005" y2="24.0001" gradientUnits="userSpaceOnUse">
<stop stop-color="#FE7465"/>
<stop offset="1" stop-color="#7234F7"/>
</linearGradient>
<clipPath id="clip0_4941_50952">
<rect width="48" height="48" fill="white"/>
</clipPath>
</defs>
</svg>
