<svg width="48" height="48" viewBox="0 0 48 48" fill="none" xmlns="http://www.w3.org/2000/svg">
<path d="M40.5 14.25C41.7405 14.25 42.75 13.2405 42.75 12V3C42.75 1.7595 41.7405 0.75 40.5 0.75H30C28.7595 0.75 27.75 1.7595 27.75 3V4.5C26.0955 4.5 24.75 5.8455 24.75 7.5C24.75 9.1545 26.0955 10.5 27.75 10.5V14.25H33.75V12.75C33.75 11.9227 34.4228 11.25 35.25 11.25C36.0772 11.25 36.75 11.9227 36.75 12.75V14.25H40.5ZM35.25 9.75C33.5955 9.75 32.25 11.0955 32.25 12.75H29.25V9H27.75C26.9228 9 26.25 8.32725 26.25 7.5C26.25 6.67275 26.9228 6 27.75 6H29.25V3C29.25 2.58675 29.586 2.25 30 2.25H40.5C40.914 2.25 41.25 2.58675 41.25 3V12C41.25 12.4132 40.914 12.75 40.5 12.75H38.25C38.25 11.0955 36.9045 9.75 35.25 9.75ZM20.25 12H21.75V5.25H19.7393C11.7502 5.25 5.25 11.7502 5.25 19.7393C5.25 24.1028 7.18725 28.1903 10.5645 30.9533L13.5 33.3555V35.3888C12.6293 35.6992 12 36.5243 12 37.5007C12 38.538 12.7087 39.405 13.665 39.6637C13.5607 39.9225 13.5 40.2038 13.5 40.5C13.5 41.4915 14.1488 42.3255 15.0405 42.6247C15.351 45.2257 17.5673 47.25 20.25 47.25C22.9328 47.25 25.149 45.2257 25.4595 42.6247C26.3512 42.3255 27 41.4915 27 40.5C27 40.2038 26.9392 39.9225 26.835 39.663C27.7912 39.4035 28.5 38.5373 28.5 37.5C28.5 36.5235 27.8708 35.6985 27 35.388V33.3548L29.9355 30.9525C33.3128 28.1903 35.25 24.1028 35.25 19.7393V18.75H30.75C30.75 17.0955 29.4045 15.75 27.75 15.75C26.0955 15.75 24.75 17.0955 24.75 18.75H21.75V15H20.25C19.4227 15 18.75 14.3273 18.75 13.5C18.75 12.6727 19.4227 12 20.25 12ZM11.514 29.7922C8.61825 27.423 6.90375 23.9685 6.7605 20.25H12.75V18.75C12.75 17.9228 13.4227 17.25 14.25 17.25C15.0773 17.25 15.75 17.9228 15.75 18.75V20.25H20.25V23.25C18.5955 23.25 17.25 24.5955 17.25 26.25C17.25 27.9045 18.5955 29.25 20.25 29.25V35.25H15V32.6445L11.514 29.7922ZM20.25 45.75C18.4395 45.75 16.9245 44.4593 16.5758 42.75H23.9242C23.5755 44.4593 22.0605 45.75 20.25 45.75ZM24.75 41.25H15.75C15.336 41.25 15 40.9132 15 40.5C15 40.0868 15.336 39.75 15.75 39.75H24.75C25.164 39.75 25.5 40.0868 25.5 40.5C25.5 40.9132 25.164 41.25 24.75 41.25ZM26.25 38.25H24.75H15.75H14.25C13.836 38.25 13.5 37.9132 13.5 37.5C13.5 37.0868 13.836 36.75 14.25 36.75H26.25C26.664 36.75 27 37.0868 27 37.5C27 37.9132 26.664 38.25 26.25 38.25ZM26.25 20.25V18.75C26.25 17.9228 26.9228 17.25 27.75 17.25C28.5772 17.25 29.25 17.9228 29.25 18.75V20.25H33.7395C33.5963 23.9685 31.881 27.423 28.986 29.7922L25.5 32.6445V35.25H21.75V27.75H20.25C19.4227 27.75 18.75 27.0772 18.75 26.25C18.75 25.4228 19.4227 24.75 20.25 24.75H21.75V20.25H26.25ZM20.25 16.5V18.75H17.25C17.25 17.0955 15.9045 15.75 14.25 15.75C12.5955 15.75 11.25 17.0955 11.25 18.75H6.7875C7.2945 12.048 12.9097 6.75 19.74 6.75H20.25V10.5C18.5955 10.5 17.25 11.8455 17.25 13.5C17.25 15.1545 18.5955 16.5 20.25 16.5Z" fill="url(#paint0_linear_4941_50942)"/>
<defs>
<linearGradient id="paint0_linear_4941_50942" x1="24" y1="47.25" x2="24" y2="0.75" gradientUnits="userSpaceOnUse">
<stop stop-color="#FE7465"/>
<stop offset="1" stop-color="#7234F7"/>
</linearGradient>
</defs>
</svg>
