<svg width="48" height="48" viewBox="0 0 48 48" fill="none" xmlns="http://www.w3.org/2000/svg">
<g clip-path="url(#clip0_4941_50946)">
<path d="M4.53666 21.8458C5.28713 21.8458 6.01313 21.6597 6.657 21.3144L6.657 33.2957C6.01313 32.9504 5.28722 32.7644 4.53666 32.7644C2.061 32.7644 0.0468762 34.7785 0.0468759 37.2542C0.0468757 39.7298 2.06091 41.744 4.53666 41.744C5.28722 41.744 6.01313 41.558 6.657 41.2127L6.657 47.203C6.657 47.6172 6.99281 47.953 7.407 47.953L14.959 47.953C15.2746 47.953 15.5564 47.7555 15.6641 47.4589C15.7718 47.1622 15.6822 46.83 15.4401 46.6276C14.7577 46.0572 14.3663 45.2208 14.3663 44.3327C14.3663 42.6842 15.7075 41.3429 17.3561 41.3429C19.0047 41.3429 20.3459 42.6841 20.3459 44.3327C20.3459 45.2208 19.9546 46.0573 19.2723 46.6276C19.0301 46.83 18.9406 47.1622 19.0482 47.4589C19.1558 47.7555 19.4376 47.953 19.7532 47.953L34.8571 47.953C35.1727 47.953 35.4545 47.7555 35.5622 47.4589C35.6699 47.1623 35.5802 46.83 35.3381 46.6276C34.6557 46.0572 34.2644 45.2208 34.2644 44.3327C34.2644 42.6842 35.6056 41.3429 37.2542 41.3429C38.9028 41.3429 40.2439 42.6841 40.2439 44.3327C40.2439 45.2208 39.8526 46.0572 39.1702 46.6276C38.9281 46.83 38.8386 47.1623 38.9462 47.4589C39.0537 47.7555 39.3356 47.953 39.6512 47.953L47.2031 47.953C47.6174 47.953 47.9531 47.6172 47.9531 47.203L47.9531 7.4071C47.9531 6.99291 47.6174 6.6571 47.2031 6.6571L41.2126 6.6571C41.5579 6.01313 41.7439 5.28732 41.7439 4.53675C41.7439 2.0611 39.7298 0.0469735 37.2541 0.0469732C34.7783 0.046973 32.7643 2.061 32.7643 4.53675C32.7643 5.28732 32.9503 6.01313 33.2956 6.6571L21.3144 6.6571C21.6597 6.01313 21.8457 5.28732 21.8457 4.53675C21.8457 2.0611 19.8317 0.0469717 17.3559 0.0469715C14.8802 0.0469713 12.8662 2.061 12.8662 4.53675C12.8662 5.28732 13.0522 6.01313 13.3974 6.6571L7.40691 6.6571C6.99272 6.6571 6.65691 6.99291 6.65691 7.4071L6.65691 13.3976C6.01303 13.0523 5.28704 12.8662 4.53657 12.8662C2.06091 12.8662 0.0467825 14.8804 0.0467823 17.3561C0.0467821 19.8319 2.06091 21.8458 4.53666 21.8458ZM17.356 39.8429C14.8804 39.8429 12.8662 41.857 12.8662 44.3327C12.8662 45.0832 13.0523 45.8092 13.3975 46.453L8.157 46.453L8.157 39.6511C8.157 39.3355 7.95956 39.0537 7.66284 38.9461C7.36612 38.8386 7.03397 38.928 6.83156 39.1701C6.26109 39.8525 5.42456 40.2439 4.53666 40.2439C2.88806 40.2439 1.54688 38.9027 1.54688 37.2541C1.54688 35.6055 2.88806 34.2643 4.53666 34.2643C5.42466 34.2643 6.26119 34.6556 6.83156 35.3381C7.03397 35.5801 7.36603 35.6696 7.66284 35.5621C7.95947 35.4545 8.157 35.1727 8.157 34.8571L8.157 28.0551L14.959 28.0551C15.2746 28.0551 15.5564 27.8575 15.6641 27.5609C15.7718 27.2643 15.6822 26.932 15.4401 26.7296C14.7578 26.1592 14.3663 25.3226 14.3663 24.4347C14.3663 22.7862 15.7075 21.4449 17.3561 21.4449C19.0047 21.4449 20.3459 22.7862 20.3459 24.4347C20.3459 25.3227 19.9546 26.1593 19.2722 26.7296C19.0301 26.932 18.9406 27.2643 19.0482 27.5609C19.1558 27.8575 19.4377 28.0551 19.7532 28.0551L26.5553 28.0551L26.5553 33.2957C25.9114 32.9504 25.1855 32.7644 24.4349 32.7644C21.9593 32.7644 19.9451 34.7785 19.9451 37.2542C19.9451 39.7298 21.9592 41.744 24.4349 41.744C25.1855 41.744 25.9114 41.558 26.5553 41.2127L26.5553 46.453L21.3147 46.453C21.66 45.8092 21.846 45.0833 21.846 44.3327C21.8457 41.857 19.8317 39.8429 17.356 39.8429ZM46.4531 46.453L41.2126 46.453C41.5579 45.8092 41.7439 45.0833 41.7439 44.3327C41.7439 41.857 39.7298 39.8429 37.2541 39.8429C34.7783 39.8429 32.7643 41.857 32.7643 44.3327C32.7643 45.0833 32.9503 45.8092 33.2956 46.453L28.0551 46.453L28.0551 39.6511C28.0551 39.3355 27.8576 39.0537 27.5609 38.9461C27.2644 38.8384 26.932 38.9279 26.7296 39.1701C26.1592 39.8525 25.3226 40.2438 24.4347 40.2438C22.7861 40.2438 21.4449 38.9026 21.4449 37.254C21.4449 35.6054 22.7861 34.2642 24.4347 34.2642C25.3227 34.2642 26.1593 34.6555 26.7296 35.3379C26.932 35.5801 27.2643 35.6694 27.5609 35.5619C27.8575 35.4543 28.0551 35.1725 28.0551 34.8569L28.0551 28.055L34.8571 28.055C35.1727 28.055 35.4545 27.8575 35.5622 27.5608C35.6698 27.2642 35.5803 26.9319 35.3382 26.7295C34.6558 26.159 34.2644 25.3224 34.2644 24.4344C34.2644 22.7859 35.6056 21.4447 37.2542 21.4447C38.9028 21.4447 40.244 22.7859 40.244 24.4344C40.244 25.3224 39.8526 26.159 39.1702 26.7295C38.9281 26.9319 38.8386 27.2642 38.9462 27.5608C39.0538 27.8574 39.3356 28.055 39.6513 28.055L46.4531 28.055L46.4531 46.453ZM34.8571 8.1571C35.1727 8.1571 35.4545 7.95966 35.5622 7.66294C35.6699 7.36623 35.5803 7.03407 35.3381 6.83166C34.6558 6.26119 34.2644 5.42466 34.2644 4.53675C34.2644 2.88816 35.6056 1.54697 37.2542 1.54697C38.9028 1.54697 40.244 2.88816 40.244 4.53675C40.244 5.42475 39.8526 6.26129 39.1703 6.83166C38.9281 7.03407 38.8386 7.36632 38.9462 7.66294C39.0538 7.95957 39.3356 8.1571 39.6513 8.1571L46.4531 8.1571L46.4531 26.5552L41.2125 26.5552C41.5578 25.9112 41.7439 25.1852 41.7439 24.4347C41.7439 21.9591 39.7298 19.9449 37.2541 19.9449C34.7783 19.9449 32.7643 21.959 32.7643 24.4347C32.7643 25.1852 32.9503 25.9113 33.2957 26.5552L28.0551 26.5552L28.0551 19.7531C28.0551 19.4376 27.8576 19.1558 27.5609 19.0481C27.2643 18.9404 26.932 19.0298 26.7297 19.272C26.1592 19.9544 25.3226 20.3458 24.4347 20.3458C22.7861 20.3458 21.4449 19.0046 21.4449 17.356C21.4449 15.7074 22.7861 14.3662 24.4347 14.3662C25.3228 14.3662 26.1593 14.7576 26.7296 15.44C26.932 15.6821 27.2643 15.7715 27.5609 15.664C27.8575 15.5564 28.0551 15.2746 28.0551 14.9589L28.0551 8.15691L34.8571 8.15691L34.8571 8.1571ZM4.53666 14.3662C5.42475 14.3662 6.26119 14.7577 6.83156 15.4401C7.03397 15.6822 7.36622 15.7716 7.66284 15.6641C7.95947 15.5565 8.157 15.2747 8.157 14.959L8.157 8.157L14.959 8.157C15.2746 8.157 15.5564 7.95957 15.6641 7.66285C15.7719 7.36613 15.6822 7.03397 15.4401 6.83157C14.7578 6.2611 14.3663 5.42457 14.3663 4.53666C14.3663 2.88807 15.7075 1.54688 17.3561 1.54688C19.0047 1.54688 20.3459 2.88807 20.3459 4.53666C20.3459 5.42466 19.9546 6.26119 19.2722 6.83157C19.0301 7.03397 18.9406 7.36622 19.0482 7.66285C19.1558 7.95947 19.4377 8.157 19.7532 8.157L26.5553 8.157L26.5553 13.3975C25.9114 13.0523 25.1854 12.8662 24.4349 12.8662C21.9593 12.8662 19.9451 14.8803 19.9451 17.356C19.9451 19.8318 21.9592 21.8458 24.4349 21.8458C25.1854 21.8458 25.9114 21.6597 26.5553 21.3144L26.5553 26.555L21.3147 26.555C21.66 25.9111 21.846 25.1851 21.846 24.4346C21.846 21.9591 19.832 19.9448 17.3562 19.9448C14.8805 19.9448 12.8664 21.959 12.8664 24.4346C12.8664 25.1852 13.0524 25.9111 13.3977 26.555L8.15719 26.555L8.15719 19.7531C8.15719 19.4376 7.95975 19.1558 7.66304 19.0481C7.36641 18.9404 7.03416 19.0298 6.83184 19.272C6.26128 19.9544 5.42475 20.3458 4.53684 20.3458C2.88825 20.3458 1.54707 19.0046 1.54707 17.356C1.54707 15.7074 2.88806 14.3662 4.53666 14.3662Z" fill="url(#paint0_linear_4941_50946)"/>
</g>
<defs>
<linearGradient id="paint0_linear_4941_50946" x1="47.7334" y1="6.87666" x2="6.87666" y2="47.7333" gradientUnits="userSpaceOnUse">
<stop stop-color="#FF7262"/>
<stop offset="1" stop-color="#7234F7"/>
</linearGradient>
<clipPath id="clip0_4941_50946">
<rect width="48" height="48" fill="white" transform="translate(48 48) rotate(-180)"/>
</clipPath>
</defs>
</svg>
