<svg width="48" height="48" viewBox="0 0 48 48" fill="none" xmlns="http://www.w3.org/2000/svg">
<g clip-path="url(#clip0_4941_50959)">
<path d="M45.3113 25.1906H2.68876C2.27438 25.1906 1.9397 25.5263 1.9397 25.9397C1.9397 31.8319 4.2347 37.3725 8.40189 41.5387C12.5681 45.705 18.1088 48 24.0009 48C29.8922 48 35.4319 45.705 39.5991 41.5387C43.7663 37.3725 46.0613 31.8319 46.0613 25.9397C46.0613 25.5263 45.7256 25.1906 45.3113 25.1906ZM23.2519 33.1322C20.805 33.1688 18.42 33.3844 16.185 33.7594C15.7988 31.5347 15.5803 29.1506 15.5428 26.6906H23.2509V33.1322H23.2519ZM23.2519 34.6312V46.4128C21.3938 45.9797 19.5769 43.9566 18.1744 40.7119C17.4713 39.0853 16.8994 37.2347 16.47 35.2275C18.6094 34.8722 20.8978 34.6669 23.2519 34.6312ZM24.7509 46.4119V34.6312C27.1041 34.6669 29.3916 34.8722 31.5309 35.2275C31.1016 37.2347 30.5297 39.0853 29.8266 40.7119C28.4241 43.9556 26.6081 45.9787 24.7509 46.4119ZM24.7509 33.1322V26.6897H32.4563C32.4197 29.1506 32.2003 31.5347 31.815 33.7584C29.58 33.3834 27.1969 33.1688 24.7509 33.1322ZM14.0447 26.6897C14.0822 29.2416 14.31 31.7184 14.7131 34.0341C11.5631 34.6809 8.7722 35.6559 6.60751 36.8953C4.72595 33.9197 3.58595 30.4303 3.45095 26.6897H14.0447ZM7.45595 38.1356C9.4697 36.9994 12.0628 36.1041 14.9963 35.5013C15.4481 37.6219 16.0528 39.5822 16.7981 41.3063C17.6803 43.3472 18.7172 44.9531 19.8591 46.0809C14.8041 45.0431 10.4203 42.1444 7.45595 38.1356ZM28.1419 46.0809C29.2838 44.9531 30.3206 43.3472 31.2019 41.3063C31.9472 39.5822 32.5519 37.6219 33.0028 35.5003C35.9363 36.1031 38.5294 36.9994 40.5431 38.1356C37.5806 42.1453 33.1969 45.0431 28.1419 46.0809ZM41.3925 36.8953C39.2278 35.655 36.4369 34.6809 33.2869 34.0341C33.69 31.7184 33.9178 29.2416 33.9553 26.6897H44.5491C44.4141 30.4303 43.2741 33.9197 41.3925 36.8953ZM4.51688 21.9459H43.4831C44.2622 21.9459 44.94 21.6319 45.4444 21.0384C45.9469 20.4459 46.1475 19.7278 46.0247 18.9591C45.2681 14.2716 42.21 10.6838 38.4188 9.74063C40.2309 8.96531 41.5041 7.16625 41.5041 5.07375C41.5031 2.27625 39.2278 0 36.4303 0C33.6319 0 31.3547 2.27625 31.3547 5.07281C31.3547 7.16344 32.6269 8.9625 34.4381 9.73781C32.8894 10.1203 31.4438 10.9463 30.2128 12.1631C29.0053 10.9744 27.5606 10.1306 25.9903 9.73969C27.8025 8.96437 29.0756 7.16531 29.0756 5.07281C29.0747 2.27625 26.7984 0 24.0009 0C21.2025 0 18.9253 2.27625 18.9253 5.07281C18.9253 7.16531 20.1994 8.96531 22.0125 9.73969C20.4413 10.1306 18.9966 10.9744 17.7891 12.1631C16.5581 10.9463 15.1116 10.1203 13.5628 9.73781C15.3741 8.9625 16.6463 7.16344 16.6463 5.07281C16.6453 2.27625 14.3681 0 11.5697 0C8.7722 0 6.49688 2.27625 6.49688 5.07375C6.49688 7.16531 7.77001 8.96531 9.5822 9.74063C5.79095 10.6838 2.73282 14.2725 1.97532 18.96C1.85251 19.7278 2.05313 20.4459 2.55563 21.0384C3.06001 21.6319 3.73782 21.9459 4.51688 21.9459ZM32.8538 5.07375C32.8538 3.10312 34.4588 1.49906 36.4303 1.49906C38.4009 1.49906 40.005 3.10219 40.005 5.07375C40.005 7.04437 38.4019 8.64844 36.4303 8.64844C34.4578 8.6475 32.8538 7.04437 32.8538 5.07375ZM36.4303 10.9941C40.365 10.9941 43.7775 14.4441 44.5453 19.1962C44.5988 19.5272 44.5191 19.8122 44.3025 20.0672C44.0859 20.3222 43.8178 20.4459 43.4841 20.4459H33.3984C33.6122 19.9903 33.6806 19.4859 33.5963 18.9581C33.2447 16.7794 32.3944 14.8378 31.2056 13.2891C32.6803 11.805 34.515 10.9941 36.4303 10.9941ZM20.4244 5.07375C20.4244 3.10312 22.0294 1.49906 24.0009 1.49906C25.9716 1.49906 27.5756 3.10219 27.5756 5.07375C27.5756 7.04437 25.9725 8.64844 24.0009 8.64844C22.0294 8.6475 20.4244 7.04437 20.4244 5.07375ZM24.0009 10.9941C27.9356 10.9941 31.3481 14.4441 32.1159 19.1962C32.1694 19.5272 32.0897 19.8122 31.8731 20.0672C31.6566 20.3222 31.3884 20.4459 31.0547 20.4459H16.9453C16.6106 20.4459 16.3434 20.3222 16.1269 20.0672C15.9103 19.8122 15.8306 19.5272 15.8831 19.1972C16.6519 14.4441 20.0653 10.9941 24.0009 10.9941ZM7.99501 5.07375C7.99501 3.10312 9.59813 1.49906 11.5697 1.49906C13.5422 1.49906 15.1463 3.10219 15.1463 5.07375C15.1463 7.04437 13.5413 8.64844 11.5697 8.64844C9.59907 8.6475 7.99501 7.04437 7.99501 5.07375ZM3.4547 19.1981C4.22251 14.445 7.63501 10.995 11.5697 10.995C13.485 10.995 15.3197 11.8059 16.7953 13.2909C15.6056 14.8397 14.7563 16.7812 14.4038 18.9609C14.3194 19.4878 14.3878 19.9922 14.6016 20.4478H4.51688C4.1822 20.4478 3.91501 20.3241 3.69845 20.0691C3.48095 19.8131 3.4022 19.5281 3.4547 19.1981Z" fill="url(#paint0_linear_4941_50959)"/>
</g>
<defs>
<linearGradient id="paint0_linear_4941_50959" x1="1.93895" y1="24.0001" x2="46.0611" y2="24.0001" gradientUnits="userSpaceOnUse">
<stop stop-color="#FE7465"/>
<stop offset="1" stop-color="#7234F7"/>
</linearGradient>
<clipPath id="clip0_4941_50959">
<rect width="48" height="48" fill="white"/>
</clipPath>
</defs>
</svg>
