<svg width="300" height="300" viewBox="0 0 300 300" fill="none" xmlns="http://www.w3.org/2000/svg">
<path d="M225.3 58.001H123.531C121.14 57.9989 118.772 58.4681 116.563 59.3817C114.353 60.2955 112.345 61.6359 110.654 63.3261C108.963 65.0165 107.622 67.0236 106.708 69.2327C105.793 71.4417 105.323 73.8095 105.324 76.2005V104.69C105.319 107.738 106.082 110.737 107.541 113.413C109 116.088 111.109 118.354 113.673 120C111.862 124.607 109.004 128.729 105.324 132.039C105.252 132.106 105.203 132.194 105.184 132.291C105.166 132.388 105.178 132.488 105.22 132.576C105.263 132.665 105.332 132.738 105.419 132.785C105.505 132.832 105.604 132.85 105.702 132.836C112.828 131.624 121.264 128.297 126.718 122.894H225.256C227.647 122.896 230.016 122.427 232.225 121.513C234.436 120.598 236.443 119.258 238.134 117.567C239.826 115.876 241.167 113.868 242.08 111.658C242.995 109.448 243.463 107.08 243.462 104.688V76.2005C243.468 73.8119 243.003 71.4453 242.094 69.2367C241.183 67.0283 239.847 65.021 238.159 63.3302C236.472 61.6394 234.468 60.2984 232.261 59.3838C230.053 58.4693 227.688 57.9993 225.3 58.001Z" fill="#FFB43B"/>
<path d="M226.389 72.0129H125.55C125.384 72.0096 125.218 72.0399 125.064 72.102C124.91 72.1641 124.77 72.2567 124.653 72.3743C124.535 72.4917 124.442 72.6318 124.38 72.7859C124.318 72.9401 124.288 73.1052 124.291 73.2714V76.8789C124.288 77.045 124.319 77.21 124.381 77.364C124.443 77.5181 124.536 77.6582 124.653 77.7756C124.771 77.8931 124.91 77.9856 125.065 78.0479C125.219 78.11 125.384 78.1404 125.55 78.1374H226.437C226.603 78.1403 226.768 78.1097 226.921 78.0474C227.076 77.9852 227.215 77.8925 227.332 77.7752C227.451 77.6577 227.544 77.5178 227.605 77.3639C227.667 77.2098 227.698 77.045 227.695 76.8789V73.2714C227.677 72.935 227.533 72.6179 227.29 72.3842C227.047 72.1505 226.726 72.0177 226.389 72.0129Z" fill="white"/>
<path d="M148.992 83.59H125.501C125.335 83.5872 125.17 83.6178 125.016 83.68C124.862 83.7421 124.722 83.8348 124.605 83.9523C124.487 84.0697 124.395 84.2095 124.332 84.3634C124.27 84.5175 124.24 84.6823 124.242 84.8484V88.456C124.239 88.6221 124.27 88.7871 124.332 88.9411C124.394 89.0952 124.487 89.2351 124.604 89.3526C124.722 89.4702 124.862 89.5627 125.016 89.6248C125.17 89.6871 125.335 89.7175 125.501 89.7144H148.992C149.158 89.7175 149.323 89.6871 149.478 89.6248C149.632 89.5627 149.772 89.4702 149.889 89.3526C150.006 89.2351 150.099 89.0952 150.161 88.9411C150.224 88.7871 150.254 88.6221 150.251 88.456V84.8484C150.254 84.6823 150.222 84.5175 150.161 84.3634C150.098 84.2095 150.006 84.0697 149.889 83.9523C149.771 83.8348 149.631 83.7421 149.477 83.68C149.323 83.6178 149.158 83.5872 148.992 83.59Z" fill="white"/>
<path d="M178.985 83.5901H155.495C155.329 83.5869 155.164 83.6174 155.011 83.6796C154.856 83.7417 154.717 83.8344 154.598 83.9519C154.481 84.0693 154.388 84.2093 154.327 84.3633C154.264 84.5174 154.234 84.6824 154.237 84.8486V88.4561C154.234 88.6221 154.264 88.7873 154.325 88.9415C154.388 89.0957 154.481 89.2356 154.598 89.3532C154.715 89.4707 154.856 89.5632 155.009 89.6253C155.164 89.6874 155.329 89.7177 155.495 89.7146H178.985C179.152 89.7177 179.317 89.6874 179.471 89.6253C179.624 89.5632 179.765 89.4707 179.882 89.3532C179.999 89.2356 180.092 89.0957 180.155 88.9415C180.217 88.7873 180.247 88.6221 180.244 88.4561V84.8486C180.247 84.6824 180.217 84.5174 180.154 84.3633C180.092 84.2093 179.999 84.0693 179.882 83.9519C179.764 83.8344 179.624 83.7417 179.47 83.6796C179.317 83.6174 179.152 83.5869 178.985 83.5901Z" fill="white"/>
<path d="M226.388 83.59H187.921C187.754 83.5872 187.589 83.6178 187.436 83.68C187.282 83.7421 187.142 83.8348 187.025 83.9523C186.907 84.0697 186.815 84.2095 186.752 84.3634C186.691 84.5175 186.659 84.6823 186.662 84.8484V88.456C186.659 88.6221 186.689 88.7871 186.752 88.9411C186.814 89.0952 186.907 89.2351 187.024 89.3526C187.142 89.4702 187.282 89.5627 187.436 89.6248C187.589 89.6871 187.754 89.7175 187.921 89.7144H226.388C226.555 89.7175 226.72 89.6871 226.873 89.6248C227.027 89.5627 227.168 89.4702 227.285 89.3526C227.402 89.2351 227.495 89.0952 227.557 88.9411C227.62 88.7871 227.65 88.6221 227.647 88.456V84.8484C227.65 84.6823 227.62 84.5175 227.557 84.3634C227.495 84.2095 227.402 84.0697 227.285 83.9523C227.167 83.8348 227.027 83.7421 226.873 83.68C226.72 83.6178 226.555 83.5872 226.388 83.59Z" fill="white"/>
<path d="M214.307 229.781C210.625 226.472 207.767 222.35 205.958 217.742C208.523 216.095 210.632 213.83 212.09 211.154C213.55 208.478 214.312 205.479 214.307 202.431V173.948C214.309 171.557 213.839 169.188 212.926 166.977C212.011 164.768 210.67 162.759 208.979 161.069C207.289 159.378 205.28 158.037 203.071 157.124C200.86 156.209 198.491 155.739 196.1 155.742H62.8715C60.4801 155.739 58.1117 156.209 55.9019 157.124C53.6921 158.037 51.6844 159.378 49.9934 161.069C48.3025 162.761 46.9615 164.768 46.0474 166.979C45.1333 169.188 44.6638 171.557 44.666 173.948V202.431C44.6638 204.822 45.1333 207.191 46.0474 209.4C46.9615 211.61 48.3025 213.618 49.9934 215.309C51.6844 217.001 53.6921 218.342 55.9019 219.255C58.1117 220.169 60.4801 220.638 62.8715 220.637H192.871C198.304 226.017 206.746 229.362 213.887 230.579C213.986 230.598 214.09 230.586 214.183 230.543C214.274 230.499 214.349 230.427 214.397 230.337C214.444 230.247 214.462 230.144 214.445 230.043C214.429 229.944 214.381 229.851 214.307 229.781Z" fill="#FFB43B"/>
<path d="M194.088 172.816H63.5009C63.3348 172.813 63.1698 172.843 63.0156 172.906C62.8616 172.967 62.7216 173.06 62.6042 173.177C62.4867 173.294 62.3942 173.435 62.3319 173.588C62.2698 173.743 62.2394 173.908 62.2424 174.074V177.674C62.2395 177.841 62.2701 178.006 62.3324 178.159C62.3946 178.313 62.4872 178.453 62.6046 178.57C62.7221 178.688 62.862 178.78 63.0159 178.843C63.17 178.904 63.3348 178.936 63.5009 178.933H194.088C194.254 178.936 194.419 178.906 194.572 178.843C194.727 178.781 194.866 178.688 194.985 178.571C195.102 178.453 195.195 178.313 195.256 178.159C195.319 178.006 195.349 177.841 195.346 177.674V174.074C195.345 173.741 195.213 173.42 194.977 173.185C194.74 172.949 194.421 172.816 194.088 172.816Z" fill="white"/>
<path d="M194.088 184.393H170.597C170.43 184.39 170.265 184.42 170.112 184.483C169.958 184.544 169.818 184.637 169.701 184.754C169.583 184.873 169.49 185.012 169.428 185.167C169.365 185.32 169.335 185.485 169.338 185.651V189.259C169.335 189.425 169.365 189.59 169.428 189.743C169.49 189.898 169.583 190.037 169.7 190.156C169.818 190.273 169.958 190.366 170.112 190.427C170.265 190.49 170.43 190.52 170.597 190.517H194.088C194.255 190.52 194.42 190.49 194.574 190.427C194.727 190.366 194.868 190.273 194.985 190.156C195.102 190.039 195.195 189.898 195.258 189.745C195.32 189.59 195.35 189.425 195.347 189.259V185.651C195.35 185.485 195.32 185.32 195.257 185.165C195.195 185.012 195.102 184.871 194.985 184.754C194.867 184.637 194.727 184.544 194.573 184.483C194.42 184.42 194.255 184.39 194.088 184.393Z" fill="white"/>
<path d="M164.1 190.517C164.267 190.52 164.432 190.49 164.585 190.427C164.739 190.366 164.879 190.273 164.996 190.156C165.114 190.037 165.206 189.898 165.269 189.743C165.33 189.59 165.36 189.425 165.357 189.259V185.651C165.36 185.485 165.33 185.32 165.267 185.167C165.206 185.012 165.113 184.873 164.996 184.754C164.879 184.637 164.739 184.544 164.585 184.483C164.432 184.42 164.267 184.39 164.1 184.393H140.604C140.438 184.39 140.273 184.42 140.119 184.483C139.965 184.544 139.825 184.637 139.708 184.754C139.59 184.871 139.498 185.012 139.435 185.165C139.373 185.32 139.343 185.485 139.346 185.651V189.259C139.343 189.425 139.373 189.59 139.435 189.745C139.497 189.898 139.59 190.039 139.707 190.156C139.825 190.273 139.965 190.366 140.119 190.427C140.273 190.49 140.438 190.52 140.604 190.517H164.1Z" fill="white"/>
<path d="M131.668 184.393H63.2998C63.1337 184.39 62.9686 184.42 62.8145 184.483C62.6605 184.544 62.5205 184.637 62.4031 184.754C62.2856 184.871 62.1931 185.012 62.1308 185.165C62.0687 185.32 62.0383 185.485 62.0413 185.651V189.259C62.038 189.425 62.0683 189.59 62.1304 189.745C62.1925 189.898 62.285 190.039 62.4026 190.156C62.5201 190.273 62.6602 190.366 62.8144 190.427C62.9684 190.49 63.1336 190.52 63.2998 190.517H131.668C131.834 190.52 131.999 190.49 132.154 190.427C132.308 190.366 132.448 190.273 132.565 190.156C132.682 190.037 132.775 189.898 132.837 189.743C132.899 189.59 132.93 189.425 132.927 189.259V185.651C132.93 185.485 132.899 185.32 132.837 185.167C132.775 185.012 132.682 184.873 132.565 184.754C132.447 184.637 132.307 184.544 132.153 184.483C131.999 184.42 131.834 184.39 131.668 184.393Z" fill="white"/>
<path d="M131.668 196.223H63.2998C63.1336 196.22 62.9684 196.25 62.8144 196.313C62.6602 196.374 62.5201 196.467 62.4026 196.584C62.285 196.701 62.1925 196.842 62.1304 196.995C62.0683 197.15 62.038 197.315 62.0413 197.481V201.089C62.0383 201.255 62.0687 201.42 62.1308 201.575C62.1931 201.728 62.2856 201.869 62.4031 201.986C62.5205 202.103 62.6605 202.196 62.8145 202.257C62.9686 202.32 63.1337 202.35 63.2998 202.347H131.668C131.834 202.35 131.999 202.32 132.153 202.257C132.307 202.196 132.447 202.103 132.565 201.986C132.682 201.867 132.775 201.728 132.837 201.573C132.899 201.42 132.93 201.255 132.927 201.089V197.481C132.93 197.315 132.899 197.15 132.837 196.997C132.775 196.842 132.682 196.703 132.565 196.584C132.448 196.467 132.308 196.374 132.154 196.313C131.999 196.25 131.834 196.22 131.668 196.223Z" fill="white"/>
<path d="M164.975 196.223H137.792C137.626 196.22 137.461 196.25 137.307 196.313C137.153 196.374 137.013 196.467 136.895 196.584C136.778 196.703 136.685 196.842 136.623 196.997C136.561 197.15 136.53 197.315 136.533 197.481V201.089C136.531 201.255 136.561 201.42 136.623 201.573C136.686 201.728 136.778 201.867 136.896 201.986C137.013 202.103 137.153 202.196 137.307 202.257C137.461 202.32 137.626 202.35 137.792 202.347H164.975C165.141 202.35 165.306 202.32 165.459 202.257C165.614 202.196 165.753 202.103 165.87 201.986C165.989 201.867 166.08 201.728 166.143 201.573C166.205 201.42 166.236 201.255 166.233 201.089V197.481C166.236 197.315 166.206 197.15 166.143 196.997C166.082 196.842 165.989 196.703 165.872 196.584C165.753 196.467 165.614 196.374 165.459 196.313C165.306 196.25 165.141 196.22 164.975 196.223Z" fill="white"/>
<path d="M226.178 141.73C224.673 141.427 223.119 141.476 221.637 141.873C220.155 142.27 218.784 143.004 217.634 144.018C216.482 145.032 215.58 146.299 215 147.719C214.419 149.139 214.175 150.675 214.286 152.205C214.395 153.735 214.859 155.22 215.639 156.541C216.417 157.863 217.493 158.986 218.778 159.825C220.064 160.662 221.525 161.191 223.049 161.371C224.573 161.55 226.118 161.374 227.562 160.858C236.682 157.573 236.315 143.82 226.178 141.73Z" fill="white"/>
<path d="M217.537 152.511C218.486 152.511 219.257 151.835 219.257 151.001C219.257 150.167 218.486 149.49 217.537 149.49C216.586 149.49 215.816 150.167 215.816 151.001C215.816 151.835 216.586 152.511 217.537 152.511Z" fill="#FFE55D"/>
<path d="M231.002 152.805C231.951 152.805 232.722 152.129 232.722 151.295C232.722 150.461 231.951 149.784 231.002 149.784C230.052 149.784 229.281 150.461 229.281 151.295C229.281 152.129 230.052 152.805 231.002 152.805Z" fill="#FFE55D"/>
<path d="M227.945 141.38C225.851 140.631 223.579 140.543 221.434 141.125C219.289 141.708 217.373 142.934 215.945 144.638C214.532 146.353 213.685 148.463 213.52 150.68C213.355 152.895 213.88 155.108 215.023 157.013C216.166 158.919 217.871 160.424 219.904 161.321C221.938 162.218 224.198 162.464 226.376 162.024C228.794 161.496 230.962 160.166 232.525 158.247C234.088 156.329 234.953 153.936 234.982 151.463C234.974 149.266 234.296 147.124 233.038 145.322C231.781 143.521 230.005 142.145 227.945 141.38ZM233.857 151.547C233.861 153.513 233.258 155.433 232.13 157.043C231.002 158.654 229.406 159.878 227.557 160.547C225.64 161.246 223.55 161.316 221.591 160.748C219.632 160.178 217.906 158.999 216.662 157.382C215.42 155.763 214.726 153.791 214.681 151.752C214.634 149.712 215.242 147.711 216.412 146.04C217.582 144.368 219.254 143.114 221.186 142.458C223.118 141.803 225.208 141.78 227.153 142.394C229.099 143.009 230.798 144.227 232.004 145.873C233.209 147.519 233.858 149.507 233.857 151.547Z" fill="#4B1010"/>
<path d="M220.389 147.27C220.239 147.266 220.092 147.293 219.953 147.348C219.815 147.404 219.689 147.487 219.584 147.593C219.477 147.699 219.395 147.825 219.341 147.964C219.285 148.103 219.26 148.252 219.264 148.401C219.264 148.625 219.33 148.845 219.455 149.031C219.579 149.218 219.756 149.363 219.965 149.449C220.172 149.535 220.4 149.557 220.62 149.513C220.839 149.469 221.042 149.36 221.199 149.201C221.358 149.042 221.465 148.839 221.508 148.619C221.552 148.399 221.528 148.171 221.441 147.964C221.354 147.757 221.208 147.581 221.021 147.457C220.833 147.334 220.614 147.268 220.389 147.27Z" fill="#4B1010"/>
<path d="M227.731 147.27C227.581 147.266 227.432 147.293 227.294 147.348C227.155 147.404 227.03 147.487 226.924 147.593C226.819 147.699 226.736 147.825 226.681 147.964C226.627 148.103 226.601 148.252 226.606 148.401C226.606 148.625 226.672 148.845 226.796 149.031C226.921 149.218 227.098 149.363 227.305 149.449C227.513 149.535 227.741 149.557 227.96 149.513C228.181 149.469 228.383 149.36 228.541 149.201C228.7 149.042 228.806 148.84 228.85 148.619C228.893 148.399 228.869 148.171 228.782 147.964C228.695 147.757 228.55 147.581 228.362 147.457C228.175 147.334 227.956 147.269 227.731 147.27Z" fill="#4B1010"/>
<path d="M227.191 151.873C226.924 152.326 226.563 152.714 226.131 153.014C225.699 153.314 225.208 153.517 224.691 153.61C223.912 153.772 223.102 153.707 222.358 153.425C221.614 153.143 220.966 152.654 220.491 152.017C220.431 151.885 220.324 151.78 220.192 151.721C220.062 151.661 219.913 151.651 219.774 151.693C219.636 151.733 219.517 151.823 219.439 151.945C219.361 152.066 219.331 152.213 219.352 152.356C220.102 155.183 226.297 156.13 228.228 152.434C228.288 152.297 228.295 152.144 228.247 152.002C228.199 151.861 228.1 151.744 227.97 151.673C227.838 151.601 227.685 151.583 227.541 151.621C227.397 151.657 227.272 151.747 227.191 151.873Z" fill="#4B1010"/>
<path d="M97.6484 40.6756C95.6363 40.2661 93.5467 40.4887 91.666 41.313C89.7853 42.1374 88.2055 43.5231 87.143 45.2803C86.0806 47.0376 85.5875 49.0802 85.7315 51.1286C85.8754 53.177 86.6491 55.1308 87.9467 56.7223C89.2444 58.3138 91.0024 59.4651 92.98 60.0184C94.9574 60.5716 97.0576 60.4999 98.9927 59.8131C100.928 59.1262 102.603 57.8577 103.789 56.1814C104.976 54.5052 105.614 52.5031 105.618 50.4496C105.619 48.1519 104.826 45.9243 103.374 44.1435C101.922 42.3627 99.8993 41.1376 97.6484 40.6756Z" fill="white"/>
<path d="M88.6702 48.6893C88.38 48.7274 88.107 48.8483 87.8838 49.0374C87.6606 49.2267 87.4966 49.4762 87.4114 49.7562C87.3264 50.0361 87.3238 50.3348 87.4039 50.6162C87.4842 50.8976 87.6438 51.15 87.8637 51.343C88.0836 51.5361 88.3545 51.6616 88.644 51.7048C88.9333 51.7479 89.2291 51.7067 89.4957 51.5861C89.7624 51.4655 89.9886 51.2704 90.1473 51.0246C90.306 50.7787 90.3906 50.4924 90.3907 50.1997C90.355 49.7743 90.1558 49.3793 89.8351 49.0976C89.5143 48.816 89.0967 48.6696 88.6702 48.6893Z" fill="#FFE55D"/>
<path d="M102.64 48.6888C102.35 48.7266 102.077 48.8472 101.854 49.0363C101.63 49.2253 101.466 49.4748 101.381 49.7548C101.295 50.0349 101.292 50.3335 101.373 50.6151C101.453 50.8966 101.612 51.1491 101.832 51.3423C102.052 51.5355 102.323 51.6612 102.612 51.7044C102.902 51.7476 103.198 51.7065 103.464 51.5859C103.731 51.4653 103.957 51.2703 104.116 51.0244C104.275 50.7784 104.359 50.4921 104.359 50.1993C104.327 49.773 104.129 49.3764 103.807 49.0941C103.486 48.8119 103.068 48.6664 102.64 48.6888Z" fill="#FFE55D"/>
<path d="M99.3715 40.3667C97.2269 39.5807 94.8875 39.4991 92.6935 40.1339C90.4994 40.7685 88.565 42.0866 87.1714 43.896C85.7777 45.7056 84.9976 47.9126 84.9443 50.196C84.8911 52.4793 85.5674 54.7202 86.875 56.5929C88.1827 58.4655 90.0535 59.8722 92.2156 60.6087C94.3777 61.3451 96.7183 61.3728 98.897 60.6876C101.076 60.0026 102.979 58.6404 104.331 56.7992C105.683 54.9581 106.412 52.7337 106.412 50.4497C106.393 48.255 105.71 46.1174 104.453 44.318C103.197 42.5184 101.425 41.141 99.3715 40.3667ZM88.288 56.5502C86.9959 54.9824 86.2363 53.0441 86.1193 51.0158C86.0024 48.9875 86.534 46.9746 87.6373 45.2687C88.7405 43.5627 90.3581 42.2522 92.2559 41.5269C94.1536 40.8017 96.2329 40.6991 98.1928 41.2344C100.153 41.7696 101.891 42.9147 103.157 44.504C104.423 46.0932 105.149 48.044 105.232 50.0739C105.316 52.1039 104.75 54.1076 103.619 55.7948C102.487 57.482 100.847 58.7652 98.938 59.4587C97.0792 60.1289 95.059 60.2091 93.1529 59.6885C91.247 59.168 89.548 58.0721 88.288 56.5502Z" fill="#4B1010"/>
<path d="M91.8169 46.1732C91.6677 46.1693 91.519 46.1959 91.3804 46.2514C91.2417 46.3069 91.1158 46.3901 91.0105 46.496C90.9052 46.6019 90.8226 46.7282 90.7678 46.8673C90.7131 47.0062 90.6873 47.155 90.6919 47.3042C90.6916 47.5286 90.7581 47.7479 90.8826 47.9345C91.0072 48.1211 91.1845 48.2666 91.3918 48.3523C91.5991 48.4381 91.8273 48.4603 92.0473 48.416C92.2672 48.3719 92.4691 48.2635 92.6274 48.1043C92.7856 47.9453 92.893 47.7428 92.9361 47.5226C92.979 47.3024 92.9556 47.0743 92.8687 46.8674C92.7819 46.6606 92.6356 46.4842 92.4483 46.3606C92.2611 46.237 92.0413 46.1717 91.8169 46.1732Z" fill="#4B1010"/>
<path d="M99.1568 46.2162C99.0075 46.2123 98.8592 46.2388 98.7206 46.2943C98.582 46.3497 98.4561 46.4328 98.3508 46.5385C98.2455 46.6443 98.1629 46.7704 98.108 46.9092C98.0531 47.0481 98.0271 47.1966 98.0318 47.3457C98.0312 47.5702 98.0973 47.7897 98.2217 47.9766C98.346 48.1633 98.5232 48.309 98.7305 48.3949C98.9378 48.4809 99.1661 48.5032 99.3861 48.4593C99.6062 48.4153 99.8082 48.3069 99.9666 48.1479C100.125 47.9889 100.233 47.7864 100.276 47.5662C100.319 47.3458 100.295 47.1178 100.209 46.9108C100.122 46.7038 99.9755 46.5273 99.7883 46.4037C99.6009 46.2799 99.3812 46.2148 99.1568 46.2162Z" fill="#4B1010"/>
<path d="M98.6578 50.8212C97.3003 53.4297 93.0013 52.9362 91.9633 50.9607C91.9029 50.8296 91.7973 50.7246 91.6657 50.6651C91.5342 50.6055 91.3855 50.5955 91.2471 50.6367C91.1088 50.6778 90.9898 50.7677 90.9123 50.8895C90.8347 51.0113 90.8037 51.1569 90.8248 51.2997C90.9859 51.7382 91.2357 52.1387 91.5582 52.4765C91.8807 52.8143 92.2693 53.082 92.6998 53.2632C93.5592 53.6439 94.4917 53.8308 95.4313 53.8107C96.2944 53.8236 97.1455 53.6066 97.897 53.1819C98.6485 52.7573 99.2736 52.1403 99.7078 51.3942C99.7693 51.2565 99.7767 51.1007 99.7284 50.9577C99.6801 50.8149 99.5797 50.6954 99.4473 50.6231C99.315 50.5509 99.1602 50.5311 99.0138 50.5679C98.8675 50.6046 98.7405 50.6951 98.6578 50.8212Z" fill="#4B1010"/>
<path d="M192.913 232.298C192.917 231.98 192.856 231.663 192.734 231.368C192.613 231.074 192.434 230.807 192.206 230.583C191.978 230.36 191.708 230.184 191.413 230.069C191.116 229.952 190.798 229.898 190.48 229.907C177.979 229.907 178.03 229.781 177.224 230.285C176.897 230.502 176.629 230.795 176.438 231.137C176.248 231.48 176.144 231.864 176.134 232.256C176.134 245.436 176.092 244.526 176.218 244.967C176.344 245.409 176.599 245.805 176.95 246.104C177.301 246.402 177.731 246.591 178.189 246.645C178.339 246.675 177.046 246.645 190.522 246.645C190.829 246.647 191.134 246.587 191.419 246.47C191.702 246.351 191.96 246.179 192.176 245.961C192.394 245.742 192.565 245.483 192.68 245.198C192.796 244.913 192.853 244.608 192.85 244.301C192.899 243.213 192.913 232.298 192.913 232.298Z" fill="white"/>
<path d="M193.75 232.293C193.743 231.452 193.405 230.648 192.811 230.052C192.216 229.457 191.412 229.119 190.57 229.112H178.65C177.849 229.089 177.069 229.373 176.469 229.905C175.87 230.436 175.495 231.177 175.423 231.975C175.411 232.125 175.356 244.544 175.518 245.148C175.657 245.651 175.918 246.11 176.278 246.488C176.637 246.864 177.084 247.148 177.577 247.313C178.054 247.484 177.808 247.443 190.605 247.439C191.025 247.439 191.44 247.355 191.829 247.193C192.216 247.029 192.567 246.791 192.859 246.489C193.153 246.189 193.384 245.832 193.537 245.441C193.69 245.051 193.765 244.632 193.755 244.212C193.755 244.212 193.758 232.842 193.75 232.293ZM190.564 246.312H178.282C177.888 246.252 177.519 246.08 177.22 245.816C176.922 245.552 176.704 245.207 176.596 244.823C176.529 244.608 176.548 244.011 176.551 232.295C176.553 231.965 176.638 231.641 176.799 231.353C176.959 231.065 177.19 230.82 177.469 230.645C178.117 230.24 177.891 230.318 190.48 230.327C190.749 230.318 191.017 230.364 191.268 230.462C191.52 230.559 191.748 230.706 191.94 230.895C192.132 231.084 192.285 231.309 192.387 231.558C192.49 231.807 192.541 232.074 192.538 232.343C192.538 232.343 192.547 243.797 192.511 244.463C192.481 244.961 192.264 245.429 191.902 245.771C191.541 246.114 191.062 246.308 190.564 246.312Z" fill="#4B1010"/>
<path d="M189.299 234.29C189.248 234.354 184.85 239.99 183.689 241.49C182.489 240.249 180.365 238.052 180.211 237.899C180.157 237.845 180.092 237.801 180.022 237.771C179.951 237.743 179.876 237.728 179.8 237.726C179.723 237.726 179.647 237.741 179.576 237.77C179.506 237.8 179.441 237.842 179.387 237.896C179.333 237.95 179.29 238.014 179.26 238.085C179.231 238.155 179.215 238.23 179.215 238.307C179.215 238.383 179.23 238.46 179.258 238.53C179.288 238.601 179.33 238.665 179.384 238.719C183.322 242.729 183.343 242.972 183.766 242.973C184.126 242.973 183.707 243.372 190.184 235.037C190.66 234.438 189.773 233.687 189.299 234.29Z" fill="#4B1010"/>
<path d="M150.042 133.173C150.046 132.854 149.985 132.538 149.864 132.244C149.742 131.949 149.562 131.682 149.335 131.458C149.108 131.235 148.838 131.06 148.541 130.944C148.244 130.827 147.927 130.772 147.609 130.782C135.106 130.782 135.159 130.654 134.353 131.16C134.026 131.377 133.757 131.669 133.567 132.012C133.377 132.355 133.273 132.739 133.263 133.131C133.263 146.311 133.221 145.401 133.347 145.842C133.473 146.285 133.728 146.68 134.079 146.978C134.429 147.277 134.86 147.465 135.318 147.519C135.468 147.55 134.158 147.519 147.609 147.519C148.06 147.517 148.502 147.386 148.881 147.14C149.26 146.895 149.561 146.546 149.748 146.134C150.018 145.545 150.042 133.173 150.042 133.173Z" fill="#FFB43B"/>
<path d="M150.878 133.167C150.866 132.324 150.529 131.517 149.936 130.917C149.343 130.316 148.542 129.968 147.698 129.945C145.828 129.921 135.878 129.945 135.779 129.945C134.978 129.922 134.198 130.206 133.599 130.738C132.999 131.27 132.625 132.011 132.553 132.809C132.541 132.959 132.484 145.368 132.647 145.98C132.785 146.479 133.043 146.936 133.398 147.313C133.754 147.689 134.196 147.972 134.686 148.139C135.328 148.359 134.986 148.319 147.736 148.314C148.156 148.314 148.572 148.23 148.959 148.067C149.347 147.904 149.697 147.665 149.991 147.364C150.284 147.063 150.515 146.707 150.668 146.316C150.823 145.924 150.896 145.506 150.886 145.086C150.886 145.086 150.886 133.718 150.878 133.167ZM149.491 145.979C149.326 146.32 149.072 146.608 148.754 146.814C148.437 147.02 148.069 147.134 147.691 147.144H135.449C135.055 147.084 134.686 146.912 134.387 146.648C134.088 146.384 133.872 146.04 133.763 145.656C133.697 145.442 133.717 144.845 133.72 133.128C133.721 132.799 133.806 132.475 133.966 132.187C134.125 131.898 134.355 131.655 134.633 131.478C135.292 131.067 135.124 131.15 147.683 131.159C147.952 131.15 148.22 131.196 148.471 131.294C148.722 131.392 148.95 131.539 149.142 131.728C149.335 131.916 149.487 132.141 149.59 132.39C149.692 132.639 149.744 132.906 149.741 133.175C149.756 143.453 149.83 145.239 149.491 145.979Z" fill="#4B1010"/>
<path d="M146.432 135.123C146.381 135.187 141.983 140.823 140.822 142.33C139.622 141.09 137.498 138.892 137.343 138.738C137.233 138.637 137.087 138.582 136.937 138.585C136.788 138.588 136.644 138.648 136.538 138.753C136.431 138.859 136.37 139.002 136.365 139.151C136.361 139.301 136.415 139.447 136.515 139.558C140.676 143.872 140.534 143.8 140.865 143.8C140.95 143.797 141.034 143.778 141.111 143.742C141.188 143.707 141.258 143.656 141.315 143.593C145.574 138.019 146.937 136.464 147.315 135.856C147.398 135.738 147.434 135.593 147.415 135.449C147.396 135.306 147.323 135.175 147.212 135.082C147.101 134.99 146.958 134.942 146.814 134.95C146.669 134.958 146.533 135.019 146.432 135.123Z" fill="#4B1010"/>
<path d="M255.375 259.9C275.879 259.9 292.5 243.279 292.5 222.775C292.5 202.272 275.879 185.65 255.375 185.65C234.872 185.65 218.25 202.272 218.25 222.775C218.25 243.279 234.872 259.9 255.375 259.9Z" fill="#FFE55D"/>
<path d="M252.061 213.798L251.893 218.119C252.923 218.725 254.081 219.087 255.274 219.174C256.466 219.261 257.663 219.072 258.772 218.622L258.856 213.882C256.625 214.473 254.276 214.443 252.061 213.798Z" fill="white"/>
<path d="M275.784 200.089C275.028 199.396 274.049 198.993 273.024 198.954C271.998 198.913 270.992 199.239 270.183 199.872C269.87 200.077 269.796 199.422 269.723 199.032C269.042 195.723 269.057 192.31 269.763 189.007C267.317 188.692 264.975 187.821 262.917 186.462C260.861 185.101 259.142 183.289 257.892 181.162C255.33 183.442 252.009 184.684 248.58 184.644C246.186 188.289 244.401 192.297 243.294 196.515C240.839 206.781 246.981 213.517 255.294 213.805C260.912 213.999 264.968 210.411 268.494 206.877C268.644 206.727 269.094 206.962 269.502 207.177C274.452 208.818 278.61 203.181 275.784 200.089Z" fill="white"/>
<path d="M273.119 232.549C270.452 225.734 266.152 220.099 259.192 218.035L259.15 218.957C255.085 220.307 252.182 219.08 251.431 218.329L251.473 217.196C238.066 218.021 228.832 229.405 223.703 241.82C226.295 246.13 229.742 249.865 233.831 252.794C237.919 255.724 242.564 257.786 247.478 258.854C252.394 259.924 257.476 259.975 262.411 259.007C267.347 258.04 272.033 256.073 276.181 253.229C276.181 245.803 275.827 239.465 273.119 232.549Z" fill="#FFB43B"/>
<path d="M282.751 201.054C286.426 195.714 285.689 187.774 283.543 182.53C281.708 178.048 277.613 172.443 272.107 171.397C271.114 171.193 270.094 171.163 269.09 171.31C267.947 170.193 266.44 169.525 264.844 169.432C263.249 169.339 261.673 169.825 260.408 170.802C258.691 169.446 256.525 168.787 254.344 168.958C247.709 169.533 246.514 179.26 244.135 181.519C243.248 182.377 242.068 182.865 240.835 182.884C240.725 182.872 240.616 182.895 240.521 182.949C240.425 183.003 240.35 183.085 240.304 183.184C239.861 184.095 242.9 186.859 246.55 186.423C244.309 190.305 241.838 195.817 241.838 201.259C241.813 204.082 242.717 206.835 244.414 209.091C246.112 211.347 248.504 212.98 251.224 213.738L251.122 216.267C237.482 217.467 228.643 228.589 223.087 240.964C222.746 241.725 222.656 241.644 224.075 243.714C228.964 250.957 236.216 256.278 244.594 258.766C252.97 261.253 261.952 260.754 270.001 257.352C272.362 256.362 274.612 255.124 276.712 253.66C276.8 253.588 276.871 253.495 276.917 253.392C276.965 253.288 276.988 253.174 276.985 253.06C277.193 238.755 273.167 221.382 259.585 217.128L259.657 213.864C262.151 213.006 264.461 211.687 266.47 209.977C266.084 212.401 265.483 217.777 269.224 219.181C271.463 220.023 274.924 218.905 277.208 217.693C284.18 213.988 289.819 203.572 282.751 201.054ZM244.871 207.967C240.481 201.487 244.543 191.778 248.668 185.07C251.966 185.055 255.155 183.892 257.689 181.78C258.947 183.798 260.627 185.518 262.613 186.826C264.599 188.134 266.843 188.997 269.194 189.357C268.498 192.58 268.511 195.918 269.234 199.135C269.456 200.466 270.088 200.443 270.269 200.227C275.719 196.701 279.49 204.844 272.263 207.064C271.79 207.229 271.288 207.291 270.788 207.244C270.29 207.198 269.807 207.046 269.372 206.797C268.664 206.508 268.535 206.152 267.872 206.94C264.919 210.439 260.443 213.318 255.815 213.457C253.69 213.454 251.593 212.956 249.692 212.004C247.792 211.051 246.146 209.668 244.871 207.967ZM251.171 218.595C251.783 219.052 252.475 219.396 253.211 219.604C252.011 220.996 250.061 223.282 249.263 224.227C248.206 222.394 247.372 220.44 246.779 218.409C248.183 217.99 249.628 217.72 251.087 217.603C251.063 218.185 251.006 218.43 251.171 218.595ZM252.239 217.909L252.38 214.275C254.363 214.785 256.439 214.815 258.436 214.362L258.364 218.359C257.369 218.724 256.309 218.872 255.251 218.796C254.195 218.718 253.169 218.415 252.239 217.909ZM255.053 225.963C254.86 223.071 254.743 220.965 254.713 219.9C256.261 220.066 257.827 219.85 259.273 219.271C259.573 219.174 259.529 218.917 259.549 218.494C260.843 218.913 262.085 219.483 263.248 220.191C261.209 222.949 258.337 224.974 255.053 225.963ZM245.645 218.637C246.349 221.05 247.39 223.351 248.737 225.472C248.807 225.543 248.89 225.598 248.983 225.634C249.074 225.672 249.173 225.69 249.272 225.687C249.589 225.655 249.374 225.777 253.639 220.833C254.029 227.098 253.772 227.22 254.539 227.22C256.445 227.22 260.795 225.18 264.229 220.806C264.49 220.989 264.742 221.184 265 221.389C261.179 231.853 265.861 236.698 263.318 247.48C262.853 249.774 261.904 251.943 260.534 253.84C260.065 254.451 261.037 255.111 261.505 254.508C264.496 250.648 265.138 244.539 265.274 242.092C265.693 234.612 263.104 230.737 265.948 222.189C270.839 226.897 273.781 233.2 275.185 241.963C275.723 245.608 275.938 249.295 275.825 252.978C269.272 257.482 261.418 259.705 253.475 259.303C245.533 258.903 237.943 255.901 231.875 250.761C228.821 248.199 226.204 245.16 224.123 241.761C229.37 229.408 236.611 221.632 245.645 218.637Z" fill="#4B1010"/>
<path d="M253.533 191.25C253.366 194.4 252.096 198.063 249.024 198.919C248.878 198.963 248.755 199.062 248.68 199.194C248.605 199.326 248.584 199.482 248.622 199.63C248.659 199.777 248.752 199.905 248.881 199.984C249.01 200.065 249.166 200.092 249.315 200.061C253.092 198.96 254.265 194.722 254.617 192.225C254.668 191.908 254.695 191.59 254.701 191.269C254.697 191.119 254.634 190.977 254.527 190.87C254.421 190.765 254.277 190.705 254.127 190.702C253.975 190.701 253.83 190.756 253.72 190.858C253.609 190.959 253.542 191.1 253.533 191.25Z" fill="#4B1010"/>
<path d="M264.722 193.433C264.293 190.896 261.535 190.001 260.372 189.732C260.188 189.681 259.997 189.651 259.805 189.644C259.07 189.522 258.905 190.679 259.744 190.808C260.135 190.848 260.521 190.928 260.896 191.045C261.547 191.183 262.144 191.504 262.618 191.97C263.092 192.438 263.422 193.031 263.569 193.68C263.683 194.432 264.854 194.208 264.722 193.433Z" fill="#4B1010"/>
<path d="M252.72 186.621C252.195 186.243 251.561 186.047 250.916 186.065C250.269 186.081 249.645 186.309 249.141 186.714C249.023 186.798 248.94 186.924 248.912 187.068C248.883 187.211 248.909 187.358 248.985 187.482C249.062 187.607 249.182 187.697 249.323 187.734C249.462 187.773 249.612 187.757 249.741 187.688C250.047 187.44 250.421 187.29 250.814 187.256C251.205 187.221 251.6 187.305 251.945 187.494C252.543 187.976 253.31 187.109 252.72 186.621Z" fill="#4B1010"/>
<path d="M259.763 197.17C259.587 197.041 259.445 196.874 259.346 196.681C259.247 196.487 259.194 196.273 259.191 196.055C259.203 195.911 259.163 195.767 259.077 195.65C258.992 195.535 258.866 195.452 258.725 195.421C258.584 195.389 258.435 195.409 258.308 195.478C258.182 195.547 258.083 195.659 258.032 195.794C257.939 196.274 258.029 196.771 258.284 197.188C258.047 197.366 257.855 197.594 257.718 197.858C257.582 198.121 257.507 198.41 257.498 198.706C257.429 200.533 259.559 200.74 260.213 199.085C260.384 198.766 260.432 198.395 260.349 198.043C260.267 197.69 260.058 197.38 259.763 197.17Z" fill="#4B1010"/>
<path d="M274.066 201.75C273.715 201.409 273.26 201.193 272.774 201.136C272.288 201.079 271.796 201.183 271.376 201.433C270.935 201.711 270.554 202.072 270.254 202.497C269.804 202.947 270.482 203.922 271.192 203.203C271.781 202.453 272.576 201.912 273.272 202.564C273.901 203.152 274.577 202.147 274.066 201.75Z" fill="#4B1010"/>
<path d="M248.62 193.704C247.631 192.954 248.47 192.271 247.679 192.009C246.974 191.775 246.565 192.678 247.142 193.711C246.16 194.376 245.993 196.218 247.142 196.693C248.63 197.316 250.021 194.773 248.62 193.704Z" fill="#4B1010"/>
<path d="M257.1 206.667C257.1 206.412 256.878 206.113 256.404 206.13C253.653 206.647 249.887 206.439 247.677 204.813C247.581 204.748 247.467 204.712 247.35 204.714C247.235 204.714 247.121 204.748 247.025 204.814C246.929 204.88 246.855 204.975 246.813 205.083C246.773 205.191 246.764 205.311 246.791 205.423C247.098 207.217 248.045 208.84 249.456 209.989C251.673 211.621 255.531 211.353 256.733 208.665C257.03 208.042 257.156 207.354 257.1 206.667ZM255.963 207.417C255.383 210.451 250.361 211.317 248.381 206.604C250.787 207.552 253.412 207.834 255.963 207.417Z" fill="#4B1010"/>
<path d="M260.326 205.786C261.716 205.786 262.843 204.659 262.843 203.269C262.843 201.878 261.716 200.752 260.326 200.752C258.935 200.752 257.809 201.878 257.809 203.269C257.809 204.659 258.935 205.786 260.326 205.786Z" fill="#FFE55D"/>
<path d="M243.462 199.788C244.853 199.788 245.979 198.661 245.979 197.271C245.979 195.88 244.853 194.754 243.462 194.754C242.072 194.754 240.945 195.88 240.945 197.271C240.945 198.661 242.072 199.788 243.462 199.788Z" fill="#FFE55D"/>
<path d="M250.815 227.391C250.575 227.391 250.341 227.463 250.142 227.596C249.942 227.728 249.786 227.919 249.695 228.141C249.602 228.361 249.578 228.606 249.626 228.841C249.672 229.077 249.788 229.293 249.957 229.462C250.127 229.632 250.343 229.747 250.578 229.795C250.814 229.842 251.058 229.818 251.28 229.726C251.501 229.633 251.691 229.479 251.825 229.279C251.958 229.08 252.029 228.844 252.029 228.604C252.029 228.283 251.901 227.974 251.673 227.746C251.445 227.518 251.138 227.391 250.815 227.391Z" fill="#4B1010"/>
<path d="M249.261 232.95C249.021 232.95 248.785 233.021 248.586 233.154C248.386 233.288 248.232 233.478 248.139 233.699C248.047 233.921 248.023 234.165 248.071 234.401C248.118 234.636 248.233 234.852 248.403 235.022C248.574 235.191 248.79 235.307 249.025 235.353C249.261 235.4 249.504 235.376 249.726 235.284C249.948 235.193 250.137 235.037 250.27 234.837C250.404 234.636 250.474 234.402 250.474 234.162C250.474 233.84 250.345 233.532 250.119 233.304C249.891 233.078 249.582 232.95 249.261 232.95Z" fill="#4B1010"/>
<path d="M44.625 148.611C65.1285 148.611 81.75 131.99 81.75 111.486C81.75 90.9827 65.1285 74.3613 44.625 74.3613C24.1215 74.3613 7.5 90.9827 7.5 111.486C7.5 131.99 24.1215 148.611 44.625 148.611Z" fill="#FFE55D"/>
<path d="M94.3335 82.0382C94.1655 82.1627 93.957 81.9542 94.0335 81.7382C94.5186 80.9697 94.7934 80.0873 94.8302 79.1792C94.8302 78.8792 94.872 78.0047 94.41 77.9627C93.738 77.9627 92.3027 79.7777 91.8932 80.3117C91.7657 80.4782 91.4327 80.3957 91.5167 80.1437C91.7127 79.3272 91.8665 78.5012 91.977 77.6687C92.061 76.9007 91.77 75.9887 91.3905 76.3682C89.9396 78.1538 88.7399 80.1296 87.825 82.2407C87.7425 82.4102 87.4905 82.3247 87.447 82.1987C87.0876 81.1644 86.4677 80.2403 85.647 79.5152C85.1475 79.2647 85.0877 79.4027 84.9347 79.5572C84.2747 80.5457 85.3065 84.5612 85.647 85.7237C92.3265 88.1342 93.198 89.8877 93.198 89.4152C94.3515 86.4152 95.091 84.4367 95.2125 84.2552C95.9342 83.6369 96.483 82.842 96.8057 81.9482C97.1042 80.5502 95.613 81.3977 94.3335 82.0382Z" fill="white"/>
<path d="M45.1702 101.921L43.2832 106.284C44.1096 107.157 45.1264 107.827 46.2544 108.241C47.3824 108.656 48.5908 108.805 49.7857 108.675L51.4207 104.648C49.1526 104.241 47.0116 103.306 45.1702 101.921Z" fill="white"/>
<path d="M66.6486 79.7306C63.5158 78.3594 61.0146 75.8583 59.6436 72.7256C56.5401 74.8746 52.7944 75.8963 49.0296 75.6206C48.0562 75.5279 47.0898 75.3735 46.1361 75.1586C46.1361 75.1586 45.5361 74.9906 45.5061 74.9906C45.2473 76.1448 44.911 77.2805 44.4996 78.3896C43.6516 80.6621 42.4482 82.7855 40.9341 84.6806C40.9104 84.7025 40.8823 84.7191 40.8516 84.729C40.8208 84.7391 40.7883 84.7421 40.7562 84.7382C40.7242 84.7341 40.6933 84.7232 40.666 84.7059C40.6387 84.6887 40.6155 84.6657 40.5981 84.6386C40.0287 83.7732 39.2494 83.0663 38.3331 82.5836C37.6267 82.251 36.8316 82.1571 36.0672 82.3158C35.3029 82.4747 34.6108 82.8776 34.0956 83.4641C32.3946 85.4486 33.6456 89.1926 35.8161 90.8051C37.7196 92.2241 39.2976 91.1501 39.2976 91.8971C41.3736 99.1616 46.7286 104.886 54.2736 104.481C56.5236 104.511 58.7331 103.879 60.6268 102.664C62.5204 101.448 64.0147 99.7022 64.9236 97.6436C67.3161 92.7851 67.4061 85.0376 66.6486 79.7306Z" fill="white"/>
<path d="M63.5424 95.8807C64.9324 95.8807 66.0594 94.7537 66.0594 93.3637C66.0594 91.9735 64.9324 90.8467 63.5424 90.8467C62.1522 90.8467 61.0254 91.9735 61.0254 93.3637C61.0254 94.7537 62.1522 95.8807 63.5424 95.8807Z" fill="#FFE55D"/>
<path d="M40.8909 84.0942C40.9749 83.9682 41.0589 83.8842 41.1429 83.7582C43.1372 81.0879 44.5124 78.0075 45.1689 74.7402C43.7019 73.9422 38.1639 70.7547 37.6179 68.8662C35.853 70.5129 34.6763 72.6924 34.2672 75.0713C33.8582 77.4501 34.2395 79.8975 35.3529 82.0392C36.3722 81.7026 37.4756 81.7227 38.4821 82.0962C39.4884 82.4696 40.3379 83.1741 40.8909 84.0942Z" fill="#FFB43B"/>
<path d="M51.6691 75.4507C54.5689 75.0564 57.3166 73.9156 59.6431 72.1402C59.8156 72.0187 59.9776 72.2407 59.9776 72.3907C61.3078 75.4789 63.7697 77.9409 66.8581 79.2712C67.0336 79.2712 67.0261 79.4047 67.0261 79.5712C67.7708 83.9622 67.7281 88.4506 66.9001 92.8267C67.9543 92.2662 68.8517 91.4512 69.5111 90.4558C70.1704 89.4604 70.5707 88.3161 70.6756 87.1267C71.1031 82.1767 67.2856 84.5167 68.3671 80.7097C69.3151 77.3737 71.4811 75.2377 69.1651 72.4027C66.7846 69.4897 66.1201 63.1552 61.4041 63.4687C56.3836 63.8002 58.9606 63.4387 54.2731 61.7482C52.4164 61.075 50.4593 60.72 48.4846 60.6982C45.9676 60.6982 43.8616 61.4077 43.1986 62.9632C42.0301 65.7007 38.7526 66.6367 38.0386 68.1652C37.1911 69.0007 43.5706 76.0657 51.6691 75.4507Z" fill="#FFB43B"/>
<path d="M83.5949 85.5205C83.3395 85.5204 83.0915 85.6077 82.8923 85.7677C82.6931 85.9279 82.5547 86.1514 82.4999 86.401C80.4854 94.462 77.3999 102.108 71.2574 107.796C67.6589 111.172 63.0713 113.304 58.1699 113.878C59.0963 115.006 59.939 116.2 60.6914 117.451C62.7367 121.078 64.168 125.018 64.9274 129.112C72.3971 127.81 79.1698 123.919 84.0569 118.122C89.8454 111.073 93.7201 102.653 95.3069 93.6715C95.4074 93.3163 95.4634 92.95 95.4734 92.581C95.2829 90.1765 85.9244 85.8115 83.5949 85.5205Z" fill="#FFB43B"/>
<path d="M50.4975 108.046L50.0775 109.054C48.7367 109.269 47.3628 109.14 46.0857 108.677C44.8088 108.215 43.6706 107.435 42.7785 106.411L43.1565 105.571C29.382 103.658 18.309 117.674 12.9961 130.531C15.5793 134.85 19.0203 138.595 23.1069 141.533C27.1934 144.471 31.8389 146.541 36.7563 147.614C41.6738 148.687 46.7589 148.741 51.6981 147.773C56.6373 146.804 61.3256 144.834 65.4735 141.983C65.4735 128.539 63.027 114.95 50.4975 108.046Z" fill="#FFB43B"/>
<path d="M97.3496 80.7516C96.8456 80.1381 95.8886 80.4771 95.3876 80.6826C95.7011 79.6326 95.9141 78.0231 95.0066 77.4066C94.2566 76.8936 93.4076 77.5716 92.7041 78.2976C92.8421 77.0556 92.8046 75.6186 91.5566 75.5796C90.9566 75.5946 89.9741 76.2186 87.6266 80.8536C87.0161 79.7151 85.9316 78.2781 84.7436 78.8001C83.5226 79.3401 83.9456 81.7161 84.1436 82.8591C84.3341 83.9256 84.4856 84.6036 84.5936 85.0416C84.2804 84.8864 83.9374 84.8004 83.588 84.7896C83.2385 84.7787 82.8908 84.8432 82.5686 84.9786C82.3097 85.1282 82.0873 85.3334 81.917 85.5792C81.7469 85.8251 81.6334 86.1056 81.5846 86.4006C78.6176 99.1836 70.7441 111.961 57.8846 113.045C55.9156 110.8 53.5738 108.912 50.9621 107.464L51.9056 105.106C54.3673 105.495 56.8891 105.163 59.1661 104.15C61.4431 103.137 63.3779 101.486 64.7366 99.3966C65.8118 97.625 66.5806 95.6849 67.0106 93.6576C68.221 93.045 69.2542 92.1324 70.0115 91.007C70.7689 89.8814 71.225 88.5806 71.3366 87.2286C71.5901 84.2466 70.4501 83.4786 69.6176 82.9131C68.5391 82.1856 68.5151 81.9156 69.8516 78.5946C70.7516 76.3446 71.5376 74.3946 69.5771 71.9856C67.3271 69.2166 66.5291 62.4426 61.1651 62.7861C58.2221 62.9751 58.1651 62.9361 57.4151 62.4861C52.6526 59.6136 44.0651 58.6236 42.3026 62.7156C41.6095 63.9924 40.5797 65.0549 39.3251 65.7876C35.0606 68.8206 31.2251 74.8611 34.2791 81.9966C31.2071 83.8566 32.1671 88.5591 34.8026 90.9531C35.2396 91.3788 35.7589 91.7111 36.3286 91.9295C36.8983 92.1479 37.5065 92.2481 38.1161 92.2236H38.4596C39.4679 95.8121 41.4392 99.0563 44.1596 101.605L42.8726 104.645C38.0141 103.886 32.5961 105.424 27.5726 108.995C23.2961 112.211 19.6625 116.202 16.8611 120.761C15.0301 123.7 13.4374 126.781 12.0986 129.974C11.8751 130.424 11.9576 130.724 12.4901 131.426C22.0151 148.124 47.2061 155.265 65.4641 142.664C65.8436 142.403 66.0461 142.406 66.0461 141.811C66.2327 137.755 65.9717 133.691 65.2676 129.692C76.6496 127.471 85.4216 120.116 91.3451 107.827C93.664 102.956 95.2766 97.7801 96.1346 92.4546C96.0566 91.4481 94.8146 90.2871 93.9446 89.5911C94.4816 88.1946 95.8946 84.6906 95.8946 84.6906C96.497 84.1505 96.9908 83.5004 97.3496 82.7751C97.8551 81.7146 97.6286 81.0891 97.3496 80.7516ZM70.3496 87.2496C70.2749 88.2408 69.9775 89.2025 69.4796 90.0629C68.9818 90.9233 68.2963 91.6604 67.4741 92.2191C67.9931 89.102 68.11 85.931 67.8221 82.7841C68.6336 84.1116 70.6406 83.8416 70.3496 87.2496ZM43.5836 63.2676C44.1446 61.9716 45.9461 61.2291 48.5261 61.2291C51.5221 61.2813 54.457 62.0855 57.0611 63.5676C58.0901 64.1676 58.3796 64.2006 61.4711 63.9966C65.9321 63.6966 66.4436 69.7701 68.9156 72.7941C71.0861 75.4506 69.0746 77.1156 67.7156 81.7116C67.5806 80.4246 67.5071 80.0361 67.4696 79.8351C67.4321 79.6341 67.4966 79.1376 66.9866 79.0671C64.0432 77.7344 61.6859 75.3753 60.3551 72.4311C60.3487 72.3318 60.3163 72.2358 60.2609 72.153C60.2057 72.0702 60.1297 72.0035 60.0404 71.9594C59.9512 71.9153 59.8519 71.8955 59.7526 71.9019C59.6533 71.9084 59.5574 71.9409 59.4746 71.9961C57.2362 73.6149 54.6061 74.6066 51.8561 74.8686C49.6547 75.1043 47.4286 74.8248 45.3536 74.0526C41.6771 71.9526 38.6441 69.6606 38.4386 68.7891C38.0321 67.5756 42.2441 66.3681 43.5836 63.2676ZM37.4996 69.5061C38.7131 71.4996 43.2881 74.1306 44.7431 74.9346C44.0846 78.0243 42.7682 80.9358 40.8836 83.4711C40.2902 82.6538 39.4637 82.0349 38.5123 81.6957C37.561 81.3564 36.5293 81.3129 35.5526 81.5706C34.5928 79.6044 34.2647 77.3895 34.6133 75.2297C34.9619 73.0697 35.9701 71.0705 37.4996 69.5061ZM43.0706 98.6301C41.5366 96.5153 40.3814 94.1501 39.6566 91.6401C39.3791 90.6696 37.8896 91.8126 36.0761 90.4626C33.9506 88.8771 32.7761 85.2366 34.6646 83.4336C36.4301 81.7416 39.1646 82.7781 40.3226 84.8046C40.3729 84.879 40.4393 84.9413 40.5169 84.9866C40.5944 85.032 40.6811 85.0593 40.7707 85.0667C40.8604 85.074 40.9504 85.0611 41.0342 85.029C41.1182 84.9969 41.1938 84.9464 41.2556 84.8811C43.4555 82.0965 45.016 78.8621 45.8261 75.4071C48.1334 76.0235 50.5442 76.1499 52.9034 75.7784C55.2626 75.407 57.5179 74.5457 59.5241 73.2501C60.949 76.2107 63.3607 78.5826 66.3446 79.9581C67.6226 89.1846 66.1601 96.7356 62.3201 100.697C57.6896 105.481 48.2186 105.277 43.0706 98.6301ZM45.3206 102.556C46.9685 103.798 48.8744 104.654 50.8976 105.061L49.5206 108.451C48.4568 108.533 47.3879 108.384 46.3868 108.015C45.3857 107.647 44.4761 107.066 43.7201 106.313C43.9706 105.67 43.8131 106.043 45.3206 102.556ZM37.3706 147.29C32.6072 146.345 28.082 144.453 24.064 141.726C20.0458 138.999 16.6165 135.492 13.9796 131.414C13.7696 131.098 13.5881 130.814 13.4126 130.514C15.6716 125.173 23.7176 108.614 37.3841 106.051C37.9184 108.363 38.8591 110.562 40.1621 112.546C41.0147 113.895 42.169 115.028 43.5341 115.856C43.9691 116.074 44.2061 115.817 44.4251 115.433L44.6186 116.356L37.3706 147.29ZM43.5206 114.569C40.9121 112.741 39.3401 108.977 38.4971 105.905C39.8572 105.725 41.2345 105.717 42.5966 105.881C42.4331 106.244 42.2831 106.454 42.5036 106.675C43.5568 107.827 44.893 108.684 46.3796 109.16C45.0146 111.815 44.0111 113.701 43.5206 114.569ZM47.8991 109.483C48.5486 109.578 49.2086 109.578 49.8581 109.483C50.3201 109.417 50.3231 109.441 50.6756 108.583C51.9455 109.307 53.1502 110.14 54.2756 111.073C52.871 112.651 51.293 114.066 49.5716 115.291C49.2176 114.011 48.2741 110.755 47.8991 109.483ZM65.1401 141.784C60.6626 144.782 55.5833 146.764 50.2586 147.592L48.3206 116.864L48.6971 116.236L48.7571 116.471C48.9071 116.902 49.4471 116.984 49.6121 116.792C51.6598 115.374 53.5438 113.734 55.2296 111.901C62.3336 118.318 64.4516 127.987 64.9796 135.013C65.1581 137.5 65.1461 139.454 65.1401 141.784ZM65.2406 128.672C64.2743 123.408 62.0971 118.44 58.8806 114.163C71.3816 112.363 77.7521 101.798 80.9216 93.0126C85.3577 94.8579 89.4823 97.377 93.1496 100.481C88.1996 116.212 78.0551 126.458 65.2406 128.672ZM95.0906 92.5671C94.7423 94.8515 94.2278 97.1075 93.5516 99.3171C89.8555 96.2825 85.7218 93.8243 81.2906 92.0256C81.9113 90.239 82.4375 88.421 82.8671 86.5791C82.8955 86.4182 82.9772 86.2715 83.099 86.1626C83.221 86.0537 83.3759 85.989 83.5391 85.9791C85.4021 85.9716 95.0906 90.8391 95.0906 92.5671ZM95.0741 84.0381C94.8521 84.2601 94.9886 84.0816 93.1136 88.9731C90.9536 87.4722 88.5848 86.2967 86.0831 85.4841C85.5071 83.4666 84.9281 80.4816 85.3736 79.8006C85.7621 79.7556 86.8376 81.2721 87.2261 82.3731C87.266 82.4783 87.335 82.5698 87.4252 82.637C87.5152 82.7043 87.6227 82.7445 87.7348 82.7528C87.847 82.7612 87.9592 82.7373 88.0582 82.6842C88.1572 82.631 88.2391 82.5507 88.2941 82.4526C89.1313 80.4054 90.2666 78.4932 91.6631 76.7781C91.7477 77.0804 91.7722 77.3964 91.7351 77.7081C91.7251 78.3786 91.6091 79.0433 91.3916 79.6776C90.9731 80.9676 92.0096 81.0126 92.3276 80.5776C92.9105 79.7204 93.6337 78.9674 94.4666 78.3501C94.5797 78.6225 94.6216 78.9194 94.5881 79.2126C94.5151 80.0574 94.2592 80.8764 93.8381 81.6126C93.7853 81.7266 93.7697 81.8544 93.7934 81.9779C93.8173 82.1012 93.8791 82.2141 93.9704 82.3004C94.0618 82.3868 94.1779 82.4423 94.3024 82.4591C94.427 82.4759 94.5536 82.4531 94.6646 82.3941C95.2553 82.005 95.9186 81.7397 96.6146 81.6141C96.5096 82.7496 95.6171 83.3616 95.0741 84.0381Z" fill="#4B1010"/>
<path d="M39.5357 86.8132C39.1097 85.1107 38.1737 84.3082 36.7622 84.4312C35.5517 84.4477 36.0542 85.8892 36.6992 85.6432C37.7237 85.6312 37.9442 85.6432 38.3822 87.0922C38.3898 87.1782 38.4159 87.2614 38.4587 87.3364C38.5014 87.4114 38.5599 87.4762 38.6301 87.5266C38.7002 87.5769 38.7803 87.6115 38.865 87.628C38.9498 87.6445 39.0371 87.6426 39.1209 87.6223C39.2048 87.6019 39.2834 87.5638 39.3512 87.5104C39.419 87.457 39.4745 87.3897 39.5138 87.3129C39.5532 87.2361 39.5754 87.1516 39.5793 87.0654C39.5831 86.9791 39.5682 86.8932 39.5357 86.8132Z" fill="#4B1010"/>
<path d="M54.3939 79.5006C53.3562 79.0557 52.2015 78.9624 51.1061 79.2353C50.0105 79.508 49.0343 80.1317 48.3265 81.0111C48.2797 81.0755 48.2467 81.1487 48.2291 81.2262C48.2117 81.3038 48.2102 81.384 48.2247 81.462C48.2393 81.5402 48.2696 81.6146 48.3138 81.6806C48.3581 81.7466 48.4154 81.8028 48.4821 81.846C48.5489 81.8892 48.6236 81.9183 48.702 81.9315C48.7803 81.9449 48.8606 81.942 48.9379 81.9233C49.0151 81.9045 49.0877 81.8703 49.1511 81.8225C49.2147 81.7748 49.2679 81.7146 49.3075 81.6456C49.8925 81.0087 50.6606 80.5691 51.5062 80.3871C52.3516 80.2053 53.2326 80.2902 54.0279 80.6301C54.1698 80.6543 54.3158 80.6264 54.4391 80.5518C54.5623 80.4771 54.6545 80.3606 54.6989 80.2236C54.7433 80.0865 54.7368 79.938 54.6809 79.8054C54.6249 79.6727 54.5231 79.5645 54.3939 79.5006Z" fill="#4B1010"/>
<path d="M65.3854 81.3176C65.1097 80.7294 64.6474 80.2488 64.0705 79.9505C63.4935 79.6521 62.8342 79.5527 62.1949 79.6676C62.1154 79.6779 62.0388 79.7046 61.9701 79.7457C61.9012 79.787 61.8417 79.8419 61.795 79.907C61.7482 79.9722 61.7155 80.0463 61.6986 80.1246C61.6818 80.2031 61.6812 80.2841 61.6969 80.3627C61.7127 80.4413 61.7445 80.5158 61.7902 80.5817C61.836 80.6475 61.8949 80.7032 61.963 80.7453C62.0313 80.7875 62.1075 80.8151 62.1868 80.8266C62.2662 80.8382 62.347 80.8332 62.4244 80.8121C62.8153 80.7636 63.2115 80.8406 63.556 81.0317C63.9004 81.2228 64.1755 81.5183 64.3414 81.8756C64.4154 82.014 64.5414 82.1174 64.6915 82.163C64.8417 82.2086 65.004 82.1925 65.1424 82.1186C65.2809 82.0446 65.3842 81.9186 65.4298 81.7683C65.4753 81.6182 65.4594 81.456 65.3854 81.3176Z" fill="#4B1010"/>
<path d="M54.1177 84.6535C54.5962 84.1735 53.8177 83.3545 53.2702 83.83C52.9372 84.13 53.0917 84.13 52.8202 84.139C52.4219 84.1948 52.0579 84.3943 51.7963 84.6997C51.5347 85.0052 51.3937 85.3958 51.3997 85.798C51.2602 87.6325 53.2117 88.0885 53.9497 86.647C54.0944 86.3695 54.1712 86.0617 54.1738 85.7488C54.1765 85.4359 54.1048 85.1267 53.9647 84.847C54.0202 84.793 54.0982 84.6715 54.1177 84.6535Z" fill="#4B1010"/>
<path d="M63.5504 85.3502C63.4459 85.4691 63.3022 85.5467 63.1454 85.5692C62.9053 85.5903 62.6728 85.665 62.4653 85.7877C62.2577 85.9104 62.0803 86.078 61.9459 86.2782C61.8115 86.4785 61.7237 86.7063 61.6888 86.9448C61.654 87.1835 61.673 87.4268 61.7444 87.6572C61.7602 87.9572 61.8791 88.2425 62.0813 88.4649C62.2834 88.6872 62.5561 88.8327 62.8534 88.8768C63.1505 88.9211 63.4538 88.8611 63.7118 88.707C63.9698 88.5531 64.1666 88.3146 64.2689 88.0322C64.4128 87.7544 64.4891 87.4467 64.4917 87.134C64.4944 86.8212 64.4231 86.5122 64.2839 86.2322C65.1599 85.4102 63.9899 84.7412 63.5504 85.3502Z" fill="#4B1010"/>
<path d="M59.8032 92.6832C59.7792 92.5332 58.5447 86.3217 58.5087 85.9407C58.5507 85.8582 59.2917 81.2907 59.5077 80.0472C59.6367 79.3227 58.4802 79.0407 58.3497 79.7937C56.9442 87.9297 57.0432 84.1782 58.6497 92.9292C58.7035 93.0584 58.8009 93.1646 58.9248 93.2295C59.0488 93.2945 59.1916 93.314 59.3284 93.2849C59.4654 93.2556 59.5876 93.1796 59.6743 93.0696C59.761 92.9598 59.8066 92.823 59.8032 92.6832Z" fill="#4B1010"/>
<path d="M59.0045 96.5118C57.7807 96.5631 56.56 96.3512 55.4251 95.8902C54.2902 95.4294 53.2672 94.7304 52.4255 93.8403C52.3624 93.7716 52.2839 93.7185 52.1965 93.6854C52.109 93.6524 52.0151 93.6401 51.9223 93.6497C51.8293 93.6593 51.7399 93.6905 51.6611 93.7409C51.5824 93.7911 51.5164 93.8591 51.4685 93.9393C50.9114 94.9497 50.6218 96.0857 50.627 97.2393C50.687 99.6468 53.177 101.168 55.532 101.381C55.6873 101.382 55.8364 101.321 55.9468 101.212C56.0572 101.103 56.1199 100.955 56.1208 100.8C56.1218 100.644 56.0611 100.495 55.9522 100.385C55.8431 100.274 55.6948 100.212 55.5395 100.211C54.128 100.184 51.932 99.0213 51.8375 97.3353C51.8294 96.6294 51.9463 95.9276 52.1825 95.2623C54.049 96.9428 56.5052 97.8155 59.0135 97.6893C59.1697 97.6881 59.3189 97.625 59.4286 97.5137C59.5381 97.4025 59.599 97.2522 59.5978 97.0961C59.5966 96.9399 59.5334 96.7907 59.4221 96.6812C59.311 96.5715 59.1607 96.5106 59.0045 96.5118Z" fill="#4B1010"/>
<path d="M37.0808 73.0059C36.8761 73.0147 36.6827 73.1023 36.5411 73.2502C36.3994 73.3983 36.3203 73.5952 36.3203 73.8001C36.3203 74.0049 36.3994 74.202 36.5411 74.3499C36.6827 74.4979 36.8761 74.5854 37.0808 74.5944C37.2854 74.5854 37.4788 74.4979 37.6205 74.3499C37.7621 74.202 37.8413 74.0049 37.8413 73.8001C37.8413 73.5952 37.7621 73.3983 37.6205 73.2502C37.4788 73.1023 37.2854 73.0147 37.0808 73.0059Z" fill="#4B1010"/>
<path d="M40.837 74.8164C40.624 74.8217 40.4206 74.9057 40.2659 75.0522C40.1114 75.1988 40.0167 75.3975 40 75.6099C40.0081 75.8292 40.099 76.0374 40.2542 76.1927C40.4095 76.3479 40.6175 76.4387 40.837 76.4469C41.0471 76.4378 41.2457 76.3481 41.3912 76.1961C41.5367 76.0442 41.618 75.842 41.618 75.6317C41.618 75.4212 41.5367 75.219 41.3912 75.0671C41.2457 74.9153 41.0471 74.8254 40.837 74.8164Z" fill="#4B1010"/>
<path d="M37.0587 76.7358C36.8479 76.7358 36.6457 76.8195 36.4966 76.9686C36.3475 77.1177 36.2637 77.3199 36.2637 77.5308C36.2637 77.7417 36.3475 77.9439 36.4966 78.093C36.6457 78.2421 36.8479 78.3258 37.0587 78.3258C37.1673 78.3324 37.2759 78.3168 37.3782 78.2799C37.4805 78.243 37.5741 78.1856 37.6533 78.111C37.7325 78.0366 37.7955 77.9466 37.8387 77.8469C37.8819 77.7471 37.9041 77.6396 37.9041 77.5308C37.9041 77.4221 37.8819 77.3145 37.8387 77.2148C37.7955 77.115 37.7325 77.025 37.6533 76.9506C37.5741 76.8761 37.4805 76.8186 37.3782 76.7817C37.2759 76.7448 37.1673 76.7292 37.0587 76.7358Z" fill="#4B1010"/>
<path d="M40.0606 78.6934C39.8497 78.6934 39.6475 78.7771 39.4984 78.9262C39.3493 79.0753 39.2656 79.2775 39.2656 79.4884C39.2656 79.6991 39.3493 79.9013 39.4984 80.0504C39.6475 80.1995 39.8497 80.2834 40.0606 80.2834C40.2715 80.2834 40.4737 80.1995 40.6228 80.0504C40.7719 79.9013 40.8556 79.6991 40.8556 79.4884C40.8556 79.2775 40.7719 79.0753 40.6228 78.9262C40.4737 78.7771 40.2715 78.6934 40.0606 78.6934Z" fill="#4B1010"/>
<path d="M84.7189 90.7508C84.4695 90.7411 84.2335 90.635 84.0606 90.455C83.8876 90.2752 83.791 90.0352 83.791 89.7856C83.791 89.536 83.8876 89.2961 84.0606 89.1161C84.2335 88.9363 84.4695 88.8302 84.7189 88.8203C84.9684 88.8302 85.2042 88.9363 85.3773 89.1161C85.5502 89.2961 85.6468 89.536 85.6468 89.7856C85.6468 90.0352 85.5502 90.2752 85.3773 90.455C85.2042 90.635 84.9684 90.7411 84.7189 90.7508Z" fill="#4B1010"/>
<path d="M89.7763 82.8007C89.7175 82.7336 89.6446 82.6804 89.5627 82.645C89.4809 82.6096 89.3921 82.5929 89.303 82.5961C89.2139 82.5994 89.1266 82.6223 89.0476 82.6636C88.9685 82.7047 88.8995 82.763 88.8458 82.8341C88.7921 82.9054 88.7549 82.9876 88.7369 83.0749C88.7189 83.1622 88.7207 83.2525 88.742 83.339C88.7633 83.4257 88.8037 83.5064 88.8601 83.5754C88.9165 83.6444 88.9876 83.7001 89.0683 83.7382C89.3212 83.9449 89.5271 84.2032 89.6725 84.4957C89.8178 84.7882 89.8991 85.1083 89.9113 85.4347C89.9102 85.5143 89.9254 85.5932 89.956 85.6669C89.9864 85.7404 90.0317 85.8068 90.0889 85.8623C90.146 85.9177 90.214 85.9609 90.2884 85.9892C90.3628 86.0174 90.4421 86.0303 90.5218 86.0269C90.6013 86.0233 90.6793 86.0036 90.751 85.969C90.8227 85.9343 90.8864 85.8854 90.9385 85.8251C90.9907 85.765 91.03 85.6948 91.054 85.6189C91.078 85.543 91.0862 85.4629 91.0783 85.3837C91.0424 84.8885 90.9089 84.4054 90.6854 83.9621C90.4619 83.5187 90.1529 83.1241 89.7763 82.8007Z" fill="#4B1010"/>
<path d="M50.7928 91.465C51.3247 90.1807 50.6974 88.7013 49.3918 88.1604C48.0861 87.6195 46.5963 88.2222 46.0644 89.5065C45.5323 90.7908 46.1596 92.2704 47.4654 92.8111C48.7711 93.352 50.2608 92.7493 50.7928 91.465Z" fill="#FFE55D"/>
</svg>
