<svg width="278" height="278" viewBox="0 0 278 278" fill="none" xmlns="http://www.w3.org/2000/svg">
<path fill-rule="evenodd" clip-rule="evenodd" d="M145.129 138.95L252.612 164.778L270.772 104.224C271.03 103.362 271.105 102.456 270.991 101.564C270.877 100.672 270.578 99.8142 270.112 99.0452C269.646 98.2763 269.023 97.6137 268.285 97.1002C267.547 96.5868 266.709 96.2338 265.826 96.0643L157.666 75.3157C156.782 75.1464 155.872 75.1648 154.994 75.3695C154.118 75.5744 153.293 75.9612 152.575 76.505C151.857 77.0486 151.262 77.7371 150.827 78.5257C150.392 79.3143 150.127 80.1855 150.051 81.0828L145.129 138.95Z" fill="#FE7465"/>
<path fill-rule="evenodd" clip-rule="evenodd" d="M145.128 139.378L252.65 164.722L235.651 235.559C235.409 236.568 234.967 237.518 234.353 238.354C233.738 239.19 232.963 239.895 232.072 240.425C231.182 240.958 230.194 241.307 229.166 241.451C228.139 241.596 227.093 241.533 226.09 241.268L129.307 215.668C128.287 215.399 127.332 214.923 126.501 214.273C125.67 213.622 124.98 212.809 124.473 211.882C123.966 210.956 123.651 209.937 123.551 208.886C123.45 207.836 123.564 206.775 123.886 205.77L145.128 139.378Z" fill="#FE7465"/>
<path fill-rule="evenodd" clip-rule="evenodd" d="M165.079 196.849L204.258 207.375L198.816 227.401L158.917 216.875L165.079 196.849Z" fill="white"/>
<path fill-rule="evenodd" clip-rule="evenodd" d="M149.084 139.502L248.747 163.802L266.035 101.345L155.124 80.5269L149.084 139.502Z" fill="white"/>
<path d="M122.957 205.474C144.363 138.476 144.132 138.853 144.618 138.551L149.51 81.037C149.593 80.0642 149.88 79.1197 150.351 78.2647C150.823 77.4098 151.468 76.6633 152.246 76.0737C153.025 75.4841 153.918 75.0644 154.868 74.8419C155.819 74.6193 156.806 74.5989 157.765 74.782L265.935 95.5333C266.892 95.7175 267.8 96.1003 268.6 96.6569C269.4 97.2136 270.075 97.932 270.58 98.7656C271.086 99.599 271.411 100.529 271.535 101.496C271.658 102.463 271.578 103.445 271.299 104.379C253.358 164.171 253.343 163.991 253.478 164.21C253.545 164.319 253.59 164.441 253.61 164.568C253.63 164.693 253.625 164.822 253.596 164.947L236.597 235.786C236.137 237.7 235.045 239.404 233.498 240.621C231.95 241.839 230.037 242.499 228.068 242.497C226.298 242.497 227.97 242.775 129.06 216.608C127.912 216.305 126.837 215.771 125.902 215.039C124.967 214.307 124.189 213.393 123.618 212.35C123.047 211.309 122.694 210.162 122.581 208.981C122.467 207.798 122.595 206.605 122.957 205.474ZM270.259 104.068C270.495 103.279 270.563 102.45 270.459 101.633C270.354 100.817 270.08 100.031 269.654 99.3274C269.227 98.6234 268.658 98.0166 267.982 97.5464C267.307 97.076 266.54 96.7524 265.732 96.5966L157.563 75.8467C156.753 75.6919 155.92 75.7088 155.117 75.8966C154.314 76.0844 153.56 76.4387 152.902 76.9367C152.245 77.4346 151.7 78.0651 151.301 78.7873C150.903 79.5094 150.661 80.3071 150.591 81.1287L145.709 138.515L148.571 139.189L154.586 80.4726C154.593 80.3978 154.616 80.3254 154.653 80.26C154.69 80.1946 154.74 80.1376 154.8 80.0926C154.86 80.0476 154.929 80.0156 155.002 79.9988C155.076 79.9818 155.152 79.9804 155.225 79.9945C266.559 100.724 266.293 100.735 266.496 101.053C266.699 101.371 266.655 101.136 249.538 162.983L252.382 163.653L270.259 104.068ZM248.481 162.738L265.351 101.769L155.604 81.176L149.635 139.448L248.481 162.738ZM129.556 214.724L226.339 240.331C227.217 240.562 228.132 240.616 229.03 240.489C229.929 240.362 230.793 240.057 231.572 239.591C232.351 239.126 233.029 238.51 233.567 237.779C234.105 237.048 234.492 236.218 234.704 235.335L251.476 165.446L242.777 163.397C242.393 164.433 241.662 165.304 240.708 165.862C239.754 166.419 238.637 166.629 237.545 166.455C234.011 165.719 158.767 147.568 157.923 147.357C157.066 146.97 156.355 146.32 155.896 145.498C155.437 144.677 155.255 143.73 155.376 142.797L145.785 140.536L124.814 206.07C124.534 206.95 124.436 207.877 124.524 208.796C124.613 209.713 124.887 210.604 125.331 211.415C125.774 212.224 126.377 212.935 127.104 213.504C127.83 214.074 128.664 214.487 129.556 214.724Z" fill="black"/>
<path d="M199.29 228.448C199.505 228.448 199.714 228.377 199.884 228.245C200.054 228.114 200.176 227.931 200.231 227.722L205.581 207.335C205.613 207.211 205.621 207.082 205.604 206.956C205.586 206.829 205.544 206.707 205.48 206.597C205.415 206.486 205.329 206.39 205.228 206.312C205.126 206.236 205.01 206.179 204.886 206.147L165.201 195.736C164.958 195.672 164.699 195.704 164.48 195.827C164.26 195.95 164.096 196.153 164.023 196.393L157.811 216.795C157.772 216.922 157.76 217.054 157.775 217.185C157.789 217.317 157.83 217.443 157.896 217.557C157.96 217.673 158.048 217.773 158.153 217.852C158.258 217.933 158.378 217.99 158.506 218.021L199.29 228.448ZM203.45 207.783L198.595 226.292L159.968 216.39L165.61 197.855L203.45 207.783Z" fill="black"/>
<path d="M135.911 183.399L146.246 150.249C146.32 150.013 146.482 149.813 146.698 149.692C146.914 149.571 147.169 149.536 147.409 149.596L244.071 173.661C244.322 173.724 244.537 173.882 244.67 174.103C244.803 174.324 244.843 174.59 244.78 174.84L236.497 208.108C236.435 208.358 236.277 208.574 236.056 208.706C235.836 208.839 235.571 208.879 235.321 208.818L136.608 184.632C136.479 184.6 136.358 184.543 136.252 184.463C136.146 184.382 136.059 184.282 135.993 184.167C135.928 184.051 135.888 183.923 135.874 183.791C135.859 183.659 135.872 183.526 135.911 183.399ZM147.059 185.191L148.056 181.82L144.085 180.831L143.045 184.208L147.059 185.191ZM152.013 186.405L152.976 183.048L149.108 182.09L148.114 185.457L152.013 186.405ZM157.434 187.735L158.315 184.379L154.025 183.31L153.063 186.663L157.434 187.735ZM162.131 188.886L163.008 185.55L159.368 184.642L158.486 187.992L162.131 188.886ZM166.828 190.035L167.699 186.719L164.059 185.811L163.183 189.147L166.828 190.035ZM171.526 191.186L172.393 187.888L168.752 186.981L167.88 190.294L171.526 191.186ZM176.223 192.337L177.085 189.058L173.444 188.15L172.578 191.445L176.223 192.337ZM180.92 193.488L181.776 190.227L178.135 189.319L177.275 192.596L180.92 193.488ZM185.616 194.639L186.47 191.396L182.828 190.488L181.972 193.747L185.616 194.639ZM190.315 195.79L191.161 192.566L187.521 191.659L186.67 194.897L190.315 195.79ZM195.01 196.941L195.854 193.735L192.213 192.828L191.367 196.047L195.01 196.941ZM199.708 198.092L200.542 194.904L196.902 193.998L196.068 197.195L199.708 198.092ZM204.405 199.243L205.239 196.075L201.599 195.167L200.765 198.349L204.405 199.243ZM209.424 200.473L210.258 197.324L206.295 196.336L205.461 199.5L209.424 200.473ZM214.459 201.706L215.282 198.578L211.304 197.586L210.478 200.73L214.459 201.706ZM219.168 202.859L219.984 199.75L216.333 198.84L215.513 201.963L219.168 202.859ZM224.46 204.156L225.272 201.068L221.036 200.013L220.22 203.117L224.46 204.156ZM229.916 205.492L230.722 202.426L226.324 201.33L225.514 204.413L229.916 205.492ZM236.793 198.844L233.029 197.907L232.048 201.639L235.861 202.59L236.793 198.844ZM237.987 194.047L234.287 193.124L233.306 196.857L237.059 197.791L237.987 194.047ZM239.181 189.25L235.544 188.344L234.562 192.076L238.25 192.995L239.181 189.25ZM240.394 184.385L236.818 183.494L235.819 187.296L239.444 188.199L240.394 184.385ZM241.539 179.78L238.025 178.904L237.094 182.444L240.655 183.333L241.539 179.78ZM233.745 173.1L232.853 176.498L237.249 177.593L238.143 174.193L233.745 173.1ZM228.463 171.782L227.569 175.18L231.805 176.235L232.699 172.837L228.463 171.782ZM223.758 170.611L222.866 174.007L226.517 174.918L227.411 171.52L223.758 170.611ZM218.73 169.36L217.837 172.755L221.815 173.75L222.707 170.354L218.73 169.36ZM213.714 168.109L212.822 171.502L216.786 172.491L217.678 169.096L213.714 168.109ZM209.021 166.94L208.13 170.333L211.771 171.241L212.67 167.847L209.021 166.94ZM204.329 165.773L203.438 169.163L207.078 170.071L207.97 166.679L204.329 165.773ZM199.636 164.604L198.745 167.994L202.387 168.902L203.278 165.51L199.636 164.604ZM194.943 163.436L194.054 166.825L197.693 167.733L198.585 164.343L194.943 163.436ZM190.252 162.267L189.361 165.656L193.001 166.562L193.892 163.174L190.252 162.267ZM185.559 161.1L184.668 164.486L188.309 165.393L189.2 162.006L185.559 161.1ZM180.867 159.931L179.976 163.317L183.618 164.224L184.509 160.837L180.867 159.931ZM176.174 158.763L175.285 162.146L178.925 163.054L179.815 159.669L176.174 158.763ZM171.482 157.594L170.592 160.977L174.232 161.885L175.122 158.5L171.482 157.594ZM166.79 156.426L165.901 159.808L169.541 160.716L170.431 157.333L166.79 156.426ZM162.08 155.253L161.107 158.616L164.841 159.546L165.731 156.165L162.08 155.253ZM157.381 154.084L156.389 157.437L160.061 158.353L161.026 154.992L157.381 154.084ZM152.68 152.914L151.65 156.257L155.337 157.176L156.328 153.822L152.68 152.914ZM145.373 159.586L149.197 160.539L150.277 157.035L146.464 156.086L145.373 159.586ZM143.878 164.381L147.719 165.339L148.877 161.578L145.049 160.623L143.878 164.381ZM142.404 169.107L146.263 170.069L147.4 166.375L143.556 165.41L142.404 169.107ZM140.931 173.833L144.806 174.806L145.95 171.109L142.087 170.147L140.931 173.833ZM223.761 185.407L220.108 184.496L219.127 188.228L222.779 189.139L223.761 185.407ZM223.83 189.401L228.066 190.456L229.047 186.724L224.812 185.668L223.83 189.401ZM163.42 169.246L167.06 170.154L168.059 166.352L164.419 165.445L163.42 169.246ZM163.367 165.183L159.505 164.22L158.421 168L162.367 168.984L163.367 165.183ZM214.028 182.975L210.065 181.987L209.084 185.719L213.047 186.708L214.028 182.975ZM214.099 186.97L218.076 187.961L219.057 184.228L215.08 183.237L214.099 186.97ZM209.013 181.724L205.372 180.818L204.391 184.55L208.032 185.458L209.013 181.724ZM204.32 180.555L200.68 179.648L199.699 183.381L203.339 184.288L204.32 180.555ZM199.629 179.386L195.987 178.479L195.007 182.211L198.648 183.119L199.629 179.386ZM194.936 178.216L191.296 177.31L190.315 181.042L193.955 181.95L194.936 178.216ZM190.245 177.047L186.603 176.139L185.622 179.873L189.264 180.781L190.245 177.047ZM185.552 175.878L181.912 174.97L180.931 178.703L184.571 179.61L185.552 175.878ZM180.86 174.708L177.219 173.8L176.238 177.534L179.879 178.441L180.86 174.708ZM176.167 173.539L172.527 172.631L171.545 176.365L175.186 177.271L176.167 173.539ZM171.476 172.37L167.836 171.462L166.853 175.194L170.495 176.102L171.476 172.37ZM166.783 171.199L163.143 170.292L162.162 174.025L165.802 174.933L166.783 171.199ZM168.111 170.413L171.751 171.32L172.751 167.519L169.11 166.612L168.111 170.413ZM172.802 171.582L176.444 172.489L177.443 168.689L173.801 167.781L172.802 171.582ZM177.495 172.752L181.136 173.66L182.136 169.858L178.494 168.95L177.495 172.752ZM182.187 173.921L185.828 174.829L186.827 171.027L183.187 170.121L182.187 173.921ZM186.88 175.091L190.52 175.998L191.52 172.197L187.879 171.29L186.88 175.091ZM191.571 176.26L195.212 177.168L196.211 173.366L192.571 172.459L191.571 176.26ZM196.264 177.429L199.904 178.337L200.904 174.535L197.263 173.629L196.264 177.429ZM200.956 178.6L204.597 179.507L205.596 175.706L201.956 174.798L200.956 178.6ZM205.648 179.769L209.29 180.676L210.289 176.875L206.647 175.967L205.648 179.769ZM210.34 180.939L214.305 181.926L215.311 178.129L211.347 177.14L210.34 180.939ZM215.355 182.19L219.332 183.181L220.332 179.38L216.355 178.388L215.355 182.19ZM220.383 183.441L224.036 184.352L225.041 180.561L221.388 179.651L220.383 183.441ZM218.854 189.272L217.873 193.004L221.526 193.915L222.507 190.183L218.854 189.272ZM217.802 189.009L213.825 188.018L212.844 191.752L216.822 192.743L217.802 189.009ZM212.774 187.758L208.81 186.77L207.829 190.504L211.793 191.491L212.774 187.758ZM207.759 186.507L204.117 185.601L203.136 189.333L206.778 190.241L207.759 186.507ZM203.066 185.338L199.426 184.431L198.445 188.164L202.085 189.072L203.066 185.338ZM198.375 184.169L194.733 183.262L193.752 186.995L197.393 187.902L198.375 184.169ZM193.683 183L190.041 182.09L189.059 185.822L192.7 186.73L193.683 183ZM188.99 181.83L185.35 180.922L184.368 184.656L188.009 185.564L188.99 181.83ZM184.297 180.661L180.657 179.753L179.676 183.486L183.316 184.393L184.297 180.661ZM179.606 179.491L175.966 178.584L174.984 182.317L178.625 183.224L179.606 179.491ZM174.913 178.322L171.273 177.414L170.292 181.146L173.932 182.054L174.913 178.322ZM170.221 177.153L166.58 176.245L165.599 179.977L169.239 180.885L170.221 177.153ZM165.53 175.982L161.889 175.076L160.908 178.808L164.548 179.716L165.53 175.982ZM160.837 174.813L156.76 173.797L155.695 177.509L159.85 178.548L160.837 174.813ZM161.115 173.764L162.096 170.032L158.126 169.042L157.06 172.755L161.115 173.764ZM157.07 168.782L153.317 167.847L152.222 171.551L156.007 172.495L157.07 168.782ZM152.262 167.584L148.456 166.636L147.318 170.329L151.168 171.288L152.262 167.584ZM152.571 166.543L153.683 162.77L149.93 161.836L148.772 165.598L152.571 166.543ZM153.623 166.8L157.376 167.734L158.46 163.96L154.743 163.033L153.623 166.8ZM158.753 162.908L159.764 159.387L156.083 158.47L155.045 161.984L158.753 162.908ZM159.807 163.171L163.643 164.127L164.575 160.587L160.822 159.65L159.807 163.171ZM164.696 164.388L168.336 165.296L169.266 161.756L165.627 160.848L164.696 164.388ZM169.387 165.559L173.027 166.466L173.958 162.925L170.318 162.018L169.387 165.559ZM174.079 166.728L177.72 167.635L178.65 164.095L175.009 163.187L174.079 166.728ZM178.771 167.898L182.412 168.804L183.341 165.271L179.699 164.363L178.771 167.898ZM183.463 169.067L187.105 169.975L188.035 166.434L184.395 165.527L183.463 169.067ZM188.156 170.236L191.796 171.144L192.728 167.603L189.087 166.696L188.156 170.236ZM192.849 171.406L196.489 172.313L197.419 168.772L193.779 167.865L192.849 171.406ZM197.54 172.575L201.182 173.483L202.112 169.943L198.47 169.035L197.54 172.575ZM202.232 173.75L205.873 174.658L206.804 171.117L203.164 170.21L202.232 173.75ZM206.925 174.919L210.566 175.827L211.495 172.286L207.855 171.379L206.925 174.919ZM211.616 176.089L215.581 177.078L216.512 173.537L212.548 172.549L211.616 176.089ZM216.631 177.34L220.608 178.331L221.54 174.791L217.563 173.8L216.631 177.34ZM221.661 178.591L225.313 179.502L226.243 175.96L222.59 175.051L221.661 178.591ZM226.364 179.763L230.6 180.82L231.531 177.278L227.296 176.223L226.364 179.763ZM226.086 180.813L225.085 184.614L229.322 185.669L230.322 181.868L226.086 180.813ZM230.373 185.932L234.771 187.027L235.77 183.226L231.372 182.13L230.373 185.932ZM230.095 186.98L229.114 190.714L233.52 191.82L234.493 188.081L230.095 186.98ZM228.844 191.762L227.863 195.495L232.259 196.592L233.242 192.863L228.844 191.762ZM227.792 191.5L223.556 190.444L222.575 194.177L226.81 195.232L227.792 191.5ZM222.299 195.227L221.317 198.959L225.554 200.014L226.535 196.282L222.299 195.227ZM221.248 194.964L217.596 194.054L216.615 197.787L220.266 198.696L221.248 194.964ZM216.544 193.792L212.567 192.8L211.586 196.534L215.563 197.525L216.544 193.792ZM211.515 192.541L207.552 191.553L206.571 195.287L210.534 196.274L211.515 192.541ZM206.501 191.29L202.859 190.383L201.878 194.115L205.52 195.023L206.501 191.29ZM201.807 190.12L198.168 189.214L197.187 192.946L200.826 193.854L201.807 190.12ZM197.116 188.951L193.475 188.043L192.494 191.777L196.135 192.683L197.116 188.951ZM192.423 187.782L188.783 186.874L187.81 190.607L191.45 191.514L192.423 187.782ZM187.732 186.612L184.09 185.704L183.109 189.438L186.751 190.345L187.732 186.612ZM183.039 185.443L179.399 184.535L178.418 188.269L182.058 189.175L183.039 185.443ZM178.348 184.274L174.706 183.366L173.725 187.098L177.365 188.006L178.348 184.274ZM173.655 183.103L170.014 182.196L169.032 185.929L172.674 186.837L173.655 183.103ZM168.963 181.934L165.322 181.027L164.341 184.759L167.981 185.667L168.963 181.934ZM164.27 180.764L160.63 179.858L159.648 183.59L163.289 184.498L164.27 180.764ZM159.579 179.595L155.394 178.552L154.329 182.264L158.598 183.329L159.579 179.595ZM154.341 178.29L150.511 177.335L149.417 181.039L153.275 182.002L154.341 178.29ZM154.64 177.246L155.705 173.535L151.913 172.589L150.818 176.294L154.64 177.246ZM150.859 172.327L146.999 171.365L145.861 175.058L149.766 176.031L150.859 172.327ZM150.253 160.79L153.993 161.721L155.031 158.207L151.332 157.285L150.253 160.79ZM232.582 177.545L231.652 181.085L236.048 182.182L236.978 178.641L232.582 177.545ZM231.984 197.644L227.586 196.549L226.605 200.281L231.003 201.378L231.984 197.644ZM148.363 180.781L149.457 177.075L145.541 176.102L144.404 179.797L148.363 180.781ZM144.488 175.836L140.608 174.863L139.457 178.555L143.349 179.528L144.488 175.836ZM146.784 155.045L150.591 155.994L151.621 152.651L147.824 151.706L146.784 155.045ZM239.2 174.453L238.306 177.853L241.807 178.726L242.656 175.315L239.2 174.453ZM235.604 203.643L231.778 202.69L230.974 205.748L234.843 206.697L235.604 203.643ZM141.988 183.95L143.03 180.568L139.138 179.595L138.08 182.988L141.988 183.95Z" fill="black"/>
<path d="M244.997 109.115C245.131 109.114 245.26 109.064 245.36 108.974C245.459 108.884 245.521 108.76 245.534 108.627C245.548 108.493 245.511 108.36 245.432 108.252C245.352 108.144 245.236 108.069 245.104 108.042L198.65 98.69C198.509 98.6616 198.363 98.6904 198.243 98.77C198.123 98.8497 198.04 98.9735 198.012 99.1146C197.983 99.2556 198.012 99.4021 198.092 99.5219C198.171 99.6417 198.295 99.725 198.436 99.7533L244.997 109.115Z" fill="black"/>
<path d="M192.558 98.6705C192.693 98.6713 192.824 98.6217 192.924 98.5312C193.025 98.4407 193.088 98.316 193.101 98.1815C193.114 98.0469 193.077 97.9122 192.996 97.804C192.915 97.6957 192.796 97.6214 192.664 97.596L171.75 93.4079C171.679 93.3932 171.607 93.3925 171.537 93.406C171.466 93.4193 171.399 93.4467 171.34 93.4862C171.28 93.5257 171.228 93.5767 171.188 93.6362C171.148 93.6957 171.121 93.7625 171.107 93.8329C171.093 93.9032 171.093 93.9755 171.107 94.0458C171.121 94.116 171.149 94.1829 171.189 94.2422C171.229 94.3016 171.281 94.3524 171.341 94.3916C171.401 94.431 171.468 94.4581 171.538 94.4713L192.558 98.6705Z" fill="black"/>
<path d="M243.014 118.087C243.147 118.085 243.274 118.035 243.372 117.945C243.47 117.856 243.532 117.733 243.546 117.601C243.56 117.469 243.526 117.337 243.448 117.228C243.371 117.12 243.257 117.044 243.128 117.014L221.884 112.419C221.744 112.389 221.597 112.416 221.476 112.494C221.355 112.572 221.27 112.695 221.24 112.835C221.21 112.976 221.237 113.123 221.315 113.244C221.393 113.364 221.516 113.449 221.656 113.48L243.014 118.087Z" fill="black"/>
<path d="M214.16 111.478C214.294 111.478 214.424 111.429 214.524 111.339C214.624 111.249 214.687 111.126 214.701 110.992C214.715 110.858 214.679 110.724 214.599 110.616C214.52 110.507 214.403 110.432 214.271 110.405L165.885 100.219C165.745 100.19 165.598 100.217 165.477 100.296C165.357 100.375 165.273 100.498 165.243 100.639C165.214 100.78 165.241 100.926 165.32 101.047C165.399 101.167 165.522 101.252 165.663 101.281L214.16 111.478Z" fill="black"/>
<path d="M241.287 127.046C241.421 127.046 241.55 126.997 241.65 126.908C241.749 126.819 241.813 126.696 241.827 126.563C241.842 126.43 241.806 126.296 241.728 126.187C241.65 126.079 241.535 126.003 241.404 125.974L190.084 114.722C189.946 114.698 189.804 114.728 189.688 114.805C189.572 114.883 189.49 115.003 189.46 115.139C189.43 115.276 189.453 115.419 189.526 115.538C189.599 115.658 189.715 115.744 189.85 115.78L241.287 127.046Z" fill="black"/>
<path d="M239.819 136.761C239.953 136.761 240.082 136.712 240.182 136.623C240.282 136.533 240.345 136.41 240.359 136.277C240.374 136.144 240.339 136.011 240.261 135.902C240.182 135.794 240.067 135.718 239.936 135.689L188.616 124.437C188.476 124.406 188.329 124.432 188.207 124.509C188.086 124.587 188.001 124.709 187.97 124.85C187.939 124.99 187.965 125.137 188.042 125.258C188.12 125.38 188.242 125.465 188.383 125.496L239.819 136.761Z" fill="black"/>
<path d="M237.733 145.672C237.865 145.671 237.992 145.619 238.09 145.53C238.188 145.441 238.25 145.32 238.265 145.188C238.28 145.058 238.246 144.926 238.17 144.817C238.094 144.709 237.981 144.631 237.853 144.6L186.905 133.111C186.765 133.079 186.617 133.104 186.496 133.181C186.374 133.258 186.288 133.38 186.256 133.52C186.225 133.66 186.25 133.807 186.327 133.929C186.404 134.05 186.526 134.137 186.666 134.168L237.733 145.672Z" fill="black"/>
<path d="M235.648 154.568C235.781 154.568 235.91 154.519 236.01 154.432C236.109 154.343 236.173 154.22 236.188 154.088C236.204 153.956 236.17 153.823 236.093 153.713C236.016 153.605 235.902 153.528 235.772 153.498L184.214 141.388C184.076 141.36 183.933 141.388 183.814 141.463C183.696 141.54 183.612 141.659 183.579 141.795C183.547 141.933 183.57 142.077 183.642 142.198C183.714 142.318 183.83 142.407 183.966 142.443L235.648 154.568Z" fill="black"/>
<path d="M254.766 109.115C255.128 109.111 255.483 109.215 255.786 109.413C256.089 109.612 256.326 109.895 256.467 110.229C256.609 110.562 256.648 110.93 256.579 111.286C256.511 111.641 256.339 111.969 256.084 112.226C255.829 112.483 255.504 112.659 255.149 112.731C254.794 112.803 254.426 112.768 254.091 112.631C253.756 112.493 253.47 112.259 253.268 111.958C253.067 111.657 252.959 111.304 252.959 110.941C252.958 110.703 253.003 110.466 253.093 110.245C253.183 110.024 253.316 109.823 253.484 109.654C253.652 109.484 253.851 109.349 254.071 109.257C254.291 109.164 254.527 109.116 254.766 109.115Z" fill="black"/>
<path d="M250.235 126.917C250.597 126.913 250.952 127.017 251.255 127.215C251.558 127.413 251.795 127.697 251.936 128.031C252.077 128.364 252.116 128.732 252.048 129.088C251.98 129.443 251.807 129.77 251.553 130.028C251.298 130.285 250.973 130.461 250.618 130.533C250.263 130.605 249.895 130.57 249.56 130.432C249.225 130.295 248.939 130.061 248.737 129.76C248.535 129.459 248.428 129.105 248.428 128.743C248.426 128.505 248.472 128.268 248.562 128.047C248.652 127.826 248.785 127.625 248.953 127.455C249.12 127.286 249.32 127.151 249.54 127.058C249.76 126.966 249.996 126.918 250.235 126.917Z" fill="black"/>
<path d="M246.122 145.224C246.484 145.22 246.839 145.324 247.142 145.523C247.445 145.721 247.682 146.006 247.823 146.339C247.964 146.671 248.003 147.04 247.935 147.396C247.866 147.751 247.694 148.078 247.439 148.335C247.184 148.594 246.859 148.769 246.504 148.841C246.149 148.912 245.78 148.877 245.446 148.74C245.111 148.602 244.825 148.367 244.623 148.067C244.422 147.765 244.314 147.412 244.315 147.049C244.312 146.568 244.501 146.106 244.84 145.762C245.179 145.42 245.64 145.227 246.122 145.224Z" fill="black"/>
<path fill-rule="evenodd" clip-rule="evenodd" d="M193.235 224.365C192.671 223.208 192.679 221.168 191.803 218.757C190.128 214.392 189.374 209.727 189.59 205.057C189.895 200.652 192.423 196.324 192.398 192.732C192.373 189.14 191.071 183.385 194.435 184.931C197.798 186.477 198.86 190.38 198.382 193.688C198.119 196.151 198.144 198.637 198.457 201.094C198.457 201.094 203.524 194.839 203.98 191.534C204.436 188.228 205.147 182.806 204.397 180.708C203.646 178.611 202.166 173.979 203.596 172.883C205.026 171.786 205.866 171.921 207.734 175.094C209.305 177.591 210.38 180.365 210.902 183.267C210.902 183.267 210.624 180.063 210.269 178.058C209.915 176.052 209.262 173.283 210.991 172.393C212.72 171.504 213.656 172.969 214.744 174.734C215.705 176.03 216.54 177.413 217.236 178.868C217.366 178.583 217.563 178.333 217.808 178.138C218.054 177.944 218.342 177.81 218.649 177.749C218.956 177.688 219.274 177.699 219.576 177.784C219.877 177.869 220.154 178.024 220.384 178.237C221.762 179.246 222.832 180.617 223.476 182.198C224.119 183.78 224.31 185.509 224.028 187.193C223.897 189.823 223.469 192.429 222.75 194.963C222.297 196.692 222.04 198.466 221.983 200.252C222.925 199.662 223.742 198.894 224.386 197.989C225.03 197.083 225.489 196.058 225.736 194.975C226.809 191.055 225.983 187.806 226.57 186.19C227.157 184.575 229.533 182.67 230.377 185.195C231.396 187.979 231.758 190.96 231.434 193.906C231.007 197.152 230.295 201.588 229.087 203.939C227.879 206.291 223.78 210.659 222.678 213.398C221.576 216.138 220.593 221.163 218.618 225.664C217.702 227.846 216.664 229.975 215.508 232.041C208.779 227.792 201.154 225.165 193.235 224.365Z" fill="#FE7465"/>
<path fill-rule="evenodd" clip-rule="evenodd" d="M156.792 218.192L163.107 211.997C166.693 208.479 168.852 207.391 170.215 201.758C171.579 196.126 170.61 193.25 171.775 190.124C172.94 186.998 175.992 183.693 175.906 181.173C175.82 178.653 169.733 179.56 167.777 184.074C165.821 188.587 165.114 192.564 162.07 193.163C161.732 188.984 161.794 184.784 162.255 180.617C162.321 177.628 163.152 174.706 164.668 172.131C165.887 170.21 170.666 167.998 169.376 164.996C168.086 161.993 164.572 164.44 161.929 166.597C161.929 166.597 164.842 163.707 162.387 160.909C160.285 161.243 158.303 162.103 156.624 163.411C156.521 162.744 156.165 162.141 155.632 161.728C155.098 161.314 154.426 161.12 153.753 161.187C151.328 161.465 146.979 165.392 145.643 167.33C145.643 167.33 139.457 171.936 138.098 174.905C136.739 177.874 136.394 180.315 135.433 182.539C134.473 184.763 134.182 188.487 134.877 193.159C135.336 198.218 135.508 203.3 135.393 208.379C141.481 206.451 148.711 210.207 156.792 218.192Z" fill="#FE7465"/>
<path fill-rule="evenodd" clip-rule="evenodd" d="M230.727 188.067C230.727 188.067 227.808 189.735 227.779 185.263C227.779 185.263 228.901 183.409 230.003 184.707C230.673 185.69 230.933 186.895 230.727 188.067Z" fill="white"/>
<path fill-rule="evenodd" clip-rule="evenodd" d="M221.883 179.949C221.883 179.949 220.126 182.417 217.97 179.143C217.361 177.019 220.497 177.481 221.883 179.949Z" fill="white"/>
<path fill-rule="evenodd" clip-rule="evenodd" d="M214.608 174.906C214.608 174.906 214.156 176.251 213.079 176.333C211.211 176.472 210.577 173.48 210.577 173.48C210.577 173.48 211.204 170.955 213.168 172.87C213.801 173.426 214.295 174.124 214.608 174.906Z" fill="white"/>
<path fill-rule="evenodd" clip-rule="evenodd" d="M207.666 175.571C207.666 175.571 206.401 176.951 205.14 175.988C204.762 175.682 204.452 175.3 204.229 174.868C204.006 174.435 203.876 173.961 203.846 173.475C203.846 173.475 204.447 171.465 205.912 172.674C206.798 173.422 207.414 174.439 207.666 175.571Z" fill="white"/>
<path fill-rule="evenodd" clip-rule="evenodd" d="M194.643 185.259C194.643 185.259 195.783 190.935 192.532 191.497C192.532 191.497 191.575 184.611 193.018 184.62C194.461 184.628 194.643 185.259 194.643 185.259Z" fill="white"/>
<path fill-rule="evenodd" clip-rule="evenodd" d="M173.394 186.553C173.086 186.455 172.806 186.284 172.577 186.056C172.347 185.828 172.175 185.55 172.074 185.242C171.974 184.935 171.947 184.607 171.997 184.289C172.046 183.969 172.171 183.666 172.36 183.403C173.641 181.075 174.406 180.857 174.406 180.857C176.698 178.955 175.9 184.445 173.394 186.553Z" fill="white"/>
<path fill-rule="evenodd" clip-rule="evenodd" d="M169.121 165.246C169.121 165.246 167.025 167.311 165.578 166.626C164.131 165.941 163.963 165.292 163.963 165.292C164.931 164.323 166.22 163.742 167.587 163.659C167.792 163.66 167.995 163.703 168.184 163.784C168.373 163.866 168.544 163.982 168.687 164.131C168.829 164.278 168.941 164.454 169.016 164.644C169.091 164.836 169.126 165.04 169.121 165.246Z" fill="white"/>
<path fill-rule="evenodd" clip-rule="evenodd" d="M163.047 163.171C163.047 163.171 161.072 164.997 159.772 164.272C159.418 164.048 159.165 163.696 159.067 163.289C158.969 162.882 159.033 162.452 159.247 162.092C160.141 161.446 161.203 161.07 162.305 161.013C162.797 161.624 163.06 162.387 163.047 163.171Z" fill="white"/>
<path fill-rule="evenodd" clip-rule="evenodd" d="M155.819 162.408C152.722 165.019 150.508 163.659 152.302 161.821C152.555 161.587 152.858 161.415 153.187 161.316C153.517 161.219 153.865 161.197 154.204 161.254C154.543 161.311 154.865 161.444 155.145 161.643C155.425 161.843 155.655 162.105 155.819 162.408Z" fill="white"/>
<path d="M176.947 265.543C180.921 249.645 181.185 249.082 183.595 244.472C184.811 242.213 185.891 239.882 186.828 237.494C189.453 230.796 184.955 231.311 188.565 225.733C189.046 225.129 189.666 224.648 190.371 224.331C191.075 224.014 191.846 223.871 192.618 223.911C192.335 222.216 191.891 220.553 191.29 218.943C189.586 214.509 188.824 209.769 189.051 205.025C189.357 200.577 191.881 196.204 191.856 192.742C191.835 189.709 190.932 185.532 192.551 184.402C192.874 184.217 193.24 184.124 193.611 184.129C193.982 184.136 194.345 184.243 194.661 184.438C198.293 186.106 199.416 190.326 198.917 193.763C198.691 195.719 198.67 197.694 198.855 199.654C200.295 197.773 203.119 193.803 203.442 191.453C203.795 188.904 204.619 182.934 203.891 180.889C201.398 173.888 202.806 172.806 203.269 172.45C205.493 170.748 206.697 172.256 208.207 174.813C208.746 175.727 209.213 176.601 209.615 177.454C209.251 175.457 208.866 172.867 210.748 171.905C213.396 170.545 214.585 173.573 216.287 176.091C216.726 176.743 217.108 177.311 217.383 177.813C217.831 177.382 218.427 177.139 219.048 177.136C219.669 177.133 220.268 177.369 220.719 177.796C222.163 178.871 223.285 180.319 223.964 181.984C224.644 183.651 224.855 185.47 224.575 187.248C224.428 189.909 223.994 192.546 223.281 195.113C222.924 196.436 222.696 197.79 222.599 199.156C227.047 195.316 225.252 188.23 226.064 186.004C226.281 185.336 226.679 184.741 227.214 184.286C227.75 183.83 228.401 183.533 229.096 183.427C229.57 183.442 230.434 183.65 230.894 185.024C231.948 187.883 232.318 190.948 231.974 193.976C231.557 197.173 230.847 201.704 229.572 204.187C228.321 206.621 224.253 210.945 223.178 213.601C221.608 217.504 221.028 223.209 216.221 231.881C216.712 232.208 217.139 232.619 217.484 233.097C219.443 236.344 215.012 240.418 215.212 243.652C215.417 246.967 215.54 248.051 214.181 250.899C212.969 253.439 213.764 254.114 213.437 259.138C213.156 262.538 212.475 265.893 211.411 269.135C211.373 269.242 211.304 269.333 211.212 269.4C211.12 269.465 211.009 269.5 210.896 269.5C210.757 269.5 177.486 266.234 177.346 266.199C177.277 266.182 177.211 266.152 177.154 266.11C177.096 266.068 177.047 266.014 177.01 265.954C176.973 265.893 176.948 265.825 176.938 265.754C176.927 265.685 176.93 265.612 176.947 265.543ZM194.113 185.387C193.791 185.248 193.393 185.135 193.165 185.292C192.347 185.861 192.76 189.556 192.849 190.844C195.344 190.569 194.125 185.437 194.113 185.387ZM205.083 172.813C204.774 172.791 204.469 172.891 204.233 173.091C204.573 175.022 205.745 176.659 207.204 175.261C206.276 173.692 205.595 172.916 205.083 172.813ZM211.953 172.674C210.595 172.698 211.106 173.489 211.205 173.775C212.135 176.462 213.507 176.164 214.096 174.722C213.245 173.352 212.68 172.662 211.953 172.674ZM220.062 178.675C219.856 178.475 219.595 178.338 219.313 178.283C219.031 178.227 218.739 178.254 218.472 178.361C219.156 179.994 220.016 180.971 221.263 179.735C220.895 179.346 220.49 178.996 220.062 178.675ZM229.857 185.373C229.564 184.499 229.104 184.272 228.328 184.793C228.266 186.342 228.542 187.387 229.089 187.712C229.367 187.872 229.784 187.917 230.497 187.582C230.323 186.859 230.112 186.127 229.857 185.373ZM215.318 231.271C217.709 226.93 219.551 222.307 220.799 217.51C222.221 212.566 222.26 212.314 225.917 207.527C228.655 203.942 229.663 203.148 230.89 193.837C231.111 192.115 231.055 190.367 230.725 188.662C229.03 189.369 227.486 188.641 227.264 185.967C226.14 187.981 228.205 194.744 223.986 199.311L222.681 202.773C222.637 202.889 222.556 202.986 222.45 203.048C222.344 203.112 222.219 203.137 222.097 203.119C221.975 203.103 221.862 203.044 221.778 202.954C221.693 202.863 221.642 202.748 221.633 202.624C221.264 200.007 221.468 197.34 222.232 194.808C222.932 192.356 223.349 189.834 223.473 187.287C223.858 184.934 223.316 182.522 221.961 180.561C221.728 180.844 221.428 181.065 221.09 181.207C220.751 181.348 220.383 181.403 220.018 181.37C219.652 181.335 219.301 181.211 218.995 181.01C218.688 180.808 218.436 180.535 218.259 180.213C220.422 187.036 219.694 188.103 218.654 195.184C218.335 196.646 217.764 198.042 216.965 199.306C216.887 199.425 216.765 199.508 216.626 199.537C216.488 199.568 216.343 199.541 216.223 199.466C216.103 199.39 216.017 199.27 215.985 199.131C215.952 198.994 215.976 198.848 216.049 198.727C217.037 197.213 217.638 195.48 217.8 193.68C218.89 187.237 218.867 185.958 217.433 181.221C216.982 179.222 216.069 177.358 214.767 175.775C213.751 177.338 211.57 177.478 210.392 174.699C210.409 175.651 210.521 176.599 210.724 177.529C211.22 180.23 211.351 182.71 211.532 183.687C213.294 193.253 213.259 192.637 213.061 192.925C213.008 193.015 212.929 193.088 212.834 193.132C212.739 193.177 212.634 193.192 212.53 193.175C212.427 193.159 212.331 193.111 212.255 193.039C212.179 192.968 212.126 192.875 212.104 192.772C210.083 181.836 210.096 180.419 207.755 176.219C206.026 177.628 204.22 176.574 203.536 174.659C203.682 176.674 204.144 178.654 204.907 180.525C205.624 182.544 205.142 187.043 204.512 191.604C204.226 193.671 202.296 196.747 200.772 198.902L200.024 204.569C200.009 204.683 199.958 204.789 199.879 204.871C199.8 204.954 199.696 205.01 199.584 205.03C199.471 205.051 199.355 205.035 199.251 204.986C199.148 204.936 199.063 204.855 199.009 204.754C197.518 201.974 197.392 196.7 197.84 193.607C198.098 192.252 198.006 190.854 197.571 189.544C197.137 188.235 196.375 187.059 195.357 186.128C195.619 187.826 195.8 191.14 193.431 191.827C193.336 191.855 193.402 191.827 192.911 191.938C193.122 196.581 190.451 200.384 190.131 205.089C189.916 209.686 190.659 214.277 192.312 218.572C192.956 220.297 193.427 222.083 193.717 223.901C199.882 224.051 210.622 228.274 215.318 231.271Z" fill="black"/>
<path d="M104.472 255.856C107.548 247.68 118.276 232.304 121.337 226.869C124.598 221.079 127.762 223.348 132.136 211.823C132.634 210.371 133.589 209.119 134.858 208.255C134.973 203.246 134.802 198.233 134.345 193.243C133.658 188.681 133.868 184.805 134.938 182.328C135.911 180.081 136.213 177.727 137.607 174.683C138.648 172.409 142.261 169.321 144.154 167.806C145.805 166.484 150.123 161.069 153.694 160.653C154.367 160.555 155.054 160.688 155.641 161.033C156.229 161.376 156.681 161.911 156.924 162.547C158.536 161.407 160.393 160.662 162.345 160.368C162.429 160.361 162.513 160.374 162.591 160.406C162.669 160.438 162.739 160.488 162.794 160.551C163.288 161.076 163.636 161.722 163.801 162.426C163.967 163.128 163.946 163.862 163.739 164.552C166.137 162.937 168.735 162.124 169.875 164.782C171.349 168.216 166.279 170.606 165.125 172.427C163.662 174.93 162.86 177.764 162.794 180.662C162.378 184.563 162.291 188.491 162.534 192.407C164.758 191.639 165.507 187.952 167.28 183.862C169.462 178.826 176.335 177.931 176.447 181.159C176.542 183.908 173.447 187.198 172.277 190.319C171.165 193.304 172.107 196.236 170.738 201.892C169.337 207.672 167.145 208.792 163.482 212.389C160.631 215.186 158.242 217.393 157.395 218.162C157.7 218.532 157.958 218.937 158.162 219.371C159.919 223.556 155.948 224.215 153.941 228.984C152.069 233.432 151.111 236.839 149.493 240.538C147.86 244.281 148.234 246.156 146.26 250.603C144.286 255.05 139.556 266.317 139.509 266.431C139.467 266.53 139.398 266.613 139.309 266.673C139.221 266.731 139.116 266.763 139.01 266.763L104.777 256.559C104.643 256.506 104.536 256.402 104.479 256.27C104.422 256.138 104.42 255.989 104.472 255.856ZM152.483 162.167C152.263 162.48 152.055 163.126 152.448 163.279C153.569 163.396 154.691 163.072 155.577 162.376C154.779 161.421 153.595 161.629 152.483 162.167ZM162.168 161.487C161.292 161.653 160.438 161.924 159.628 162.298C159.521 162.559 159.504 162.848 159.579 163.119C159.655 163.392 159.818 163.631 160.045 163.799C160.973 164.313 162.626 162.798 162.765 162.712C162.655 162.264 162.455 161.847 162.168 161.487ZM164.598 165.292C164.939 165.657 165.354 165.945 165.816 166.137C166.698 166.554 168.219 165.365 168.721 164.886C167.87 163.464 166.083 164.336 164.598 165.292ZM175.054 180.607C174.186 181.524 173.443 182.553 172.844 183.665C172.69 183.89 172.584 184.144 172.532 184.413C172.48 184.68 172.482 184.955 172.539 185.222C172.735 185.736 173.223 185.821 173.373 185.946C174.082 184.76 176.187 181.403 175.054 180.607ZM135.423 193.082C135.891 197.94 136.067 202.82 135.954 207.699C142.005 205.336 152.369 212.509 156.709 217.326C160.752 213.63 162.004 212.253 164.486 209.959C167.706 206.97 170.146 204.687 170.542 194.863C170.416 192.022 171.218 189.216 172.826 186.872C171.589 186.427 170.85 185.041 171.893 183.148C172.439 182.132 173.111 181.188 173.893 180.34C172.687 180.429 171.528 180.843 170.54 181.54C169.551 182.237 168.771 183.189 168.282 184.295C166.796 187.724 166.015 190.908 164.315 192.571L163.7 198.528C163.687 198.649 163.634 198.762 163.549 198.848C163.465 198.935 163.353 198.991 163.233 199.008C163.113 199.023 162.99 198.998 162.886 198.937C162.781 198.876 162.701 198.78 162.656 198.667C160.698 193.633 161.343 185.733 161.722 180.58C161.8 177.503 162.661 174.496 164.224 171.844C165.336 170.083 169.06 168.175 169.067 166.034C168.286 166.751 167.295 167.2 166.24 167.313C165.248 167.186 164.342 166.685 163.709 165.912C161.966 167.184 161.682 167.929 158.149 171.041C156.064 172.883 153.603 180.429 153.578 180.504C153.532 180.639 153.435 180.749 153.308 180.813C153.181 180.875 153.034 180.886 152.899 180.843C152.764 180.799 152.651 180.704 152.586 180.579C152.52 180.453 152.506 180.307 152.547 180.17C152.651 179.849 155.124 172.265 157.433 170.228C159.518 168.38 162.159 166.261 162.715 164.126C162.063 164.627 161.28 164.928 160.46 164.99C160.187 164.994 159.917 164.94 159.666 164.833C159.415 164.726 159.189 164.569 159.003 164.37C158.816 164.17 158.674 163.935 158.584 163.677C158.493 163.419 158.458 163.147 158.479 162.875C155.389 164.786 152.617 167.168 150.263 169.936C148.934 172.056 148.381 178.701 147.496 181.171C147.447 181.306 147.347 181.417 147.217 181.478C147.086 181.54 146.937 181.546 146.802 181.498C146.667 181.449 146.556 181.349 146.495 181.218C146.434 181.089 146.427 180.939 146.475 180.804C147.357 178.352 147.833 171.769 149.346 169.359C151.07 167.241 153.063 165.356 155.274 163.753C152.323 165.11 151.036 164.126 151.132 162.952C148.934 164.348 147.086 166.23 145.732 168.454C144.973 170.142 144.514 171.949 144.375 173.793C144.298 175.875 143.78 177.916 142.854 179.783C142.781 179.906 142.661 179.995 142.522 180.03C142.382 180.066 142.234 180.044 142.111 179.97C141.987 179.897 141.898 179.777 141.863 179.637C141.828 179.498 141.849 179.35 141.923 179.227C142.753 177.499 143.22 175.621 143.295 173.705C143.422 172.129 143.76 170.578 144.299 169.091C142.399 170.652 139.448 173.27 138.593 175.137C137.172 178.235 136.987 180.315 135.935 182.76C134.959 185.017 134.776 188.781 135.423 193.082Z" fill="black"/>
<path d="M212.384 242.098C209.475 238.934 205.933 236.418 201.989 234.713C198.044 233.007 193.785 232.149 189.488 232.198C189.348 232.215 189.22 232.284 189.131 232.393C189.041 232.501 188.998 232.64 189.009 232.78C189.021 232.921 189.086 233.05 189.192 233.143C189.297 233.236 189.435 233.285 189.575 233.278C193.709 233.243 197.804 234.076 201.596 235.722C205.388 237.367 208.793 239.79 211.591 242.833C211.692 242.926 211.823 242.977 211.96 242.976C212.096 242.976 212.228 242.925 212.328 242.832C212.428 242.738 212.489 242.612 212.499 242.476C212.51 242.339 212.468 242.205 212.384 242.098Z" fill="white"/>
<path d="M212.266 241.999C202.095 235.914 189.957 237.778 189.446 237.86C189.307 237.886 189.183 237.964 189.102 238.081C189.02 238.196 188.987 238.339 189.009 238.478C189.032 238.618 189.108 238.744 189.221 238.827C189.335 238.912 189.477 238.949 189.617 238.93C189.741 238.908 201.886 237.051 211.708 242.927C211.831 242.993 211.974 243.01 212.109 242.973C212.243 242.936 212.358 242.848 212.43 242.729C212.501 242.609 212.524 242.467 212.494 242.331C212.463 242.195 212.381 242.077 212.266 241.999Z" fill="white"/>
<path d="M153.071 224.31C150.183 221.567 146.721 219.503 142.935 218.266C139.15 217.029 135.137 216.651 131.187 217.16C131.046 217.189 130.923 217.274 130.843 217.393C130.766 217.514 130.738 217.662 130.767 217.802C130.796 217.942 130.881 218.066 131 218.145C131.121 218.223 131.269 218.251 131.409 218.222C138.005 217.368 144.67 219.146 149.964 223.17C145.405 221.719 136.492 219.51 129.683 221.684C129.552 221.733 129.445 221.83 129.384 221.957C129.323 222.082 129.312 222.226 129.355 222.36C129.398 222.492 129.49 222.604 129.612 222.671C129.736 222.738 129.879 222.754 130.014 222.718C138.993 219.851 152.372 225.159 152.505 225.213C152.623 225.259 152.753 225.263 152.874 225.225C152.994 225.184 153.096 225.104 153.164 224.997C153.231 224.89 153.258 224.762 153.241 224.637C153.224 224.511 153.164 224.396 153.071 224.31Z" fill="white"/>
<path d="M139.417 252.507C137.011 243.458 132.97 234.925 127.496 227.328C127.407 227.214 127.278 227.14 127.135 227.122C126.993 227.105 126.848 227.144 126.734 227.233C126.622 227.321 126.548 227.45 126.53 227.593C126.512 227.736 126.551 227.879 126.64 227.993C132.026 235.472 136 243.873 138.366 252.78C138.408 252.913 138.499 253.024 138.62 253.093C138.743 253.159 138.886 253.177 139.021 253.143C139.156 253.108 139.272 253.023 139.346 252.905C139.419 252.785 139.445 252.644 139.417 252.507Z" fill="white"/>
<path d="M201.649 255.186C205.291 255.314 208.914 254.608 212.242 253.123C212.369 253.055 212.464 252.941 212.506 252.803C212.548 252.666 212.534 252.517 212.466 252.389C212.399 252.263 212.284 252.168 212.146 252.125C212.009 252.083 211.86 252.097 211.733 252.165C211.651 252.208 203.351 256.465 189.695 252.128C189.626 252.104 189.554 252.093 189.481 252.097C189.408 252.103 189.338 252.121 189.272 252.153C189.207 252.186 189.149 252.231 189.102 252.286C189.055 252.342 189.019 252.406 188.997 252.475C188.975 252.543 188.967 252.617 188.974 252.689C188.981 252.762 189.002 252.833 189.037 252.897C189.071 252.96 189.118 253.016 189.175 253.062C189.231 253.108 189.297 253.141 189.367 253.161C193.332 254.464 197.475 255.147 201.649 255.186Z" fill="white"/>
<path fill-rule="evenodd" clip-rule="evenodd" d="M14.8257 80.4463L83.9865 115.701L118.042 69.6057L117.502 80.3907L84.3951 125.418L15.3414 89.0991L14.8257 80.4463Z" fill="#FE7465"/>
<path d="M14.4559 80.0502L51.6718 45.2599C51.7454 45.1913 51.8358 45.1445 51.9331 45.1243C52.0318 45.1042 52.1333 45.1117 52.2278 45.1459L118.228 69.0956C118.336 69.1351 118.431 69.2086 118.495 69.3052C118.559 69.4018 118.589 69.5163 118.584 69.6321C117.989 81.3651 118.08 80.5186 117.939 80.7118L84.8302 125.739C84.7524 125.845 84.6398 125.919 84.5119 125.949C84.384 125.978 84.2506 125.96 84.1352 125.898L15.0828 89.5828C15.0008 89.5392 14.9299 89.4751 14.8799 89.3967C14.8298 89.3183 14.7992 89.2283 14.7937 89.1352C14.221 79.8014 14.189 80.2976 14.4559 80.0502ZM116.968 80.2003L117.417 71.2376L84.8177 116.153L84.8094 123.937L116.968 80.2003ZM15.8654 88.7655L83.7252 124.454L83.7349 116.098L15.4178 81.2664L15.8654 88.7655Z" fill="black"/>
<path d="M81.0522 117.316C81.1745 117.316 81.2927 117.274 81.3886 117.198C81.4845 117.122 81.5512 117.015 81.579 116.896C81.6068 116.777 81.5929 116.652 81.5401 116.541C81.4873 116.431 81.3997 116.341 81.2899 116.287L24.14 88.4874C24.0121 88.4325 23.8676 88.4287 23.7369 88.4772C23.6063 88.5256 23.5006 88.6224 23.4395 88.7475C23.3783 88.8726 23.3672 89.0164 23.4089 89.149C23.4506 89.2818 23.5423 89.3933 23.6646 89.4604L81.0522 117.316Z" fill="black"/>
<path d="M74.1468 116.864C74.2677 116.863 74.3859 116.822 74.4818 116.746C74.5763 116.67 74.643 116.564 74.6708 116.446C74.6986 116.328 74.6861 116.204 74.6361 116.093C74.5846 115.983 74.4984 115.893 74.39 115.837L19.3849 88.0941C19.321 88.0621 19.2515 88.0429 19.1806 88.0378C19.1083 88.0326 19.0375 88.0415 18.9693 88.0641C18.9012 88.0866 18.8387 88.1223 18.7845 88.169C18.7303 88.2159 18.6872 88.2727 18.6552 88.3366C18.6218 88.4006 18.6038 88.4701 18.5982 88.5414C18.5927 88.6127 18.6024 88.6843 18.6246 88.7521C18.6469 88.8199 18.683 88.8826 18.7289 88.9367C18.7761 88.9908 18.8331 89.0351 18.8971 89.0671L74.1468 116.864Z" fill="black"/>
<path d="M98.0923 100.833L115.566 76.9254C115.644 76.8092 115.673 76.6675 115.648 76.5299C115.624 76.3925 115.548 76.2697 115.435 76.1871C115.323 76.1047 115.182 76.069 115.043 76.0873C114.904 76.1058 114.779 76.177 114.692 76.286L97.218 100.194C97.1332 100.31 97.0985 100.455 97.1193 100.597C97.1416 100.739 97.2194 100.866 97.3348 100.951C97.4515 101.036 97.5961 101.071 97.7379 101.049C97.8796 101.027 98.0075 100.949 98.0923 100.833Z" fill="black"/>
<path d="M86.6579 118.746L108.089 90.318C108.175 90.2032 108.213 90.0586 108.193 89.9161C108.174 89.7737 108.097 89.6449 107.983 89.5584C107.868 89.4718 107.723 89.4342 107.58 89.4542C107.438 89.4741 107.309 89.5499 107.223 89.6647L85.792 118.093C85.7058 118.208 85.6683 118.352 85.6877 118.495C85.7072 118.637 85.7836 118.766 85.899 118.853C86.013 118.939 86.1575 118.977 86.3007 118.957C86.4425 118.937 86.5718 118.861 86.6579 118.746Z" fill="black"/>
<path fill-rule="evenodd" clip-rule="evenodd" d="M115.281 80.973L56.1087 105.267L19.7574 37.0323L20.3676 56.035L54.8633 120.235L111.397 93.7457L115.281 80.973Z" fill="white"/>
<path fill-rule="evenodd" clip-rule="evenodd" d="M115.281 80.9731C103.615 59.3767 91.5301 40.6631 79.8763 20.6541L19.7574 37.0324L56.1949 105.238L115.281 80.9731Z" fill="#FE7465"/>
<path d="M53.6178 107.1L22.935 46.9028C22.8683 46.7762 22.7557 46.6807 22.6195 46.6372C22.4832 46.5937 22.3359 46.6057 22.208 46.6705C22.0815 46.7353 21.9842 46.8477 21.9397 46.9834C21.8953 47.1191 21.905 47.267 21.9689 47.3949L52.6518 107.593C52.7171 107.721 52.8311 107.818 52.9673 107.862C53.1049 107.907 53.2537 107.895 53.3815 107.829C53.5094 107.764 53.6067 107.65 53.6512 107.513C53.6957 107.376 53.6832 107.228 53.6178 107.1Z" fill="black"/>
<path d="M53.2452 112.464L26.054 59.0875C25.9873 58.9609 25.8747 58.8654 25.7385 58.822C25.6023 58.7785 25.4549 58.7905 25.3271 58.8552C25.2006 58.9202 25.1033 59.0326 25.0588 59.1681C25.0143 59.3038 25.024 59.4517 25.088 59.5796L52.2778 112.956C52.3431 113.084 52.4571 113.181 52.5933 113.226C52.7309 113.27 52.8796 113.259 53.0075 113.193C53.1354 113.128 53.2327 113.015 53.2772 112.878C53.3217 112.741 53.3105 112.592 53.2452 112.464Z" fill="black"/>
<path d="M63.4755 107.407L110.394 86.8264C110.52 86.7651 110.617 86.6571 110.666 86.5253C110.713 86.3936 110.709 86.2482 110.652 86.1197C110.595 85.9914 110.491 85.89 110.362 85.837C110.231 85.7839 110.086 85.7833 109.956 85.8353L63.2518 106.367C63.1378 106.418 63.0446 106.506 62.989 106.617C62.9321 106.729 62.9154 106.856 62.9418 106.978C62.9682 107.1 63.0363 107.209 63.1322 107.287C63.2295 107.365 63.3504 107.407 63.4755 107.407Z" fill="black"/>
<path d="M58.4855 112.333L106.399 90.7795C106.529 90.7203 106.632 90.6116 106.682 90.477C106.734 90.3425 106.73 90.1933 106.67 90.0622C106.61 89.9312 106.502 89.829 106.367 89.7781C106.233 89.7274 106.083 89.732 105.953 89.7912L58.2631 111.297C58.1505 111.348 58.0588 111.437 58.0032 111.547C57.9476 111.658 57.9309 111.784 57.9573 111.905C57.9837 112.025 58.0504 112.134 58.1463 112.212C58.2422 112.29 58.3618 112.332 58.4855 112.333Z" fill="black"/>
<path fill-rule="evenodd" clip-rule="evenodd" d="M80.8424 35.7703L56.5313 43.6349L63.5591 54.6075L87.292 45.87L80.8424 35.7703Z" fill="white"/>
<path d="M34.2259 38.3348C34.2565 38.2579 34.3037 38.189 34.3649 38.1333C34.4261 38.0777 34.4997 38.0368 34.579 38.0137L76.1191 26.0291C76.2331 25.9956 76.354 26.0006 76.4652 26.0433C76.575 26.0861 76.6696 26.1641 76.7307 26.2654L79.6275 30.9914C79.6705 31.0618 79.697 31.1411 79.7053 31.2233C79.7137 31.3056 79.7025 31.3884 79.6733 31.4658C79.6442 31.5431 79.5983 31.6126 79.5371 31.6692C79.4773 31.7258 79.4051 31.7679 79.3258 31.7921L37.9469 44.5231C37.8524 44.5231 37.7593 44.4985 37.6773 44.4516C37.5966 44.4048 37.5271 44.3375 37.4799 44.2562C33.9701 38.3418 34.0883 38.6781 34.2259 38.3348Z" fill="black"/>
<path d="M63.5577 55.1496C63.712 55.1496 63.5925 55.2149 87.4769 46.3801C87.5533 46.3519 87.6214 46.3071 87.6784 46.249C87.734 46.1909 87.7771 46.1209 87.8021 46.0441C87.8285 45.9674 87.8369 45.8858 87.8271 45.8055C87.8174 45.7251 87.7896 45.6479 87.7465 45.5795L81.2997 35.4783C81.2344 35.3774 81.1385 35.3007 81.0259 35.2602C80.9133 35.2198 80.7896 35.2178 80.6756 35.2545L56.3645 43.1192C56.2852 43.1445 56.213 43.1877 56.1532 43.2455C56.0934 43.3035 56.049 43.3744 56.0212 43.4528C55.8905 43.8128 55.4651 42.9857 63.1018 54.8994C63.1505 54.9759 63.2186 55.0387 63.2978 55.0825C63.377 55.1261 63.4674 55.1492 63.5577 55.1496ZM86.4691 45.592L63.7801 53.9459L57.3667 43.9379L80.6103 36.418L86.4691 45.592Z" fill="black"/>
<path d="M19.6142 36.5084L79.7331 20.1314C79.8485 20.0998 79.9708 20.1073 80.082 20.1525C80.1918 20.1978 80.285 20.2783 80.3447 20.3816C91.9471 40.31 104.122 59.1709 115.756 80.7146C115.812 80.8174 115.876 80.7576 115.748 81.2622C115.513 82.1768 114.636 84.9471 111.917 93.9043C111.805 94.2698 111.848 93.7653 55.094 120.731C54.9689 120.79 54.8257 120.798 54.6937 120.755C54.563 120.711 54.4518 120.62 54.3865 120.498L19.8269 56.0573L19.2153 37.0533C19.2112 36.9308 19.2473 36.8103 19.3196 36.7113C19.3918 36.6125 19.4961 36.5409 19.6142 36.5084ZM20.629 37.3563L30.8718 56.573C33.7047 58.5286 36.7321 60.1855 39.9069 61.5173C31.8365 51.2563 28.8508 38.0068 28.3004 35.2671L20.629 37.3563ZM80.1418 77.562C87.9008 79.8555 92.7018 88.2442 93.4149 89.5619L108.783 83.2555C104.692 77.4048 98.5037 73.3559 91.5036 71.9506C77.6287 69.5278 67.4275 80.2169 50.0233 70.4355C46.7443 68.5514 43.8072 66.1243 41.34 63.2575C38.0457 62.0386 34.8903 60.4692 31.931 58.576C37.1255 68.3241 36.6904 67.5554 36.8044 67.6944C51.4578 85.4058 62.5083 72.3426 80.1418 77.562ZM38.8213 71.5044L56.5118 104.702L92.4044 89.9678C91.5704 88.4819 86.9181 80.6867 79.8346 78.592C63.662 73.8188 52.5934 84.9958 38.8213 71.5044ZM79.6164 21.2865L29.3442 34.9822C29.8544 37.5689 33.0333 51.9985 41.9529 62.3109C56.6397 67.5777 69.8349 63.4966 82.9843 62.8878C91.8108 62.4434 100.568 64.6525 108.127 69.2304C98.551 52.4642 89.0378 37.4438 79.6164 21.2865ZM109.272 71.3265C101.596 66.0056 92.3557 63.4174 83.033 63.9776C70.4146 64.56 57.6516 68.3713 43.4778 63.9776C45.5614 66.1439 47.9452 67.9998 50.5556 69.4889C67.5359 79.0396 77.4994 68.4061 91.6913 70.8789C95.3484 71.5829 98.8317 73.001 101.94 75.052C105.049 77.1029 107.724 79.7464 109.81 82.8315L114.608 80.8619C114.425 80.5338 109.515 71.5225 109.272 71.3265ZM110.95 93.358L114.361 82.1337L56.6494 105.817L55.8057 115.709L107.03 91.7664C107.161 91.7056 107.309 91.699 107.444 91.7482C107.58 91.7973 107.69 91.8981 107.751 92.0285C107.811 92.1588 107.818 92.308 107.769 92.4431C107.719 92.5782 107.619 92.6883 107.489 92.7492L55.7056 116.956L55.5027 119.341L110.95 93.358ZM20.9056 55.8905L54.488 118.393L55.6 105.304L20.3635 39.1702L20.9056 55.8905Z" fill="black"/>
<path fill-rule="evenodd" clip-rule="evenodd" d="M60.7332 89.6287C57.8892 89.6287 55.5832 91.5594 55.5832 93.9377C55.5832 96.316 57.8892 98.2467 60.7332 98.2467C63.5771 98.2467 65.8845 96.316 65.8845 93.9377C65.8845 91.5594 63.5785 89.6287 60.7332 89.6287Z" fill="#FE7465"/>
<path d="M60.7333 98.9486C63.9567 98.9486 66.5713 96.7023 66.5713 93.9446C66.5713 91.1868 63.9498 88.9406 60.7333 88.9406C57.5168 88.9406 54.8883 91.1868 54.8883 93.9446C54.8883 96.7023 57.5113 98.9486 60.7333 98.9486ZM60.7333 90.3236C63.1908 90.3236 65.1813 91.9457 65.1813 93.9376C65.1813 95.9295 63.1839 97.5516 60.7333 97.5516C58.2827 97.5516 56.2783 95.9295 56.2783 93.9376C56.2783 91.9457 58.2772 90.3236 60.7333 90.3236Z" fill="black"/>
<path fill-rule="evenodd" clip-rule="evenodd" d="M128.265 29.5388C128.265 18.227 139.217 9.04187 152.707 9.04187C166.197 9.04187 177.148 18.227 177.148 29.5388C177.082 32.5223 176.321 35.4491 174.926 38.087C173.531 40.7248 171.539 43.0008 169.11 44.7343L172.331 59.82L158.987 49.3477C143.56 52.7893 128.265 43.0468 128.265 29.5388Z" fill="white"/>
<path d="M172.331 60.515C172.435 60.5153 172.537 60.4922 172.631 60.4477C172.724 60.4031 172.807 60.3381 172.872 60.2575C172.938 60.1768 172.984 60.0826 173.008 59.9815C173.032 59.8806 173.034 59.7755 173.012 59.6741L169.88 45.0165C172.297 43.2119 174.27 40.8797 175.65 38.1977C177.029 35.5157 177.779 32.5543 177.842 29.5389C177.842 17.8545 166.566 8.34692 152.707 8.34692C138.847 8.34692 127.57 17.8545 127.57 29.5389C127.57 43.3471 143.017 53.4302 158.817 50.0956C172.24 60.6318 171.957 60.515 172.331 60.515ZM152.707 9.73692C165.8 9.73692 176.452 18.6204 176.452 29.5389C176.383 32.4146 175.645 35.2347 174.297 37.7761C172.95 40.3175 171.029 42.5103 168.687 44.1811C168.583 44.2608 168.504 44.3682 168.458 44.4912C168.412 44.6142 168.402 44.7477 168.429 44.8761L171.251 58.0811L159.418 48.7931C159.337 48.7289 159.243 48.6839 159.142 48.6612C159.041 48.6386 158.937 48.639 158.837 48.6625C143.811 52.0152 128.96 42.5465 128.96 29.5319C128.96 18.626 139.613 9.73692 152.707 9.73692Z" fill="black"/>
<path d="M152.365 18.8373C153.239 18.8373 154.094 19.0965 154.821 19.5823C155.548 20.0681 156.114 20.7585 156.449 21.5663C156.783 22.374 156.871 23.2629 156.7 24.1204C156.529 24.9777 156.108 25.7655 155.49 26.3836C154.871 27.0016 154.084 27.4225 153.226 27.5929C152.369 27.7633 151.48 27.6756 150.672 27.3409C149.865 27.006 149.174 26.4393 148.689 25.7122C148.203 24.9851 147.944 24.1304 147.945 23.2561C147.946 22.0843 148.412 20.9608 149.24 20.1322C150.069 19.3038 151.193 18.838 152.365 18.8373Z" fill="black"/>
<path d="M149.505 30.6231C150.015 30.092 150.649 29.6965 151.351 29.4723C152.052 29.2482 152.798 29.2025 153.521 29.3394C154.245 29.4763 154.922 29.7914 155.493 30.2564C156.064 30.7213 156.51 31.3213 156.79 32.002C157.071 32.6826 157.177 33.4224 157.099 34.1545C157.022 34.8866 156.763 35.5877 156.346 36.1945C155.929 36.8012 155.367 37.2944 154.711 37.6292C154.056 37.9641 153.327 38.1302 152.591 38.1124C154.06 39.7684 155.689 41.2742 157.456 42.6077C157.552 42.6812 157.62 42.7846 157.65 42.9014C157.68 43.0181 157.671 43.1416 157.623 43.2522C157.575 43.3628 157.492 43.4544 157.386 43.5124C157.28 43.5704 157.158 43.5915 157.039 43.5723C156.953 43.557 148.498 41.9891 148.291 33.7033C148.276 33.1347 148.376 32.5688 148.584 32.0395C148.793 31.5103 149.106 31.0285 149.505 30.6231Z" fill="black"/>
<path fill-rule="evenodd" clip-rule="evenodd" d="M257.196 43.9726C257.196 32.6608 243.653 23.4757 226.972 23.4757C210.29 23.4757 196.747 32.665 196.747 43.9726C196.747 49.7634 200.361 55.2831 206.687 59.1681L202.704 74.2538L219.203 63.7815C221.767 64.2412 224.367 64.4715 226.972 64.4696C243.653 64.4696 257.196 55.2859 257.196 43.9726Z" fill="white"/>
<path d="M202.704 74.9488C203.019 74.9488 202.783 75.0266 219.348 64.5127C221.866 64.948 224.416 65.1661 226.972 65.1646C244.021 65.1646 257.891 55.6584 257.891 43.9727C257.891 32.2869 244.021 22.7821 226.972 22.7821C209.922 22.7821 196.053 32.2883 196.053 43.9727C196.053 49.8635 199.629 55.493 205.885 59.4864L202.031 74.0814C202.005 74.184 202.002 74.2913 202.024 74.395C202.045 74.4987 202.09 74.5962 202.155 74.6798C202.22 74.7635 202.303 74.8312 202.398 74.8778C202.493 74.9245 202.598 74.9488 202.704 74.9488ZM219.203 63.0865C218.889 63.0865 219.138 62.999 203.831 72.7165L207.36 59.353C207.398 59.2086 207.389 59.0557 207.333 58.917C207.278 58.7782 207.179 58.6611 207.052 58.5829C200.944 54.8299 197.443 49.5118 197.443 43.9796C197.443 33.0612 210.689 24.1791 226.972 24.1791C243.254 24.1791 256.501 33.0542 256.501 43.9727C256.501 54.8911 243.25 63.7746 226.972 63.7746C224.367 63.7817 221.766 63.5514 219.203 63.0865Z" fill="black"/>
<path d="M233.815 50.0331C233.977 50.0331 233.166 50.3598 246.48 44.8248C246.576 44.785 246.659 44.7184 246.718 44.633C246.777 44.5476 246.811 44.447 246.814 44.3431C246.818 44.2393 246.792 44.1367 246.739 44.0474C246.686 43.958 246.608 43.8858 246.515 43.8393L233.895 37.5398C233.766 37.4759 233.617 37.4657 233.481 37.5117C233.344 37.5577 233.232 37.6561 233.168 37.7851C233.104 37.9141 233.094 38.0633 233.14 38.1998C233.186 38.3363 233.284 38.4489 233.413 38.5128L244.968 44.2799L233.606 48.992C233.491 49.0408 233.397 49.1275 233.339 49.2379C233.28 49.3481 233.262 49.4752 233.286 49.5975C233.311 49.7198 233.377 49.8299 233.473 49.9093C233.569 49.9886 233.69 50.0324 233.815 50.0331Z" fill="black"/>
<path d="M220.198 50.3652C220.323 50.3641 220.444 50.3199 220.54 50.2403C220.636 50.1605 220.702 50.0501 220.727 49.9275C220.751 49.8051 220.732 49.6779 220.674 49.5674C220.615 49.457 220.521 49.3701 220.405 49.3213L209.045 44.6106L220.593 38.8421C220.722 38.7781 220.82 38.6652 220.866 38.5287C220.912 38.3921 220.902 38.2428 220.838 38.1138C220.774 37.9848 220.661 37.8865 220.524 37.8406C220.388 37.7948 220.238 37.8051 220.109 37.8691L207.492 44.1672C207.399 44.2139 207.322 44.2864 207.269 44.3757C207.216 44.4652 207.19 44.568 207.193 44.6718C207.197 44.7758 207.231 44.8764 207.29 44.9619C207.349 45.0474 207.431 45.1141 207.527 45.1541C220.829 50.6835 220.03 50.3652 220.198 50.3652Z" fill="black"/>
<path d="M234.4 54.1168L220.65 32.4217C220.571 32.3058 220.449 32.2252 220.312 32.1968C220.174 32.1686 220.031 32.195 219.912 32.2704C219.793 32.3457 219.709 32.4643 219.676 32.6009C219.643 32.7375 219.664 32.8817 219.735 33.0027L233.485 54.6979C233.565 54.8139 233.686 54.8946 233.824 54.9228C233.961 54.951 234.105 54.9247 234.223 54.8492C234.342 54.7739 234.427 54.6555 234.46 54.5188C234.493 54.3821 234.471 54.2381 234.4 54.1168Z" fill="black"/>
<path fill-rule="evenodd" clip-rule="evenodd" d="M69.1566 218.176L28.2433 232.533C28.2433 232.533 24.6641 233.893 22.7765 229.614C20.8888 225.336 7.00969 184.806 7.00969 184.806C6.88737 184.018 6.95132 183.213 7.19735 182.454C7.19735 182.454 6.59547 180.002 8.16199 179.14C7.29185 174.813 11.0198 174.255 14.5477 173.547C21.5519 172.143 27.2453 169.157 32.5913 167.31C37.9372 165.463 44.612 161.451 54.1168 161.889C61.4838 156.166 70.0601 152.201 79.191 150.294C88.921 148.256 93.3968 145.785 93.3968 145.785C93.8889 145.489 94.4421 145.311 95.0148 145.263C95.5874 145.216 96.1629 145.301 96.6967 145.512C97.2304 145.725 97.7086 146.056 98.0936 146.482C98.4786 146.909 98.7594 147.418 98.9151 147.971C100.675 152.301 115.22 194.889 115.22 194.889C116.23 195.228 116.679 197.901 116.255 199.165C116.298 199.989 116.114 200.811 115.722 201.536C115.33 202.263 114.744 202.868 114.031 203.283L71.2944 217.489C71.0887 216.972 70.0434 214.505 69.1052 215.046C68.203 215.551 68.9537 217.611 69.1566 218.176Z" fill="white"/>
<path d="M6.68156 182.287C6.54951 181.615 6.5537 180.922 6.6927 180.251C6.8317 179.578 7.10412 178.942 7.49332 178.377C7.21532 174.378 10.2455 173.853 14.4433 173.011C21.4128 171.614 26.9867 168.668 32.4133 166.792C37.6647 164.985 44.4117 160.962 53.9332 161.328C61.3517 155.649 69.9419 151.695 79.0797 149.752C83.9364 148.888 88.6596 147.394 93.1284 145.304C94.2377 144.702 95.5387 144.56 96.7508 144.91C97.3763 145.16 97.9392 145.546 98.4007 146.038C98.8608 146.53 99.2083 147.116 99.4168 147.757C101.161 152.051 114.568 190.786 115.124 192.426C115.341 193.045 115.455 193.695 115.46 194.35C115.998 195.036 116.393 195.825 116.621 196.667C116.85 197.508 116.909 198.388 116.792 199.252C116.842 200.179 116.624 201.1 116.162 201.904C115.701 202.709 115.015 203.364 114.191 203.789L71.4542 217.994C71.3055 218.042 71.1456 218.034 71.0024 217.971C70.8607 217.908 70.7467 217.794 70.6827 217.652C70.3783 216.779 69.9571 215.95 69.4317 215.19C69.2858 216.132 69.3956 217.096 69.7487 217.981C69.7778 218.052 69.7917 218.129 69.7903 218.205C69.7903 218.281 69.7737 218.356 69.7431 218.427C69.7125 218.498 69.668 218.561 69.6124 218.614C69.5568 218.666 69.4915 218.708 69.4192 218.735C27.0242 233.526 28.2391 233.271 26.9297 233.271C25.8914 233.256 24.8836 232.915 24.0496 232.298C23.2142 231.681 22.5943 230.818 22.2746 229.83C20.3995 225.572 7.05825 186.634 6.4675 184.881C6.33406 184.012 6.40773 183.123 6.68156 182.287ZM7.98399 183.121C13.3202 200.48 23.3518 228.206 25.0198 229.472C25.6592 229.714 28.5852 229.757 42.0446 224.99C45.1304 223.897 62.4206 218.263 62.4206 218.263C64.1636 217.588 65.8288 216.725 67.3843 215.688C54.3183 220.125 30.3394 228.398 26.6572 228.398C25.0601 228.398 24.5723 227.521 23.8231 225.427C9.69231 185.986 8.41907 183.052 7.79079 180.276C7.5948 181.224 7.66151 182.21 7.98399 183.121ZM53.5871 162.403C44.4923 162.144 37.983 166.017 32.7677 167.824C27.4857 169.652 21.6977 172.67 14.656 174.079C8.09241 175.394 7.09857 175.653 10.3818 185.026C12.9949 192.487 24.8489 225.073 24.8489 225.073C25.8316 227.853 25.8344 227.853 32.2756 226.063C38.9657 224.203 64.2456 215.617 68.474 214.186L53.5871 162.403ZM71.532 216.829L113.807 202.78C114.611 202.341 115.209 201.604 115.475 200.729C112.652 202.34 109.55 203.404 106.332 203.864C98.5884 205.374 91.0212 207.681 83.7529 210.752C79.5732 212.637 75.2544 214.195 70.8328 215.408C71.0983 215.864 71.3319 216.341 71.532 216.829ZM83.3151 209.761C90.6682 206.655 98.3243 204.322 106.158 202.795C110.754 202.037 115.11 200.284 115.738 198.994C115.912 197.975 115.733 196.928 115.229 196.026C114.992 196.76 114.584 197.427 114.038 197.972C113.493 198.518 112.825 198.926 112.091 199.162C100.682 203.485 91.6995 202.608 70.6188 214.345C74.9625 213.145 79.2076 211.614 83.3151 209.761ZM69.479 213.75C77.4367 209.233 85.8699 205.607 94.6227 202.94C100.304 201.343 106.707 200.036 111.707 198.143C112.221 197.955 112.693 197.666 113.093 197.294C113.495 196.92 113.816 196.471 114.04 195.972C114.263 195.472 114.386 194.932 114.397 194.385C114.409 193.838 114.311 193.293 114.109 192.785C113.97 192.382 100.147 152.43 98.4132 148.166C98.2951 147.679 98.063 147.226 97.7349 146.848C97.4069 146.468 96.994 146.172 96.5284 145.985C96.0641 145.798 95.561 145.725 95.0619 145.771C94.5629 145.817 94.082 145.981 93.6594 146.25C93.4732 146.353 88.9918 148.783 79.3035 150.815C70.3449 152.718 61.9216 156.589 54.6435 162.148L69.479 213.75ZM23.2712 229.393C24.9212 233.138 27.9263 232.074 28.0639 232.024L68.5963 217.877C68.4587 217.39 68.36 216.893 68.2989 216.391C66.5683 217.567 64.7085 218.541 62.7569 219.296C36.9252 227.765 27.4079 231.549 24.6334 230.49C23.9885 230.245 22.5721 227.221 20.7929 222.766C21.9813 226.075 22.8848 228.519 23.2712 229.393Z" fill="black"/>
<path d="M61.9841 166.954C66.1319 164.184 78.0984 160.07 82.9731 158.842C87.7992 157.627 95.2051 155.089 95.276 155.061C95.3455 155.041 95.4094 155.004 95.4664 154.959C95.522 154.911 95.5679 154.854 95.5999 154.789C95.6332 154.724 95.6527 154.653 95.6582 154.58C95.6624 154.508 95.6527 154.436 95.6291 154.366C95.6054 154.298 95.5679 154.234 95.5192 154.18C95.4706 154.126 95.4122 154.083 95.3455 154.052C95.2802 154.022 95.2093 154.004 95.1356 154.001C95.0633 153.999 94.991 154.011 94.9229 154.037C94.8493 154.062 87.4892 156.586 82.7076 157.79C77.6383 159.066 65.6912 163.172 61.3795 166.051C61.2599 166.131 61.1765 166.255 61.1487 166.397C61.1209 166.539 61.1501 166.685 61.2307 166.806C61.3099 166.925 61.4351 167.007 61.5754 167.036C61.7172 167.064 61.8646 167.035 61.9841 166.954Z" fill="black"/>
<path d="M63.6328 170.385C63.8996 170.385 74.8292 166.287 79.5093 165.011C83.6627 163.877 96.6216 159.199 97.1707 159.001C97.3027 158.949 97.4084 158.848 97.4667 158.72C97.5251 158.591 97.5307 158.443 97.4834 158.311C97.4348 158.178 97.3361 158.069 97.2096 158.007C97.0817 157.946 96.9358 157.937 96.8009 157.982C73.9118 166.19 82.3755 162.43 63.4409 169.333C63.3214 169.377 63.2227 169.463 63.1588 169.573C63.0962 169.684 63.074 169.814 63.0976 169.939C63.1199 170.064 63.1866 170.178 63.2839 170.258C63.3825 170.34 63.5049 170.385 63.6328 170.385Z" fill="black"/>
<path fill-rule="evenodd" clip-rule="evenodd" d="M93.7025 165.834L95.0244 169.748L88.8389 171.833L87.435 167.908L93.7025 165.834Z" fill="#FE7465"/>
<path fill-rule="evenodd" clip-rule="evenodd" d="M102.165 173.621L103.487 177.535L97.3013 179.62L95.9099 175.696L102.165 173.621Z" fill="#FE7465"/>
<path fill-rule="evenodd" clip-rule="evenodd" d="M92.0387 177.071L93.3606 180.985L87.1751 183.07L85.7712 179.145L92.0387 177.071Z" fill="#FE7465"/>
<path fill-rule="evenodd" clip-rule="evenodd" d="M76.5887 171.009L77.9287 174.392L71.4485 176.616L70.1808 173.252L76.5887 171.009Z" fill="#FE7465"/>
<path fill-rule="evenodd" clip-rule="evenodd" d="M74.9501 180.446L76.29 183.83L69.8099 186.054L68.5422 182.689L74.9501 180.446Z" fill="#FE7465"/>
<path d="M53.3757 162.699C53.4035 162.566 53.4786 162.448 53.5884 162.369C53.6982 162.289 53.8344 162.253 53.9693 162.269C54.1041 162.284 54.2278 162.348 54.3182 162.451C54.4071 162.552 54.4544 162.684 54.4516 162.82C54.4433 162.987 53.7038 179.56 55.8986 192.648C58.1226 205.892 74.2077 220.309 68.4364 229.817C68.3891 229.898 68.321 229.963 68.239 230.009C68.1584 230.055 68.0666 230.078 67.9735 230.078C66.5404 229.606 65.1463 229.025 63.8035 228.338C63.7187 228.298 63.6451 228.235 63.5908 228.159C63.5366 228.082 63.5019 227.992 63.4922 227.899C63.481 227.804 63.4949 227.71 63.5311 227.624C63.5672 227.536 63.6256 227.46 63.6993 227.401C63.6993 227.401 65.4382 225.939 63.267 219.53C60.904 212.571 52.6126 204.285 51.5576 191.452C50.5068 178.807 53.3438 162.859 53.3757 162.699Z" fill="black"/>
<path d="M85.2833 178.911C85.4223 178.633 85.3973 178.701 88.2329 177.762L87.5462 175.6C87.5031 175.464 87.5156 175.318 87.5795 175.19C87.6449 175.064 87.7561 174.968 87.8909 174.922L92.0943 173.51L91.4882 171.515C90.6278 171.869 89.7424 172.158 88.8389 172.379C88.7277 172.379 88.6179 172.345 88.5261 172.281C88.4344 172.217 88.3663 172.125 88.3288 172.019L86.9249 168.094C86.9012 168.026 86.8901 167.954 86.8943 167.883C86.8984 167.811 86.9165 167.74 86.9485 167.676C86.9804 167.61 87.0249 167.553 87.0791 167.506C87.1333 167.457 87.1959 167.421 87.264 167.399L93.5315 165.314C93.5982 165.292 93.6705 165.282 93.74 165.288C93.8109 165.292 93.8804 165.311 93.9444 165.342C94.0083 165.374 94.0639 165.418 94.1111 165.471C94.157 165.525 94.1932 165.588 94.2154 165.655C95.6263 169.843 95.6485 169.704 95.5109 169.983C95.3733 170.262 95.4316 170.178 92.5154 171.163L93.1229 173.159L98.3493 171.402C98.4855 171.356 98.6342 171.366 98.7621 171.43C98.89 171.494 98.9887 171.605 99.0345 171.741L99.7559 173.845L101.999 173.101C102.066 173.079 102.138 173.069 102.208 173.074C102.279 173.079 102.348 173.098 102.412 173.129C102.476 173.161 102.532 173.205 102.579 173.258C102.625 173.312 102.661 173.375 102.683 173.441C104.084 177.634 104.116 177.492 103.979 177.77C103.824 178.081 104.07 177.946 97.4805 180.133C97.3457 180.179 97.1983 180.17 97.0705 180.108C96.9426 180.047 96.8439 179.937 96.7966 179.802C95.2982 175.601 95.2774 175.742 95.4164 175.456C95.5554 175.169 95.5484 175.24 98.7259 174.186L98.1839 172.603L88.743 175.775L89.2628 177.415L91.8677 176.552C92.0039 176.506 92.1513 176.517 92.2805 176.581C92.4084 176.645 92.5057 176.757 92.5516 176.893L93.8735 180.807C93.8971 180.875 93.9054 180.946 93.9013 181.017C93.8971 181.088 93.8776 181.157 93.8471 181.221C93.8151 181.285 93.7706 181.342 93.7178 181.389C93.6636 181.437 93.6024 181.473 93.5343 181.495C86.9415 183.729 87.3141 183.612 87.1751 183.612C87.0639 183.612 86.954 183.577 86.8623 183.513C86.772 183.448 86.7025 183.358 86.6649 183.252C85.1679 179.063 85.1443 179.197 85.2833 178.911ZM93.3619 166.518L88.1328 168.251L89.1697 171.153L94.3377 169.409L93.3619 166.518ZM97.6376 178.939L102.806 177.196L101.833 174.305L96.6048 176.038L97.6376 178.939ZM87.5059 182.39L92.6739 180.644L91.7009 177.755L86.4717 179.488L87.5059 182.39Z" fill="black"/>
<path d="M69.3899 199.216C77.8091 193.855 100.587 187.442 100.816 187.376C100.885 187.357 100.948 187.325 101.005 187.28C101.061 187.236 101.108 187.182 101.143 187.119C101.178 187.058 101.2 186.99 101.208 186.919C101.217 186.848 101.211 186.776 101.192 186.708C101.172 186.64 101.14 186.576 101.096 186.519C101.051 186.463 100.997 186.416 100.935 186.381C100.873 186.346 100.805 186.324 100.734 186.316C100.664 186.307 100.591 186.313 100.523 186.332C99.5821 186.596 77.3629 192.854 68.8089 198.302C68.6935 198.381 68.6129 198.502 68.5837 198.639C68.5559 198.778 68.5823 198.922 68.6574 199.04C68.7324 199.158 68.852 199.243 68.9882 199.276C69.1244 199.309 69.269 199.287 69.3899 199.216Z" fill="black"/>
<path d="M73.6225 201.03C81.7734 196.533 106.051 189.732 106.287 189.664C106.421 189.621 106.532 189.528 106.597 189.406C106.664 189.282 106.679 189.139 106.643 189.004C106.606 188.869 106.518 188.754 106.397 188.683C106.278 188.61 106.135 188.588 105.998 188.62C104.995 188.898 81.3536 195.523 73.0915 200.081C72.965 200.152 72.8733 200.268 72.8329 200.407C72.794 200.546 72.8121 200.695 72.8816 200.82C72.9525 200.947 73.0706 201.04 73.2096 201.079C73.3472 201.118 73.496 201.101 73.6225 201.03Z" fill="black"/>
<path d="M18.2643 181.812C24.9711 179.784 31.5666 177.406 38.0246 174.687C41.9666 172.834 46.2033 171.689 50.5429 171.305C50.6138 171.302 50.6847 171.285 50.7486 171.256C50.814 171.226 50.8724 171.184 50.921 171.133C50.9683 171.08 51.0072 171.019 51.0308 170.952C51.0558 170.885 51.0669 170.814 51.0656 170.743C51.0628 170.671 51.0461 170.602 51.0155 170.536C50.9863 170.472 50.9446 170.414 50.8918 170.365C50.839 170.317 50.7778 170.279 50.7111 170.254C50.6444 170.229 50.5735 170.218 50.5026 170.221C46.0199 170.595 41.6414 171.772 37.5756 173.696C30.6117 176.871 18.2296 180.71 18.1045 180.749C17.978 180.785 17.8682 180.865 17.7973 180.977C17.7264 181.088 17.6972 181.22 17.7167 181.35C17.7361 181.481 17.8029 181.599 17.903 181.684C18.0044 181.769 18.1323 181.815 18.2643 181.812Z" fill="black"/>
<path d="M17.6458 186.573C24.4832 184.456 31.1997 181.972 37.7688 179.129C42.3197 177.132 47.1041 175.715 52.008 174.912C52.1498 174.89 52.2777 174.812 52.3624 174.695C52.4472 174.58 52.482 174.434 52.4597 174.292C52.4375 174.15 52.3597 174.022 52.2429 173.938C52.1276 173.853 51.9816 173.818 51.8398 173.84C46.8247 174.649 41.9333 176.1 37.2879 178.158C31.404 181.057 17.6208 185.47 17.4818 185.514C17.3581 185.552 17.2524 185.634 17.1843 185.744C17.1162 185.854 17.0884 185.986 17.1093 186.114C17.1287 186.242 17.1941 186.359 17.2928 186.442C17.3914 186.527 17.5165 186.573 17.6458 186.573Z" fill="black"/>
<path d="M27.0146 214.681C38.4293 209.916 50.1136 205.823 62.0078 202.424C62.1455 202.385 62.2622 202.294 62.3317 202.169C62.4026 202.043 62.4207 201.897 62.3818 201.758C62.3442 201.621 62.2539 201.504 62.1288 201.433C62.005 201.361 61.8577 201.343 61.7201 201.379C49.8453 204.764 38.1846 208.859 26.8005 213.642C26.6866 213.692 26.592 213.778 26.535 213.889C26.4767 213.999 26.46 214.127 26.485 214.249C26.51 214.37 26.5767 214.48 26.6726 214.559C26.7685 214.638 26.8895 214.681 27.0146 214.681Z" fill="black"/>
<path d="M28.2265 218.705C39.6412 213.94 51.3255 209.847 63.2184 206.448C63.3504 206.405 63.4602 206.312 63.5255 206.19C63.5923 206.066 63.6076 205.924 63.57 205.789C63.5339 205.656 63.4463 205.541 63.3282 205.47C63.2086 205.397 63.0669 205.374 62.9306 205.404C51.0559 208.789 39.3951 212.883 28.011 217.666C27.8971 217.716 27.8026 217.803 27.7456 217.913C27.6872 218.024 27.6705 218.151 27.6955 218.273C27.7206 218.395 27.7873 218.505 27.8846 218.584C27.9805 218.662 28.1014 218.705 28.2265 218.705Z" fill="black"/>
<path d="M24.4166 210.185C35.8313 205.423 47.5156 201.332 59.4085 197.936C59.5461 197.897 59.6628 197.805 59.7323 197.68C59.8032 197.555 59.8213 197.409 59.7824 197.27C59.7449 197.133 59.6545 197.016 59.5294 196.945C59.4057 196.873 59.2584 196.855 59.1208 196.891C47.246 200.274 35.5853 204.369 24.2026 209.152C24.0928 209.203 24.0024 209.291 23.9482 209.401C23.8926 209.509 23.8773 209.633 23.9023 209.752C23.926 209.872 23.9913 209.98 24.0844 210.058C24.1776 210.136 24.2943 210.181 24.4166 210.185Z" fill="black"/>
<path d="M17.5293 190.986C18.1895 190.986 31.2624 186.99 37.0254 184.65C41.7875 182.753 46.6623 181.152 51.6204 179.853C51.6899 179.837 51.7538 179.805 51.8122 179.763C51.8692 179.72 51.9165 179.667 51.954 179.606C51.9901 179.545 52.0151 179.477 52.0249 179.407C52.036 179.336 52.0318 179.264 52.0138 179.195C51.9971 179.126 51.9665 179.061 51.9234 179.004C51.8817 178.947 51.8275 178.899 51.7663 178.862C51.7052 178.825 51.6384 178.801 51.5676 178.79C51.4967 178.78 51.4258 178.785 51.3563 178.801C46.3481 180.112 41.4247 181.73 36.6153 183.647C29.3442 186.598 17.5015 189.889 17.3819 189.921C17.2554 189.956 17.1456 190.037 17.0733 190.146C17.0011 190.256 16.9705 190.388 16.9885 190.518C17.0066 190.648 17.0719 190.768 17.1706 190.854C17.2707 190.94 17.3972 190.987 17.5293 190.986Z" fill="black"/>
<path d="M20.6038 195.245C21.264 195.245 34.337 191.249 40.0999 188.909C44.862 187.013 49.7368 185.411 54.6949 184.112C54.8339 184.078 54.9548 183.989 55.0285 183.865C55.1022 183.743 55.1244 183.594 55.0897 183.455C55.0549 183.316 54.9659 183.195 54.8422 183.121C54.7199 183.048 54.5712 183.025 54.4322 183.06C43.7292 185.737 36.8751 189.703 20.4578 194.18C20.3313 194.215 20.2215 194.294 20.1492 194.404C20.0769 194.514 20.0464 194.646 20.0644 194.777C20.0825 194.907 20.1464 195.025 20.2465 195.112C20.3452 195.198 20.4717 195.245 20.6038 195.245Z" fill="black"/>
<path d="M23.174 200.1C23.8329 200.1 36.8961 196.108 42.6687 193.765C47.4309 191.867 52.3056 190.266 57.2637 188.968C57.4027 188.933 57.5237 188.844 57.5974 188.72C57.671 188.598 57.6933 188.449 57.6585 188.31C57.6238 188.171 57.5348 188.05 57.4111 187.977C57.2888 187.903 57.14 187.881 57.001 187.915C51.9929 189.226 47.0695 190.844 42.2587 192.76C34.989 195.711 23.1448 199.002 23.0253 199.035C22.8988 199.07 22.789 199.151 22.7167 199.261C22.6444 199.37 22.6138 199.503 22.6319 199.633C22.65 199.764 22.7153 199.883 22.8154 199.968C22.9155 200.054 23.042 200.102 23.174 200.1Z" fill="black"/>
<path d="M23.2489 204.406C23.9092 204.406 36.9821 200.41 42.7437 198.071C47.5058 196.175 52.3805 194.572 57.3387 193.274C57.4082 193.257 57.4721 193.225 57.5305 193.184C57.5875 193.141 57.6347 193.088 57.6723 193.027C57.7459 192.903 57.7682 192.755 57.732 192.616C57.6973 192.476 57.6083 192.357 57.4846 192.283C57.3623 192.209 57.2136 192.187 57.0746 192.222C45.9435 195.002 40.0429 198.721 23.1016 203.342C22.9751 203.376 22.8653 203.457 22.793 203.567C22.7207 203.677 22.6901 203.809 22.7082 203.938C22.7263 204.069 22.7916 204.188 22.8903 204.274C22.9904 204.361 23.1169 204.408 23.2489 204.406Z" fill="black"/>
<path d="M68.0502 182.467C68.1892 182.176 67.8194 182.339 74.7708 179.934C74.9029 179.888 75.0474 179.895 75.1739 179.954C75.3018 180.012 75.4005 180.116 75.4533 180.245L75.7758 181.06L77.6037 180.391L75.6938 175.734C74.3038 176.287 72.8846 176.765 71.4432 177.167C71.3334 177.167 71.2249 177.133 71.1346 177.069C71.0442 177.007 70.9747 176.918 70.9358 176.815L69.6681 173.451C69.6431 173.383 69.6306 173.311 69.6334 173.24C69.6362 173.168 69.6542 173.097 69.6848 173.03C69.7154 172.965 69.7585 172.906 69.8113 172.858C69.8655 172.809 69.9281 172.771 69.9962 172.748L76.4055 170.496C76.5375 170.452 76.6821 170.458 76.8086 170.517C76.9351 170.575 77.0351 170.68 77.088 170.809C78.5697 174.562 78.5461 174.334 78.4168 174.62C78.2875 174.906 78.1388 174.898 76.7196 175.38C78.9839 180.902 78.9436 180.629 78.8143 180.925C78.6851 181.221 78.6934 181.148 76.1733 182.068C76.8364 183.736 76.9072 183.777 76.7808 184.057C76.6418 184.357 76.9962 184.143 69.9837 186.573C69.8502 186.619 69.7043 186.612 69.5764 186.551C69.4485 186.491 69.3484 186.384 69.2984 186.252C67.9209 182.585 67.9181 182.752 68.0502 182.467ZM76.272 171.693L70.8788 173.587L71.7657 175.939L77.2117 174.066L76.272 171.693ZM70.131 185.376L75.5784 183.502L74.6374 181.13L69.2442 183.024L70.131 185.376Z" fill="black"/>
</svg>
