<svg width="300" height="300" viewBox="0 0 300 300" fill="none" xmlns="http://www.w3.org/2000/svg">
<path d="M225.3 58.0005H123.531C121.14 57.9984 118.772 58.4676 116.563 59.3812C114.353 60.295 112.346 61.6354 110.655 63.3256C108.964 65.016 107.622 67.0231 106.708 69.2322C105.793 71.4412 105.323 73.809 105.324 76.2V104.69C105.32 107.737 106.082 110.737 107.541 113.412C109 116.088 111.109 118.353 113.673 120C111.862 124.607 109.004 128.729 105.324 132.039C105.252 132.106 105.203 132.194 105.184 132.291C105.166 132.387 105.178 132.487 105.221 132.576C105.263 132.665 105.332 132.738 105.419 132.785C105.505 132.831 105.605 132.849 105.702 132.835C112.829 131.623 121.265 128.297 126.719 122.894H225.257C227.648 122.896 230.016 122.426 232.226 121.512C234.437 120.598 236.444 119.257 238.134 117.566C239.826 115.875 241.167 113.867 242.081 111.657C242.996 109.448 243.464 107.079 243.462 104.688V76.2C243.468 73.8114 243.003 71.4448 242.094 69.2362C241.184 67.0278 239.847 65.0205 238.16 63.3297C236.472 61.6389 234.468 60.2979 232.262 59.3833C230.054 58.4688 227.688 57.9988 225.3 58.0005Z" fill="#FE7465"/>
<path d="M226.389 72.012H125.55C125.384 72.0087 125.219 72.039 125.065 72.1011C124.91 72.1632 124.77 72.2557 124.653 72.3733C124.535 72.4908 124.443 72.6309 124.381 72.7849C124.319 72.9391 124.288 73.1043 124.292 73.2705V76.878C124.289 77.044 124.319 77.209 124.381 77.3631C124.443 77.5171 124.536 77.6572 124.653 77.7747C124.771 77.8921 124.911 77.9847 125.065 78.0469C125.219 78.109 125.384 78.1395 125.55 78.1365H226.437C226.603 78.1393 226.769 78.1087 226.922 78.0465C227.076 77.9842 227.215 77.8915 227.332 77.7742C227.451 77.6568 227.544 77.5168 227.606 77.3629C227.667 77.2089 227.698 77.044 227.695 76.878V73.2705C227.677 72.934 227.534 72.6169 227.291 72.3832C227.048 72.1495 226.726 72.0168 226.389 72.012Z" fill="white"/>
<path d="M148.993 83.5889H125.502C125.336 83.5861 125.171 83.6167 125.017 83.6789C124.863 83.741 124.723 83.8337 124.606 83.9512C124.488 84.0686 124.396 84.2084 124.333 84.3623C124.271 84.5164 124.241 84.6812 124.243 84.8473V88.4549C124.24 88.621 124.271 88.786 124.333 88.94C124.395 89.0941 124.488 89.234 124.605 89.3515C124.723 89.4691 124.863 89.5616 125.017 89.6237C125.171 89.686 125.336 89.7164 125.502 89.7133H148.993C149.16 89.7164 149.325 89.686 149.479 89.6237C149.633 89.5616 149.773 89.4691 149.89 89.3515C150.007 89.234 150.1 89.0941 150.162 88.94C150.225 88.786 150.255 88.621 150.252 88.4549V84.8473C150.255 84.6812 150.223 84.5164 150.162 84.3623C150.099 84.2084 150.007 84.0686 149.89 83.9512C149.772 83.8337 149.632 83.741 149.478 83.6789C149.324 83.6167 149.16 83.5861 148.993 83.5889Z" fill="white"/>
<path d="M178.986 83.589H155.496C155.33 83.5858 155.165 83.6163 155.012 83.6785C154.857 83.7406 154.718 83.8333 154.599 83.9508C154.482 84.0682 154.389 84.2082 154.328 84.3622C154.265 84.5163 154.235 84.6813 154.238 84.8475V88.455C154.235 88.621 154.265 88.7862 154.326 88.9404C154.389 89.0946 154.482 89.2345 154.599 89.3521C154.716 89.4696 154.857 89.5621 155.01 89.6242C155.165 89.6863 155.33 89.7166 155.496 89.7135H178.986C179.153 89.7166 179.318 89.6863 179.472 89.6242C179.625 89.5621 179.766 89.4696 179.883 89.3521C180 89.2345 180.093 89.0946 180.156 88.9404C180.218 88.7862 180.248 88.621 180.245 88.455V84.8475C180.248 84.6813 180.218 84.5163 180.155 84.3622C180.093 84.2082 180 84.0682 179.883 83.9508C179.765 83.8333 179.625 83.7406 179.471 83.6785C179.318 83.6163 179.153 83.5858 178.986 83.589Z" fill="white"/>
<path d="M226.389 83.5889H187.922C187.755 83.5861 187.59 83.6167 187.437 83.6789C187.283 83.741 187.143 83.8337 187.026 83.9512C186.908 84.0686 186.816 84.2084 186.753 84.3623C186.692 84.5164 186.66 84.6812 186.663 84.8473V88.4549C186.66 88.621 186.69 88.786 186.753 88.94C186.815 89.0941 186.908 89.234 187.025 89.3515C187.143 89.4691 187.283 89.5616 187.437 89.6237C187.59 89.686 187.755 89.7164 187.922 89.7133H226.389C226.556 89.7164 226.721 89.686 226.874 89.6237C227.028 89.5616 227.169 89.4691 227.286 89.3515C227.403 89.234 227.496 89.0941 227.558 88.94C227.621 88.786 227.651 88.621 227.648 88.4549V84.8473C227.651 84.6812 227.621 84.5164 227.558 84.3623C227.496 84.2084 227.403 84.0686 227.286 83.9512C227.168 83.8337 227.028 83.741 226.874 83.6789C226.721 83.6167 226.556 83.5861 226.389 83.5889Z" fill="white"/>
<path d="M214.308 229.781C210.626 226.472 207.768 222.35 205.959 217.742C208.524 216.095 210.633 213.83 212.091 211.154C213.551 208.478 214.313 205.479 214.308 202.431V173.948C214.31 171.557 213.84 169.188 212.927 166.977C212.012 164.768 210.671 162.759 208.98 161.069C207.29 159.378 205.281 158.037 203.072 157.124C200.861 156.209 198.492 155.739 196.101 155.742H62.8725C60.4811 155.739 58.1127 156.209 55.9029 157.124C53.6931 158.037 51.6854 159.378 49.9944 161.069C48.3035 162.761 46.9625 164.768 46.0483 166.979C45.1342 169.188 44.6648 171.557 44.667 173.948V202.431C44.6648 204.822 45.1342 207.191 46.0483 209.4C46.9625 211.61 48.3035 213.618 49.9944 215.309C51.6854 217.001 53.6931 218.342 55.9029 219.255C58.1127 220.169 60.4811 220.638 62.8725 220.637H192.872C198.305 226.017 206.747 229.362 213.888 230.579C213.987 230.598 214.091 230.586 214.184 230.543C214.275 230.499 214.35 230.427 214.398 230.337C214.445 230.247 214.463 230.144 214.446 230.043C214.43 229.944 214.382 229.851 214.308 229.781Z" fill="#FE7465"/>
<path d="M194.088 172.815H63.501C63.335 172.812 63.17 172.842 63.0158 172.905C62.8617 172.967 62.7218 173.06 62.6043 173.177C62.4869 173.294 62.3943 173.435 62.3321 173.588C62.27 173.742 62.2395 173.907 62.2425 174.074V177.674C62.2397 177.84 62.2703 178.005 62.3325 178.158C62.3948 178.313 62.4873 178.452 62.6048 178.569C62.7222 178.688 62.8622 178.779 63.0161 178.842C63.1701 178.904 63.335 178.935 63.501 178.932H194.088C194.255 178.935 194.42 178.905 194.573 178.842C194.727 178.781 194.867 178.688 194.985 178.571C195.102 178.452 195.195 178.313 195.257 178.158C195.32 178.005 195.35 177.84 195.347 177.674V174.074C195.345 173.741 195.213 173.42 194.978 173.184C194.741 172.949 194.421 172.815 194.088 172.815Z" fill="white"/>
<path d="M194.088 184.392H170.596C170.43 184.389 170.265 184.419 170.112 184.482C169.957 184.544 169.818 184.637 169.701 184.754C169.582 184.872 169.489 185.012 169.428 185.166C169.365 185.319 169.335 185.484 169.338 185.651V189.258C169.335 189.425 169.365 189.59 169.428 189.743C169.489 189.897 169.582 190.037 169.699 190.155C169.818 190.272 169.957 190.365 170.112 190.427C170.265 190.49 170.43 190.52 170.596 190.517H194.088C194.254 190.52 194.419 190.49 194.574 190.427C194.727 190.365 194.868 190.272 194.985 190.155C195.102 190.038 195.195 189.897 195.258 189.744C195.319 189.59 195.349 189.425 195.346 189.258V185.651C195.349 185.484 195.319 185.319 195.256 185.165C195.195 185.012 195.102 184.871 194.985 184.754C194.866 184.637 194.727 184.544 194.572 184.482C194.419 184.419 194.254 184.389 194.088 184.392Z" fill="white"/>
<path d="M164.1 190.517C164.266 190.52 164.431 190.49 164.584 190.427C164.739 190.365 164.878 190.272 164.995 190.155C165.114 190.037 165.205 189.897 165.268 189.743C165.33 189.59 165.36 189.425 165.357 189.258V185.651C165.36 185.484 165.33 185.319 165.267 185.166C165.205 185.012 165.112 184.872 164.995 184.754C164.878 184.637 164.739 184.544 164.584 184.482C164.431 184.419 164.266 184.389 164.1 184.392H140.604C140.438 184.389 140.273 184.419 140.119 184.482C139.965 184.544 139.825 184.637 139.707 184.754C139.59 184.871 139.497 185.012 139.435 185.165C139.373 185.319 139.342 185.484 139.345 185.651V189.258C139.342 189.425 139.372 189.59 139.435 189.744C139.497 189.897 139.589 190.038 139.707 190.155C139.824 190.272 139.964 190.365 140.119 190.427C140.273 190.49 140.438 190.52 140.604 190.517H164.1Z" fill="white"/>
<path d="M131.669 184.392H63.3C63.134 184.389 62.9688 184.419 62.8148 184.482C62.6607 184.544 62.5208 184.637 62.4033 184.754C62.2859 184.871 62.1933 185.012 62.1311 185.165C62.069 185.319 62.0385 185.484 62.0415 185.651V189.258C62.0382 189.425 62.0685 189.59 62.1306 189.744C62.1927 189.897 62.2853 190.038 62.4029 190.155C62.5203 190.272 62.6604 190.365 62.8146 190.427C62.9687 190.49 63.1338 190.52 63.3 190.517H131.669C131.835 190.52 132 190.49 132.154 190.427C132.308 190.365 132.448 190.272 132.565 190.155C132.683 190.037 132.775 189.897 132.837 189.743C132.9 189.59 132.93 189.425 132.927 189.258V185.651C132.93 185.484 132.899 185.319 132.837 185.166C132.775 185.012 132.682 184.872 132.565 184.754C132.447 184.637 132.308 184.544 132.153 184.482C132 184.419 131.835 184.389 131.669 184.392Z" fill="white"/>
<path d="M131.669 196.222H63.3C63.1338 196.219 62.9687 196.249 62.8146 196.312C62.6604 196.374 62.5203 196.467 62.4029 196.584C62.2853 196.701 62.1927 196.842 62.1306 196.995C62.0685 197.149 62.0382 197.314 62.0415 197.481V201.088C62.0385 201.255 62.069 201.42 62.1311 201.574C62.1933 201.727 62.2859 201.869 62.4033 201.986C62.5208 202.103 62.6607 202.195 62.8148 202.257C62.9688 202.32 63.134 202.35 63.3 202.347H131.669C131.835 202.35 132 202.32 132.153 202.257C132.308 202.195 132.447 202.103 132.565 201.986C132.682 201.867 132.775 201.727 132.837 201.573C132.899 201.42 132.93 201.255 132.927 201.088V197.481C132.93 197.314 132.9 197.149 132.837 196.996C132.775 196.842 132.683 196.702 132.565 196.584C132.448 196.467 132.308 196.374 132.154 196.312C132 196.249 131.835 196.219 131.669 196.222Z" fill="white"/>
<path d="M164.976 196.222H137.793C137.627 196.219 137.462 196.249 137.308 196.312C137.154 196.374 137.014 196.467 136.896 196.584C136.779 196.702 136.686 196.842 136.624 196.996C136.562 197.149 136.531 197.314 136.535 197.481V201.088C136.532 201.255 136.562 201.42 136.625 201.573C136.687 201.727 136.779 201.867 136.897 201.986C137.014 202.103 137.154 202.195 137.308 202.257C137.462 202.32 137.627 202.35 137.793 202.347H164.976C165.143 202.35 165.308 202.32 165.461 202.257C165.615 202.195 165.755 202.103 165.872 201.986C165.99 201.867 166.082 201.727 166.145 201.573C166.206 201.42 166.238 201.255 166.235 201.088V197.481C166.238 197.314 166.208 197.149 166.145 196.996C166.083 196.842 165.99 196.702 165.873 196.584C165.755 196.467 165.615 196.374 165.461 196.312C165.308 196.249 165.143 196.219 164.976 196.222Z" fill="white"/>
<path d="M226.179 141.73C224.675 141.427 223.121 141.476 221.639 141.873C220.157 142.27 218.786 143.004 217.635 144.018C216.483 145.032 215.582 146.299 215.001 147.719C214.421 149.14 214.176 150.675 214.287 152.205C214.397 153.735 214.86 155.22 215.64 156.541C216.419 157.863 217.494 158.986 218.78 159.825C220.065 160.662 221.526 161.192 223.05 161.372C224.574 161.55 226.119 161.374 227.564 160.858C236.684 157.573 236.316 143.82 226.179 141.73Z" fill="white"/>
<path d="M217.538 152.511C218.487 152.511 219.258 151.835 219.258 151.001C219.258 150.167 218.487 149.49 217.538 149.49C216.587 149.49 215.817 150.167 215.817 151.001C215.817 151.835 216.587 152.511 217.538 152.511Z" fill="#0F002E"/>
<path d="M231.003 152.805C231.952 152.805 232.723 152.129 232.723 151.295C232.723 150.461 231.952 149.784 231.003 149.784C230.053 149.784 229.282 150.461 229.282 151.295C229.282 152.129 230.053 152.805 231.003 152.805Z" fill="#0F002E"/>
<path d="M227.946 141.379C225.852 140.631 223.58 140.542 221.435 141.125C219.29 141.707 217.374 142.933 215.946 144.637C214.533 146.352 213.686 148.463 213.521 150.679C213.356 152.895 213.881 155.107 215.024 157.012C216.167 158.919 217.872 160.423 219.905 161.32C221.939 162.217 224.199 162.463 226.377 162.024C228.795 161.496 230.963 160.165 232.526 158.247C234.089 156.328 234.954 153.936 234.983 151.462C234.975 149.265 234.297 147.123 233.039 145.322C231.782 143.52 230.006 142.145 227.946 141.379ZM233.858 151.546C233.862 153.513 233.259 155.433 232.131 157.042C231.003 158.653 229.407 159.877 227.558 160.546C225.641 161.245 223.551 161.316 221.592 160.747C219.633 160.177 217.907 158.998 216.663 157.381C215.421 155.763 214.727 153.79 214.682 151.752C214.635 149.712 215.243 147.711 216.413 146.04C217.583 144.368 219.255 143.113 221.187 142.458C223.119 141.802 225.209 141.78 227.154 142.394C229.1 143.008 230.799 144.227 232.005 145.873C233.21 147.519 233.859 149.506 233.858 151.546Z" fill="#4B1010"/>
<path d="M220.389 147.27C220.239 147.266 220.092 147.293 219.953 147.348C219.815 147.404 219.689 147.487 219.584 147.593C219.477 147.699 219.395 147.825 219.341 147.964C219.285 148.103 219.26 148.252 219.264 148.401C219.264 148.625 219.33 148.845 219.455 149.031C219.579 149.218 219.756 149.363 219.965 149.449C220.172 149.535 220.4 149.557 220.62 149.513C220.839 149.469 221.042 149.36 221.199 149.201C221.358 149.042 221.465 148.839 221.508 148.619C221.552 148.399 221.528 148.171 221.441 147.964C221.354 147.757 221.208 147.581 221.021 147.457C220.833 147.334 220.614 147.268 220.389 147.27Z" fill="#4B1010"/>
<path d="M227.732 147.27C227.582 147.266 227.433 147.292 227.295 147.348C227.156 147.404 227.031 147.487 226.925 147.593C226.82 147.699 226.737 147.825 226.682 147.964C226.628 148.103 226.602 148.252 226.607 148.401C226.607 148.625 226.673 148.845 226.797 149.031C226.922 149.218 227.099 149.363 227.306 149.449C227.514 149.535 227.742 149.557 227.961 149.513C228.182 149.468 228.384 149.36 228.542 149.201C228.701 149.042 228.807 148.839 228.851 148.619C228.894 148.399 228.87 148.171 228.783 147.964C228.696 147.757 228.551 147.581 228.363 147.457C228.176 147.334 227.957 147.268 227.732 147.27Z" fill="#4B1010"/>
<path d="M227.192 151.872C226.925 152.325 226.563 152.714 226.131 153.014C225.699 153.314 225.209 153.516 224.691 153.609C223.913 153.771 223.103 153.707 222.359 153.425C221.615 153.143 220.967 152.654 220.491 152.016C220.431 151.884 220.325 151.779 220.193 151.721C220.062 151.661 219.914 151.65 219.774 151.692C219.636 151.733 219.518 151.823 219.44 151.944C219.362 152.066 219.332 152.213 219.353 152.355C220.103 155.183 226.298 156.129 228.228 152.433C228.288 152.297 228.296 152.144 228.248 152.001C228.2 151.86 228.101 151.743 227.97 151.673C227.838 151.601 227.685 151.583 227.541 151.62C227.397 151.656 227.273 151.746 227.192 151.872Z" fill="#4B1010"/>
<path d="M97.65 40.6755C95.6379 40.266 93.5483 40.4886 91.6676 41.3128C89.7869 42.1372 88.2071 43.5229 87.1446 45.2802C86.0822 47.0374 85.5891 49.0801 85.7331 51.1285C85.877 53.1769 86.6507 55.1307 87.9483 56.7222C89.246 58.3137 91.004 59.4649 92.9816 60.0183C94.959 60.5715 97.0592 60.4998 98.9943 59.8129C100.929 59.1261 102.605 57.8575 103.791 56.1813C104.977 54.505 105.616 52.503 105.62 50.4495C105.62 48.1518 104.828 45.9241 103.375 44.1433C101.923 42.3625 99.9009 41.1375 97.65 40.6755Z" fill="white"/>
<path d="M88.6712 48.6885C88.381 48.7266 88.108 48.8475 87.8848 49.0367C87.6616 49.226 87.4976 49.4754 87.4124 49.7555C87.3274 50.0354 87.3248 50.334 87.4049 50.6154C87.4852 50.8968 87.6448 51.1493 87.8647 51.3423C88.0846 51.5354 88.3555 51.6609 88.645 51.7041C88.9343 51.7472 89.2301 51.7059 89.4967 51.5853C89.7634 51.4647 89.9896 51.2697 90.1483 51.0239C90.307 50.778 90.3916 50.4917 90.3917 50.199C90.356 49.7736 90.1568 49.3785 89.8361 49.0968C89.5153 48.8153 89.0977 48.6689 88.6712 48.6885Z" fill="#0F002E"/>
<path d="M102.641 48.6885C102.35 48.7263 102.077 48.8469 101.854 49.0361C101.63 49.2251 101.466 49.4745 101.381 49.7546C101.296 50.0346 101.293 50.3333 101.373 50.6148C101.453 50.8964 101.612 51.1488 101.832 51.342C102.052 51.5352 102.323 51.6609 102.613 51.7041C102.902 51.7473 103.198 51.7062 103.465 51.5856C103.731 51.465 103.958 51.27 104.116 51.0242C104.275 50.7782 104.36 50.4918 104.36 50.199C104.327 49.7727 104.129 49.3761 103.808 49.0938C103.487 48.8117 103.068 48.6662 102.641 48.6885Z" fill="#0F002E"/>
<path d="M99.3722 40.3665C97.2277 39.5805 94.8883 39.4989 92.6942 40.1337C90.5002 40.7684 88.5658 42.0864 87.1721 43.8959C85.7785 45.7055 84.9983 47.9124 84.9451 50.1959C84.8918 52.4792 85.5682 54.72 86.8757 56.5928C88.1834 58.4654 90.0542 59.8721 92.2163 60.6086C94.3784 61.3449 96.719 61.3727 98.8978 60.6875C101.077 60.0024 102.98 58.6403 104.332 56.799C105.683 54.9579 106.412 52.7336 106.413 50.4495C106.394 48.2549 105.711 46.1172 104.454 44.3178C103.197 42.5183 101.426 41.1408 99.3722 40.3665ZM88.2887 56.55C86.9966 54.9822 86.237 53.0439 86.12 51.0156C86.0032 48.9873 86.5348 46.9745 87.638 45.2685C88.7413 43.5626 90.3589 42.252 92.2567 41.5268C94.1543 40.8015 96.2336 40.6989 98.1935 41.2343C100.153 41.7695 101.892 42.9146 103.158 44.5038C104.423 46.0931 105.15 48.0438 105.233 50.0738C105.316 52.1037 104.751 54.1074 103.619 55.7946C102.488 57.4818 100.848 58.7651 98.9387 59.4585C97.0799 60.1287 95.0597 60.209 93.1537 59.6883C91.2478 59.1678 89.5487 58.0719 88.2887 56.55Z" fill="#4B1010"/>
<path d="M91.818 46.173C91.6688 46.1691 91.5201 46.1956 91.3815 46.2511C91.2428 46.3066 91.1169 46.3899 91.0116 46.4958C90.9063 46.6017 90.8237 46.728 90.7689 46.867C90.7142 47.0059 90.6884 47.1547 90.693 47.304C90.6927 47.5284 90.7592 47.7477 90.8837 47.9343C91.0083 48.1209 91.1856 48.2664 91.3929 48.352C91.6002 48.4378 91.8284 48.46 92.0484 48.4158C92.2683 48.3717 92.4702 48.2632 92.6285 48.1041C92.7867 47.9451 92.8941 47.7426 92.9372 47.5224C92.9801 47.3022 92.9567 47.074 92.8698 46.8672C92.783 46.6603 92.6367 46.4839 92.4494 46.3603C92.2622 46.2367 92.0424 46.1715 91.818 46.173Z" fill="#4B1010"/>
<path d="M99.1578 46.2166C99.0085 46.2127 98.8602 46.2392 98.7216 46.2947C98.583 46.3501 98.4571 46.4332 98.3518 46.5389C98.2465 46.6447 98.1639 46.7708 98.109 46.9096C98.0541 47.0485 98.0281 47.197 98.0328 47.3461C98.0322 47.5706 98.0983 47.7901 98.2227 47.977C98.347 48.1637 98.5242 48.3094 98.7315 48.3953C98.9388 48.4813 99.1671 48.5036 99.3871 48.4597C99.6072 48.4157 99.8092 48.3073 99.9676 48.1483C100.126 47.9893 100.234 47.7868 100.277 47.5666C100.32 47.3462 100.296 47.1182 100.21 46.9112C100.123 46.7042 99.9765 46.5277 99.7893 46.4041C99.6019 46.2803 99.3822 46.2152 99.1578 46.2166Z" fill="#4B1010"/>
<path d="M98.6582 50.8213C97.3007 53.4298 93.0017 52.9363 91.9637 50.9608C91.9032 50.8297 91.7976 50.7247 91.6661 50.6652C91.5345 50.6056 91.3859 50.5956 91.2474 50.6368C91.1091 50.6779 90.9902 50.7678 90.9126 50.8896C90.8351 51.0114 90.8041 51.157 90.8252 51.2998C90.9863 51.7383 91.236 52.1388 91.5585 52.4766C91.881 52.8144 92.2697 53.0821 92.7002 53.2633C93.5595 53.644 94.4921 53.8309 95.4317 53.8108C96.2948 53.8237 97.1459 53.6067 97.8974 53.182C98.6489 52.7574 99.274 52.1404 99.7082 51.3943C99.7697 51.2566 99.777 51.1008 99.7287 50.9578C99.6804 50.815 99.5801 50.6955 99.4477 50.6232C99.3154 50.551 99.1605 50.5312 99.0141 50.568C98.8679 50.6047 98.7409 50.6952 98.6582 50.8213Z" fill="#4B1010"/>
<path d="M192.914 232.298C192.918 231.98 192.857 231.663 192.735 231.368C192.614 231.074 192.435 230.807 192.207 230.583C191.979 230.36 191.709 230.184 191.414 230.069C191.117 229.952 190.799 229.898 190.481 229.907C177.98 229.907 178.031 229.781 177.225 230.285C176.898 230.502 176.63 230.795 176.439 231.137C176.249 231.48 176.145 231.864 176.135 232.256C176.135 245.436 176.093 244.526 176.219 244.967C176.345 245.409 176.6 245.805 176.951 246.104C177.302 246.402 177.732 246.591 178.19 246.645C178.34 246.675 177.047 246.645 190.523 246.645C190.83 246.647 191.135 246.587 191.42 246.47C191.703 246.351 191.961 246.179 192.177 245.961C192.395 245.742 192.566 245.483 192.681 245.198C192.797 244.913 192.854 244.608 192.851 244.301C192.9 243.213 192.914 232.298 192.914 232.298Z" fill="white"/>
<path d="M193.751 232.293C193.743 231.452 193.406 230.648 192.812 230.052C192.216 229.457 191.412 229.119 190.571 229.112H178.65C177.849 229.089 177.069 229.373 176.469 229.905C175.871 230.436 175.496 231.177 175.424 231.975C175.412 232.125 175.356 244.544 175.518 245.148C175.658 245.651 175.919 246.11 176.279 246.488C176.637 246.864 177.084 247.148 177.578 247.313C178.055 247.484 177.809 247.443 190.605 247.439C191.025 247.439 191.441 247.355 191.829 247.193C192.216 247.029 192.567 246.791 192.86 246.489C193.154 246.189 193.385 245.832 193.538 245.441C193.691 245.051 193.766 244.632 193.755 244.212C193.755 244.212 193.758 232.842 193.751 232.293ZM190.565 246.312H178.283C177.888 246.252 177.519 246.08 177.221 245.816C176.922 245.552 176.705 245.207 176.597 244.823C176.529 244.608 176.549 244.011 176.552 232.295C176.553 231.965 176.639 231.641 176.799 231.353C176.96 231.065 177.191 230.82 177.47 230.645C178.118 230.24 177.891 230.318 190.481 230.327C190.749 230.318 191.018 230.364 191.268 230.462C191.52 230.559 191.748 230.706 191.94 230.895C192.132 231.084 192.285 231.309 192.387 231.558C192.491 231.807 192.542 232.074 192.539 232.343C192.539 232.343 192.548 243.797 192.512 244.463C192.482 244.961 192.264 245.429 191.903 245.771C191.541 246.114 191.063 246.308 190.565 246.312Z" fill="#4B1010"/>
<path d="M189.3 234.29C189.249 234.354 184.851 239.99 183.69 241.49C182.49 240.249 180.366 238.052 180.212 237.899C180.158 237.845 180.093 237.801 180.023 237.771C179.952 237.743 179.877 237.728 179.801 237.726C179.724 237.726 179.648 237.741 179.577 237.77C179.507 237.8 179.442 237.842 179.388 237.896C179.334 237.95 179.291 238.014 179.261 238.085C179.232 238.155 179.216 238.23 179.216 238.307C179.216 238.383 179.231 238.46 179.259 238.53C179.289 238.601 179.331 238.665 179.385 238.719C183.323 242.729 183.344 242.972 183.767 242.973C184.127 242.973 183.708 243.372 190.185 235.037C190.661 234.438 189.774 233.687 189.3 234.29Z" fill="#4B1010"/>
<path d="M150.042 133.173C150.047 132.854 149.986 132.538 149.864 132.244C149.743 131.949 149.563 131.682 149.336 131.459C149.108 131.235 148.838 131.06 148.541 130.944C148.245 130.827 147.928 130.773 147.609 130.782C135.107 130.782 135.159 130.655 134.354 131.16C134.027 131.377 133.757 131.669 133.567 132.012C133.378 132.355 133.273 132.739 133.263 133.131C133.263 146.312 133.221 145.401 133.347 145.842C133.474 146.285 133.729 146.68 134.079 146.978C134.43 147.277 134.861 147.465 135.318 147.519C135.468 147.551 134.159 147.519 147.609 147.519C148.061 147.517 148.502 147.386 148.882 147.14C149.261 146.895 149.561 146.546 149.748 146.135C150.018 145.545 150.042 133.173 150.042 133.173Z" fill="#FE7465"/>
<path d="M150.879 133.167C150.867 132.323 150.53 131.517 149.937 130.916C149.344 130.316 148.542 129.968 147.699 129.945C145.829 129.921 135.879 129.945 135.78 129.945C134.979 129.922 134.199 130.206 133.6 130.738C133 131.27 132.626 132.01 132.554 132.808C132.542 132.958 132.485 145.368 132.648 145.98C132.786 146.479 133.044 146.936 133.399 147.312C133.755 147.688 134.196 147.972 134.687 148.138C135.329 148.359 134.987 148.318 147.737 148.314C148.157 148.314 148.573 148.23 148.96 148.067C149.348 147.904 149.698 147.665 149.992 147.364C150.285 147.063 150.516 146.707 150.669 146.315C150.824 145.924 150.897 145.506 150.887 145.086C150.887 145.086 150.887 133.717 150.879 133.167ZM149.492 145.978C149.327 146.319 149.073 146.608 148.755 146.814C148.437 147.019 148.07 147.134 147.692 147.144H135.45C135.056 147.084 134.687 146.912 134.388 146.648C134.089 146.384 133.873 146.04 133.764 145.656C133.698 145.441 133.718 144.844 133.721 133.128C133.722 132.798 133.807 132.475 133.967 132.186C134.126 131.898 134.356 131.654 134.634 131.478C135.293 131.067 135.125 131.149 147.684 131.158C147.953 131.15 148.221 131.196 148.472 131.294C148.722 131.391 148.951 131.539 149.143 131.727C149.336 131.916 149.488 132.141 149.591 132.39C149.693 132.638 149.745 132.905 149.742 133.174C149.757 143.452 149.831 145.239 149.492 145.978Z" fill="#4B1010"/>
<path d="M146.433 135.123C146.382 135.187 141.984 140.823 140.823 142.33C139.623 141.09 137.499 138.892 137.345 138.738C137.234 138.636 137.089 138.582 136.939 138.584C136.789 138.587 136.646 138.648 136.539 138.753C136.433 138.859 136.371 139.001 136.367 139.151C136.362 139.301 136.416 139.447 136.517 139.558C140.678 143.872 140.535 143.8 140.867 143.8C140.951 143.797 141.035 143.778 141.112 143.742C141.189 143.706 141.259 143.656 141.317 143.593C145.575 138.019 146.939 136.464 147.317 135.856C147.4 135.738 147.435 135.592 147.416 135.449C147.397 135.305 147.325 135.174 147.213 135.082C147.102 134.989 146.96 134.942 146.815 134.95C146.67 134.957 146.534 135.019 146.433 135.123Z" fill="#4B1010"/>
<path d="M255.375 259.901C275.879 259.901 292.5 243.279 292.5 222.776C292.5 202.272 275.879 185.651 255.375 185.651C234.872 185.651 218.25 202.272 218.25 222.776C218.25 243.279 234.872 259.901 255.375 259.901Z" fill="#0F002E"/>
<path d="M252.062 213.798L251.894 218.119C252.924 218.725 254.082 219.087 255.275 219.174C256.467 219.261 257.664 219.072 258.773 218.622L258.857 213.882C256.626 214.473 254.277 214.443 252.062 213.798Z" fill="white"/>
<path d="M275.784 200.089C275.028 199.396 274.049 198.993 273.024 198.954C271.998 198.913 270.992 199.239 270.183 199.872C269.87 200.077 269.796 199.422 269.723 199.032C269.042 195.723 269.057 192.31 269.763 189.007C267.317 188.692 264.975 187.821 262.917 186.462C260.861 185.101 259.142 183.289 257.892 181.162C255.33 183.442 252.009 184.684 248.58 184.644C246.186 188.289 244.401 192.297 243.294 196.515C240.839 206.781 246.981 213.517 255.294 213.805C260.912 213.999 264.968 210.411 268.494 206.877C268.644 206.727 269.094 206.962 269.502 207.177C274.452 208.818 278.61 203.181 275.784 200.089Z" fill="white"/>
<path d="M273.12 232.55C270.453 225.735 266.152 220.1 259.192 218.036L259.15 218.958C255.085 220.308 252.183 219.081 251.431 218.33L251.473 217.197C238.066 218.022 228.832 229.406 223.704 241.821C226.296 246.131 229.743 249.866 233.832 252.795C237.919 255.725 242.565 257.787 247.479 258.855C252.394 259.925 257.476 259.976 262.411 259.008C267.348 258.041 272.034 256.074 276.181 253.23C276.181 245.804 275.827 239.466 273.12 232.55Z" fill="#FE7465"/>
<path d="M282.75 201.054C286.425 195.714 285.689 187.774 283.542 182.53C281.708 178.048 277.613 172.443 272.106 171.397C271.113 171.193 270.093 171.163 269.09 171.31C267.947 170.193 266.439 169.525 264.843 169.432C263.249 169.339 261.672 169.825 260.408 170.802C258.69 169.446 256.524 168.787 254.343 168.958C247.709 169.533 246.513 179.26 244.134 181.519C243.248 182.377 242.067 182.865 240.834 182.884C240.725 182.872 240.615 182.895 240.521 182.949C240.425 183.003 240.35 183.085 240.303 183.184C239.861 184.095 242.9 186.859 246.549 186.423C244.308 190.305 241.838 195.817 241.838 201.259C241.812 204.082 242.717 206.835 244.413 209.091C246.111 211.347 248.504 212.98 251.223 213.738L251.121 216.267C237.482 217.467 228.642 228.589 223.086 240.964C222.746 241.725 222.656 241.644 224.075 243.714C228.963 250.957 236.216 256.278 244.593 258.766C252.969 261.253 261.951 260.754 270 257.352C272.361 256.362 274.611 255.124 276.711 253.66C276.8 253.588 276.87 253.495 276.917 253.392C276.965 253.288 276.987 253.174 276.984 253.06C277.193 238.755 273.167 221.382 259.584 217.128L259.656 213.864C262.151 213.006 264.461 211.687 266.469 209.977C266.084 212.401 265.482 217.777 269.223 219.181C271.463 220.023 274.923 218.905 277.208 217.693C284.18 213.988 289.818 203.572 282.75 201.054ZM244.871 207.967C240.48 201.487 244.542 191.778 248.667 185.07C251.966 185.055 255.155 183.892 257.688 181.78C258.947 183.798 260.627 185.518 262.613 186.826C264.599 188.134 266.843 188.997 269.193 189.357C268.497 192.58 268.511 195.918 269.234 199.135C269.456 200.466 270.087 200.443 270.269 200.227C275.718 196.701 279.489 204.844 272.262 207.064C271.79 207.229 271.287 207.291 270.788 207.244C270.29 207.198 269.807 207.046 269.372 206.797C268.664 206.508 268.535 206.152 267.872 206.94C264.918 210.439 260.442 213.318 255.815 213.457C253.689 213.454 251.592 212.956 249.692 212.004C247.791 211.051 246.146 209.668 244.871 207.967ZM251.171 218.595C251.783 219.052 252.474 219.396 253.211 219.604C252.011 220.996 250.061 223.282 249.263 224.227C248.205 222.394 247.371 220.44 246.779 218.409C248.183 217.99 249.627 217.72 251.087 217.603C251.063 218.185 251.006 218.43 251.171 218.595ZM252.239 217.909L252.38 214.275C254.363 214.785 256.439 214.815 258.435 214.362L258.363 218.359C257.369 218.724 256.308 218.872 255.251 218.796C254.195 218.718 253.169 218.415 252.239 217.909ZM255.053 225.963C254.859 223.071 254.742 220.965 254.712 219.9C256.26 220.066 257.826 219.85 259.272 219.271C259.572 219.174 259.529 218.917 259.548 218.494C260.843 218.913 262.085 219.483 263.247 220.191C261.209 222.949 258.336 224.974 255.053 225.963ZM245.645 218.637C246.348 221.05 247.389 223.351 248.736 225.472C248.807 225.543 248.889 225.598 248.982 225.634C249.074 225.672 249.173 225.69 249.272 225.687C249.588 225.655 249.374 225.777 253.638 220.833C254.028 227.098 253.772 227.22 254.538 227.22C256.445 227.22 260.795 225.18 264.228 220.806C264.489 220.989 264.741 221.184 264.999 221.389C261.179 231.853 265.86 236.698 263.318 247.48C262.853 249.774 261.903 251.943 260.534 253.84C260.064 254.451 261.036 255.111 261.504 254.508C264.495 250.648 265.137 244.539 265.274 242.092C265.692 234.612 263.103 230.737 265.947 222.189C270.839 226.897 273.78 233.2 275.184 241.963C275.723 245.608 275.937 249.295 275.825 252.978C269.271 257.482 261.417 259.705 253.475 259.303C245.532 258.903 237.942 255.901 231.875 250.761C228.821 248.199 226.203 245.16 224.123 241.761C229.37 229.408 236.61 221.632 245.645 218.637Z" fill="#4B1010"/>
<path d="M253.533 191.25C253.367 194.4 252.096 198.063 249.024 198.919C248.879 198.963 248.756 199.062 248.681 199.194C248.606 199.326 248.585 199.482 248.622 199.63C248.66 199.777 248.753 199.905 248.882 199.984C249.011 200.065 249.167 200.092 249.315 200.061C253.092 198.96 254.265 194.722 254.618 192.225C254.669 191.908 254.696 191.59 254.702 191.269C254.697 191.119 254.634 190.977 254.528 190.87C254.421 190.765 254.277 190.705 254.127 190.702C253.976 190.701 253.83 190.756 253.721 190.858C253.61 190.959 253.542 191.1 253.533 191.25Z" fill="#4B1010"/>
<path d="M264.721 193.432C264.292 190.896 261.534 190 260.372 189.732C260.187 189.681 259.997 189.651 259.805 189.643C259.07 189.522 258.905 190.678 259.743 190.807C260.135 190.848 260.52 190.927 260.895 191.044C261.546 191.182 262.143 191.503 262.617 191.97C263.091 192.438 263.421 193.03 263.568 193.68C263.682 194.431 264.853 194.208 264.721 193.432Z" fill="#4B1010"/>
<path d="M252.72 186.621C252.195 186.243 251.56 186.046 250.915 186.064C250.269 186.081 249.645 186.309 249.141 186.714C249.022 186.798 248.94 186.924 248.911 187.068C248.883 187.21 248.908 187.357 248.985 187.482C249.061 187.606 249.181 187.696 249.322 187.734C249.462 187.773 249.612 187.756 249.741 187.687C250.047 187.44 250.42 187.29 250.813 187.255C251.205 187.221 251.599 187.305 251.944 187.494C252.543 187.975 253.309 187.108 252.72 186.621Z" fill="#4B1010"/>
<path d="M259.762 197.17C259.587 197.041 259.444 196.875 259.345 196.681C259.246 196.488 259.194 196.273 259.191 196.056C259.203 195.912 259.162 195.768 259.077 195.651C258.991 195.535 258.865 195.453 258.724 195.421C258.583 195.39 258.435 195.409 258.307 195.478C258.181 195.547 258.082 195.66 258.031 195.795C257.938 196.275 258.028 196.771 258.283 197.188C258.046 197.367 257.854 197.595 257.718 197.859C257.581 198.121 257.506 198.411 257.497 198.706C257.428 200.533 259.558 200.74 260.212 199.086C260.383 198.766 260.431 198.396 260.349 198.043C260.266 197.691 260.058 197.38 259.762 197.17Z" fill="#4B1010"/>
<path d="M274.065 201.75C273.714 201.409 273.259 201.193 272.773 201.136C272.287 201.079 271.795 201.183 271.375 201.433C270.934 201.711 270.553 202.072 270.253 202.497C269.803 202.947 270.481 203.922 271.191 203.203C271.78 202.453 272.575 201.912 273.271 202.564C273.9 203.152 274.576 202.147 274.065 201.75Z" fill="#4B1010"/>
<path d="M248.619 193.704C247.63 192.954 248.469 192.271 247.678 192.009C246.973 191.775 246.564 192.678 247.141 193.711C246.159 194.376 245.992 196.218 247.141 196.693C248.629 197.316 250.02 194.773 248.619 193.704Z" fill="#4B1010"/>
<path d="M257.1 206.667C257.1 206.412 256.878 206.113 256.404 206.13C253.653 206.647 249.887 206.439 247.677 204.813C247.581 204.748 247.467 204.712 247.35 204.714C247.235 204.714 247.121 204.748 247.025 204.814C246.929 204.88 246.855 204.975 246.813 205.083C246.773 205.191 246.764 205.311 246.791 205.423C247.098 207.217 248.045 208.84 249.456 209.989C251.673 211.621 255.531 211.353 256.733 208.665C257.03 208.042 257.156 207.354 257.1 206.667ZM255.963 207.417C255.383 210.451 250.361 211.317 248.381 206.604C250.787 207.552 253.412 207.834 255.963 207.417Z" fill="#4B1010"/>
<path d="M260.325 205.786C261.715 205.786 262.842 204.66 262.842 203.269C262.842 201.879 261.715 200.752 260.325 200.752C258.934 200.752 257.808 201.879 257.808 203.269C257.808 204.66 258.934 205.786 260.325 205.786Z" fill="#0F002E"/>
<path d="M243.462 199.788C244.853 199.788 245.979 198.662 245.979 197.271C245.979 195.881 244.853 194.754 243.462 194.754C242.072 194.754 240.945 195.881 240.945 197.271C240.945 198.662 242.072 199.788 243.462 199.788Z" fill="#0F002E"/>
<path d="M250.815 227.391C250.575 227.391 250.341 227.463 250.142 227.596C249.942 227.728 249.786 227.919 249.695 228.141C249.602 228.361 249.578 228.606 249.626 228.841C249.672 229.077 249.788 229.293 249.957 229.462C250.127 229.632 250.343 229.747 250.578 229.795C250.814 229.842 251.058 229.818 251.28 229.726C251.501 229.633 251.691 229.479 251.825 229.279C251.958 229.08 252.029 228.844 252.029 228.604C252.029 228.283 251.901 227.974 251.673 227.746C251.445 227.518 251.138 227.391 250.815 227.391Z" fill="#4B1010"/>
<path d="M249.261 232.95C249.021 232.95 248.786 233.02 248.586 233.154C248.387 233.287 248.232 233.478 248.139 233.698C248.048 233.92 248.024 234.165 248.072 234.4C248.118 234.636 248.234 234.852 248.403 235.021C248.574 235.191 248.79 235.306 249.026 235.353C249.261 235.399 249.504 235.375 249.726 235.284C249.948 235.192 250.137 235.036 250.271 234.837C250.404 234.636 250.475 234.402 250.475 234.162C250.475 233.839 250.346 233.532 250.119 233.304C249.891 233.077 249.582 232.95 249.261 232.95Z" fill="#4B1010"/>
<path d="M44.625 148.611C65.1285 148.611 81.75 131.99 81.75 111.486C81.75 90.9824 65.1285 74.3611 44.625 74.3611C24.1215 74.3611 7.5 90.9824 7.5 111.486C7.5 131.99 24.1215 148.611 44.625 148.611Z" fill="#0F002E"/>
<path d="M94.3333 82.038C94.1653 82.1625 93.9568 81.954 94.0333 81.738C94.5184 80.9696 94.7932 80.0871 94.8299 79.179C94.8299 78.879 94.8718 78.0045 94.4098 77.9625C93.7378 77.9625 92.3024 79.7775 91.8929 80.3115C91.7654 80.478 91.4324 80.3955 91.5164 80.1435C91.7125 79.3271 91.8662 78.501 91.9768 77.6685C92.0608 76.9005 91.7698 75.9885 91.3903 76.368C89.9393 78.1536 88.7396 80.1294 87.8248 82.2405C87.7423 82.41 87.4903 82.3245 87.4468 82.1985C87.0874 81.1643 86.4674 80.2401 85.6468 79.515C85.1473 79.2645 85.0874 79.4025 84.9344 79.557C84.2744 80.5455 85.3063 84.561 85.6468 85.7235C92.3263 88.134 93.1978 89.8875 93.1978 89.415C94.3513 86.415 95.0908 84.4365 95.2123 84.255C95.9339 83.6367 96.4828 82.8419 96.8054 81.948C97.1039 80.55 95.6128 81.3975 94.3333 82.038Z" fill="white"/>
<path d="M45.1695 101.921L43.2825 106.284C44.1088 107.157 45.1257 107.826 46.2537 108.241C47.3817 108.656 48.5901 108.804 49.785 108.675L51.42 104.648C49.1518 104.24 47.0109 103.306 45.1695 101.921Z" fill="white"/>
<path d="M66.648 79.7299C63.5152 78.3587 61.014 75.8576 59.643 72.7249C56.5395 74.8739 52.7938 75.8956 49.029 75.6199C48.0556 75.5272 47.0892 75.3728 46.1355 75.1578C46.1355 75.1578 45.5355 74.9899 45.5055 74.9899C45.2467 76.1441 44.9104 77.2798 44.499 78.3889C43.651 80.6614 42.4476 82.7848 40.9335 84.6799C40.9098 84.7018 40.8817 84.7184 40.851 84.7283C40.8202 84.7384 40.7877 84.7414 40.7556 84.7375C40.7236 84.7334 40.6927 84.7225 40.6654 84.7052C40.6381 84.688 40.6149 84.665 40.5975 84.6379C40.0281 83.7725 39.2488 83.0656 38.3325 82.5829C37.6261 82.2503 36.831 82.1564 36.0666 82.3151C35.3023 82.474 34.6102 82.8769 34.095 83.4634C32.394 85.4479 33.645 89.1919 35.8155 90.8044C37.719 92.2234 39.297 91.1494 39.297 91.8964C41.373 99.1609 46.728 104.885 54.273 104.48C56.523 104.51 58.7325 103.879 60.6262 102.663C62.5198 101.447 64.0141 99.7015 64.923 97.6428C67.3155 92.7843 67.4055 85.0369 66.648 79.7299Z" fill="white"/>
<path d="M63.543 95.8801C64.933 95.8801 66.06 94.7531 66.06 93.3631C66.06 91.9729 64.933 90.8461 63.543 90.8461C62.1528 90.8461 61.026 91.9729 61.026 93.3631C61.026 94.7531 62.1528 95.8801 63.543 95.8801Z" fill="#0F002E"/>
<path d="M40.8915 84.0934C40.9755 83.9674 41.0595 83.8834 41.1435 83.7574C43.1378 81.0871 44.513 78.0067 45.1695 74.7394C43.7025 73.9414 38.1645 70.7539 37.6185 68.8654C35.8536 70.5121 34.6769 72.6916 34.2678 75.0704C33.8588 77.4493 34.2401 79.8967 35.3535 82.0384C36.3728 81.7018 37.4762 81.7219 38.4827 82.0954C39.489 82.4687 40.3385 83.1733 40.8915 84.0934Z" fill="#FE7465"/>
<path d="M51.6692 75.4503C54.569 75.0559 57.3167 73.9152 59.6432 72.1398C59.8157 72.0183 59.9777 72.2403 59.9777 72.3903C61.3079 75.4785 63.7698 77.9404 66.8582 79.2708C67.0337 79.2708 67.0262 79.4043 67.0262 79.5708C67.771 83.9617 67.7282 88.4502 66.9002 92.8263C67.9544 92.2657 68.8519 91.4508 69.5112 90.4554C70.1705 89.46 70.5709 88.3156 70.6757 87.1263C71.1032 82.1763 67.2857 84.5163 68.3672 80.7093C69.3152 77.3733 71.4812 75.2373 69.1652 72.4023C66.7847 69.4893 66.1202 63.1548 61.4042 63.4683C56.3837 63.7998 58.9607 63.4383 54.2732 61.7478C52.4165 61.0746 50.4595 60.7195 48.4847 60.6978C45.9677 60.6978 43.8617 61.4073 43.1987 62.9628C42.0302 65.7003 38.7527 66.6363 38.0387 68.1648C37.1912 69.0003 43.5707 76.0653 51.6692 75.4503Z" fill="#FE7465"/>
<path d="M83.595 85.5199C83.3396 85.5197 83.0916 85.607 82.8924 85.7671C82.6932 85.9273 82.5548 86.1508 82.5 86.4004C80.4855 94.4614 77.4 102.107 71.2575 107.795C67.659 111.172 63.0714 113.304 58.17 113.877C59.0964 115.005 59.9391 116.2 60.6915 117.45C62.7368 121.077 64.1681 125.017 64.9275 129.111C72.3972 127.809 79.1699 123.918 84.057 118.121C89.8455 111.073 93.7202 102.652 95.307 93.6709C95.4075 93.3157 95.4635 92.9494 95.4735 92.5804C95.283 90.1759 85.9245 85.8109 83.595 85.5199Z" fill="#FE7465"/>
<path d="M50.4973 108.045L50.0773 109.053C48.7364 109.269 47.3626 109.14 46.0855 108.677C44.8085 108.215 43.6703 107.434 42.7783 106.41L43.1563 105.57C29.3818 103.658 18.3088 117.674 12.9958 130.53C15.5791 134.85 19.0201 138.595 23.1067 141.533C27.1931 144.471 31.8386 146.541 36.7561 147.614C41.6735 148.687 46.7587 148.741 51.6979 147.772C56.6371 146.804 61.3253 144.834 65.4733 141.983C65.4733 128.538 63.0268 114.95 50.4973 108.045Z" fill="#FE7465"/>
<path d="M97.35 80.7512C96.846 80.1377 95.889 80.4767 95.388 80.6822C95.7015 79.6322 95.9145 78.0227 95.007 77.4062C94.257 76.8932 93.408 77.5712 92.7045 78.2972C92.8425 77.0552 92.805 75.6182 91.557 75.5792C90.957 75.5942 89.9745 76.2182 87.627 80.8532C87.0165 79.7147 85.932 78.2777 84.744 78.7997C83.523 79.3397 83.946 81.7157 84.144 82.8587C84.3345 83.9252 84.486 84.6032 84.594 85.0412C84.2808 84.886 83.9377 84.8 83.5884 84.7892C83.2389 84.7783 82.8912 84.8428 82.569 84.9782C82.3101 85.1278 82.0876 85.333 81.9174 85.5788C81.7473 85.8247 81.6338 86.1052 81.585 86.4002C78.618 99.1832 70.7445 111.96 57.885 113.045C55.9159 110.8 53.5741 108.911 50.9625 107.463L51.906 105.105C54.3676 105.495 56.8894 105.163 59.1664 104.15C61.4434 103.137 63.3783 101.486 64.737 99.3962C65.8122 97.6246 66.5809 95.6845 67.011 93.6572C68.2213 93.0446 69.2545 92.132 70.0119 91.0066C70.7692 89.881 71.2254 88.5802 71.337 87.2282C71.5905 84.2462 70.4505 83.4782 69.618 82.9127C68.5395 82.1852 68.5155 81.9152 69.852 78.5942C70.752 76.3442 71.538 74.3942 69.5775 71.9852C67.3275 69.2162 66.5295 62.4422 61.1655 62.7857C58.2225 62.9747 58.1655 62.9357 57.4155 62.4857C52.653 59.6132 44.0655 58.6232 42.303 62.7152C41.6098 63.992 40.5801 65.0545 39.3255 65.7872C35.061 68.8202 31.2255 74.8607 34.2795 81.9962C31.2075 83.8562 32.1675 88.5587 34.803 90.9527C35.2399 91.3784 35.7592 91.7107 36.3289 91.9291C36.8986 92.1475 37.5069 92.2477 38.1165 92.2232H38.46C39.4683 95.8117 41.4396 99.0559 44.16 101.604L42.873 104.645C38.0145 103.886 32.5965 105.423 27.573 108.995C23.2965 112.211 19.6629 116.202 16.8615 120.761C15.0304 123.7 13.4378 126.78 12.099 129.974C11.8755 130.424 11.958 130.724 12.4905 131.426C22.0155 148.124 47.2065 155.265 65.4645 142.664C65.844 142.403 66.0465 142.406 66.0465 141.81C66.2331 137.754 65.9721 133.69 65.268 129.692C76.65 127.47 85.422 120.116 91.3455 107.826C93.6643 102.956 95.277 97.7797 96.135 92.4542C96.057 91.4477 94.815 90.2867 93.945 89.5907C94.482 88.1942 95.895 84.6902 95.895 84.6902C96.4974 84.1501 96.9912 83.5 97.35 82.7747C97.8555 81.7142 97.629 81.0887 97.35 80.7512ZM70.35 87.2492C70.2753 88.2404 69.9778 89.2021 69.48 90.0625C68.9821 90.9229 68.2966 91.66 67.4745 92.2187C67.9935 89.1016 68.1103 85.9306 67.8225 82.7837C68.634 84.1112 70.641 83.8412 70.35 87.2492ZM43.584 63.2672C44.145 61.9712 45.9465 61.2287 48.5265 61.2287C51.5224 61.2809 54.4573 62.0851 57.0615 63.5672C58.0905 64.1672 58.38 64.2002 61.4715 63.9962C65.9325 63.6962 66.444 69.7697 68.916 72.7937C71.0865 75.4502 69.075 77.1152 67.716 81.7112C67.581 80.4242 67.5075 80.0357 67.47 79.8347C67.4325 79.6337 67.497 79.1372 66.987 79.0667C64.0435 77.734 61.6863 75.3749 60.3555 72.4307C60.349 72.3314 60.3166 72.2354 60.2613 72.1526C60.2061 72.0698 60.13 72.0031 60.0408 71.959C59.9515 71.9149 59.8522 71.8951 59.7529 71.9015C59.6536 71.908 59.5578 71.9405 59.475 71.9957C57.2365 73.6145 54.6064 74.6062 51.8565 74.8682C49.6551 75.1039 47.4289 74.8244 45.354 74.0522C41.6775 71.9522 38.6445 69.6602 38.439 68.7887C38.0325 67.5752 42.2445 66.3677 43.584 63.2672ZM37.5 69.5057C38.7135 71.4992 43.2885 74.1302 44.7435 74.9342C44.085 78.0239 42.7686 80.9354 40.884 83.4707C40.2906 82.6534 39.4641 82.0345 38.5126 81.6953C37.5613 81.356 36.5296 81.3125 35.553 81.5702C34.5931 79.604 34.2651 77.3891 34.6137 75.2293C34.9623 73.0693 35.9704 71.0701 37.5 69.5057ZM43.071 98.6297C41.5369 96.5149 40.3818 94.1497 39.657 91.6397C39.3795 90.6692 37.89 91.8122 36.0765 90.4622C33.951 88.8767 32.7765 85.2362 34.665 83.4332C36.4305 81.7412 39.165 82.7777 40.323 84.8042C40.3732 84.8786 40.4397 84.9409 40.5172 84.9862C40.5948 85.0316 40.6815 85.0589 40.771 85.0663C40.8607 85.0736 40.9507 85.0607 41.0346 85.0286C41.1186 84.9965 41.1942 84.946 41.256 84.8807C43.4559 82.0961 45.0163 78.8617 45.8265 75.4067C48.1338 76.0231 50.5446 76.1495 52.9038 75.778C55.263 75.4066 57.5182 74.5453 59.5245 73.2497C60.9493 76.2103 63.361 78.5822 66.345 79.9577C67.623 89.1842 66.1605 96.7352 62.3205 100.697C57.69 105.48 48.219 105.276 43.071 98.6297ZM45.321 102.555C46.9689 103.797 48.8748 104.653 50.898 105.06L49.521 108.45C48.4572 108.532 47.3883 108.384 46.3872 108.015C45.3861 107.646 44.4765 107.065 43.7205 106.313C43.971 105.669 43.8135 106.043 45.321 102.555ZM37.371 147.29C32.6076 146.345 28.0824 144.453 24.0643 141.725C20.0461 138.998 16.6168 135.492 13.98 131.414C13.77 131.097 13.5885 130.814 13.413 130.514C15.672 125.172 23.718 108.614 37.3845 106.05C37.9188 108.362 38.8594 110.562 40.1625 112.545C41.0151 113.895 42.1693 115.028 43.5345 115.856C43.9695 116.073 44.2065 115.817 44.4255 115.433L44.619 116.355L37.371 147.29ZM43.521 114.569C40.9125 112.74 39.3405 108.977 38.4975 105.905C39.8575 105.724 41.2348 105.716 42.597 105.881C42.4335 106.244 42.2835 106.454 42.504 106.674C43.5571 107.826 44.8933 108.683 46.38 109.16C45.015 111.815 44.0115 113.7 43.521 114.569ZM47.8995 109.482C48.549 109.578 49.209 109.578 49.8585 109.482C50.3205 109.416 50.3235 109.44 50.676 108.582C51.9459 109.306 53.1505 110.139 54.276 111.072C52.8714 112.65 51.2934 114.065 49.572 115.29C49.218 114.011 48.2745 110.754 47.8995 109.482ZM65.1405 141.783C60.663 144.781 55.5837 146.764 50.259 147.591L48.321 116.864L48.6975 116.235L48.7575 116.471C48.9075 116.901 49.4475 116.984 49.6125 116.792C51.6601 115.374 53.5441 113.733 55.23 111.9C62.334 118.317 64.452 127.986 64.98 135.012C65.1585 137.499 65.1465 139.454 65.1405 141.783ZM65.241 128.672C64.2747 123.407 62.0974 118.44 58.881 114.162C71.382 112.362 77.7525 101.798 80.922 93.0122C85.3581 94.8575 89.4827 97.3766 93.15 100.481C88.2 116.211 78.0555 126.458 65.241 128.672ZM95.091 92.5667C94.7427 94.8511 94.2282 97.1071 93.552 99.3167C89.8558 96.2821 85.7221 93.8239 81.291 92.0252C81.9117 90.2386 82.4379 88.4206 82.8675 86.5787C82.8958 86.4178 82.9776 86.2711 83.0994 86.1622C83.2213 86.0533 83.3763 85.9886 83.5395 85.9787C85.4025 85.9712 95.091 90.8387 95.091 92.5667ZM95.0745 84.0377C94.8525 84.2597 94.989 84.0812 93.114 88.9727C90.954 87.4718 88.5852 86.2963 86.0835 85.4837C85.5075 83.4662 84.9285 80.4812 85.374 79.8002C85.7625 79.7552 86.838 81.2717 87.2265 82.3727C87.2664 82.4779 87.3354 82.5694 87.4255 82.6366C87.5155 82.7039 87.6231 82.7441 87.7351 82.7524C87.8474 82.7608 87.9595 82.7369 88.0585 82.6838C88.1575 82.6306 88.2394 82.5503 88.2945 82.4522C89.1316 80.405 90.267 78.4928 91.6635 76.7777C91.7481 77.08 91.7725 77.396 91.7355 77.7077C91.7254 78.3782 91.6095 79.0429 91.392 79.6772C90.9735 80.9672 92.01 81.0122 92.328 80.5772C92.9109 79.72 93.634 78.967 94.467 78.3497C94.5801 78.6221 94.6219 78.919 94.5885 79.2122C94.5154 80.057 94.2595 80.876 93.8385 81.6122C93.7857 81.7262 93.7701 81.854 93.7938 81.9775C93.8176 82.1008 93.8794 82.2137 93.9708 82.3C94.0621 82.3864 94.1782 82.4419 94.3027 82.4587C94.4274 82.4755 94.554 82.4527 94.665 82.3937C95.2557 82.0046 95.919 81.7393 96.615 81.6137C96.51 82.7492 95.6175 83.3612 95.0745 84.0377Z" fill="#4B1010"/>
<path d="M39.5355 86.8126C39.1095 85.1101 38.1735 84.3076 36.762 84.4306C35.5515 84.4471 36.054 85.8886 36.699 85.6426C37.7235 85.6306 37.944 85.6426 38.382 87.0916C38.3897 87.1776 38.4158 87.2608 38.4585 87.3358C38.5013 87.4108 38.5598 87.4756 38.63 87.526C38.7 87.5763 38.7801 87.6109 38.8649 87.6274C38.9496 87.6439 39.0369 87.642 39.1208 87.6217C39.2046 87.6013 39.2832 87.5632 39.351 87.5098C39.4188 87.4564 39.4743 87.3891 39.5136 87.3123C39.5531 87.2355 39.5753 87.151 39.5792 87.0648C39.5829 86.9785 39.5681 86.8926 39.5355 86.8126Z" fill="#4B1010"/>
<path d="M54.393 79.5001C53.3553 79.0552 52.2006 78.9619 51.1051 79.2348C50.0095 79.5075 49.0333 80.1312 48.3255 81.0107C48.2787 81.075 48.2457 81.1482 48.2281 81.2257C48.2107 81.3033 48.2092 81.3835 48.2238 81.4615C48.2383 81.5397 48.2686 81.6141 48.3129 81.6801C48.3571 81.7461 48.4144 81.8024 48.4812 81.8456C48.5479 81.8888 48.6226 81.9178 48.7011 81.931C48.7794 81.9444 48.8596 81.9415 48.9369 81.9228C49.0141 81.904 49.0867 81.8699 49.1502 81.822C49.2138 81.7743 49.2669 81.7141 49.3065 81.6451C49.8915 81.0082 50.6596 80.5686 51.5052 80.3866C52.3506 80.2048 53.2317 80.2897 54.027 80.6296C54.1689 80.6538 54.3148 80.6259 54.4381 80.5513C54.5613 80.4766 54.6535 80.3601 54.6979 80.2231C54.7423 80.086 54.7359 79.9376 54.6799 79.805C54.624 79.6722 54.5221 79.564 54.393 79.5001Z" fill="#4B1010"/>
<path d="M65.385 81.3167C65.1093 80.7286 64.647 80.248 64.0701 79.9496C63.493 79.6513 62.8338 79.5518 62.1945 79.6667C62.115 79.6771 62.0383 79.7038 61.9696 79.7449C61.9008 79.7861 61.8412 79.841 61.7946 79.9061C61.7478 79.9714 61.7151 80.0455 61.6981 80.1238C61.6813 80.2022 61.6807 80.2832 61.6965 80.3618C61.7122 80.4404 61.744 80.515 61.7898 80.5808C61.8355 80.6467 61.8945 80.7023 61.9626 80.7445C62.0308 80.7866 62.107 80.8142 62.1864 80.8258C62.2657 80.8373 62.3466 80.8324 62.424 80.8112C62.8149 80.7628 63.211 80.8397 63.5556 81.0308C63.9 81.2219 64.1751 81.5174 64.341 81.8747C64.4149 82.0132 64.5409 82.1165 64.6911 82.1621C64.8412 82.2077 65.0035 82.1917 65.142 82.1177C65.2804 82.0438 65.3838 81.9178 65.4294 81.7675C65.4748 81.6173 65.4589 81.4552 65.385 81.3167Z" fill="#4B1010"/>
<path d="M54.1184 84.6529C54.5969 84.1729 53.8184 83.3539 53.2709 83.8294C52.9379 84.1294 53.0924 84.1294 52.8209 84.1384C52.4227 84.1942 52.0586 84.3937 51.797 84.6991C51.5354 85.0046 51.3944 85.3952 51.4004 85.7974C51.2609 87.6319 53.2124 88.0879 53.9504 86.6464C54.0952 86.3689 54.172 86.0611 54.1745 85.7482C54.1772 85.4353 54.1055 85.1261 53.9654 84.8464C54.0209 84.7924 54.0989 84.6709 54.1184 84.6529Z" fill="#4B1010"/>
<path d="M63.5504 85.3501C63.4459 85.469 63.3022 85.5466 63.1454 85.5691C62.9053 85.5902 62.6728 85.6649 62.4653 85.7876C62.2577 85.9103 62.0803 86.0779 61.9459 86.2781C61.8115 86.4784 61.7237 86.7062 61.6888 86.9447C61.654 87.1834 61.673 87.4267 61.7444 87.6571C61.7602 87.9571 61.8791 88.2424 62.0813 88.4648C62.2834 88.6871 62.5561 88.8326 62.8534 88.8767C63.1505 88.921 63.4538 88.861 63.7118 88.7069C63.9698 88.553 64.1666 88.3145 64.2689 88.0321C64.4128 87.7543 64.4891 87.4466 64.4917 87.1339C64.4944 86.8211 64.4231 86.5121 64.2839 86.2321C65.1599 85.4101 63.9899 84.7411 63.5504 85.3501Z" fill="#4B1010"/>
<path d="M59.8036 92.6824C59.7796 92.5324 58.5451 86.3209 58.5091 85.9399C58.5511 85.8574 59.2921 81.2899 59.5081 80.0464C59.6371 79.3219 58.4806 79.0399 58.3501 79.7929C56.9446 87.9289 57.0436 84.1774 58.6501 92.9284C58.7039 93.0575 58.8013 93.1637 58.9252 93.2287C59.0492 93.2936 59.192 93.3131 59.3288 93.284C59.4658 93.2548 59.588 93.1787 59.6747 93.0688C59.7614 92.959 59.807 92.8222 59.8036 92.6824Z" fill="#4B1010"/>
<path d="M59.004 96.5117C57.7802 96.563 56.5595 96.351 55.4246 95.8901C54.2897 95.4293 53.2667 94.7303 52.425 93.8402C52.3619 93.7715 52.2834 93.7184 52.196 93.6852C52.1085 93.6522 52.0146 93.6399 51.9218 93.6495C51.8288 93.6591 51.7394 93.6903 51.6606 93.7407C51.5819 93.791 51.5159 93.8589 51.468 93.9392C50.9109 94.9496 50.6213 96.0855 50.6265 97.2392C50.6865 99.6467 53.1765 101.168 55.5315 101.381C55.6868 101.382 55.8359 101.321 55.9463 101.212C56.0567 101.103 56.1194 100.955 56.1203 100.799C56.1213 100.644 56.0606 100.495 55.9517 100.385C55.8426 100.274 55.6943 100.212 55.539 100.211C54.1275 100.184 51.9315 99.0212 51.837 97.3352C51.8289 96.6293 51.9458 95.9274 52.182 95.2622C54.0485 96.9426 56.5047 97.8153 59.013 97.6892C59.1692 97.688 59.3184 97.6248 59.4281 97.5135C59.5376 97.4024 59.5985 97.2521 59.5973 97.0959C59.5961 96.9398 59.5329 96.7905 59.4216 96.681C59.3105 96.5714 59.1602 96.5105 59.004 96.5117Z" fill="#4B1010"/>
<path d="M37.0815 73.0054C36.8768 73.0142 36.6834 73.1018 36.5418 73.2497C36.4001 73.3978 36.321 73.5947 36.321 73.7996C36.321 74.0044 36.4001 74.2015 36.5418 74.3494C36.6834 74.4974 36.8768 74.5849 37.0815 74.5939C37.2861 74.5849 37.4795 74.4974 37.6212 74.3494C37.7628 74.2015 37.842 74.0044 37.842 73.7996C37.842 73.5947 37.7628 73.3978 37.6212 73.2497C37.4795 73.1018 37.2861 73.0142 37.0815 73.0054Z" fill="#4B1010"/>
<path d="M40.8375 74.8156C40.6245 74.8208 40.4211 74.9048 40.2664 75.0514C40.1119 75.1979 40.0171 75.3967 40.0005 75.6091C40.0086 75.8284 40.0995 76.0365 40.2547 76.1918C40.41 76.347 40.618 76.4378 40.8375 76.4461C41.0476 76.4369 41.2462 76.3472 41.3917 76.1953C41.5372 76.0433 41.6185 75.8411 41.6185 75.6308C41.6185 75.4204 41.5372 75.2182 41.3917 75.0662C41.2462 74.9144 41.0476 74.8246 40.8375 74.8156Z" fill="#4B1010"/>
<path d="M37.059 76.7356C36.8483 76.7356 36.6461 76.8193 36.497 76.9684C36.3479 77.1175 36.264 77.3197 36.264 77.5306C36.264 77.7415 36.3479 77.9437 36.497 78.0928C36.6461 78.2419 36.8483 78.3256 37.059 78.3256C37.1676 78.3322 37.2762 78.3166 37.3785 78.2797C37.4808 78.2428 37.5744 78.1854 37.6536 78.1108C37.7328 78.0364 37.7958 77.9464 37.839 77.8467C37.8822 77.7469 37.9044 77.6394 37.9044 77.5306C37.9044 77.4219 37.8822 77.3143 37.839 77.2146C37.7958 77.1148 37.7328 77.0248 37.6536 76.9504C37.5744 76.8759 37.4808 76.8184 37.3785 76.7815C37.2762 76.7446 37.1676 76.729 37.059 76.7356Z" fill="#4B1010"/>
<path d="M40.0605 78.6934C39.8496 78.6934 39.6474 78.7771 39.4983 78.9262C39.3492 79.0753 39.2655 79.2775 39.2655 79.4884C39.2655 79.6991 39.3492 79.9013 39.4983 80.0504C39.6474 80.1995 39.8496 80.2834 40.0605 80.2834C40.2714 80.2834 40.4736 80.1995 40.6227 80.0504C40.7718 79.9013 40.8555 79.6991 40.8555 79.4884C40.8555 79.2775 40.7718 79.0753 40.6227 78.9262C40.4736 78.7771 40.2714 78.6934 40.0605 78.6934Z" fill="#4B1010"/>
<path d="M84.7186 90.7502C84.4691 90.7405 84.2331 90.6344 84.0602 90.4544C83.8872 90.2746 83.7906 90.0346 83.7906 89.785C83.7906 89.5354 83.8872 89.2955 84.0602 89.1155C84.2331 88.9357 84.4691 88.8296 84.7186 88.8197C84.968 88.8296 85.2038 88.9357 85.3769 89.1155C85.5499 89.2955 85.6465 89.5354 85.6465 89.785C85.6465 90.0346 85.5499 90.2746 85.3769 90.4544C85.2038 90.6344 84.968 90.7405 84.7186 90.7502Z" fill="#4B1010"/>
<path d="M89.7765 82.8002C89.7177 82.7331 89.6448 82.6799 89.5629 82.6445C89.4812 82.6091 89.3924 82.5924 89.3033 82.5956C89.2142 82.5989 89.1269 82.6218 89.0478 82.6631C88.9688 82.7042 88.8998 82.7625 88.8461 82.8336C88.7924 82.9049 88.7552 82.9871 88.7372 83.0744C88.7192 83.1617 88.721 83.252 88.7423 83.3385C88.7636 83.4252 88.8039 83.5059 88.8603 83.5749C88.9167 83.6439 88.9878 83.6996 89.0685 83.7377C89.3214 83.9444 89.5274 84.2027 89.6727 84.4952C89.8181 84.7877 89.8994 85.1078 89.9115 85.4342C89.9105 85.5138 89.9256 85.5927 89.9562 85.6664C89.9867 85.7399 90.032 85.8063 90.0891 85.8618C90.1463 85.9172 90.2142 85.9604 90.2886 85.9887C90.363 86.0169 90.4424 86.0298 90.522 86.0264C90.6015 86.0228 90.6795 86.0031 90.7512 85.9685C90.8229 85.9338 90.8867 85.8849 90.9387 85.8246C90.9909 85.7645 91.0302 85.6943 91.0542 85.6184C91.0782 85.5425 91.0865 85.4624 91.0785 85.3832C91.0427 84.888 90.9092 84.4049 90.6857 83.9616C90.4622 83.5182 90.1532 83.1236 89.7765 82.8002Z" fill="#4B1010"/>
<path d="M50.7924 91.465C51.3243 90.1807 50.697 88.7013 49.3914 88.1604C48.0856 87.6195 46.5958 88.2222 46.0639 89.5065C45.5319 90.7908 46.1592 92.2704 47.4649 92.8111C48.7707 93.352 50.2603 92.7493 50.7924 91.465Z" fill="#0F002E"/>
</svg>
