<svg width="278" height="278" viewBox="0 0 278 278" fill="none" xmlns="http://www.w3.org/2000/svg">
<path fill-rule="evenodd" clip-rule="evenodd" d="M145.129 138.95L252.612 164.778L270.772 104.224C271.03 103.362 271.105 102.456 270.991 101.564C270.878 100.673 270.578 99.8143 270.112 99.0454C269.646 98.2764 269.024 97.6138 268.285 97.1003C267.547 96.5869 266.71 96.234 265.827 96.0644L157.667 75.3158C156.782 75.1465 155.872 75.1649 154.995 75.3696C154.118 75.5745 153.294 75.9614 152.576 76.5051C151.858 77.0488 151.262 77.7372 150.827 78.5258C150.392 79.3145 150.127 80.1856 150.051 81.083L145.129 138.95Z" fill="#FFB43B"/>
<path fill-rule="evenodd" clip-rule="evenodd" d="M145.128 139.378L252.65 164.722L235.651 235.559C235.409 236.568 234.967 237.517 234.353 238.354C233.738 239.19 232.963 239.894 232.072 240.425C231.182 240.958 230.194 241.307 229.166 241.451C228.139 241.596 227.093 241.533 226.09 241.268L129.307 215.668C128.287 215.398 127.332 214.923 126.501 214.273C125.67 213.622 124.98 212.809 124.473 211.882C123.966 210.956 123.651 209.937 123.551 208.886C123.45 207.835 123.564 206.775 123.886 205.77L145.128 139.378Z" fill="#FFB43B"/>
<path fill-rule="evenodd" clip-rule="evenodd" d="M165.079 196.849L204.258 207.375L198.816 227.401L158.917 216.874L165.079 196.849Z" fill="white"/>
<path fill-rule="evenodd" clip-rule="evenodd" d="M149.085 139.501L248.748 163.801L266.035 101.344L155.124 80.5264L149.085 139.501Z" fill="white"/>
<path d="M122.957 205.474C144.363 138.476 144.133 138.852 144.619 138.551L149.51 81.0368C149.594 80.0641 149.88 79.1196 150.352 78.2646C150.823 77.4096 151.469 76.6632 152.247 76.0736C153.025 75.4839 153.919 75.0643 154.869 74.8418C155.82 74.6192 156.807 74.5988 157.766 74.7818L265.935 95.5332C266.893 95.7173 267.801 96.1001 268.601 96.6568C269.401 97.2135 270.076 97.9319 270.581 98.7655C271.087 99.5989 271.412 100.529 271.535 101.496C271.659 102.463 271.579 103.445 271.299 104.379C253.359 164.171 253.343 163.991 253.478 164.21C253.545 164.319 253.59 164.441 253.611 164.567C253.631 164.693 253.626 164.822 253.596 164.947L236.598 235.786C236.138 237.7 235.046 239.404 233.499 240.621C231.951 241.839 230.038 242.499 228.069 242.496C226.298 242.496 227.97 242.774 129.061 216.608C127.913 216.305 126.838 215.771 125.903 215.038C124.967 214.307 124.19 213.393 123.619 212.35C123.048 211.309 122.695 210.162 122.582 208.981C122.468 207.798 122.596 206.605 122.957 205.474ZM270.26 104.068C270.496 103.279 270.564 102.45 270.46 101.633C270.355 100.817 270.081 100.031 269.654 99.3273C269.228 98.6233 268.658 98.0165 267.983 97.5463C267.307 97.0759 266.541 96.7523 265.733 96.5965L157.564 75.8466C156.754 75.6917 155.921 75.7087 155.118 75.8965C154.315 76.0843 153.56 76.4386 152.903 76.9366C152.246 77.4345 151.7 78.065 151.302 78.7871C150.904 79.5092 150.662 80.307 150.592 81.1286L145.71 138.515L148.572 139.189L154.587 80.4725C154.594 80.3977 154.617 80.3253 154.654 80.2598C154.691 80.1945 154.741 80.1375 154.801 80.0925C154.861 80.0474 154.93 80.0155 155.003 79.9987C155.076 79.9817 155.152 79.9803 155.226 79.9943C266.56 100.723 266.294 100.735 266.497 101.053C266.7 101.371 266.655 101.136 249.539 162.983L252.383 163.653L270.26 104.068ZM248.481 162.738L265.352 101.769L155.604 81.1758L149.636 139.447L248.481 162.738ZM129.557 214.724L226.34 240.331C227.217 240.562 228.132 240.616 229.031 240.489C229.929 240.361 230.793 240.057 231.573 239.591C232.352 239.126 233.03 238.51 233.568 237.779C234.106 237.048 234.492 236.218 234.705 235.335L251.477 165.446L242.778 163.397C242.394 164.433 241.663 165.304 240.709 165.862C239.755 166.419 238.637 166.629 237.546 166.455C234.011 165.718 158.768 147.568 157.924 147.357C157.067 146.97 156.356 146.32 155.897 145.498C155.438 144.677 155.255 143.73 155.376 142.797L145.785 140.536L124.814 206.07C124.535 206.95 124.436 207.877 124.525 208.796C124.614 209.713 124.888 210.604 125.331 211.415C125.775 212.224 126.378 212.935 127.105 213.504C127.831 214.074 128.665 214.487 129.557 214.724Z" fill="black"/>
<path d="M199.29 228.448C199.505 228.448 199.714 228.377 199.884 228.245C200.055 228.114 200.177 227.93 200.231 227.722L205.581 207.335C205.614 207.211 205.622 207.082 205.604 206.955C205.587 206.829 205.545 206.707 205.48 206.597C205.416 206.486 205.33 206.39 205.228 206.312C205.126 206.235 205.01 206.178 204.886 206.146L165.202 195.735C164.958 195.671 164.7 195.703 164.48 195.827C164.26 195.949 164.096 196.152 164.023 196.393L157.811 216.795C157.773 216.922 157.761 217.054 157.775 217.184C157.79 217.316 157.831 217.443 157.896 217.557C157.961 217.672 158.049 217.772 158.153 217.852C158.258 217.932 158.378 217.989 158.506 218.021L199.29 228.448ZM203.45 207.782L198.595 226.292L159.968 216.389L165.61 197.855L203.45 207.782Z" fill="black"/>
<path d="M135.913 183.399L146.248 150.249C146.322 150.013 146.483 149.813 146.7 149.692C146.916 149.571 147.17 149.536 147.411 149.596L244.073 173.661C244.323 173.724 244.538 173.882 244.671 174.103C244.804 174.324 244.844 174.59 244.782 174.84L236.499 208.108C236.437 208.358 236.278 208.574 236.058 208.706C235.837 208.839 235.573 208.879 235.323 208.818L136.609 184.632C136.48 184.6 136.359 184.543 136.253 184.463C136.148 184.382 136.06 184.282 135.995 184.167C135.93 184.051 135.889 183.923 135.875 183.791C135.86 183.659 135.874 183.526 135.913 183.399ZM147.061 185.191L148.057 181.82L144.086 180.831L143.046 184.208L147.061 185.191ZM152.015 186.405L152.978 183.048L149.11 182.09L148.116 185.457L152.015 186.405ZM157.436 187.735L158.317 184.379L154.026 183.31L153.064 186.663L157.436 187.735ZM162.132 188.886L163.01 185.55L159.369 184.642L158.488 187.992L162.132 188.886ZM166.829 190.035L167.701 186.719L164.06 185.811L163.185 189.147L166.829 190.035ZM171.527 191.186L172.395 187.888L168.753 186.981L167.882 190.294L171.527 191.186ZM176.224 192.337L177.086 189.058L173.446 188.15L172.58 191.445L176.224 192.337ZM180.921 193.488L181.777 190.227L178.137 189.319L177.277 192.596L180.921 193.488ZM185.618 194.639L186.471 191.396L182.83 190.488L181.973 193.747L185.618 194.639ZM190.316 195.79L191.163 192.566L187.522 191.659L186.672 194.897L190.316 195.79ZM195.012 196.941L195.855 193.735L192.215 192.828L191.368 196.047L195.012 196.941ZM199.71 198.092L200.544 194.904L196.903 193.998L196.069 197.195L199.71 198.092ZM204.407 199.243L205.241 196.075L201.6 195.167L200.766 198.349L204.407 199.243ZM209.426 200.473L210.26 197.324L206.297 196.336L205.463 199.5L209.426 200.473ZM214.46 201.706L215.283 198.578L211.305 197.586L210.479 200.73L214.46 201.706ZM219.17 202.859L219.986 199.75L216.334 198.84L215.514 201.963L219.17 202.859ZM224.461 204.156L225.273 201.068L221.038 200.013L220.222 203.117L224.461 204.156ZM229.917 205.492L230.723 202.426L226.325 201.33L225.515 204.413L229.917 205.492ZM236.795 198.844L233.031 197.907L232.049 201.639L235.862 202.59L236.795 198.844ZM237.989 194.047L234.289 193.124L233.307 196.857L237.06 197.791L237.989 194.047ZM239.183 189.25L235.545 188.344L234.564 192.076L238.252 192.995L239.183 189.25ZM240.395 184.385L236.82 183.494L235.821 187.296L239.446 188.199L240.395 184.385ZM241.54 179.78L238.026 178.904L237.095 182.444L240.656 183.333L241.54 179.78ZM233.747 173.1L232.854 176.498L237.251 177.593L238.145 174.193L233.747 173.1ZM228.465 171.782L227.571 175.18L231.806 176.235L232.7 172.837L228.465 171.782ZM223.759 170.611L222.867 174.007L226.519 174.918L227.412 171.52L223.759 170.611ZM218.732 169.36L217.838 172.755L221.816 173.75L222.709 170.354L218.732 169.36ZM213.715 168.109L212.823 171.502L216.787 172.491L217.68 169.096L213.715 168.109ZM209.023 166.94L208.132 170.333L211.772 171.241L212.671 167.847L209.023 166.94ZM204.33 165.773L203.439 169.163L207.079 170.071L207.972 166.679L204.33 165.773ZM199.637 164.604L198.746 167.994L202.388 168.902L203.279 165.51L199.637 164.604ZM194.945 163.436L194.055 166.825L197.694 167.733L198.587 164.343L194.945 163.436ZM190.254 162.267L189.363 165.656L193.003 166.562L193.894 163.174L190.254 162.267ZM185.561 161.1L184.67 164.486L188.31 165.393L189.201 162.006L185.561 161.1ZM180.868 159.931L179.977 163.317L183.619 164.224L184.51 160.837L180.868 159.931ZM176.176 158.763L175.286 162.146L178.926 163.054L179.816 159.669L176.176 158.763ZM171.483 157.594L170.593 160.977L174.234 161.885L175.123 158.5L171.483 157.594ZM166.792 156.426L165.902 159.808L169.543 160.716L170.432 157.333L166.792 156.426ZM162.081 155.253L161.108 158.616L164.843 159.546L165.733 156.165L162.081 155.253ZM157.383 154.084L156.39 157.437L160.063 158.353L161.027 154.992L157.383 154.084ZM152.682 152.914L151.652 156.257L155.338 157.176L156.329 153.822L152.682 152.914ZM145.375 159.586L149.198 160.539L150.279 157.035L146.466 156.086L145.375 159.586ZM143.879 164.381L147.721 165.339L148.879 161.578L145.051 160.623L143.879 164.381ZM142.406 169.107L146.264 170.069L147.401 166.375L143.558 165.41L142.406 169.107ZM140.932 173.833L144.807 174.806L145.951 171.109L142.089 170.147L140.932 173.833ZM223.762 185.407L220.109 184.496L219.128 188.228L222.781 189.139L223.762 185.407ZM223.832 189.401L228.067 190.456L229.048 186.724L224.813 185.668L223.832 189.401ZM163.421 169.246L167.061 170.154L168.061 166.352L164.42 165.445L163.421 169.246ZM163.368 165.183L159.507 164.22L158.423 168L162.369 168.984L163.368 165.183ZM214.029 182.975L210.067 181.987L209.085 185.719L213.048 186.708L214.029 182.975ZM214.1 186.97L218.077 187.961L219.059 184.228L215.082 183.237L214.1 186.97ZM209.014 181.724L205.374 180.818L204.393 184.55L208.033 185.458L209.014 181.724ZM204.322 180.555L200.681 179.648L199.7 183.381L203.34 184.288L204.322 180.555ZM199.63 179.386L195.989 178.479L195.009 182.211L198.649 183.119L199.63 179.386ZM194.938 178.216L191.297 177.31L190.316 181.042L193.957 181.95L194.938 178.216ZM190.247 177.047L186.605 176.139L185.623 179.873L189.265 180.781L190.247 177.047ZM185.554 175.878L181.914 174.97L180.932 178.703L184.573 179.61L185.554 175.878ZM180.861 174.708L177.221 173.8L176.24 177.534L179.88 178.441L180.861 174.708ZM176.169 173.539L172.528 172.631L171.547 176.365L175.187 177.271L176.169 173.539ZM171.477 172.37L167.837 171.462L166.854 175.194L170.496 176.102L171.477 172.37ZM166.785 171.199L163.144 170.292L162.163 174.025L165.803 174.933L166.785 171.199ZM168.112 170.413L171.753 171.32L172.752 167.519L169.112 166.612L168.112 170.413ZM172.803 171.582L176.445 172.489L177.445 168.689L173.803 167.781L172.803 171.582ZM177.496 172.752L181.138 173.66L182.137 169.858L178.496 168.95L177.496 172.752ZM182.189 173.921L185.829 174.829L186.829 171.027L183.188 170.121L182.189 173.921ZM186.881 175.091L190.522 175.998L191.521 172.197L187.881 171.29L186.881 175.091ZM191.573 176.26L195.213 177.168L196.212 173.366L192.572 172.459L191.573 176.26ZM196.265 177.429L199.906 178.337L200.905 174.535L197.265 173.629L196.265 177.429ZM200.958 178.6L204.598 179.507L205.598 175.706L201.957 174.798L200.958 178.6ZM205.649 179.769L209.291 180.676L210.29 176.875L206.649 175.967L205.649 179.769ZM210.342 180.939L214.306 181.926L215.312 178.129L211.348 177.14L210.342 180.939ZM215.357 182.19L219.334 183.181L220.333 179.38L216.356 178.388L215.357 182.19ZM220.385 183.441L224.037 184.352L225.042 180.561L221.39 179.651L220.385 183.441ZM218.856 189.272L217.874 193.004L221.527 193.915L222.508 190.183L218.856 189.272ZM217.803 189.009L213.827 188.018L212.845 191.752L216.823 192.743L217.803 189.009ZM212.776 187.758L208.811 186.77L207.83 190.504L211.794 191.491L212.776 187.758ZM207.761 186.507L204.119 185.601L203.137 189.333L206.779 190.241L207.761 186.507ZM203.068 185.338L199.428 184.431L198.446 188.164L202.087 189.072L203.068 185.338ZM198.377 184.169L194.735 183.262L193.754 186.995L197.394 187.902L198.377 184.169ZM193.684 183L190.042 182.09L189.061 185.822L192.701 186.73L193.684 183ZM188.991 181.83L185.351 180.922L184.37 184.656L188.01 185.564L188.991 181.83ZM184.299 180.661L180.658 179.753L179.677 183.486L183.317 184.393L184.299 180.661ZM179.608 179.491L175.967 178.584L174.986 182.317L178.626 183.224L179.608 179.491ZM174.915 178.322L171.274 177.414L170.293 181.146L173.934 182.054L174.915 178.322ZM170.222 177.153L166.582 176.245L165.601 179.977L169.241 180.885L170.222 177.153ZM165.531 175.982L161.891 175.076L160.909 178.808L164.55 179.716L165.531 175.982ZM160.838 174.813L156.761 173.797L155.697 177.509L159.851 178.548L160.838 174.813ZM161.116 173.764L162.098 170.032L158.128 169.042L157.062 172.755L161.116 173.764ZM157.071 168.782L153.318 167.847L152.223 171.551L156.008 172.495L157.071 168.782ZM152.263 167.584L148.458 166.636L147.319 170.329L151.17 171.288L152.263 167.584ZM152.572 166.543L153.684 162.77L149.931 161.836L148.773 165.598L152.572 166.543ZM153.624 166.8L157.377 167.734L158.461 163.96L154.745 163.033L153.624 166.8ZM158.755 162.908L159.765 159.387L156.085 158.47L155.046 161.984L158.755 162.908ZM159.808 163.171L163.645 164.127L164.576 160.587L160.823 159.65L159.808 163.171ZM164.697 164.388L168.337 165.296L169.267 161.756L165.628 160.848L164.697 164.388ZM169.388 165.559L173.029 166.466L173.96 162.925L170.32 162.018L169.388 165.559ZM174.081 166.728L177.721 167.635L178.651 164.095L175.011 163.187L174.081 166.728ZM178.772 167.898L182.414 168.804L183.342 165.271L179.701 164.363L178.772 167.898ZM183.465 169.067L187.107 169.975L188.036 166.434L184.396 165.527L183.465 169.067ZM188.157 170.236L191.798 171.144L192.729 167.603L189.089 166.696L188.157 170.236ZM192.85 171.406L196.49 172.313L197.42 168.772L193.78 167.865L192.85 171.406ZM197.541 172.575L201.183 173.483L202.113 169.943L198.471 169.035L197.541 172.575ZM202.234 173.75L205.874 174.658L206.806 171.117L203.165 170.21L202.234 173.75ZM206.927 174.919L210.567 175.827L211.497 172.286L207.857 171.379L206.927 174.919ZM211.618 176.089L215.582 177.078L216.513 173.537L212.549 172.549L211.618 176.089ZM216.633 177.34L220.61 178.331L221.541 174.791L217.564 173.8L216.633 177.34ZM221.662 178.591L225.315 179.502L226.245 175.96L222.592 175.051L221.662 178.591ZM226.366 179.763L230.601 180.82L231.532 177.278L227.297 176.223L226.366 179.763ZM226.088 180.813L225.087 184.614L229.324 185.669L230.323 181.868L226.088 180.813ZM230.374 185.932L234.772 187.027L235.772 183.226L231.374 182.13L230.374 185.932ZM230.096 186.98L229.115 190.714L233.521 191.82L234.494 188.081L230.096 186.98ZM228.845 191.762L227.864 195.495L232.261 196.592L233.243 192.863L228.845 191.762ZM227.793 191.5L223.558 190.444L222.577 194.177L226.812 195.232L227.793 191.5ZM222.3 195.227L221.319 198.959L225.555 200.014L226.537 196.282L222.3 195.227ZM221.249 194.964L217.598 194.054L216.616 197.787L220.268 198.696L221.249 194.964ZM216.545 193.792L212.569 192.8L211.587 196.534L215.564 197.525L216.545 193.792ZM211.516 192.541L207.553 191.553L206.572 195.287L210.535 196.274L211.516 192.541ZM206.503 191.29L202.861 190.383L201.879 194.115L205.521 195.023L206.503 191.29ZM201.809 190.12L198.17 189.214L197.188 192.946L200.827 193.854L201.809 190.12ZM197.117 188.951L193.477 188.043L192.496 191.777L196.136 192.683L197.117 188.951ZM192.425 187.782L188.784 186.874L187.811 190.607L191.452 191.514L192.425 187.782ZM187.733 186.612L184.092 185.704L183.11 189.438L186.752 190.345L187.733 186.612ZM183.041 185.443L179.4 184.535L178.419 188.269L182.059 189.175L183.041 185.443ZM178.35 184.274L174.708 183.366L173.726 187.098L177.367 188.006L178.35 184.274ZM173.657 183.103L170.015 182.196L169.034 185.929L172.676 186.837L173.657 183.103ZM168.964 181.934L165.324 181.027L164.343 184.759L167.983 185.667L168.964 181.934ZM164.272 180.764L160.631 179.858L159.65 183.59L163.29 184.498L164.272 180.764ZM159.58 179.595L155.395 178.552L154.33 182.264L158.599 183.329L159.58 179.595ZM154.343 178.29L150.512 177.335L149.418 181.039L153.277 182.002L154.343 178.29ZM154.642 177.246L155.706 173.535L151.915 172.589L150.819 176.294L154.642 177.246ZM150.861 172.327L147.001 171.365L145.863 175.058L149.767 176.031L150.861 172.327ZM150.255 160.79L153.994 161.721L155.032 158.207L151.334 157.285L150.255 160.79ZM232.583 177.545L231.653 181.085L236.05 182.182L236.98 178.641L232.583 177.545ZM231.986 197.644L227.588 196.549L226.606 200.281L231.004 201.378L231.986 197.644ZM148.365 180.781L149.458 177.075L145.543 176.102L144.406 179.797L148.365 180.781ZM144.489 175.836L140.61 174.863L139.459 178.555L143.351 179.528L144.489 175.836ZM146.785 155.045L150.593 155.994L151.623 152.651L147.825 151.706L146.785 155.045ZM239.201 174.453L238.307 177.853L241.809 178.726L242.658 175.315L239.201 174.453ZM235.605 203.643L231.78 202.69L230.975 205.748L234.845 206.697L235.605 203.643ZM141.99 183.95L143.031 180.568L139.139 179.595L138.081 182.988L141.99 183.95Z" fill="black"/>
<path d="M244.997 109.114C245.131 109.114 245.26 109.064 245.36 108.973C245.459 108.883 245.521 108.759 245.534 108.626C245.548 108.493 245.511 108.359 245.432 108.251C245.352 108.143 245.236 108.068 245.104 108.041L198.65 98.6894C198.509 98.661 198.363 98.6898 198.243 98.7694C198.123 98.8491 198.04 98.9729 198.012 99.114C197.983 99.2549 198.012 99.4015 198.092 99.5213C198.171 99.6411 198.295 99.7244 198.436 99.7527L244.997 109.114Z" fill="black"/>
<path d="M192.558 98.6706C192.693 98.6714 192.824 98.6218 192.924 98.5313C193.025 98.4408 193.088 98.3161 193.101 98.1816C193.114 98.047 193.077 97.9124 192.996 97.8041C192.915 97.6958 192.796 97.6216 192.664 97.5961L171.75 93.4081C171.679 93.3933 171.607 93.3926 171.537 93.4061C171.466 93.4195 171.399 93.4468 171.34 93.4863C171.28 93.5258 171.228 93.5768 171.188 93.6363C171.148 93.6958 171.121 93.7627 171.107 93.833C171.093 93.9033 171.093 93.9756 171.107 94.0459C171.121 94.1161 171.149 94.183 171.189 94.2423C171.229 94.3017 171.281 94.3526 171.341 94.3918C171.401 94.4311 171.468 94.4582 171.538 94.4714L192.558 98.6706Z" fill="black"/>
<path d="M243.015 118.088C243.148 118.086 243.276 118.035 243.374 117.946C243.472 117.856 243.534 117.734 243.548 117.602C243.562 117.47 243.527 117.337 243.45 117.229C243.373 117.121 243.259 117.044 243.129 117.015L221.886 112.419C221.745 112.389 221.598 112.416 221.477 112.494C221.357 112.572 221.272 112.695 221.242 112.836C221.211 112.976 221.238 113.123 221.316 113.244C221.394 113.365 221.517 113.45 221.658 113.48L243.015 118.088Z" fill="black"/>
<path d="M214.161 111.478C214.295 111.478 214.425 111.428 214.525 111.339C214.625 111.249 214.688 111.125 214.702 110.991C214.716 110.858 214.68 110.723 214.6 110.615C214.521 110.507 214.404 110.432 214.272 110.404L165.886 100.219C165.746 100.189 165.599 100.217 165.478 100.295C165.358 100.374 165.274 100.498 165.244 100.638C165.215 100.779 165.242 100.926 165.321 101.046C165.4 101.167 165.523 101.251 165.664 101.28L214.161 111.478Z" fill="black"/>
<path d="M241.287 127.046C241.421 127.046 241.55 126.997 241.65 126.908C241.749 126.819 241.812 126.696 241.827 126.563C241.841 126.43 241.806 126.296 241.728 126.187C241.65 126.079 241.534 126.003 241.404 125.974L190.084 114.722C189.946 114.698 189.804 114.728 189.688 114.805C189.571 114.883 189.49 115.003 189.459 115.139C189.429 115.276 189.453 115.419 189.526 115.538C189.599 115.658 189.715 115.744 189.85 115.78L241.287 127.046Z" fill="black"/>
<path d="M239.82 136.76C239.954 136.761 240.083 136.711 240.183 136.622C240.282 136.533 240.346 136.41 240.36 136.277C240.375 136.144 240.339 136.01 240.261 135.902C240.183 135.793 240.068 135.717 239.937 135.689L188.617 124.437C188.476 124.406 188.329 124.432 188.208 124.509C188.087 124.587 188.001 124.709 187.97 124.849C187.939 124.99 187.966 125.137 188.043 125.258C188.12 125.379 188.243 125.465 188.383 125.496L239.82 136.76Z" fill="black"/>
<path d="M237.734 145.671C237.867 145.67 237.993 145.619 238.091 145.53C238.189 145.441 238.251 145.32 238.266 145.188C238.281 145.057 238.247 144.925 238.171 144.817C238.095 144.708 237.982 144.63 237.854 144.6L186.906 133.11C186.766 133.078 186.619 133.104 186.497 133.18C186.376 133.257 186.289 133.379 186.258 133.519C186.226 133.66 186.251 133.807 186.328 133.928C186.405 134.05 186.527 134.136 186.667 134.168L237.734 145.671Z" fill="black"/>
<path d="M235.649 154.567C235.783 154.567 235.912 154.519 236.011 154.431C236.111 154.342 236.174 154.22 236.19 154.088C236.205 153.956 236.171 153.822 236.094 153.713C236.017 153.604 235.903 153.528 235.773 153.497L184.215 141.388C184.077 141.36 183.934 141.388 183.816 141.463C183.697 141.539 183.613 141.659 183.581 141.795C183.549 141.932 183.571 142.077 183.643 142.198C183.716 142.317 183.832 142.406 183.968 142.443L235.649 154.567Z" fill="black"/>
<path d="M254.767 109.114C255.129 109.11 255.484 109.214 255.787 109.413C256.09 109.611 256.327 109.895 256.469 110.228C256.61 110.562 256.649 110.93 256.58 111.285C256.512 111.641 256.34 111.968 256.085 112.225C255.831 112.483 255.505 112.659 255.15 112.731C254.796 112.803 254.427 112.768 254.092 112.63C253.758 112.492 253.471 112.258 253.27 111.958C253.068 111.657 252.96 111.303 252.96 110.941C252.959 110.702 253.005 110.466 253.094 110.245C253.185 110.024 253.317 109.823 253.485 109.653C253.653 109.483 253.853 109.348 254.073 109.256C254.293 109.164 254.529 109.115 254.767 109.114Z" fill="black"/>
<path d="M250.236 126.916C250.598 126.912 250.953 127.016 251.256 127.214C251.559 127.413 251.796 127.697 251.937 128.03C252.079 128.363 252.118 128.731 252.049 129.087C251.981 129.442 251.809 129.77 251.554 130.027C251.299 130.285 250.974 130.46 250.619 130.532C250.264 130.604 249.896 130.569 249.561 130.432C249.226 130.294 248.94 130.06 248.738 129.759C248.537 129.459 248.429 129.105 248.429 128.743C248.428 128.504 248.473 128.267 248.563 128.046C248.653 127.825 248.786 127.624 248.954 127.455C249.122 127.285 249.321 127.15 249.541 127.058C249.761 126.965 249.997 126.917 250.236 126.916Z" fill="black"/>
<path d="M246.123 145.225C246.485 145.221 246.84 145.325 247.143 145.524C247.446 145.721 247.683 146.006 247.824 146.34C247.965 146.672 248.004 147.04 247.936 147.396C247.868 147.752 247.695 148.078 247.44 148.336C247.185 148.594 246.86 148.769 246.505 148.842C246.15 148.912 245.782 148.878 245.447 148.74C245.112 148.602 244.826 148.368 244.624 148.067C244.423 147.766 244.316 147.413 244.316 147.05C244.314 146.569 244.503 146.106 244.841 145.763C245.18 145.421 245.641 145.228 246.123 145.225Z" fill="black"/>
<path fill-rule="evenodd" clip-rule="evenodd" d="M193.235 224.365C192.671 223.207 192.679 221.168 191.803 218.756C190.128 214.392 189.374 209.727 189.59 205.057C189.895 200.652 192.423 196.323 192.398 192.731C192.373 189.14 191.071 183.385 194.435 184.931C197.798 186.476 198.86 190.38 198.382 193.688C198.119 196.151 198.144 198.636 198.457 201.094C198.457 201.094 203.524 194.839 203.98 191.533C204.436 188.228 205.147 182.805 204.397 180.708C203.646 178.61 202.166 173.979 203.596 172.882C205.026 171.786 205.866 171.92 207.734 175.094C209.305 177.59 210.38 180.365 210.902 183.267C210.902 183.267 210.624 180.063 210.269 178.057C209.915 176.051 209.262 173.283 210.991 172.393C212.72 171.503 213.656 172.968 214.744 174.734C215.705 176.029 216.54 177.412 217.236 178.868C217.366 178.583 217.563 178.332 217.808 178.138C218.054 177.943 218.342 177.81 218.649 177.749C218.956 177.687 219.274 177.699 219.576 177.783C219.877 177.868 220.154 178.024 220.384 178.237C221.762 179.246 222.832 180.616 223.476 182.198C224.119 183.78 224.31 185.509 224.028 187.192C223.897 189.822 223.469 192.428 222.75 194.962C222.297 196.692 222.04 198.465 221.983 200.251C222.925 199.662 223.742 198.893 224.386 197.988C225.03 197.082 225.489 196.058 225.736 194.975C226.809 191.055 225.983 187.805 226.57 186.19C227.157 184.575 229.533 182.669 230.377 185.195C231.396 187.979 231.758 190.959 231.434 193.906C231.007 197.152 230.295 201.587 229.087 203.939C227.879 206.291 223.78 210.658 222.678 213.398C221.576 216.138 220.593 221.163 218.618 225.663C217.702 227.846 216.664 229.975 215.508 232.041C208.779 227.791 201.154 225.164 193.235 224.365Z" fill="#FFB43B"/>
<path fill-rule="evenodd" clip-rule="evenodd" d="M156.793 218.192L163.107 211.997C166.693 208.479 168.852 207.391 170.216 201.758C171.579 196.126 170.611 193.25 171.775 190.124C172.94 186.998 175.993 183.693 175.906 181.173C175.82 178.653 169.733 179.56 167.778 184.074C165.822 188.587 165.114 192.564 162.07 193.163C161.733 188.984 161.794 184.784 162.255 180.617C162.322 177.628 163.152 174.706 164.668 172.131C165.887 170.21 170.666 167.998 169.376 164.996C168.086 161.993 164.572 164.44 161.93 166.597C161.93 166.597 164.842 163.707 162.387 160.909C160.286 161.243 158.303 162.103 156.624 163.411C156.521 162.744 156.166 162.141 155.632 161.728C155.098 161.314 154.426 161.12 153.754 161.187C151.328 161.465 146.979 165.392 145.643 167.33C145.643 167.33 139.458 171.936 138.098 174.905C136.739 177.874 136.394 180.315 135.434 182.539C134.473 184.763 134.183 188.487 134.878 193.159C135.336 198.218 135.509 203.3 135.393 208.379C141.482 206.451 148.711 210.207 156.793 218.192Z" fill="#FFB43B"/>
<path fill-rule="evenodd" clip-rule="evenodd" d="M230.728 188.067C230.728 188.067 227.809 189.735 227.78 185.263C227.78 185.263 228.902 183.409 230.004 184.707C230.674 185.69 230.934 186.895 230.728 188.067Z" fill="white"/>
<path fill-rule="evenodd" clip-rule="evenodd" d="M221.885 179.949C221.885 179.949 220.128 182.416 217.972 179.143C217.363 177.019 220.499 177.48 221.885 179.949Z" fill="white"/>
<path fill-rule="evenodd" clip-rule="evenodd" d="M214.609 174.906C214.609 174.906 214.158 176.25 213.08 176.332C211.212 176.471 210.578 173.48 210.578 173.48C210.578 173.48 211.205 170.954 213.169 172.87C213.803 173.426 214.297 174.124 214.609 174.906Z" fill="white"/>
<path fill-rule="evenodd" clip-rule="evenodd" d="M207.666 175.57C207.666 175.57 206.401 176.95 205.14 175.987C204.762 175.681 204.452 175.299 204.229 174.867C204.006 174.434 203.876 173.96 203.846 173.474C203.846 173.474 204.447 171.464 205.912 172.673C206.798 173.421 207.414 174.439 207.666 175.57Z" fill="white"/>
<path fill-rule="evenodd" clip-rule="evenodd" d="M194.644 185.259C194.644 185.259 195.784 190.934 192.533 191.497C192.533 191.497 191.577 184.611 193.019 184.619C194.462 184.627 194.644 185.259 194.644 185.259Z" fill="white"/>
<path fill-rule="evenodd" clip-rule="evenodd" d="M173.395 186.553C173.088 186.454 172.808 186.283 172.578 186.055C172.349 185.827 172.177 185.549 172.076 185.242C171.975 184.935 171.948 184.607 171.998 184.289C172.048 183.969 172.172 183.666 172.361 183.403C173.643 181.075 174.407 180.857 174.407 180.857C176.7 178.955 175.902 184.444 173.395 186.553Z" fill="white"/>
<path fill-rule="evenodd" clip-rule="evenodd" d="M169.123 165.246C169.123 165.246 167.026 167.311 165.579 166.626C164.132 165.941 163.964 165.291 163.964 165.291C164.932 164.323 166.221 163.742 167.588 163.658C167.793 163.66 167.997 163.703 168.185 163.783C168.374 163.865 168.545 163.982 168.688 164.131C168.831 164.278 168.943 164.453 169.017 164.644C169.092 164.836 169.128 165.04 169.123 165.246Z" fill="white"/>
<path fill-rule="evenodd" clip-rule="evenodd" d="M163.048 163.17C163.048 163.17 161.073 164.996 159.774 164.271C159.42 164.047 159.167 163.695 159.068 163.288C158.97 162.881 159.035 162.451 159.248 162.091C160.142 161.445 161.204 161.07 162.306 161.013C162.799 161.623 163.061 162.386 163.048 163.17Z" fill="white"/>
<path fill-rule="evenodd" clip-rule="evenodd" d="M155.82 162.407C152.723 165.019 150.509 163.658 152.304 161.821C152.556 161.587 152.859 161.415 153.189 161.316C153.518 161.219 153.866 161.197 154.206 161.254C154.545 161.311 154.867 161.444 155.147 161.643C155.426 161.843 155.657 162.104 155.82 162.407Z" fill="white"/>
<path d="M176.948 265.542C180.922 249.645 181.186 249.082 183.596 244.471C184.812 242.213 185.892 239.881 186.829 237.493C189.454 230.795 184.956 231.311 188.566 225.733C189.047 225.128 189.667 224.647 190.372 224.33C191.076 224.013 191.847 223.87 192.619 223.91C192.336 222.216 191.892 220.552 191.291 218.943C189.587 214.508 188.825 209.769 189.052 205.024C189.358 200.576 191.882 196.204 191.857 192.741C191.836 189.708 190.933 185.531 192.552 184.401C192.875 184.216 193.241 184.123 193.612 184.129C193.983 184.136 194.346 184.243 194.662 184.437C198.294 186.105 199.417 190.325 198.918 193.763C198.692 195.718 198.671 197.694 198.856 199.653C200.296 197.773 203.12 193.803 203.443 191.452C203.796 188.903 204.62 182.933 203.892 180.888C201.399 173.887 202.807 172.806 203.27 172.45C205.494 170.747 206.698 172.255 208.208 174.813C208.747 175.726 209.214 176.6 209.616 177.454C209.252 175.456 208.866 172.867 210.749 171.905C213.396 170.544 214.586 173.573 216.288 176.09C216.727 176.742 217.109 177.311 217.384 177.812C217.832 177.382 218.428 177.138 219.049 177.135C219.67 177.133 220.269 177.369 220.72 177.796C222.164 178.87 223.286 180.319 223.965 181.984C224.645 183.65 224.856 185.47 224.576 187.248C224.429 189.908 223.995 192.545 223.282 195.112C222.925 196.436 222.697 197.789 222.6 199.156C227.048 195.315 225.253 188.229 226.065 186.004C226.282 185.335 226.68 184.74 227.215 184.286C227.751 183.83 228.402 183.532 229.097 183.427C229.571 183.442 230.435 183.649 230.895 185.024C231.949 187.883 232.319 190.948 231.975 193.975C231.558 197.172 230.848 201.704 229.573 204.186C228.322 206.62 224.254 210.944 223.179 213.601C221.609 217.504 221.029 223.208 216.222 231.881C216.713 232.207 217.14 232.619 217.484 233.097C219.444 236.344 215.013 240.418 215.213 243.651C215.418 246.966 215.541 248.051 214.182 250.899C212.97 253.438 213.765 254.114 213.438 259.137C213.157 262.537 212.476 265.893 211.412 269.134C211.374 269.241 211.305 269.333 211.213 269.4C211.121 269.465 211.01 269.5 210.897 269.5C210.758 269.5 177.487 266.233 177.347 266.198C177.277 266.182 177.212 266.151 177.155 266.109C177.097 266.068 177.048 266.013 177.011 265.954C176.974 265.893 176.949 265.824 176.939 265.754C176.928 265.684 176.931 265.612 176.948 265.542ZM194.114 185.387C193.792 185.248 193.394 185.135 193.166 185.292C192.348 185.861 192.761 189.555 192.85 190.844C195.345 190.568 194.126 185.437 194.114 185.387ZM205.084 172.813C204.775 172.79 204.47 172.89 204.234 173.091C204.574 175.021 205.746 176.659 207.205 175.26C206.277 173.691 205.596 172.915 205.084 172.813ZM211.954 172.674C210.596 172.697 211.107 173.488 211.206 173.774C212.136 176.461 213.508 176.164 214.097 174.721C213.246 173.352 212.681 172.661 211.954 172.674ZM220.063 178.674C219.857 178.474 219.596 178.338 219.314 178.282C219.032 178.227 218.74 178.253 218.473 178.36C219.157 179.993 220.017 180.97 221.264 179.735C220.896 179.346 220.491 178.995 220.063 178.674ZM229.858 185.373C229.565 184.498 229.105 184.272 228.329 184.793C228.267 186.341 228.543 187.387 229.09 187.712C229.368 187.872 229.785 187.916 230.498 187.581C230.324 186.859 230.113 186.126 229.858 185.373ZM215.319 231.27C217.71 226.929 219.552 222.306 220.8 217.509C222.222 212.565 222.261 212.314 225.918 207.526C228.656 203.942 229.664 203.148 230.891 193.836C231.112 192.114 231.056 190.367 230.726 188.661C229.031 189.369 227.487 188.641 227.265 185.966C226.141 187.98 228.206 194.744 223.987 199.31L222.682 202.773C222.638 202.888 222.557 202.985 222.451 203.048C222.345 203.112 222.22 203.137 222.098 203.119C221.976 203.102 221.863 203.044 221.779 202.953C221.694 202.863 221.643 202.748 221.634 202.624C221.265 200.007 221.469 197.339 222.233 194.808C222.933 192.356 223.35 189.833 223.474 187.287C223.859 184.933 223.317 182.522 221.962 180.56C221.729 180.844 221.429 181.065 221.091 181.207C220.752 181.347 220.384 181.403 220.019 181.369C219.653 181.335 219.302 181.211 218.996 181.009C218.689 180.808 218.437 180.534 218.26 180.213C220.423 187.035 219.695 188.103 218.655 195.183C218.336 196.646 217.765 198.041 216.966 199.306C216.888 199.424 216.766 199.508 216.627 199.537C216.489 199.567 216.344 199.541 216.224 199.466C216.104 199.389 216.018 199.27 215.986 199.131C215.953 198.993 215.976 198.847 216.05 198.726C217.038 197.213 217.639 195.479 217.801 193.679C218.891 187.237 218.868 185.958 217.434 181.221C216.983 179.222 216.07 177.358 214.768 175.775C213.752 177.337 211.571 177.477 210.393 174.699C210.41 175.651 210.522 176.599 210.725 177.529C211.221 180.23 211.352 182.709 211.533 183.687C213.295 193.253 213.26 192.637 213.062 192.924C213.009 193.015 212.93 193.087 212.835 193.132C212.74 193.176 212.634 193.191 212.531 193.175C212.428 193.158 212.332 193.111 212.256 193.038C212.18 192.968 212.127 192.874 212.105 192.772C210.084 181.835 210.097 180.419 207.756 176.218C206.027 177.628 204.221 176.574 203.537 174.659C203.683 176.674 204.145 178.653 204.908 180.524C205.625 182.544 205.143 187.042 204.513 191.604C204.227 193.671 202.297 196.747 200.773 198.901L200.025 204.569C200.01 204.683 199.959 204.788 199.88 204.87C199.801 204.954 199.697 205.009 199.585 205.03C199.472 205.051 199.356 205.034 199.252 204.986C199.149 204.935 199.064 204.855 199.01 204.753C197.519 201.973 197.393 196.7 197.841 193.607C198.099 192.252 198.007 190.853 197.572 189.544C197.138 188.235 196.376 187.059 195.358 186.127C195.62 187.826 195.8 191.14 193.432 191.826C193.337 191.854 193.403 191.826 192.912 191.938C193.123 196.58 190.452 200.383 190.132 205.088C189.917 209.685 190.66 214.276 192.313 218.571C192.957 220.296 193.428 222.083 193.718 223.901C199.883 224.051 210.623 228.274 215.319 231.27Z" fill="black"/>
<path d="M104.473 255.856C107.549 247.68 118.277 232.303 121.338 226.868C124.599 221.079 127.762 223.348 132.137 211.823C132.634 210.371 133.589 209.118 134.858 208.255C134.974 203.245 134.803 198.233 134.345 193.243C133.659 188.681 133.869 184.804 134.939 182.327C135.912 180.081 136.213 177.726 137.608 174.682C138.649 172.408 142.261 169.321 144.155 167.806C145.806 166.484 150.123 161.069 153.694 160.653C154.368 160.554 155.055 160.688 155.642 161.032C156.229 161.376 156.682 161.911 156.924 162.546C158.537 161.406 160.393 160.661 162.345 160.368C162.429 160.361 162.514 160.374 162.592 160.406C162.67 160.438 162.739 160.488 162.794 160.55C163.289 161.076 163.636 161.722 163.802 162.425C163.968 163.127 163.946 163.861 163.74 164.552C166.137 162.937 168.735 162.124 169.875 164.781C171.35 168.216 166.279 170.605 165.125 172.426C163.663 174.93 162.861 177.764 162.794 180.662C162.379 184.562 162.292 188.491 162.535 192.406C164.759 191.639 165.508 187.951 167.28 183.862C169.462 178.826 176.336 177.931 176.447 181.158C176.543 183.908 173.447 187.198 172.277 190.318C171.165 193.304 172.107 196.236 170.738 201.892C169.337 207.671 167.145 208.792 163.483 212.389C160.632 215.186 158.242 217.393 157.396 218.161C157.701 218.531 157.959 218.937 158.163 219.371C159.92 223.556 155.949 224.215 153.942 228.984C152.069 233.432 151.112 236.839 149.494 240.538C147.86 244.281 148.234 246.156 146.26 250.603C144.287 255.049 139.556 266.317 139.509 266.431C139.468 266.529 139.399 266.613 139.31 266.672C139.221 266.731 139.117 266.763 139.01 266.763L104.777 256.559C104.644 256.506 104.537 256.402 104.48 256.27C104.423 256.138 104.42 255.989 104.473 255.856ZM152.483 162.167C152.264 162.479 152.055 163.126 152.449 163.279C153.569 163.395 154.691 163.072 155.578 162.375C154.78 161.42 153.595 161.629 152.483 162.167ZM162.169 161.487C161.292 161.652 160.439 161.923 159.628 162.297C159.521 162.559 159.504 162.848 159.58 163.119C159.655 163.391 159.819 163.63 160.045 163.799C160.974 164.313 162.626 162.798 162.765 162.712C162.656 162.264 162.456 161.847 162.169 161.487ZM164.599 165.291C164.939 165.657 165.355 165.945 165.816 166.137C166.699 166.554 168.22 165.365 168.721 164.886C167.871 163.464 166.083 164.335 164.599 165.291ZM175.054 180.606C174.187 181.524 173.444 182.552 172.844 183.664C172.691 183.89 172.585 184.144 172.533 184.412C172.48 184.679 172.483 184.954 172.54 185.221C172.736 185.736 173.224 185.82 173.374 185.945C174.083 184.76 176.187 181.403 175.054 180.606ZM135.424 193.082C135.891 197.94 136.068 202.82 135.955 207.699C142.006 205.336 152.369 212.508 156.709 217.326C160.753 213.63 162.005 212.253 164.486 209.959C167.707 206.969 170.146 204.687 170.542 194.862C170.417 192.021 171.218 189.216 172.826 186.871C171.589 186.426 170.851 185.041 171.893 183.147C172.44 182.131 173.112 181.187 173.894 180.34C172.688 180.429 171.529 180.843 170.54 181.539C169.552 182.237 168.771 183.189 168.282 184.294C166.796 187.723 166.015 190.908 164.315 192.57L163.701 198.528C163.688 198.649 163.635 198.761 163.55 198.847C163.465 198.935 163.354 198.991 163.233 199.007C163.113 199.023 162.991 198.998 162.886 198.936C162.782 198.875 162.701 198.779 162.657 198.667C160.698 193.632 161.343 185.733 161.723 180.58C161.8 177.503 162.662 174.496 164.225 171.844C165.337 170.083 169.061 168.174 169.068 166.034C168.286 166.751 167.295 167.2 166.24 167.313C165.249 167.186 164.343 166.684 163.709 165.911C161.966 167.183 161.682 167.928 158.149 171.04C156.064 172.882 153.604 180.429 153.579 180.504C153.532 180.638 153.435 180.748 153.308 180.812C153.181 180.875 153.035 180.886 152.899 180.843C152.764 180.798 152.652 180.704 152.586 180.579C152.52 180.452 152.506 180.306 152.547 180.17C152.652 179.849 155.124 172.265 157.433 170.227C159.518 168.38 162.159 166.26 162.715 164.125C162.064 164.627 161.28 164.927 160.461 164.99C160.188 164.994 159.917 164.94 159.667 164.833C159.416 164.726 159.19 164.569 159.003 164.37C158.817 164.17 158.674 163.935 158.584 163.676C158.494 163.419 158.458 163.147 158.48 162.874C155.39 164.785 152.617 167.168 150.264 169.935C148.935 172.055 148.382 178.701 147.496 181.171C147.447 181.306 147.347 181.417 147.217 181.478C147.087 181.539 146.938 181.546 146.803 181.497C146.667 181.449 146.557 181.349 146.496 181.218C146.434 181.089 146.427 180.939 146.476 180.804C147.357 178.352 147.834 171.769 149.346 169.359C151.07 167.24 153.063 165.355 155.275 163.753C152.324 165.109 151.036 164.125 151.132 162.952C148.934 164.348 147.087 166.23 145.732 168.454C144.973 170.141 144.514 171.948 144.376 173.793C144.299 175.875 143.781 177.915 142.855 179.782C142.781 179.906 142.661 179.995 142.522 180.03C142.382 180.066 142.235 180.044 142.111 179.97C141.988 179.896 141.899 179.777 141.863 179.636C141.828 179.497 141.85 179.35 141.924 179.226C142.754 177.498 143.221 175.621 143.296 173.705C143.423 172.129 143.76 170.578 144.299 169.09C142.399 170.651 139.448 173.27 138.593 175.137C137.173 178.235 136.988 180.315 135.935 182.76C134.96 185.017 134.776 188.781 135.424 193.082Z" fill="black"/>
<path d="M212.385 242.097C209.476 238.933 205.934 236.417 201.99 234.712C198.045 233.006 193.786 232.149 189.489 232.197C189.349 232.214 189.221 232.283 189.132 232.392C189.042 232.5 188.999 232.639 189.01 232.78C189.022 232.92 189.087 233.049 189.193 233.142C189.298 233.236 189.436 233.284 189.576 233.277C193.71 233.243 197.805 234.075 201.597 235.721C205.389 237.367 208.794 239.789 211.592 242.832C211.693 242.925 211.824 242.977 211.961 242.975C212.097 242.975 212.229 242.924 212.329 242.831C212.429 242.738 212.49 242.611 212.5 242.475C212.511 242.339 212.469 242.204 212.385 242.097Z" fill="white"/>
<path d="M212.266 241.999C202.096 235.913 189.958 237.777 189.447 237.859C189.308 237.886 189.184 237.963 189.103 238.08C189.021 238.196 188.988 238.339 189.01 238.478C189.033 238.618 189.109 238.743 189.222 238.827C189.336 238.911 189.478 238.949 189.618 238.929C189.742 238.907 201.887 237.05 211.709 242.927C211.832 242.992 211.975 243.009 212.11 242.973C212.244 242.935 212.359 242.848 212.431 242.728C212.502 242.609 212.525 242.467 212.495 242.331C212.464 242.195 212.382 242.076 212.266 241.999Z" fill="white"/>
<path d="M153.073 224.309C150.185 221.567 146.723 219.503 142.937 218.265C139.152 217.028 135.139 216.65 131.188 217.159C131.048 217.188 130.924 217.273 130.845 217.393C130.767 217.513 130.739 217.661 130.769 217.801C130.798 217.942 130.883 218.065 131.002 218.144C131.123 218.222 131.27 218.25 131.411 218.221C138.006 217.367 144.672 219.145 149.966 223.169C145.407 221.718 136.494 219.509 129.684 221.683C129.554 221.732 129.447 221.829 129.386 221.956C129.324 222.081 129.313 222.226 129.356 222.359C129.4 222.491 129.491 222.604 129.614 222.67C129.737 222.737 129.88 222.754 130.015 222.718C138.995 219.85 152.373 225.158 152.507 225.213C152.625 225.259 152.755 225.263 152.875 225.224C152.996 225.183 153.098 225.103 153.165 224.996C153.233 224.889 153.26 224.761 153.243 224.636C153.226 224.511 153.166 224.395 153.073 224.309Z" fill="white"/>
<path d="M139.419 252.507C137.012 243.458 132.972 234.924 127.498 227.327C127.409 227.213 127.28 227.139 127.137 227.121C126.995 227.104 126.85 227.143 126.736 227.232C126.624 227.32 126.55 227.449 126.532 227.592C126.514 227.735 126.553 227.879 126.642 227.993C132.028 235.471 136.002 243.872 138.368 252.779C138.409 252.912 138.501 253.024 138.622 253.092C138.744 253.158 138.888 253.177 139.023 253.142C139.158 253.107 139.274 253.022 139.348 252.904C139.421 252.785 139.447 252.643 139.419 252.507Z" fill="white"/>
<path d="M201.65 255.185C205.292 255.313 208.915 254.607 212.243 253.122C212.37 253.054 212.465 252.94 212.507 252.803C212.55 252.665 212.535 252.516 212.468 252.388C212.4 252.262 212.285 252.167 212.148 252.124C212.01 252.083 211.862 252.097 211.735 252.165C211.653 252.208 203.353 256.464 189.696 252.127C189.628 252.104 189.555 252.092 189.482 252.097C189.41 252.102 189.339 252.12 189.274 252.152C189.209 252.186 189.151 252.23 189.104 252.286C189.056 252.341 189.021 252.405 188.999 252.475C188.977 252.543 188.969 252.616 188.975 252.689C188.982 252.761 189.004 252.832 189.038 252.896C189.073 252.96 189.119 253.015 189.176 253.061C189.233 253.107 189.298 253.14 189.368 253.16C193.334 254.464 197.476 255.146 201.65 255.185Z" fill="white"/>
<path fill-rule="evenodd" clip-rule="evenodd" d="M14.8271 80.4461L83.988 115.701L118.043 69.6055L117.504 80.3905L84.3966 125.418L15.3428 89.0988L14.8271 80.4461Z" fill="#FFB43B"/>
<path d="M14.4576 80.0502L51.6735 45.2599C51.7472 45.1913 51.8375 45.1445 51.9348 45.1243C52.0335 45.1042 52.135 45.1117 52.2295 45.1459L118.229 69.0956C118.338 69.1351 118.432 69.2086 118.496 69.3052C118.56 69.4018 118.591 69.5163 118.585 69.6321C117.99 81.3651 118.082 80.5186 117.94 80.7118L84.8319 125.739C84.7541 125.845 84.6415 125.919 84.5136 125.949C84.3857 125.978 84.2523 125.96 84.1369 125.898L15.0845 89.5828C15.0025 89.5392 14.9316 89.4751 14.8816 89.3967C14.8315 89.3183 14.801 89.2283 14.7954 89.1352C14.2227 79.8014 14.1907 80.2976 14.4576 80.0502ZM116.97 80.2003L117.419 71.2376L84.8194 116.153L84.8111 123.937L116.97 80.2003ZM15.8671 88.7655L83.7269 124.454L83.7366 116.098L15.4195 81.2664L15.8671 88.7655Z" fill="black"/>
<path d="M81.0529 117.316C81.1752 117.316 81.2934 117.274 81.3893 117.198C81.4852 117.122 81.5519 117.015 81.5797 116.896C81.6075 116.777 81.5936 116.652 81.5408 116.541C81.488 116.431 81.4004 116.341 81.2906 116.287L24.1408 88.4874C24.0129 88.4325 23.8683 88.4287 23.7377 88.4772C23.607 88.5256 23.5014 88.6224 23.4402 88.7475C23.379 88.8726 23.3679 89.0164 23.4096 89.149C23.4513 89.2818 23.5431 89.3933 23.6654 89.4604L81.0529 117.316Z" fill="black"/>
<path d="M74.149 116.864C74.2699 116.863 74.3881 116.821 74.484 116.745C74.5785 116.67 74.6452 116.564 74.673 116.446C74.7008 116.328 74.6883 116.203 74.6383 116.093C74.5868 115.982 74.5006 115.892 74.3922 115.837L19.3871 88.0938C19.3232 88.0619 19.2537 88.0427 19.1828 88.0375C19.1105 88.0324 19.0396 88.0413 18.9715 88.0638C18.9034 88.0863 18.8409 88.1221 18.7867 88.1688C18.7325 88.2156 18.6894 88.2725 18.6574 88.3364C18.624 88.4003 18.606 88.4698 18.6004 88.5411C18.5949 88.6125 18.6046 88.684 18.6268 88.7519C18.6491 88.8197 18.6852 88.8824 18.7311 88.9365C18.7783 88.9905 18.8353 89.0349 18.8993 89.0668L74.149 116.864Z" fill="black"/>
<path d="M98.0938 100.834L115.567 76.9257C115.645 76.8095 115.674 76.6679 115.649 76.5303C115.626 76.3928 115.549 76.2701 115.437 76.1875C115.324 76.1051 115.184 76.0694 115.045 76.0877C114.906 76.1062 114.781 76.1774 114.693 76.2863L97.2195 100.194C97.1347 100.31 97.0999 100.455 97.1208 100.597C97.143 100.739 97.2208 100.866 97.3362 100.951C97.453 101.036 97.5975 101.071 97.7393 101.049C97.8811 101.027 98.009 100.95 98.0938 100.834Z" fill="black"/>
<path d="M86.6589 118.747L108.09 90.3182C108.176 90.2034 108.214 90.0589 108.194 89.9164C108.175 89.7739 108.098 89.6452 107.984 89.5586C107.869 89.472 107.724 89.4345 107.581 89.4545C107.439 89.4744 107.31 89.5501 107.224 89.6649L85.793 118.093C85.7068 118.208 85.6692 118.353 85.6887 118.495C85.7082 118.638 85.7846 118.766 85.9 118.853C86.014 118.939 86.1585 118.977 86.3017 118.957C86.4435 118.937 86.5727 118.861 86.6589 118.747Z" fill="black"/>
<path fill-rule="evenodd" clip-rule="evenodd" d="M115.283 80.9729L56.1109 105.267L19.7596 37.0322L20.3698 56.0349L54.8655 120.235L111.4 93.7456L115.283 80.9729Z" fill="white"/>
<path fill-rule="evenodd" clip-rule="evenodd" d="M115.283 80.9733C103.617 59.3769 91.5323 40.6633 79.8785 20.6543L19.7596 37.0327L56.1971 105.239L115.283 80.9733Z" fill="#FFB43B"/>
<path d="M53.62 107.099L22.9372 46.9027C22.8705 46.776 22.7579 46.6805 22.6217 46.637C22.4854 46.5935 22.3381 46.6056 22.2102 46.6704C22.0837 46.7352 21.9864 46.8476 21.9419 46.9833C21.8975 47.119 21.9072 47.2668 21.9711 47.3947L52.654 107.593C52.7193 107.721 52.8333 107.818 52.9695 107.862C53.1071 107.906 53.2559 107.895 53.3837 107.829C53.5116 107.764 53.6089 107.65 53.6534 107.513C53.6979 107.376 53.6854 107.228 53.62 107.099Z" fill="black"/>
<path d="M53.2479 112.464L26.0567 59.0881C25.99 58.9615 25.8774 58.866 25.7412 58.8226C25.605 58.7791 25.4576 58.7911 25.3297 58.8559C25.2033 58.9208 25.106 59.0332 25.0615 59.1687C25.017 59.3044 25.0267 59.4523 25.0907 59.5802L52.2805 112.956C52.3458 113.084 52.4598 113.182 52.596 113.226C52.7336 113.271 52.8823 113.259 53.0102 113.194C53.1381 113.129 53.2354 113.015 53.2799 112.878C53.3243 112.741 53.3132 112.592 53.2479 112.464Z" fill="black"/>
<path d="M63.4782 107.407L110.396 86.8265C110.523 86.7652 110.62 86.6572 110.669 86.5254C110.716 86.3937 110.712 86.2483 110.655 86.1198C110.598 85.9915 110.494 85.8901 110.364 85.8371C110.234 85.784 110.089 85.7835 109.958 85.8355L63.2544 106.367C63.1405 106.418 63.0473 106.506 62.9917 106.618C62.9347 106.729 62.9181 106.856 62.9445 106.978C62.9709 107.1 63.039 107.209 63.1349 107.287C63.2322 107.365 63.3531 107.407 63.4782 107.407Z" fill="black"/>
<path d="M58.4882 112.333L106.401 90.7795C106.532 90.7203 106.635 90.6116 106.685 90.477C106.736 90.3425 106.732 90.1933 106.673 90.0622C106.613 89.9312 106.504 89.829 106.369 89.7781C106.236 89.7274 106.086 89.732 105.955 89.7912L58.2658 111.297C58.1532 111.348 58.0614 111.437 58.0058 111.547C57.9502 111.658 57.9335 111.784 57.96 111.905C57.9864 112.025 58.0531 112.134 58.149 112.212C58.2449 112.29 58.3645 112.332 58.4882 112.333Z" fill="black"/>
<path fill-rule="evenodd" clip-rule="evenodd" d="M80.8434 35.7705L56.5323 43.6351L63.5601 54.6078L87.293 45.8702L80.8434 35.7705Z" fill="white"/>
<path d="M34.2269 38.3354C34.2575 38.2585 34.3047 38.1896 34.3659 38.1339C34.427 38.0783 34.5007 38.0374 34.5799 38.0143L76.1201 26.0297C76.2341 25.9962 76.355 26.0012 76.4662 26.0439C76.576 26.0867 76.6705 26.1647 76.7317 26.266L79.6284 30.992C79.6715 31.0624 79.6979 31.1417 79.7063 31.2239C79.7146 31.3062 79.7035 31.389 79.6743 31.4664C79.6451 31.5437 79.5993 31.6132 79.5381 31.6698C79.4783 31.7264 79.406 31.7685 79.3268 31.7927L37.9479 44.5237C37.8534 44.5237 37.7603 44.4991 37.6782 44.4522C37.5976 44.4054 37.5281 44.3381 37.4809 44.2568C33.9711 38.3424 34.0893 38.6787 34.2269 38.3354Z" fill="black"/>
<path d="M63.5587 55.1497C63.713 55.1497 63.5935 55.2151 87.4778 46.3802C87.5543 46.352 87.6224 46.3073 87.6794 46.2492C87.735 46.191 87.7781 46.121 87.8031 46.0443C87.8295 45.9675 87.8378 45.8859 87.8281 45.8056C87.8184 45.7253 87.7906 45.648 87.7475 45.5796L81.3007 35.4785C81.2353 35.3775 81.1394 35.3008 81.0269 35.2604C80.9143 35.2199 80.7905 35.218 80.6766 35.2547L56.3655 43.1193C56.2862 43.1446 56.2139 43.1878 56.1542 43.2456C56.0944 43.3036 56.0499 43.3745 56.0221 43.4529C55.8915 43.8129 55.4661 42.9858 63.1028 54.8995C63.1514 54.976 63.2195 55.0388 63.2988 55.0826C63.378 55.1262 63.4684 55.1493 63.5587 55.1497ZM86.4701 45.5921L63.7811 53.946L57.3677 43.938L80.6112 36.4181L86.4701 45.5921Z" fill="black"/>
<path d="M19.616 36.5085L79.7348 20.1315C79.8502 20.1 79.9725 20.1075 80.0837 20.1526C80.1936 20.198 80.2867 20.2784 80.3464 20.3817C91.9488 40.3101 104.124 59.1711 115.758 80.7147C115.814 80.8175 115.878 80.7578 115.75 81.2623C115.515 82.1769 114.638 84.9472 111.919 93.9044C111.806 94.27 111.849 93.7654 55.0957 120.731C54.9706 120.79 54.8274 120.798 54.6954 120.755C54.5647 120.712 54.4535 120.62 54.3882 120.498L19.8286 56.0575L19.217 37.0534C19.2129 36.9309 19.249 36.8104 19.3213 36.7114C19.3935 36.6126 19.4978 36.541 19.616 36.5085ZM20.6307 37.3564L30.8736 56.5731C33.7064 58.5287 36.7338 60.1856 39.9086 61.5174C31.8382 51.2564 28.8525 38.0069 28.3021 35.2672L20.6307 37.3564ZM80.1435 77.5621C87.9025 79.8557 92.7035 88.2443 93.4166 89.562L108.784 83.2556C104.694 77.4049 98.5054 73.356 91.5054 71.9507C77.6304 69.5279 67.4292 80.217 50.025 70.4356C46.746 68.5515 43.8089 66.1244 41.3417 63.2577C38.0474 62.0388 34.8921 60.4693 31.9327 58.5761C37.1272 68.3242 36.6921 67.5555 36.8061 67.6945C51.4595 85.4059 62.51 72.3427 80.1435 77.5621ZM38.823 71.5045L56.5135 104.702L92.4061 89.9679C91.5721 88.482 86.9198 80.6869 79.8363 78.5921C63.6637 73.8189 52.5951 84.9959 38.823 71.5045ZM79.6181 21.2866L29.346 34.9823C29.8561 37.5691 33.035 51.9987 41.9546 62.3111C56.6414 67.5778 69.8367 63.4967 82.9861 62.8879C91.8126 62.4435 100.57 64.6527 108.128 69.2305C98.5527 52.4643 89.0395 37.444 79.6181 21.2866ZM109.274 71.3266C101.598 66.0057 92.3574 63.4175 83.0347 63.9777C70.4163 64.5601 57.6533 68.3715 43.4795 63.9777C45.5631 66.144 47.9469 67.9999 50.5574 69.489C67.5376 79.0397 77.5011 68.4062 91.693 70.879C95.3501 71.5831 98.8334 73.0011 101.941 75.0521C105.051 77.103 107.725 79.7465 109.812 82.8316L114.61 80.862C114.426 80.534 109.517 71.5226 109.274 71.3266ZM110.951 93.3581L114.363 82.1339L56.6511 105.817L55.8074 115.709L107.032 91.7666C107.162 91.7057 107.311 91.6992 107.446 91.7484C107.582 91.7974 107.692 91.8982 107.753 92.0286C107.813 92.159 107.82 92.3081 107.771 92.4432C107.721 92.5783 107.621 92.6884 107.49 92.7493L55.7073 116.956L55.5044 119.341L110.951 93.3581ZM20.9073 55.8907L54.4897 118.393L55.6017 105.304L20.3652 39.1703L20.9073 55.8907Z" fill="black"/>
<path fill-rule="evenodd" clip-rule="evenodd" d="M60.7354 89.6289C57.8914 89.6289 55.5854 91.5596 55.5854 93.9379C55.5854 96.3162 57.8914 98.2469 60.7354 98.2469C63.5793 98.2469 65.8867 96.3162 65.8867 93.9379C65.8867 91.5596 63.5807 89.6289 60.7354 89.6289Z" fill="#FFB43B"/>
<path d="M60.7343 98.9484C63.9577 98.9484 66.5723 96.7022 66.5723 93.9444C66.5723 91.1867 63.9507 88.9404 60.7343 88.9404C57.5178 88.9404 54.8893 91.1867 54.8893 93.9444C54.8893 96.7022 57.5122 98.9484 60.7343 98.9484ZM60.7343 90.3235C63.1918 90.3235 65.1823 91.9456 65.1823 93.9375C65.1823 95.9294 63.1848 97.5515 60.7343 97.5515C58.2837 97.5515 56.2793 95.9294 56.2793 93.9375C56.2793 91.9456 58.2781 90.3235 60.7343 90.3235Z" fill="black"/>
<path fill-rule="evenodd" clip-rule="evenodd" d="M128.267 29.5389C128.267 18.2271 139.219 9.04199 152.709 9.04199C166.199 9.04199 177.15 18.2271 177.15 29.5389C177.084 32.5224 176.323 35.4492 174.928 38.0872C173.533 40.725 171.541 43.0009 169.112 44.7344L172.333 59.8201L158.989 49.3478C143.562 52.7895 128.267 43.047 128.267 29.5389Z" fill="white"/>
<path d="M172.332 60.5148C172.436 60.515 172.539 60.492 172.633 60.4475C172.726 60.4029 172.809 60.3378 172.874 60.2572C172.939 60.1766 172.986 60.0823 173.01 59.9813C173.034 59.8804 173.035 59.7753 173.014 59.6738L169.882 45.0163C172.298 43.2116 174.272 40.8795 175.651 38.1975C177.031 35.5155 177.781 32.5541 177.844 29.5386C177.844 17.8543 166.568 8.34668 152.708 8.34668C138.849 8.34668 127.572 17.8543 127.572 29.5386C127.572 43.3469 143.019 53.4299 158.819 50.0953C172.242 60.6315 171.958 60.5148 172.332 60.5148ZM152.708 9.73668C165.802 9.73668 176.454 18.6202 176.454 29.5386C176.384 32.4144 175.647 35.2344 174.299 37.7759C172.951 40.3172 171.031 42.5101 168.689 44.1809C168.585 44.2605 168.505 44.368 168.459 44.491C168.414 44.614 168.404 44.7474 168.431 44.8759L171.252 58.0809L159.419 48.7929C159.339 48.7287 159.244 48.6836 159.144 48.661C159.043 48.6383 158.939 48.6387 158.838 48.6622C143.812 52.0149 128.962 42.5462 128.962 29.5317C128.962 18.6257 139.615 9.73668 152.708 9.73668Z" fill="black"/>
<path d="M152.367 18.8369C153.241 18.8369 154.096 19.0961 154.823 19.582C155.55 20.0678 156.116 20.7582 156.451 21.5659C156.785 22.3736 156.873 23.2625 156.702 24.12C156.531 24.9774 156.11 25.7651 155.492 26.3832C154.874 27.0012 154.086 27.4221 153.228 27.5925C152.371 27.7629 151.482 27.6752 150.674 27.3405C149.867 27.0057 149.176 26.439 148.691 25.7119C148.205 24.9847 147.946 24.13 147.947 23.2557C147.948 22.084 148.414 20.9604 149.243 20.1318C150.071 19.3034 151.195 18.8376 152.367 18.8369Z" fill="black"/>
<path d="M149.508 30.6226C150.018 30.0915 150.652 29.696 151.353 29.4718C152.054 29.2477 152.8 29.202 153.524 29.3389C154.247 29.4758 154.925 29.7909 155.496 30.2559C156.066 30.7209 156.512 31.3208 156.793 32.0015C157.073 32.6821 157.179 33.4219 157.102 34.154C157.024 34.8861 156.765 35.5872 156.348 36.194C155.931 36.8007 155.37 37.2939 154.714 37.6287C154.058 37.9636 153.33 38.1297 152.594 38.1119C154.062 39.768 155.692 41.2737 157.459 42.6072C157.554 42.6807 157.622 42.7841 157.653 42.9009C157.683 43.0176 157.673 43.1411 157.625 43.2517C157.578 43.3624 157.494 43.454 157.388 43.5119C157.283 43.5699 157.161 43.591 157.042 43.5718C156.955 43.5565 148.5 41.9886 148.293 33.7028C148.278 33.1342 148.378 32.5683 148.587 32.039C148.796 31.5098 149.109 31.028 149.508 30.6226Z" fill="black"/>
<path fill-rule="evenodd" clip-rule="evenodd" d="M257.195 43.9725C257.195 32.6607 243.653 23.4756 226.971 23.4756C210.29 23.4756 196.747 32.6649 196.747 43.9725C196.747 49.7633 200.361 55.283 206.687 59.168L202.703 74.2537L219.202 63.7814C221.766 64.2411 224.366 64.4714 226.971 64.4695C243.653 64.4695 257.195 55.2857 257.195 43.9725Z" fill="white"/>
<path d="M202.703 74.9489C203.019 74.9489 202.783 75.0268 219.347 64.5128C221.865 64.9482 224.416 65.1662 226.971 65.1647C244.021 65.1647 257.891 55.6585 257.891 43.9728C257.891 32.287 244.021 22.7822 226.971 22.7822C209.922 22.7822 196.052 32.2884 196.052 43.9728C196.052 49.8636 199.629 55.4931 205.885 59.4866L202.031 74.0816C202.004 74.1842 202.002 74.2915 202.023 74.3952C202.045 74.4988 202.09 74.5963 202.155 74.68C202.22 74.7636 202.303 74.8313 202.398 74.8779C202.493 74.9246 202.598 74.9489 202.703 74.9489ZM219.203 63.0867C218.889 63.0867 219.137 62.9991 203.831 72.7166L207.36 59.3531C207.398 59.2087 207.389 59.0558 207.333 58.9171C207.278 58.7784 207.179 58.6612 207.051 58.5831C200.944 54.8301 197.442 49.5119 197.442 43.9797C197.442 33.0613 210.689 24.1792 226.971 24.1792C243.254 24.1792 256.501 33.0543 256.501 43.9728C256.501 54.8912 243.25 63.7747 226.971 63.7747C224.366 63.7818 221.766 63.5515 219.203 63.0867Z" fill="black"/>
<path d="M233.814 50.0332C233.977 50.0332 233.165 50.3599 246.48 44.8249C246.576 44.7851 246.659 44.7186 246.718 44.6331C246.777 44.5477 246.81 44.4471 246.814 44.3433C246.818 44.2394 246.791 44.1369 246.739 44.0475C246.685 43.9581 246.608 43.886 246.515 43.8394L233.895 37.5399C233.766 37.476 233.617 37.4658 233.48 37.5118C233.344 37.5578 233.231 37.6563 233.167 37.7852C233.103 37.9142 233.093 38.0634 233.139 38.1999C233.185 38.3364 233.284 38.449 233.413 38.5129L244.968 44.28L233.606 48.9921C233.491 49.0409 233.397 49.1276 233.338 49.238C233.28 49.3482 233.262 49.4753 233.286 49.5976C233.311 49.7199 233.377 49.83 233.473 49.9094C233.569 49.9888 233.69 50.0325 233.814 50.0332Z" fill="black"/>
<path d="M220.198 50.3654C220.323 50.3642 220.444 50.32 220.54 50.2404C220.636 50.1606 220.702 50.0502 220.727 49.9276C220.751 49.8052 220.732 49.678 220.674 49.5675C220.615 49.4571 220.521 49.3703 220.405 49.3215L209.045 44.6108L220.593 38.8423C220.722 38.7782 220.82 38.6653 220.866 38.5288C220.912 38.3922 220.902 38.2429 220.838 38.1139C220.774 37.9849 220.661 37.8866 220.524 37.8408C220.388 37.7949 220.238 37.8052 220.109 37.8693L207.492 44.1673C207.399 44.2141 207.322 44.2865 207.269 44.3759C207.216 44.4654 207.19 44.5681 207.193 44.6719C207.197 44.7759 207.231 44.8765 207.29 44.962C207.349 45.0475 207.431 45.1142 207.527 45.1543C220.829 50.6837 220.03 50.3654 220.198 50.3654Z" fill="black"/>
<path d="M234.4 54.1166L220.65 32.4215C220.57 32.3056 220.449 32.2249 220.311 32.1966C220.174 32.1684 220.03 32.1948 219.912 32.2701C219.793 32.3454 219.708 32.464 219.675 32.6007C219.643 32.7373 219.664 32.8814 219.735 33.0025L233.485 54.6976C233.564 54.8137 233.686 54.8943 233.824 54.9225C233.961 54.9507 234.105 54.9245 234.223 54.849C234.342 54.7737 234.427 54.6552 234.46 54.5186C234.492 54.3818 234.471 54.2378 234.4 54.1166Z" fill="black"/>
<path fill-rule="evenodd" clip-rule="evenodd" d="M69.1581 218.176L28.2448 232.533C28.2448 232.533 24.6655 233.893 22.7779 229.614C20.8903 225.336 7.01115 184.806 7.01115 184.806C6.88883 184.018 6.95278 183.213 7.19881 182.455C7.19881 182.455 6.59693 180.003 8.16346 179.141C7.29332 174.814 11.0213 174.255 14.5491 173.547C21.5533 172.144 27.2468 169.158 32.5927 167.31C37.9387 165.463 44.6134 161.452 54.1183 161.889C61.4853 156.167 70.0616 152.201 79.1925 150.294C88.9225 148.256 93.3983 145.785 93.3983 145.785C93.8903 145.489 94.4435 145.311 95.0162 145.264C95.5889 145.216 96.1644 145.301 96.6981 145.512C97.2319 145.725 97.71 146.056 98.0951 146.483C98.4801 146.909 98.7609 147.418 98.9166 147.971C100.676 152.301 115.221 194.889 115.221 194.889C116.232 195.229 116.681 197.902 116.257 199.165C116.3 199.989 116.115 200.811 115.723 201.536C115.331 202.263 114.746 202.868 114.033 203.284L71.2959 217.489C71.0902 216.972 70.0449 214.505 69.1066 215.046C68.2045 215.552 68.9551 217.612 69.1581 218.176Z" fill="white"/>
<path d="M6.68279 182.287C6.55074 181.614 6.55492 180.922 6.69392 180.251C6.83292 179.578 7.10534 178.942 7.49454 178.377C7.21655 174.378 10.2467 173.853 14.4445 173.01C21.414 171.613 26.9879 168.668 32.4145 166.792C37.6659 164.985 44.413 160.962 53.9345 161.327C61.3529 155.649 69.9431 151.695 79.0809 149.752C83.9376 148.888 88.6608 147.394 93.1297 145.304C94.2389 144.702 95.5399 144.56 96.752 144.91C97.3775 145.16 97.9405 145.545 98.4019 146.037C98.862 146.53 99.2095 147.116 99.418 147.757C101.162 152.051 114.569 190.786 115.125 192.426C115.342 193.044 115.456 193.695 115.461 194.35C115.999 195.036 116.394 195.824 116.622 196.667C116.851 197.508 116.91 198.388 116.793 199.252C116.843 200.179 116.625 201.1 116.163 201.904C115.702 202.709 115.017 203.364 114.192 203.789L71.4554 217.994C71.3067 218.042 71.1468 218.034 71.0037 217.971C70.8619 217.907 70.7479 217.793 70.6839 217.652C70.3795 216.779 69.9584 215.95 69.4329 215.19C69.287 216.132 69.3968 217.096 69.7499 217.981C69.7791 218.052 69.793 218.128 69.7916 218.205C69.7916 218.281 69.7749 218.356 69.7443 218.427C69.7137 218.498 69.6692 218.561 69.6136 218.614C69.558 218.666 69.4927 218.708 69.4204 218.734C27.0254 233.525 28.2403 233.271 26.9309 233.271C25.8926 233.256 24.8848 232.915 24.0508 232.298C23.2155 231.681 22.5955 230.818 22.2758 229.829C20.4007 225.572 7.05947 186.634 6.46872 184.881C6.33528 184.012 6.40895 183.123 6.68279 182.287ZM7.98521 183.121C13.3214 200.48 23.3531 228.206 25.0211 229.472C25.6605 229.714 28.5864 229.757 42.0458 224.989C45.1316 223.897 62.4218 218.263 62.4218 218.263C64.1648 217.588 65.8301 216.725 67.3855 215.688C54.3195 220.124 30.3406 228.398 26.6585 228.398C25.0614 228.398 24.5735 227.521 23.8243 225.427C9.69353 185.986 8.42029 183.052 7.79201 180.276C7.59602 181.224 7.66273 182.209 7.98521 183.121ZM53.5883 162.403C44.4936 162.143 37.9842 166.017 32.7689 167.824C27.4869 169.652 21.699 172.67 14.6572 174.079C8.09364 175.394 7.09979 175.653 10.383 185.026C12.9962 192.487 24.8501 225.073 24.8501 225.073C25.8328 227.853 25.8356 227.853 32.2769 226.063C38.9669 224.203 64.2469 215.617 68.4752 214.186L53.5883 162.403ZM71.5332 216.829L113.809 202.78C114.612 202.341 115.21 201.604 115.477 200.728C112.654 202.339 109.551 203.404 106.333 203.864C98.5896 205.374 91.0224 207.681 83.7541 210.752C79.5744 212.637 75.2557 214.195 70.8341 215.408C71.0996 215.864 71.3331 216.341 71.5332 216.829ZM83.3163 209.761C90.6694 206.655 98.3255 204.322 106.16 202.795C110.755 202.036 115.111 200.284 115.739 198.994C115.913 197.975 115.734 196.928 115.231 196.026C114.993 196.76 114.586 197.427 114.039 197.972C113.495 198.518 112.826 198.926 112.092 199.162C100.683 203.485 91.7007 202.608 70.62 214.345C74.9638 213.145 79.2088 211.613 83.3163 209.761ZM69.4802 213.75C77.438 209.232 85.8711 205.607 94.6239 202.94C100.305 201.343 106.709 200.036 111.708 198.143C112.223 197.955 112.694 197.666 113.094 197.294C113.496 196.92 113.817 196.471 114.041 195.972C114.265 195.471 114.387 194.932 114.398 194.384C114.411 193.838 114.312 193.293 114.11 192.785C113.971 192.381 100.148 152.43 98.4145 148.166C98.2963 147.679 98.0642 147.226 97.7361 146.848C97.4081 146.468 96.9953 146.172 96.5296 145.985C96.0653 145.798 95.5622 145.725 95.0632 145.771C94.5642 145.816 94.0832 145.98 93.6606 146.25C93.4744 146.353 88.993 148.783 79.3047 150.815C70.3462 152.718 61.9228 156.589 54.6447 162.148L69.4802 213.75ZM23.2725 229.393C24.9224 233.138 27.9276 232.074 28.0652 232.024L68.5976 217.877C68.46 217.39 68.3613 216.893 68.3001 216.391C66.5696 217.567 64.7097 218.541 62.7582 219.296C36.9264 227.765 27.4091 231.549 24.6346 230.49C23.9897 230.245 22.5733 227.22 20.7941 222.765C21.9825 226.075 22.886 228.519 23.2725 229.393Z" fill="black"/>
<path d="M61.9851 166.954C66.1328 164.184 78.0994 160.07 82.9741 158.842C87.8002 157.628 95.2061 155.089 95.277 155.062C95.3465 155.041 95.4104 155.005 95.4674 154.959C95.523 154.912 95.5689 154.855 95.6008 154.789C95.6342 154.724 95.6537 154.653 95.6592 154.581C95.6634 154.508 95.6537 154.436 95.63 154.367C95.6064 154.299 95.5689 154.235 95.5202 154.18C95.4716 154.126 95.4132 154.083 95.3465 154.053C95.2811 154.022 95.2102 154.004 95.1366 154.001C95.0643 154 94.992 154.011 94.9239 154.037C94.8502 154.062 87.4902 156.586 82.7086 157.79C77.6393 159.066 65.6922 163.172 61.3804 166.051C61.2609 166.132 61.1775 166.255 61.1497 166.397C61.1219 166.539 61.1511 166.685 61.2317 166.806C61.3109 166.925 61.436 167.007 61.5764 167.037C61.7182 167.064 61.8655 167.035 61.9851 166.954Z" fill="black"/>
<path d="M63.6332 170.385C63.9001 170.385 74.8297 166.287 79.5098 165.011C83.6631 163.877 96.6221 159.2 97.1712 159.001C97.3032 158.95 97.4089 158.848 97.4672 158.72C97.5256 158.591 97.5312 158.444 97.4839 158.312C97.4353 158.178 97.3366 158.07 97.2101 158.007C97.0822 157.946 96.9363 157.938 96.8014 157.982C73.9123 166.19 82.376 162.43 63.4414 169.333C63.3219 169.377 63.2232 169.464 63.1593 169.573C63.0967 169.685 63.0745 169.814 63.0981 169.939C63.1203 170.064 63.187 170.178 63.2843 170.259C63.383 170.341 63.5054 170.385 63.6332 170.385Z" fill="black"/>
<path fill-rule="evenodd" clip-rule="evenodd" d="M93.7035 165.834L95.0254 169.748L88.8399 171.833L87.436 167.908L93.7035 165.834Z" fill="#FFB43B"/>
<path fill-rule="evenodd" clip-rule="evenodd" d="M102.166 173.621L103.488 177.535L97.3028 179.62L95.9114 175.696L102.166 173.621Z" fill="#FFB43B"/>
<path fill-rule="evenodd" clip-rule="evenodd" d="M92.0394 177.07L93.3613 180.985L87.1758 183.07L85.7719 179.144L92.0394 177.07Z" fill="#FFB43B"/>
<path fill-rule="evenodd" clip-rule="evenodd" d="M76.5897 171.009L77.9297 174.392L71.4495 176.616L70.1818 173.252L76.5897 171.009Z" fill="#FFB43B"/>
<path fill-rule="evenodd" clip-rule="evenodd" d="M74.951 180.445L76.291 183.83L69.8108 186.054L68.5432 182.689L74.951 180.445Z" fill="#FFB43B"/>
<path d="M53.3767 162.699C53.4045 162.566 53.4796 162.447 53.5894 162.368C53.6992 162.289 53.8354 162.253 53.9703 162.268C54.1051 162.283 54.2288 162.347 54.3191 162.45C54.4081 162.552 54.4554 162.684 54.4526 162.82C54.4442 162.987 53.7048 179.56 55.8996 192.648C58.1236 205.892 74.2086 220.309 68.4374 229.817C68.3901 229.897 68.322 229.962 68.24 230.008C68.1594 230.054 68.0676 230.078 67.9745 230.078C66.5414 229.605 65.1472 229.024 63.8045 228.338C63.7197 228.297 63.646 228.235 63.5918 228.158C63.5376 228.082 63.5029 227.991 63.4931 227.898C63.482 227.804 63.4959 227.709 63.5321 227.623C63.5682 227.536 63.6266 227.459 63.7003 227.401C63.7003 227.401 65.4391 225.938 63.268 219.529C60.905 212.571 52.6136 204.285 51.5586 191.451C50.5078 178.806 53.3447 162.859 53.3767 162.699Z" fill="black"/>
<path d="M85.2842 178.911C85.4232 178.633 85.3982 178.701 88.2338 177.762L87.5472 175.6C87.5041 175.464 87.5166 175.318 87.5805 175.19C87.6459 175.064 87.7571 174.968 87.8919 174.922L92.0952 173.51L91.4892 171.515C90.6288 171.869 89.7434 172.158 88.8399 172.379C88.7287 172.379 88.6188 172.345 88.5271 172.281C88.4354 172.217 88.3673 172.125 88.3297 172.019L86.9258 168.094C86.9022 168.026 86.8911 167.954 86.8953 167.883C86.8994 167.811 86.9175 167.74 86.9494 167.676C86.9814 167.61 87.0259 167.553 87.0801 167.506C87.1343 167.457 87.1969 167.421 87.265 167.399L93.5325 165.314C93.5992 165.292 93.6715 165.282 93.741 165.288C93.8119 165.292 93.8814 165.311 93.9453 165.342C94.0093 165.374 94.0649 165.418 94.1121 165.471C94.158 165.525 94.1941 165.588 94.2164 165.655C95.6272 169.843 95.6495 169.704 95.5119 169.983C95.3742 170.262 95.4326 170.178 92.5164 171.163L93.1238 173.159L98.3502 171.402C98.4865 171.356 98.6352 171.366 98.7631 171.43C98.891 171.494 98.9896 171.605 99.0355 171.741L99.7569 173.845L102 173.101C102.067 173.079 102.139 173.069 102.209 173.074C102.28 173.079 102.349 173.098 102.413 173.129C102.477 173.161 102.533 173.205 102.58 173.258C102.626 173.312 102.662 173.375 102.684 173.441C104.085 177.634 104.117 177.492 103.98 177.77C103.825 178.081 104.071 177.946 97.4815 180.133C97.3467 180.179 97.1993 180.17 97.0714 180.108C96.9436 180.047 96.8449 179.937 96.7976 179.802C95.2992 175.601 95.2783 175.742 95.4173 175.456C95.5563 175.169 95.5494 175.24 98.7269 174.186L98.1848 172.603L88.7439 175.775L89.2638 177.415L91.8687 176.552C92.0049 176.506 92.1522 176.517 92.2815 176.581C92.4094 176.645 92.5067 176.757 92.5525 176.893L93.8744 180.807C93.8981 180.875 93.9064 180.946 93.9022 181.017C93.8981 181.088 93.8786 181.157 93.848 181.221C93.8161 181.285 93.7716 181.342 93.7188 181.389C93.6645 181.437 93.6034 181.473 93.5353 181.495C86.9425 183.729 87.315 183.612 87.176 183.612C87.0648 183.612 86.955 183.577 86.8633 183.513C86.7729 183.448 86.7034 183.358 86.6659 183.252C85.1689 179.063 85.1452 179.197 85.2842 178.911ZM93.3629 166.518L88.1337 168.251L89.1707 171.153L94.3387 169.409L93.3629 166.518ZM97.6386 178.939L102.807 177.196L101.834 174.305L96.6058 176.038L97.6386 178.939ZM87.5068 182.39L92.6749 180.644L91.7019 177.755L86.4727 179.488L87.5068 182.39Z" fill="black"/>
<path d="M69.3906 199.216C77.8099 193.855 100.588 187.441 100.817 187.376C100.885 187.356 100.949 187.324 101.006 187.28C101.062 187.235 101.109 187.181 101.144 187.119C101.179 187.058 101.201 186.989 101.209 186.919C101.217 186.848 101.212 186.775 101.192 186.707C101.173 186.639 101.141 186.575 101.097 186.518C101.052 186.463 100.998 186.415 100.935 186.381C100.874 186.346 100.806 186.324 100.735 186.315C100.664 186.307 100.592 186.312 100.524 186.332C99.5828 186.596 77.3637 192.854 68.8096 198.301C68.6942 198.38 68.6136 198.501 68.5844 198.639C68.5566 198.778 68.5831 198.921 68.6581 199.039C68.7332 199.157 68.8527 199.242 68.9889 199.276C69.1251 199.309 69.2697 199.287 69.3906 199.216Z" fill="black"/>
<path d="M73.6242 201.03C81.7751 196.533 106.053 189.732 106.289 189.664C106.423 189.621 106.534 189.527 106.599 189.405C106.666 189.281 106.681 189.138 106.645 189.003C106.607 188.869 106.52 188.753 106.399 188.682C106.279 188.61 106.136 188.588 106 188.62C104.996 188.898 81.3554 195.522 73.0932 200.08C72.9667 200.151 72.875 200.268 72.8347 200.407C72.7957 200.546 72.8138 200.695 72.8833 200.82C72.9542 200.946 73.0723 201.039 73.2113 201.078C73.349 201.117 73.4977 201.101 73.6242 201.03Z" fill="black"/>
<path d="M18.2651 181.812C24.9718 179.784 31.5674 177.406 38.0253 174.687C41.9674 172.834 46.2041 171.689 50.5436 171.305C50.6145 171.303 50.6854 171.286 50.7494 171.257C50.8147 171.226 50.8731 171.184 50.9217 171.133C50.969 171.08 51.0079 171.019 51.0315 170.952C51.0566 170.886 51.0677 170.815 51.0663 170.744C51.0635 170.671 51.0468 170.602 51.0162 170.537C50.9871 170.473 50.9454 170.414 50.8925 170.366C50.8397 170.317 50.7786 170.28 50.7118 170.254C50.6451 170.229 50.5742 170.218 50.5033 170.221C46.0206 170.595 41.6421 171.772 37.5763 173.696C30.6124 176.871 18.2303 180.71 18.1052 180.749C17.9787 180.785 17.8689 180.866 17.798 180.977C17.7271 181.088 17.698 181.22 17.7174 181.351C17.7369 181.482 17.8036 181.6 17.9037 181.684C18.0052 181.769 18.133 181.815 18.2651 181.812Z" fill="black"/>
<path d="M17.6463 186.573C24.4837 184.456 31.2002 181.972 37.7693 179.129C42.3202 177.132 47.1046 175.716 52.0085 174.912C52.1503 174.89 52.2781 174.812 52.3629 174.695C52.4477 174.58 52.4825 174.434 52.4602 174.292C52.438 174.151 52.3602 174.023 52.2434 173.938C52.128 173.853 51.9821 173.818 51.8403 173.841C46.8252 174.65 41.9338 176.101 37.2884 178.158C31.4045 181.057 17.6213 185.471 17.4823 185.514C17.3586 185.553 17.2529 185.635 17.1848 185.745C17.1167 185.854 17.0889 185.986 17.1098 186.114C17.1292 186.242 17.1945 186.359 17.2932 186.442C17.3919 186.527 17.517 186.573 17.6463 186.573Z" fill="black"/>
<path d="M27.0151 214.682C38.4297 209.917 50.1141 205.823 62.0083 202.425C62.1459 202.386 62.2627 202.294 62.3322 202.169C62.4031 202.044 62.4212 201.898 62.3822 201.759C62.3447 201.621 62.2543 201.504 62.1292 201.434C62.0055 201.361 61.8582 201.343 61.7206 201.379C49.8458 204.764 38.1851 208.859 26.801 213.642C26.687 213.692 26.5925 213.778 26.5355 213.889C26.4771 213.999 26.4605 214.127 26.4855 214.249C26.5105 214.37 26.5772 214.48 26.6731 214.559C26.769 214.639 26.89 214.682 27.0151 214.682Z" fill="black"/>
<path d="M28.2282 218.706C39.6429 213.941 51.3272 209.847 63.2201 206.449C63.3521 206.405 63.4619 206.312 63.5273 206.19C63.594 206.066 63.6093 205.925 63.5717 205.79C63.5356 205.656 63.448 205.541 63.3299 205.47C63.2103 205.398 63.0686 205.374 62.9323 205.405C51.0576 208.789 39.3969 212.883 28.0128 217.666C27.8988 217.716 27.8043 217.803 27.7473 217.913C27.6889 218.024 27.6722 218.151 27.6972 218.273C27.7223 218.396 27.789 218.505 27.8863 218.585C27.9822 218.662 28.1031 218.706 28.2282 218.706Z" fill="black"/>
<path d="M24.4169 210.184C35.8315 205.422 47.5159 201.331 59.4087 197.935C59.5463 197.896 59.6631 197.805 59.7326 197.68C59.8035 197.555 59.8216 197.409 59.7826 197.27C59.7451 197.132 59.6548 197.015 59.5297 196.944C59.406 196.872 59.2586 196.854 59.121 196.89C47.2462 200.273 35.5855 204.368 24.2028 209.151C24.093 209.203 24.0027 209.29 23.9484 209.4C23.8928 209.509 23.8776 209.632 23.9026 209.752C23.9262 209.871 23.9915 209.98 24.0847 210.058C24.1778 210.135 24.2945 210.18 24.4169 210.184Z" fill="black"/>
<path d="M17.5295 190.986C18.1897 190.986 31.2627 186.99 37.0256 184.651C41.7878 182.753 46.6625 181.152 51.6206 179.854C51.6901 179.837 51.7541 179.805 51.8124 179.763C51.8694 179.72 51.9167 179.667 51.9542 179.606C51.9904 179.545 52.0154 179.477 52.0251 179.407C52.0362 179.337 52.0321 179.264 52.014 179.195C51.9973 179.127 51.9667 179.061 51.9236 179.004C51.8819 178.947 51.8277 178.899 51.7666 178.863C51.7054 178.825 51.6387 178.801 51.5678 178.79C51.4969 178.781 51.426 178.785 51.3565 178.801C46.3484 180.112 41.425 181.73 36.6156 183.647C29.3445 186.598 17.5017 189.889 17.3822 189.921C17.2557 189.956 17.1459 190.037 17.0736 190.147C17.0013 190.256 16.9707 190.388 16.9888 190.518C17.0069 190.648 17.0722 190.768 17.1709 190.854C17.271 190.94 17.3974 190.988 17.5295 190.986Z" fill="black"/>
<path d="M20.6055 195.245C21.2657 195.245 34.3387 191.248 40.1016 188.909C44.8637 187.013 49.7385 185.41 54.6966 184.112C54.8356 184.077 54.9565 183.989 55.0302 183.865C55.1039 183.742 55.1261 183.594 55.0914 183.455C55.0566 183.316 54.9677 183.195 54.8439 183.121C54.7216 183.047 54.5729 183.025 54.4339 183.06C43.7309 185.737 36.8768 189.703 20.4595 194.18C20.333 194.215 20.2232 194.294 20.1509 194.404C20.0786 194.514 20.0481 194.646 20.0662 194.776C20.0842 194.907 20.1481 195.025 20.2482 195.111C20.3469 195.197 20.4734 195.245 20.6055 195.245Z" fill="black"/>
<path d="M23.1752 200.1C23.8341 200.1 36.8973 196.108 42.67 193.765C47.4321 191.867 52.3068 190.266 57.265 188.968C57.404 188.933 57.5249 188.844 57.5986 188.72C57.6722 188.598 57.6945 188.449 57.6597 188.31C57.625 188.171 57.536 188.05 57.4123 187.977C57.29 187.903 57.1412 187.881 57.0022 187.915C51.9941 189.226 47.0707 190.844 42.2599 192.76C34.9902 195.711 23.146 199.002 23.0265 199.035C22.9 199.07 22.7902 199.151 22.7179 199.261C22.6456 199.37 22.615 199.503 22.6331 199.633C22.6512 199.764 22.7165 199.883 22.8166 199.968C22.9167 200.054 23.0432 200.102 23.1752 200.1Z" fill="black"/>
<path d="M23.2499 204.406C23.9101 204.406 36.9831 200.41 42.7447 198.07C47.5068 196.174 52.3815 194.572 57.3397 193.273C57.4092 193.257 57.4731 193.225 57.5315 193.183C57.5885 193.14 57.6357 193.087 57.6732 193.026C57.7469 192.902 57.7691 192.755 57.733 192.616C57.6983 192.475 57.6093 192.356 57.4856 192.282C57.3633 192.209 57.2145 192.186 57.0755 192.221C45.9444 195.001 40.0439 198.721 23.1026 203.341C22.9761 203.376 22.8663 203.456 22.794 203.566C22.7217 203.676 22.6911 203.808 22.7092 203.937C22.7272 204.068 22.7926 204.188 22.8913 204.274C22.9914 204.36 23.1178 204.407 23.2499 204.406Z" fill="black"/>
<path d="M68.0519 182.466C68.1909 182.176 67.8211 182.338 74.7725 179.934C74.9046 179.888 75.0491 179.895 75.1756 179.953C75.3035 180.012 75.4022 180.116 75.455 180.245L75.7775 181.06L77.6054 180.391L75.6955 175.733C74.3055 176.286 72.8863 176.765 71.4449 177.166C71.3351 177.166 71.2267 177.133 71.1363 177.069C71.046 177.006 70.9765 176.917 70.9375 176.815L69.6699 173.451C69.6448 173.383 69.6323 173.31 69.6351 173.24C69.6379 173.167 69.656 173.096 69.6865 173.03C69.7171 172.964 69.7602 172.906 69.813 172.857C69.8672 172.809 69.9298 172.771 69.9979 172.747L76.4072 170.496C76.5392 170.451 76.6838 170.458 76.8103 170.516C76.9368 170.575 77.0369 170.679 77.0897 170.808C78.5714 174.561 78.5478 174.333 78.4185 174.62C78.2892 174.906 78.1405 174.898 76.7213 175.38C78.9856 180.901 78.9453 180.629 78.816 180.925C78.6868 181.221 78.6951 181.147 76.1751 182.067C76.8381 183.735 76.909 183.777 76.7825 184.056C76.6435 184.357 76.9979 184.143 69.9854 186.572C69.8519 186.618 69.706 186.611 69.5781 186.55C69.4502 186.49 69.3501 186.383 69.3001 186.251C67.9226 182.584 67.9198 182.751 68.0519 182.466ZM76.2737 171.692L70.8805 173.587L71.7674 175.939L77.2134 174.065L76.2737 171.692ZM70.1327 185.376L75.5801 183.502L74.6391 181.129L69.2459 183.024L70.1327 185.376Z" fill="black"/>
</svg>
