<svg width="347" height="342" viewBox="0 0 347 342" fill="none" xmlns="http://www.w3.org/2000/svg">
<path d="M78.5744 43.2488C78.5223 44.1185 78.2509 44.9609 77.7854 45.6974C77.3199 46.434 76.6755 47.0406 75.9122 47.4608C76.5603 48.5591 76.8665 49.8256 76.7918 51.0986C76.7171 52.3717 76.2649 53.5936 75.4928 54.6086C74.7373 55.5985 73.7289 56.3665 72.5737 56.8318C71.4186 57.297 70.1594 57.4424 68.9286 57.2525C68.6004 58.146 67.8163 59.6959 66.9229 59.9876C66.7849 60.0595 66.6317 60.0971 66.4761 60.0971C66.3206 60.0971 66.1673 60.0595 66.0294 59.9876C66.2459 61.2675 66.8497 62.4502 67.7594 63.3762C68.6691 64.3021 69.8408 64.9269 71.1167 65.1661C75.2923 65.9137 79.1943 64.5461 79.1943 60.2976C80.1936 60.4992 81.2248 60.4813 82.2165 60.2452C83.2082 60.0091 84.1368 59.5603 84.9381 58.93C85.5087 58.4624 85.9813 57.8866 86.3286 57.2357C86.676 56.5849 86.8912 55.8717 86.962 55.1374C87.1444 50.433 83.8805 47.315 81.8565 47.315C83.3335 44.7075 82.3853 42.4465 80.0331 40.7325C79.4336 40.3605 78.7627 40.1183 78.0638 40.0214C78.4408 41.0541 78.6141 42.1501 78.5744 43.2488ZM42.1246 44.5981C42.2068 44.5981 42.2857 44.5654 42.3438 44.5073C42.4019 44.4492 42.4346 44.3703 42.4346 44.2881C42.4346 44.2059 42.4019 44.1271 42.3438 44.0689C42.2857 44.0108 42.2068 43.9781 42.1246 43.9781L41.0123 43.8505C40.6659 43.8505 40.1006 43.8505 39.7724 43.7411C39.5602 41.0649 39.5602 38.3761 39.7724 35.6999C39.7688 35.6237 39.7387 35.5511 39.6873 35.4946C39.636 35.4382 39.5665 35.4014 39.491 35.3906C39.4154 35.3798 39.3385 35.3957 39.2734 35.4355C39.2083 35.4753 39.1591 35.5366 39.1342 35.6087C38.3414 37.6389 37.9871 39.8138 38.0949 41.9906C38.0663 42.7437 38.1337 43.4974 38.2955 44.2334C38.7331 45.3822 40.9394 44.8716 42.1246 44.5981ZM33.664 33.9677C32.7888 34.2047 31.6036 35.0617 32.0412 35.3899C32.6841 35.685 33.4168 35.7177 34.0834 35.4811C34.7216 35.317 35.7792 34.6788 35.7609 34.3506C35.7427 34.0224 34.521 33.7306 33.664 33.9677ZM45.4797 35.2441C51.898 36.5751 48.9259 34.1318 45.7714 33.7306C44.9509 33.6212 43.0363 33.7306 43.0728 34.1865C43.1092 34.6423 44.9873 35.1346 45.4797 35.2441ZM46.9201 38.3074C46.8691 38.2172 46.8006 38.138 46.7187 38.0744C46.6368 38.0109 46.5432 37.9642 46.4431 37.937C46.3431 37.9099 46.2386 37.9029 46.1359 37.9164C46.0331 37.9299 45.934 37.9636 45.8443 38.0156C45.3885 38.2709 45.4067 38.5444 45.5161 40.0214C45.5306 40.2293 45.6272 40.423 45.7845 40.5598C45.9418 40.6965 46.1469 40.7652 46.3549 40.7507C46.5628 40.7362 46.7565 40.6397 46.8933 40.4824C47.0301 40.3251 47.0988 40.1199 47.0843 39.912C47.1116 39.3719 47.0563 38.8307 46.9201 38.3074ZM34.0105 39.3102C34.0274 39.1023 33.961 38.8961 33.8259 38.7371C33.6909 38.5781 33.4982 38.4793 33.2902 38.4624C33.0823 38.4454 32.8761 38.5118 32.7171 38.6469C32.5581 38.7819 32.4593 38.9747 32.4423 39.1826C32.4078 39.6256 32.4078 40.0707 32.4423 40.5137C32.4569 40.7216 32.5534 40.9153 32.7107 41.0521C32.868 41.1889 33.0732 41.2576 33.2811 41.243C33.4891 41.2285 33.6827 41.132 33.8195 40.9747C33.9563 40.8174 34.025 40.6122 34.0105 40.4043C34.0469 40.0214 33.9922 39.529 34.0105 39.3102ZM40.3377 51.1806C40.3377 51.7641 42.6534 51.9099 43.8568 50.7065C44.7503 49.813 44.6956 48.4455 44.3309 48.3543C43.9662 48.2631 44.2033 48.3543 42.8904 49.4848C42.0699 50.1777 40.3012 50.7247 40.3377 51.1806Z" fill="#100031"/>
<path d="M345.681 36.0289C345.205 35.8749 344.7 35.8261 344.203 35.8859C343.706 35.9457 343.227 36.1127 342.8 36.3753C343.149 35.5405 343.269 34.6278 343.147 33.7314C342.819 32.2544 340.667 31.5798 338.898 33.7314C338.789 32.5644 338.26 31.7621 337.33 31.598C335.015 31.1604 334.012 35.573 333.501 37.8887C332.298 36.9953 330.328 35.4818 329.344 36.667C329.065 36.9645 328.878 37.3355 328.803 37.7362C328.729 38.1369 328.771 38.5505 328.924 38.9281C329.634 40.1672 330.643 41.208 331.86 41.9549C331.514 42.7572 330.037 44.8724 329.271 46.1123C328.651 45.9299 327.338 45.5835 327.064 46.1123C320.664 54.8281 303.36 75.0314 292.584 74.612C275.936 73.9738 254.985 65.9144 252.889 66.2061L249.953 59.7695C253.182 57.5582 255.607 54.3592 256.864 50.6525C258.908 44.995 259.837 38.9948 259.599 32.9838C259.612 31.0353 259.521 29.0875 259.325 27.1489C267.02 26.6383 272.089 17.576 266.09 10.0819C265.511 9.18332 264.758 8.41033 263.875 7.80889C262.991 7.20745 261.996 6.78984 260.948 6.58093C259.712 6.51657 258.476 6.68354 257.301 7.07325C250.008 8.89665 249.898 4.28344 244.902 3.04353C242.618 2.66092 240.274 2.90674 238.119 3.75465C230.825 6.30742 232.248 10.3736 228.874 13.7651C227.051 15.5885 219.265 13.0175 216.111 18.196C212.755 23.8668 213.065 35.8647 217.934 40.5691C219.015 41.5406 220.209 42.3792 221.49 43.0672C222.671 44.2749 224.053 45.2682 225.574 46.0029C226.996 48.9021 228.619 57.235 229.221 60.3895L228.656 65.1303C224.767 65.7415 220.932 66.656 217.186 67.8654C211.049 69.8521 205.095 72.3656 199.39 75.3779C188.997 80.8481 190.273 80.7386 189.908 80.1552C188.648 78.7834 187.309 77.4866 185.897 76.2713C175.941 67.8837 165.146 60.7359 152.401 58.639L150.906 50.1602C154.917 46.8781 157.105 40.2591 157.178 35.573C158.673 36.193 159.859 35.0989 160.643 33.7496C160.861 33.3485 162.229 33.7496 163.287 31.3792C163.47 30.885 163.47 30.3417 163.287 29.8475C163.652 29.6291 163.966 29.3332 164.205 28.9807C164.444 28.6282 164.603 28.2276 164.671 27.807C164.739 27.3864 164.714 26.9561 164.597 26.5463C164.481 26.1365 164.276 25.7572 163.998 25.4349C164.559 25.1155 165.04 24.6717 165.404 24.1375C165.767 23.6033 166.004 22.993 166.095 22.3533C166.496 19.9647 165.949 17.8131 163.651 17.0655C163.651 16.5367 164.034 15.6615 164.034 15.4791C164.054 14.63 163.903 13.7856 163.59 12.9962C163.277 12.2068 162.808 11.4885 162.211 10.8842C159.676 8.71431 158.874 8.89665 157.288 9.06075C157.288 7.96671 157.981 7.23735 156.832 5.74216C155.951 4.72564 154.778 4.00524 153.473 3.67898C152.168 3.35272 150.794 3.43645 149.538 3.91876L149.082 4.06463C148.797 3.34807 148.364 2.69985 147.811 2.16249C147.258 1.62513 146.598 1.21078 145.873 0.946617C143.594 0.0896186 142.026 1.20189 140.111 2.20476C137.248 -0.347998 131.778 1.01955 128.843 2.78825C127.511 3.59055 127.384 5.0128 126.855 5.66923C125.722 5.58664 124.594 5.88158 123.646 6.50799C122.807 7.03678 122.023 7.8026 121.348 8.33139C120.904 8.67631 120.537 9.11127 120.273 9.60777C119.708 10.5348 119.382 11.5873 119.324 12.6711C118.876 12.7784 118.45 12.9636 118.066 13.2181C116.61 14.5223 115.586 16.2398 115.131 18.1413C114.932 19.1934 115.033 20.2802 115.422 21.2775C115.422 21.3869 115.605 21.6058 115.659 21.7152C115.295 22.2439 114.347 22.6633 114.164 24.0856C113.982 25.5078 114.037 28.2976 115.422 29.1364C116.006 29.4828 117.246 29.8475 117.683 30.121C117.614 30.867 117.614 31.6178 117.683 32.3638C118.157 35.4454 121.203 36.5576 124.339 36.1018L125.196 36.5394C125.529 39.7878 126.391 42.9599 127.749 45.9299C128.761 47.8918 130.286 49.5427 132.161 50.7072L131.286 58.4749C126.934 59.1108 122.657 60.186 118.522 61.6841C105.995 66.2608 98.6835 72.2051 92.2104 82.5256C83.294 75.1408 68.1962 64.0728 56.5265 64.2733C56.6014 63.485 56.6014 62.6913 56.5265 61.9029C56.5265 61.3741 56.2347 59.7513 55.7424 59.5143C55.7424 58.6208 55.5965 57.6909 55.5236 56.8339C59.6445 62.924 68.0504 59.6966 67.1204 55.5392C68.1604 55.6081 69.2016 55.4234 70.1545 55.001C71.1073 54.5786 71.9433 53.931 72.5906 53.1141C73.219 52.2162 73.5561 51.1468 73.5561 50.0508C73.5561 48.9549 73.219 47.8854 72.5906 46.9875C72.4397 46.7444 72.2555 46.5234 72.0436 46.3311C74.8881 45.6017 75.8728 44.3436 76.2374 42.5384C76.5309 41.1574 76.4234 39.7212 75.9275 38.3993C76.252 38.239 76.5577 38.0433 76.8392 37.8158C77.6749 37.0171 78.242 35.9786 78.462 34.8436C78.8974 30.8925 78.0401 26.9066 76.0186 23.4839C75.3636 22.3425 74.2917 21.4995 73.0283 21.1317C72.791 20.0461 72.6507 18.9417 72.6089 17.8313C72.308 16.1072 71.5979 14.4804 70.5382 13.0876C69.4785 11.6947 68.1001 10.5764 66.5187 9.82658C64.9865 9.10819 63.3235 8.71105 61.632 8.6596C60.9215 8.60068 60.2067 8.69392 59.5351 8.93311C58.3727 7.52699 56.8462 6.46731 55.1225 5.8698C51.7772 5.24847 48.32 5.81607 45.349 7.47439C44.7473 7.87554 44.2732 8.6596 43.7444 9.04252C42.4462 8.48504 41.0388 8.22827 39.6274 8.29142C38.2159 8.35457 36.8371 8.73601 35.5938 9.4072C34.274 9.98549 33.0849 10.8247 32.0978 11.8745C31.1107 12.9242 30.3462 14.1628 29.8501 15.5156C29.0843 17.339 28.3914 20.3294 29.5584 21.8975C29.6254 21.9843 29.6863 22.0757 29.7407 22.171C29.0478 23.3927 27.4615 23.9944 26.9327 27.3859C26.7173 29.0872 26.7851 30.8124 27.1332 32.4915C27.2302 32.9051 27.4621 33.2746 27.7922 33.542C28.1223 33.8094 28.5319 33.9594 28.9566 33.9684C28.3914 39.4386 28.4826 46.7322 31.4729 51.4548C32.2174 52.5595 33.0862 53.5751 34.0622 54.4817C35.0817 55.4806 36.3356 56.2079 37.709 56.5968V59.8425C36.7973 60.353 37.4355 63.2522 37.0525 65.0027C29.6495 64.4921 19.2926 66.2061 13.5489 70.947C4.68718 78.3135 1.07684 88.7069 0.128675 100.194C-1.16594 116.04 7.42228 125.85 20.7513 127.545C21.5887 130.319 22.5748 133.046 23.7052 135.714C18.0732 146.275 13.9545 157.575 11.4702 169.283C9.64683 179.202 8.78983 194.92 8.62572 210C8.62572 217.184 8.62572 244.134 11.0326 250.844C11.4155 251.901 13.0566 252.467 14.1324 252.777C17.1241 253.56 20.1723 254.109 23.2494 254.418C24.0152 270.427 26.2945 331.383 26.2945 331.475C23.1614 333.152 20.2771 335.257 17.7245 337.729C17.3189 338.09 17.0147 338.551 16.842 339.066C16.6693 339.581 16.6341 340.132 16.7399 340.664C16.9277 341.138 17.2801 341.528 17.7323 341.762C18.1846 341.997 18.7062 342.06 19.2015 341.941C22.2283 341.667 30.3789 339.224 34.0622 338.549C34.1533 339.333 34.281 340.099 35.0468 340.373C36.3597 340.829 38.9489 341.066 39.897 339.88C40.8452 338.695 40.28 335.595 40.4076 334.264C40.517 333.28 48.8317 275.916 51.6762 256.241H53.9555C57.4564 275.186 67.0293 329.359 67.0475 329.451C65.152 330.891 63.3549 332.456 61.6685 334.137C60.2644 335.559 57.9123 338.112 58.8422 339.862C59.7721 341.613 61.9602 340.719 63.8018 340.045C67.4486 338.768 72.9188 336.307 75.7086 335.395C75.9092 336.142 76.1463 336.89 76.9303 337.054C78.0183 337.218 79.1282 337.163 80.1942 336.89C81.7441 336.434 82.0176 335.468 82.0176 333.863C81.343 325.786 81.3247 351.258 81.8717 255.876C83.8936 255.795 85.897 255.458 87.8343 254.873C92.9945 252.339 92.5204 178.291 85.8103 154.988C85.3544 153.383 82.4735 145.014 80.4313 139.817C80.4953 139.64 80.4953 139.447 80.4313 139.27C79.8317 137.76 79.1562 136.281 78.4073 134.839C78.9543 128.129 79.5378 115.183 80.0848 111.262L84.6251 114.38C84.9973 115.848 85.5229 117.272 86.1932 118.629C86.9402 120.589 88.1398 122.344 89.6941 123.753C91.6582 125.562 93.9958 126.918 96.5417 127.725C99.0875 128.531 101.779 128.769 104.427 128.421H107.491C111.028 149.426 110.007 147.22 110.536 147.749C97.0972 194.063 92.7574 281.914 94.5808 326.442C94.5808 326.653 94.6514 326.859 94.7814 327.025C95.7114 328.211 101.51 328.849 103.424 329.177C99.828 331.095 96.4054 333.322 93.1951 335.832C91.5722 337.419 93.7056 340.391 95.6931 340.902C96.7872 341.193 111.666 339.078 112.797 338.914C112.943 339.607 113.271 340.282 113.964 340.409C115.914 340.745 117.893 340.886 119.871 340.829C120.674 340.829 121.695 340.646 121.877 339.88C122.486 336.846 122.84 333.766 122.935 330.672C124.229 330.672 125.524 330.672 125.943 330.308C129.59 326.661 145.873 233.868 147.204 226.374C147.657 223.86 147.773 221.297 147.551 218.752C144.907 187.481 145.891 200.354 145.472 188.301C145.489 188.229 145.53 188.166 145.588 188.12C145.646 188.075 145.717 188.05 145.791 188.05C145.865 188.05 145.936 188.075 145.994 188.12C146.052 188.166 146.093 188.229 146.11 188.301C147.332 202.633 148.061 203.125 149.046 222.016C149.046 223.31 163.907 324.983 166.587 327.645C168.014 328.236 169.546 328.534 171.091 328.521C170.916 332.446 171.229 336.378 172.021 340.227C172.071 340.371 172.151 340.504 172.254 340.617C172.358 340.73 172.483 340.82 172.622 340.883C173.954 341.54 178.931 340.883 179.916 340.756C180.229 340.637 180.503 340.435 180.709 340.172C180.915 339.908 181.044 339.593 181.083 339.26C182.633 339.479 197.111 341.521 198.168 341.248C200.156 340.737 202.307 337.765 200.666 336.161C196.869 333.257 192.83 330.683 188.595 328.466C190.783 328.302 195.378 327.901 197.275 326.788C200.138 325.093 197.402 197.892 174.428 145.725C174.847 145.05 176.452 126.324 176.525 125.485C182.288 125.29 187.872 123.435 192.607 120.142L199.9 117.517C195.459 134.44 192.127 151.634 189.927 168.991C189.507 172.419 187.392 189.45 189.671 192.003C189.907 192.267 190.231 192.436 190.583 192.477C191.622 192.568 195.78 192.933 200.21 193.206C200.21 245.519 205.352 273.6 213.649 328.685C213.675 328.856 213.761 329.012 213.891 329.125C214.021 329.239 214.187 329.302 214.36 329.305H214.834C215.178 331.845 215.733 334.351 216.493 336.799C217.642 339.115 235.457 339.06 237.973 338.258C238.412 338.032 238.761 337.663 238.96 337.212C239.159 336.76 239.197 336.254 239.067 335.778C238.338 332.532 231.774 331.821 228.674 329.487H229.75C229.918 329.491 230.082 329.437 230.215 329.334C230.348 329.231 230.441 329.086 230.479 328.922L244.428 259.104C244.592 260.125 254.402 330.216 254.402 330.216C254.433 330.4 254.529 330.566 254.674 330.683C254.818 330.801 255 330.862 255.186 330.855H256.626C256.883 333.424 257.297 335.976 257.866 338.495C257.894 338.61 257.948 338.718 258.024 338.809C258.1 338.901 258.196 338.974 258.304 339.023C260.127 339.88 276.155 340.847 278.799 339.406C279.279 339.146 279.645 338.715 279.824 338.199C280.003 337.683 279.982 337.118 279.765 336.617C279.308 335.347 278.491 334.238 277.413 333.426C275.207 332.204 271.36 331.93 269.299 330.855H270.32C270.495 330.844 270.661 330.779 270.796 330.667C270.93 330.556 271.025 330.404 271.068 330.235C271.068 330.235 276.374 310.742 279.492 265.905C281.315 239.757 281.826 213.026 281.625 187.171C283.959 187.353 287.934 187.535 289.904 187.444C290.451 187.444 290.979 187.444 291.216 186.915C293.332 182.703 291.727 140.838 290.542 130.28C290.432 129.259 287.825 111.919 287.478 109.658C293.55 109.421 302.321 108.126 307.299 104.571C332.826 86.3365 337.695 55.1928 339.774 51.0172C339.974 50.5796 339.482 50.3608 338.26 49.7591C338.962 47.6776 339.796 45.6434 340.758 43.6689C343.293 42.2649 346.228 40.6603 346.429 37.7611C346.526 37.4305 346.504 37.0764 346.368 36.76C346.231 36.4437 345.988 36.1851 345.681 36.0289ZM163.834 17.4119C163.688 17.4119 163.651 17.3025 163.651 17.1202C163.651 16.9378 163.998 17.4119 163.834 17.4119ZM230.953 86.7012C239.961 87.2664 245.321 87.3394 254.475 87.2847C255.058 90.8221 255.715 94.6877 256.426 98.7903C251.521 98.7903 234.892 98.9727 230.57 98.8997C230.771 94.8882 230.917 90.7856 230.953 86.7376V86.7012ZM228.564 124.865C239.177 125.485 247.054 125.649 261.149 125.357C262.097 130.554 263.081 135.805 263.957 140.419C255.423 140.674 235.73 141.02 226.869 140.765C227.215 137.866 227.926 130.827 228.564 124.901V124.865ZM226.103 146.636C239.997 147.439 251.12 147.475 265.251 147.056C265.944 150.557 266.619 153.948 267.275 157.139C251.156 157.759 235.384 157.796 224.17 157.577C224.911 153.966 225.556 150.32 226.103 146.636ZM259.963 118.793C254.493 118.902 234.436 119.121 229.111 119.048C229.585 113.833 229.95 109.111 230.224 104.826C238.976 105.373 244.92 105.573 257.575 105.428C258.012 107.834 259.617 116.787 259.963 118.793ZM252.123 70.1082C252.342 73.0986 252.998 77.73 253.454 80.7022C248.804 80.7022 234.582 80.8663 230.935 80.8116C230.898 77.0685 230.649 73.3306 230.187 69.6159C235.11 76.2348 248.403 75.3232 252.123 70.1082ZM222.948 163.393C238.181 164.313 253.452 164.428 268.697 163.74C269.39 166.949 270.029 169.867 270.63 172.419C267.749 172.255 233.688 170.596 221.289 169.994C221.8 167.915 222.347 165.709 222.894 163.393H222.948ZM226.942 45.3282C226.303 44.0518 222.255 43.5048 221.872 40.2774C221.435 36.5029 225.829 36.3753 227.343 38.0711C227.47 38.1987 228.364 39.4021 228.473 39.548C229.421 40.8244 230.297 40.8609 230.588 39.0375C231.008 35.6459 229.968 28.8629 233.925 29.574C236.753 30.4608 239.659 31.0715 242.605 31.3974C248.202 31.908 252.651 31.3974 256.262 27.3859C256.663 27.2948 257.994 27.2401 258.468 27.2036C258.634 29.1317 258.683 31.068 258.614 33.002C258.738 38.8552 257.723 44.6767 255.624 50.142C252.724 57.0891 248.713 58.7667 248.713 58.7667C248.62 58.8022 248.535 58.856 248.463 58.9249C248.391 58.9938 248.333 59.0764 248.294 59.1678C248.129 59.5872 248.075 59.1678 251.503 66.8443C252.232 73.4633 232.631 76.1619 230.096 65.7685L230.716 60.4624C230.789 60.0795 228.619 48.738 226.887 45.3282H226.942ZM186.827 78.1494C192.592 83.8739 196.565 91.1542 198.259 99.1003C199.335 104.571 198.879 109.165 197.092 112.32C195.922 114.346 194.46 116.189 192.753 117.79C190.964 119.619 188.781 121.016 186.371 121.875C181.309 123.731 175.877 124.356 170.526 123.698C163.408 122.798 156.381 121.292 149.52 119.194C149.52 118.647 149.411 118.064 149.356 117.371L155.647 115.073C156.851 114.738 158.018 114.28 159.129 113.706C159.767 113.378 159.822 112.411 159.895 111.591C160.205 108.6 159.585 109.001 160.497 108.272C162.539 106.667 168.155 105.099 170.598 104.406C171.419 104.188 172.604 104.005 172.24 103.221C172.124 102.101 171.665 101.044 170.927 100.194C167.079 83.8931 167.736 83.9478 167.116 84.0572C167.074 84.0611 167.033 84.0742 166.996 84.0955C166.959 84.1167 166.928 84.1457 166.904 84.1804C166.879 84.2151 166.863 84.2547 166.855 84.2964C166.848 84.3381 166.85 84.381 166.86 84.4219C167.681 89.2722 168.903 95.5447 169.778 99.775L167.517 99.4467C167.134 99.4467 166.751 99.4468 166.66 99.2644C165.931 97.751 166.241 95.9641 164.49 95.0888C164.308 94.9661 164.102 94.883 163.885 94.845C163.669 94.807 163.447 94.8148 163.234 94.8681C163.021 94.9214 162.821 95.0189 162.648 95.1543C162.475 95.2897 162.332 95.46 162.229 95.6541C161.281 97.4775 162.43 101.562 162.229 101.507C161.258 101.905 160.241 102.181 159.202 102.328C159.16 102.161 159.085 102.004 158.982 101.866C158.879 101.728 158.749 101.612 158.6 101.525C154.901 99.7174 151.051 98.2348 147.095 97.0946C146.238 89.9104 145.107 80.8663 144.706 77.8394C144.846 77.7744 144.975 77.6883 145.089 77.5842C145.732 76.315 146.205 74.9661 146.493 73.5727C146.803 73.9191 147.058 74.2473 147.624 74.0285C152.57 70.4336 157.245 66.4782 161.609 62.1947C170.859 66.0125 179.388 71.3839 186.827 78.0765V78.1494ZM163.742 96.5475C165.055 97.2951 164.344 99.5197 165.821 100.632C167.301 101.066 168.838 101.275 170.38 101.252C170.741 101.853 170.971 102.524 171.054 103.221C169.632 103.659 162.721 105.19 159.84 107.178C159.781 105.802 159.629 104.431 159.385 103.075C160.88 102.948 162.758 103.075 163.305 102.109C163.852 101.143 162.922 96.0552 163.742 96.5475ZM160.223 61.9029C156.959 64.7292 149.648 70.7829 147.459 72.3875C146.365 71.1658 143.503 67.7743 142.7 66.5344C144.524 64.9662 151.27 60.4077 152.255 59.8607C154.979 60.1842 157.654 60.8331 160.223 61.7935V61.9029ZM131.505 59.7331L140.403 66.5891C139.054 68.0295 135.753 70.8923 134.276 72.3875C132.198 70.8923 126.527 64.8933 123.336 61.5747C126.015 60.7811 128.744 60.1659 131.505 59.7331ZM126.545 35.5912C126.29 35.2266 126.253 35.336 124.393 34.3513C123.172 33.3485 121.695 32.5279 121.148 31.0327C121.148 29.7928 121.531 28.2612 122.825 28.3341C123.804 28.5596 124.712 29.0231 125.469 29.6834C126.297 29.9549 127.187 29.9732 128.025 29.7361C128.863 29.499 129.611 29.0172 130.174 28.3523C130.805 27.2144 130.994 25.8829 130.702 24.6144C131.902 24.507 133.013 23.9383 133.802 23.028C134.191 22.241 134.427 21.3869 134.495 20.5117C136.2 20.9963 138.022 20.8606 139.637 20.1288C140.741 19.6532 141.748 18.9796 142.609 18.1413C142.8 18.621 143.051 19.0744 143.357 19.4906C143.64 19.9242 144.036 20.2733 144.501 20.5011C144.966 20.7289 145.484 20.8271 146.001 20.7852C146.644 20.6831 147.263 20.4604 147.824 20.1288V20.8582C147.815 21.4174 147.928 21.972 148.155 22.4829C148.383 22.9938 148.72 23.4486 149.142 23.8153C149.565 24.1821 150.062 24.4518 150.6 24.6056C151.138 24.7594 151.703 24.7935 152.255 24.7055C152.244 24.8268 152.244 24.9489 152.255 25.0702C152.437 26.0548 152.054 29.027 153.422 29.3734C154.79 29.7199 154.042 26.3101 156.668 25.8907C157.139 25.7756 157.637 25.8293 158.073 26.0425C158.509 26.2556 158.857 26.6148 159.056 27.0577C159.567 28.6988 159.056 29.4281 158.199 31.051L157.634 31.6892C156.759 32.6373 155.811 33.6402 155.811 34.5519C155.865 37.341 155.337 40.1108 154.261 42.6843C153.334 45.2929 151.706 47.5957 149.556 49.3397C149.449 49.422 149.366 49.5311 149.315 49.656C149.264 49.7809 149.246 49.9171 149.265 50.0508L150.76 58.8214L141.315 65.2397C139.655 63.9634 141.862 65.8597 132.781 58.8396L133.766 50.3608C133.783 50.2052 133.754 50.0481 133.682 49.9088C133.611 49.7695 133.501 49.6541 133.365 49.5767C126.819 45.9117 127.329 36.8494 126.545 35.5912ZM105.394 70.0535C110.382 66.481 115.927 63.7578 121.804 61.9941C125.142 65.835 128.691 69.4874 132.435 72.9345C133.237 73.6274 134.258 74.4844 134.969 73.755C135.224 73.4633 135.607 73.0804 136.045 72.6427C136.5 74.225 137.036 75.783 137.65 77.3107C137.722 77.4458 137.821 77.5653 137.94 77.6623C138.059 77.7593 138.196 77.8319 138.342 77.8759C138.142 80.2281 137.65 86.9929 137.084 94.4871C131.299 93.2454 125.384 92.7188 119.47 92.919C119.47 92.4449 120.054 86.8288 120.072 86.6465C120.072 85.6618 120.072 84.3672 120.181 83.8567C120.203 83.7769 120.192 83.6917 120.151 83.6199C120.11 83.5481 120.042 83.4955 119.963 83.4738C119.883 83.452 119.798 83.4628 119.726 83.5039C119.654 83.5449 119.601 83.6128 119.58 83.6926C117.957 86.9929 118.249 89.3269 118.467 92.9737C114.389 93.1754 110.391 94.1856 106.706 95.9458C106.632 95.9845 106.575 96.0514 106.549 96.1317C106.524 96.2121 106.531 96.2994 106.57 96.3743C106.608 96.4493 106.675 96.5058 106.756 96.5314C106.836 96.5571 106.923 96.5498 106.998 96.5111C119.762 90.275 142.919 96.1829 155.227 101.489C156.086 101.841 156.92 102.249 157.725 102.711C158.287 105.586 158.459 108.524 158.236 111.445C158.236 112.265 158.236 112.466 156.777 113.031C155.738 113.45 154.498 113.742 153.732 114.034C151.234 114.964 148.827 115.857 146.438 116.769C132.954 121.097 119.176 124.448 105.211 126.798C100.671 126.798 94.6903 125.959 91.3534 122.823C76.9121 109.311 92.0099 79.2435 105.394 70.0535ZM37.0525 54.6093C35.3579 53.632 33.9105 52.2782 32.8223 50.6525C29.9778 46.2399 29.9413 39.0192 30.4154 33.8043C32.9628 33.0115 35.2785 31.6095 37.1619 29.7199C39.2005 27.6366 40.9819 25.3165 42.468 22.8092L43.4892 20.8399C45.3377 25.5682 48.5013 29.6683 52.6062 32.6556C54.0334 33.3089 55.5774 33.6686 57.1464 33.7131C57.1107 35.1432 57.2639 36.5717 57.6023 37.9617C57.6387 38.0353 57.6898 38.1007 57.7524 38.1538C57.815 38.207 57.8879 38.2467 57.9665 38.2706C58.0451 38.2945 58.1277 38.3021 58.2093 38.2929C58.2909 38.2836 58.3698 38.2578 58.441 38.2169C59.2433 37.7793 59.5533 35.4271 60.7932 33.8043C61.1214 33.3485 61.5044 33.002 61.9784 33.1114C62.4785 33.188 62.9533 33.3817 63.3642 33.6767C65.1876 35.026 63.7289 40.4233 60.3191 42.1008C59.298 42.6113 53.9737 48.8109 53.6273 50.7619C53.3991 51.8336 53.4557 52.9464 53.7914 53.9894C53.9008 55.5757 54.0831 57.6362 54.2108 59.4596C50.8375 59.4596 42.6139 59.4596 39.2406 59.6237C39.4047 55.1199 39.4959 55.594 37.0525 54.6093ZM71.1137 254.801H57.347C59.4439 228.835 61.9967 165.162 61.4497 142.607C63.8809 142.497 66.0689 142.351 68.0139 142.169C72.1712 163.667 74.487 233.777 71.1137 254.801ZM25.5287 253.141C23.5594 231.388 25.5287 160.786 30.7436 141.914C31.6553 142.041 38.1831 142.625 38.1831 142.625C35.4115 164.907 32.567 228.854 33.5516 253.852C30.5977 253.634 27.8991 253.36 25.4192 253.141H25.5287ZM45.6955 141.294L38.8395 141.02C38.8236 139.055 38.9638 137.092 39.2589 135.149L41.7205 134.967L47.0448 134.839C46.7825 137.026 46.3311 139.185 45.6955 141.294ZM24.5805 135.295L37.7819 135.04C37.4122 137.048 37.2412 139.088 37.2714 141.13C32.3176 141.09 27.3787 140.583 22.52 139.616C23.8694 136.662 24.4346 135.66 24.5805 135.295ZM39.4412 254.181C38.8395 231.425 42.541 161.807 44.9114 142.716C47.4095 142.716 49.2693 142.844 54.4478 142.716C54.4478 151.359 51.8586 243.915 51.2568 254.582C48.1388 254.582 40.2435 254.235 39.4412 254.181ZM47.0995 141.312C47.5469 139.184 47.767 137.014 47.7559 134.839C59.7357 134.62 71.4601 134.328 76.748 135.04C77.4684 136.31 78.0784 137.64 78.5714 139.015C68.2692 141.221 56.7088 141.312 47.0995 141.312ZM12.7648 250.625C9.61036 248.619 8.58926 192.021 12.4549 169.447C14.421 159.343 17.6877 149.537 22.1736 140.273L24.0882 140.674C18.9826 159.108 16.9404 226.1 19.475 252.284C17.1724 252.043 14.9143 251.485 12.7648 250.625ZM39.1495 332.678C34.0804 333.371 31.3453 333.772 29.3578 334.21C28.2173 334.317 27.0768 334.006 26.1486 333.334C27.6438 332.441 27.972 332.569 27.972 331.712C28.1361 328.174 24.5258 261.511 24.0882 254.454C32.4029 255.402 42.7963 255.913 51.111 256.15C48.2847 273.545 40.4441 323.762 39.0948 332.733L39.1495 332.678ZM79.9572 328.922C75.3257 330.216 72.4265 331.055 70.4755 331.785C69.359 332.049 68.1841 331.893 67.1751 331.347C68.488 330.308 68.7615 330.381 68.6886 329.524C68.3603 325.877 55.5054 259.924 54.776 256.259C65.0965 256.478 74.8334 256.369 81.1606 255.931C80.7412 276.408 80.0119 320.571 79.9025 328.977L79.9572 328.922ZM84.5886 155.316C90.6788 176.887 91.2987 242.839 87.1961 253.433C85.6644 254.199 78.7902 254.491 77.1127 254.563C80.7595 231.862 78.9361 163.393 74.7605 141.276C76.4745 141.002 78.0061 140.71 79.4284 140.4C81.4524 145.925 84.1145 153.875 84.5339 155.37L84.5886 155.316ZM71.7154 102.018C70.9313 101.307 70.1655 100.668 69.5091 99.9755C69.4583 99.9102 69.3837 99.8678 69.3016 99.8576C69.2195 99.8473 69.1368 99.87 69.0715 99.9208C69.0062 99.9716 68.9637 100.046 68.9535 100.128C68.9432 100.21 68.966 100.293 69.0168 100.358C72.1348 105.464 76.4562 107.926 78.772 110.022C78.1885 112.247 77.5868 125.576 76.9486 133.471C72.1348 132.359 46.9901 133.672 38.5477 133.672C38.3554 133.675 38.1718 133.753 38.0372 133.891C31.4 134.201 26.1668 134.511 24.7081 134.602C23.8329 132.56 22.7388 129.259 22.0642 127.162C25.0211 127.693 28.051 127.669 30.9989 127.09C31.0495 128.198 31.2901 129.29 31.71 130.317C32.6217 131.119 62.9631 128.949 63.9295 128.749C64.5859 128.603 64.6041 127.691 64.6588 126.925C64.8229 125.102 64.9324 121.091 65.0053 116.386C65.2875 116.274 65.5419 116.101 65.7508 115.88C65.9597 115.66 66.1183 115.397 66.2154 115.109C66.3125 114.821 66.3459 114.515 66.3133 114.213C66.2806 113.911 66.1827 113.62 66.0264 113.359C66.2397 113.088 66.3952 112.775 66.4835 112.442C66.5717 112.108 66.5908 111.759 66.5396 111.418C66.4883 111.076 66.3679 110.749 66.1856 110.456C66.0033 110.162 65.7629 109.91 65.4794 109.713C65.7151 109.483 65.8944 109.201 66.0034 108.891C66.1123 108.58 66.1478 108.248 66.1072 107.922C66.0666 107.595 65.9509 107.282 65.7692 107.008C65.5876 106.733 65.3448 106.504 65.06 106.339C65.06 99.7567 65.06 93.3384 64.8229 89.7463C64.7135 86.7923 64.6224 86.4641 64.1665 86.0994C63.2731 85.5524 59.4257 85.7712 57.6934 85.8442C57.7174 85.0709 57.5077 84.3084 57.0917 83.6561C56.253 82.8356 52.5515 83.6561 50.3998 83.6561C49.9258 82.1427 49.6887 81.0122 48.0112 80.2281C47.1854 79.9364 46.2808 79.9614 45.4725 80.2982C44.6641 80.6351 44.0094 81.2598 43.635 82.0515C43.635 82.2338 43.1062 83.729 42.9968 84.2214C41.0402 84.3694 39.0927 84.6189 37.1619 84.9689C36.4691 85.1878 36.4144 86.6465 36.3961 87.6676C29.449 88.3969 28.9931 88.3969 28.8655 89.1081C28.7378 89.8192 29.2484 101.416 29.2849 102.382C27.58 102.599 25.8923 102.934 24.234 103.385C24.5791 101.121 24.7861 98.8372 24.854 96.5475C24.854 95.5447 24.9452 91.2597 24.3434 91.2414C23.7417 91.2232 23.377 95.4353 23.3223 96.274C23.2129 97.5504 23.0488 102.309 23.14 103.732C22.3742 103.969 21.6448 104.224 20.8972 104.516C20.8198 104.545 20.7572 104.603 20.723 104.679C20.6888 104.754 20.6859 104.84 20.7149 104.917C20.7439 104.994 20.8025 105.057 20.8777 105.091C20.9529 105.125 21.0386 105.128 21.116 105.099C31.4182 101.544 45.3673 103.531 53.0073 107.36L53.3537 115.037C46.753 119.65 36.2502 125.357 28.2273 126.378C25.8612 126.652 23.4689 126.603 21.116 126.233C7.29464 124.446 0.165143 114.545 1.16801 100.322C1.95208 89.2539 5.47124 78.5506 13.9683 71.4575C19.4385 66.9173 29.8866 65.3674 36.9978 65.9873C38.8212 66.1332 37.8366 62.1947 38.3107 60.7724C39.0036 60.663 41.2099 60.6265 41.9575 60.6083C41.867 61.8648 41.867 63.1262 41.9575 64.3827C41.9575 64.9115 42.3404 66.899 42.8145 66.7532C43.2886 66.6073 43.4709 65.0574 43.4892 64.6198C43.5074 64.1822 43.4892 64.1275 43.325 60.6083H49.397C49.3236 61.8228 49.3236 63.0406 49.397 64.2551C49.397 64.7839 49.7799 66.7714 50.254 66.6255C50.7281 66.4797 50.9104 64.9298 50.9286 64.4921C50.9469 64.0545 50.9286 63.1428 50.7645 60.6448H55.2136C55.3961 61.2358 55.4943 61.8497 55.5054 62.4682C55.5054 64.5833 55.1407 64.8933 55.5054 65.3127C56.49 66.4249 65.4247 62.0123 91.554 83.7655C86.6855 91.9708 82.8382 102.711 84.2604 112.174C80.0119 109.311 80.8324 110.205 71.7154 102.018ZM30.5977 102.182C30.4154 96.0735 30.2695 90.4939 30.2695 89.8192C31.71 89.6004 34.9739 89.2722 36.4144 89.1263C36.4144 91.8067 36.5238 91.989 38.2378 92.1714C41.5016 92.5543 55.8883 92.1714 57.4017 90.8768C57.539 90.7656 57.6457 90.6212 57.7117 90.4574C57.8273 89.4527 57.8517 88.4396 57.7846 87.4305C59.5641 87.3301 61.3477 87.3301 63.1272 87.4305C63.4736 90.6762 63.5101 102.656 63.5101 105.92C62.8254 105.926 62.1447 106.024 61.4861 106.212C61.7414 104.716 62.1243 102.291 60.6109 101.963C60.2058 101.847 59.7756 101.853 59.3736 101.979C58.9717 102.106 58.6157 102.347 58.3499 102.674C57.5602 103.892 57.0956 105.292 57.0006 106.74C56.1657 106.743 55.3314 106.694 54.5025 106.594C54.4743 106.496 54.4256 106.404 54.3597 106.326C54.2937 106.247 54.2119 106.183 54.1196 106.139C46.7759 102.735 38.6469 101.387 30.5977 102.237V102.182ZM64.8776 112.265C64.1665 112.685 63.7107 112.393 62.4343 112.557C62.236 112.557 62.0459 112.636 61.9057 112.776C61.7655 112.916 61.6867 113.106 61.6867 113.305C61.6867 113.503 61.7655 113.693 61.9057 113.833C62.0459 113.973 62.236 114.052 62.4343 114.052C63.0405 114.114 63.6515 114.114 64.2577 114.052C64.4036 114.052 64.9324 114.162 64.9324 114.307C64.9324 115.967 61.6685 115.329 60.228 114.49C58.4434 114.38 56.6528 114.553 54.9219 115L54.5572 107.488C55.5493 107.754 56.5839 107.822 57.6023 107.689C57.7433 107.61 57.848 107.479 57.894 107.324C58.3134 105.792 58.6598 102.966 60.2644 103.367C60.3587 104.515 60.2413 105.671 59.918 106.777C59.7357 107.907 60.1733 108.163 61.0303 108.09C61.7962 107.746 62.6175 107.542 63.4554 107.488C63.9295 107.488 64.4036 107.488 64.5494 108.035C64.6953 108.582 64.2212 108.783 63.7654 108.947C63.3095 109.111 61.5226 109.366 61.3402 109.403C61.16 109.459 61.0063 109.579 60.9075 109.74C60.8087 109.901 60.7713 110.093 60.8024 110.279C60.8335 110.466 60.9308 110.635 61.0766 110.755C61.2223 110.875 61.4066 110.939 61.5955 110.934C63.8018 110.697 63.4189 110.588 64.0753 110.734C64.3613 110.801 64.6153 110.964 64.7947 111.197C64.974 111.429 65.0677 111.716 65.06 112.01C65.0631 112.074 65.0474 112.137 65.0151 112.192C64.9827 112.247 64.9349 112.292 64.8776 112.32V112.265ZM54.8307 115.748C56.4388 115.535 58.0589 115.426 59.681 115.42C60.8192 116.138 62.1283 116.541 63.4736 116.587C63.4736 119.851 63.4736 125.704 63.2548 127.418C59.2798 127.837 36.1044 130.098 32.1294 129.733C31.9189 128.797 31.7787 127.846 31.71 126.889C41.7752 124.81 54.3202 116.769 54.8307 115.803V115.748ZM120.473 339.133C118.395 339.268 116.308 339.158 114.255 338.805V337.893C114.234 337.674 114.13 337.472 113.964 337.328C113.471 336.945 113.854 337.218 101.09 338.841L96.9148 339.315C96.5137 339.315 96.0578 339.516 96.0578 339.315C95.0732 339.06 93.6327 337.328 94.2344 336.689C97.6418 333.955 101.237 331.463 104.992 329.232C110.663 329.906 117.446 330.38 121.64 330.508C121.455 333.424 121.071 336.324 120.491 339.188L120.473 339.133ZM182.086 328.63C183.782 328.63 185.477 328.539 187.1 328.448C189.562 329.961 197.694 334.975 199.7 337.036C200.028 337.382 199.7 338.057 199.408 338.44C198.241 340.045 197.348 339.643 197.02 339.607C193.92 339.352 183.654 337.911 180.609 337.474C180.503 337.458 180.395 337.465 180.292 337.493C180.189 337.521 180.092 337.569 180.009 337.636C179.925 337.703 179.856 337.786 179.805 337.88C179.755 337.974 179.724 338.078 179.715 338.185V339.096C177.671 339.466 175.589 339.583 173.516 339.443C172.779 335.892 172.4 332.275 172.385 328.648C172.349 328.119 171.802 328.867 182.104 328.685L182.086 328.63ZM173.224 144.685C163.87 144.685 119.379 145.798 111.794 146.655C111.611 143.555 109.496 130.809 108.986 127.746C117.786 126.231 126.502 124.26 135.097 121.838C134.883 123.078 134.827 124.34 134.933 125.594C137.131 128.248 139.572 130.69 142.226 132.888C142.364 132.996 142.528 133.065 142.701 133.088C142.874 133.11 143.051 133.085 143.211 133.016C145.818 130.839 148.054 128.252 149.83 125.357C149.906 123.849 149.802 122.337 149.52 120.853C154.589 122.677 168.337 125.558 175.23 125.448C174.902 129.223 173.516 142.753 173.224 144.685ZM192.552 161.515C197.22 129.369 201.578 118.72 201.669 116.35C204.558 115.093 207.249 113.423 209.656 111.39C210.602 110.55 211.491 109.649 212.318 108.691C212.628 108.4 212.208 107.944 211.917 108.217C211.625 108.491 210.914 108.874 210.403 109.202C204.204 113.359 202.781 114.873 195.506 117.462C197.095 115.892 198.3 113.977 199.025 111.864C202.216 101.088 197.822 89.9833 190.838 81.2492C199.166 76.1051 208.024 71.8746 217.259 68.6313C220.901 67.4104 224.632 66.4716 228.419 65.8232C228.555 66.6212 228.807 67.3951 229.166 68.1207C232.084 86.0447 226.322 138.212 222.894 155.535C220.906 165.6 217.113 180.278 212.755 189.669C212.465 190.365 212.117 191.036 211.716 191.674C209.419 192.44 193.3 191.091 190.802 190.854C188.942 187.481 192.023 165.417 192.589 161.515H192.552ZM269.682 329.268H255.842C255.842 328.721 245.558 255.986 245.267 254.983C246.434 247.489 254.384 207.283 254.11 197.236C254.11 197.154 254.078 197.075 254.019 197.017C253.961 196.958 253.882 196.926 253.8 196.926C253.718 196.926 253.639 196.958 253.581 197.017C253.523 197.075 253.49 197.154 253.49 197.236C253.49 198.293 253.162 200.336 252.724 203.052C245.96 245.282 240.763 269.607 229.13 328.028L215.053 327.882C205.827 269.534 201.305 241.234 201.067 193.279C203 193.388 211.023 193.899 212.573 193.115C213.12 192.841 213.685 191.62 214.032 190.909C216.769 184.66 219.025 178.21 220.778 171.617C233.269 172.31 265.361 173.805 270.885 174.097C273.238 185.183 273.402 185.821 274.058 186.058C276.144 186.59 278.274 186.926 280.422 187.061C280.568 224.022 278.635 293.293 269.719 329.177L269.682 329.268ZM338.971 50.9443C336.455 56.8339 331.094 86.3 306.551 103.513C301.756 106.868 293.022 108.071 287.187 108.236C286.923 105.368 286.373 102.533 285.546 99.775C285.181 98.6445 284.634 97.3134 284.306 96.5111C284.272 96.4444 284.216 96.3915 284.147 96.361C284.079 96.3305 284.002 96.3244 283.93 96.3435C283.857 96.3627 283.794 96.406 283.749 96.4664C283.705 96.5267 283.682 96.6004 283.686 96.6752C284.689 104.662 284.853 101.835 285.947 109.056C285.947 109.056 288.955 129.423 289.065 130.426C290.469 143.19 291.362 180.643 289.94 185.84C284.905 185.958 279.871 185.567 274.915 184.673C272.964 178.163 253.873 83.6014 253.454 67.6284C258.286 68.5036 276.921 75.2137 292.529 75.7061C306.46 76.1254 327.411 46.5316 327.593 46.5316C329.034 46.2764 336.984 49.6497 338.99 50.8531L338.971 50.9443ZM345.08 37.6517C344.934 40.0039 342.199 41.5902 340.175 42.8301C339.464 43.286 337.859 48.7015 337.658 49.4673C335.138 48.29 332.55 47.2611 329.909 46.3858C331.732 43.6142 333.319 42.1555 332.626 41.4991C331.368 40.3503 328.979 38.8004 330.219 37.5058C330.372 37.5391 330.519 37.5944 330.657 37.6699C332.389 38.4904 333.775 40.715 334.522 39.3474C334.856 37.7405 335.314 36.1617 335.89 34.6248C336.856 32.3821 337.458 32.8014 337.221 34.9895C337.014 36.4851 336.641 37.9529 336.109 39.3657C336.046 39.564 336.064 39.7791 336.16 39.9637C336.256 40.1484 336.421 40.2875 336.619 40.3503C336.817 40.4132 337.033 40.3947 337.217 40.299C337.402 40.2032 337.541 40.038 337.604 39.8398C338.059 38.2263 338.74 36.6854 339.628 35.263C340.521 33.9502 341.597 33.622 341.561 34.5154C341.277 36.1172 340.655 37.6401 339.737 38.9828C339.502 39.3103 339.358 39.6939 339.318 40.095C339.288 40.2654 339.319 40.4406 339.404 40.5911C339.489 40.7415 339.623 40.8578 339.785 40.9201C339.946 40.9825 340.124 40.987 340.288 40.933C340.452 40.879 340.593 40.7697 340.685 40.6238C341.234 39.8582 341.843 39.1386 342.509 38.4722C343.585 37.4146 345.153 36.6853 345.098 37.5605L345.08 37.6517Z" fill="#100031"/>
<path d="M139.729 39.0747C140.476 40.7704 144.561 39.7129 143.758 38.8559C143.7 38.798 143.622 38.7655 143.54 38.7655C143.458 38.7655 143.379 38.798 143.321 38.8559C143.078 38.934 142.816 38.934 142.573 38.8559C142.076 38.7845 141.591 38.6433 141.133 38.4365V31.5805C141.115 31.5089 141.075 31.4451 141.017 31.3995C140.959 31.3539 140.887 31.3291 140.814 31.3291C140.74 31.3291 140.668 31.3539 140.61 31.3995C140.553 31.4451 140.512 31.5089 140.494 31.5805C139.84 33.5722 139.562 35.6683 139.674 37.7618C139.628 38.1998 139.647 38.6421 139.729 39.0747ZM134.441 34.5526C134.441 34.0603 134.441 33.5315 134.331 33.0757C134.296 32.8723 134.183 32.6906 134.016 32.5683C133.85 32.446 133.643 32.3927 133.438 32.4193C133.334 32.4347 133.235 32.4708 133.145 32.5253C133.056 32.5798 132.978 32.6516 132.917 32.7366C132.856 32.8216 132.813 32.918 132.789 33.02C132.766 33.1221 132.763 33.2278 132.781 33.331C132.781 33.6592 132.781 34.0421 132.873 34.662C132.88 34.765 132.907 34.8655 132.953 34.9579C132.999 35.0503 133.063 35.1327 133.141 35.2004C133.219 35.2682 133.309 35.3199 133.407 35.3527C133.505 35.3854 133.608 35.3986 133.711 35.3914C133.814 35.3842 133.915 35.3568 134.007 35.3108C134.1 35.2647 134.182 35.201 134.25 35.1231C134.318 35.0452 134.369 34.9547 134.402 34.8569C134.435 34.759 134.448 34.6556 134.441 34.5526ZM146.749 34.425C146.749 34.6329 146.831 34.8324 146.978 34.9794C147.125 35.1265 147.325 35.2091 147.533 35.2091C147.741 35.2091 147.94 35.1265 148.087 34.9794C148.234 34.8324 148.317 34.6329 148.317 34.425V33.6045C148.421 33.4564 148.472 33.2775 148.462 33.0966C148.452 32.9158 148.381 32.7438 148.26 32.6085C148.14 32.4732 147.977 32.3827 147.799 32.3517C147.62 32.3206 147.437 32.3509 147.277 32.4375C146.566 32.8933 146.749 33.805 146.749 34.425ZM143.065 45.6936C142.41 46.0587 141.72 46.3579 141.005 46.5871C140.604 46.5871 140.513 47.1523 141.005 47.207C141.468 47.4397 141.982 47.5526 142.5 47.5353C143.029 47.4727 143.537 47.2908 143.986 47.0034C144.434 46.716 144.812 46.3305 145.089 45.876C145.315 45.3922 145.409 44.8577 145.363 44.3261C145.38 44.2439 145.363 44.1583 145.317 44.0882C145.271 44.0181 145.199 43.9692 145.117 43.9523C145.035 43.9353 144.949 43.9518 144.879 43.9979C144.809 44.0441 144.76 44.1162 144.743 44.1984C144.245 44.7617 143.682 45.2636 143.065 45.6936ZM244.848 46.9335C246.233 47.3712 248.495 47.6629 249.461 46.5689C250.427 45.4748 249.899 42.6303 249.789 41.4269C249.562 39.0636 249.047 36.7369 248.257 34.4979C248.241 34.4157 248.192 34.3436 248.122 34.2974C248.051 34.2513 247.966 34.2349 247.884 34.2518C247.801 34.2687 247.729 34.3176 247.683 34.3877C247.637 34.4578 247.621 34.5434 247.638 34.6256C247.638 35.1908 247.893 37.9806 247.947 38.6918C248.296 41.0144 248.419 43.3655 248.312 45.7119C247.903 45.9885 247.435 46.1635 246.945 46.2224C245.121 46.5324 244.702 46.0948 244.611 46.5689C244.6 46.6085 244.598 46.6499 244.604 46.6905C244.61 46.731 244.625 46.7698 244.648 46.8042C244.67 46.8386 244.699 46.8679 244.734 46.8902C244.768 46.9125 244.807 46.9273 244.848 46.9335ZM241.766 34.9173C241.766 34.3338 240.089 34.0421 238.995 34.2791C237.901 34.5162 236.405 35.6649 236.825 36.1025C237.244 36.5401 241.693 35.4461 241.766 34.9173ZM240.563 39.2752V40.8434C240.563 41.0513 240.645 41.2507 240.792 41.3978C240.939 41.5448 241.139 41.6274 241.347 41.6274C241.555 41.6274 241.754 41.5448 241.901 41.3978C242.048 41.2507 242.131 41.0513 242.131 40.8434V39.33C242.136 39.1202 242.058 38.9169 241.915 38.7635C241.772 38.6101 241.575 38.5189 241.365 38.5094C241.158 38.5092 240.96 38.5887 240.81 38.7314C240.661 38.874 240.572 39.0688 240.563 39.2752ZM256.116 35.6649C256.262 35.4461 255.679 34.2791 254.293 33.8415C252.907 33.4039 251.85 34.0968 251.85 34.425C251.85 34.7532 255.843 36.0661 256.116 35.6649ZM239.779 50.8356C239.359 50.9633 239.359 53.5889 241.857 54.3365C243.134 54.7012 244.866 54.5006 244.902 54.0448C244.939 53.5889 242.423 53.0419 241.602 52.4767C240.782 51.9114 240.125 50.7262 239.779 50.8356ZM253.618 38.1994C253.515 38.197 253.413 38.2149 253.317 38.2521C253.221 38.2893 253.133 38.345 253.058 38.4161C252.984 38.4872 252.924 38.5724 252.883 38.6666C252.841 38.7608 252.818 38.8623 252.816 38.9653V40.5152C252.845 40.7049 252.941 40.8779 253.086 41.003C253.232 41.1281 253.417 41.1968 253.609 41.1968C253.801 41.1968 253.987 41.1281 254.132 41.003C254.278 40.8779 254.373 40.7049 254.402 40.5152V39.0017C254.405 38.8972 254.386 38.7933 254.348 38.6961C254.31 38.5988 254.252 38.5102 254.179 38.4355C254.106 38.3607 254.019 38.3014 253.923 38.2608C253.826 38.2203 253.723 38.1994 253.618 38.1994Z" fill="#100031"/>
</svg>
